<?xml version="1.0" encoding="utf-8"?>
<!-- Generator: Adobe Illustrator 19.1.0, SVG Export Plug-In . SVG Version: 6.00 Build 0)  -->
<svg version="1.1" id="Layer_1" xmlns="http://www.w3.org/2000/svg" xmlns:xlink="http://www.w3.org/1999/xlink" x="0px" y="0px"
	 viewBox="0 0 66.5 66.5" style="enable-background:new 0 0 66.5 66.5;" xml:space="preserve">
<style type="text/css">
	.st0{fill:none;}
	.st1{fill:#5EA9DD;}
</style>
<g>
	<rect x="0" y="0" class="st0" width="66.5" height="66.5"/>
	<g>
		<path class="st1" d="M15.2,37.2l18.1-18.1l18.1,18.1c0.2,0.2,0.4,0.3,0.6,0.3s0.4-0.1,0.6-0.3c0.3-0.3,0.3-0.9,0-1.2L33.3,16.6
			L14,35.9c-0.3,0.3-0.3,0.9,0,1.2C14.3,37.5,14.9,37.5,15.2,37.2z"/>
		<path class="st1" d="M43.6,13.4c0.2,0,0.4-0.1,0.6-0.2c0.3-0.3,0.4-0.9,0-1.2c-2.9-3-6.8-4.6-11-4.6c-4.2,0-8.1,1.7-11,4.6
			c-0.3,0.3-0.3,0.9,0,1.2c0.3,0.3,0.9,0.3,1.2,0c2.6-2.7,6-4.1,9.7-4.1s7.1,1.5,9.7,4.1C43.1,13.3,43.4,13.4,43.6,13.4z"/>
		<path class="st1" d="M20.2,9.8c3.5-3.5,8.1-5.5,13.1-5.5c5,0,9.6,2,13.1,5.5c0.2,0.2,0.4,0.3,0.6,0.3c0.2,0,0.4-0.1,0.6-0.3
			c0.3-0.3,0.4-0.9,0-1.2c-3.8-3.9-8.9-6-14.3-6c-5.4,0-10.5,2.1-14.3,6c-0.3,0.3-0.3,0.9,0,1.2C19.3,10.2,19.9,10.2,20.2,9.8z"/>
		<path class="st1" d="M25.3,15.5c-0.3,0.3-0.3,0.9,0,1.2c0.3,0.3,0.9,0.3,1.2,0c1.8-1.8,4.1-2.9,6.7-2.9c2.5,0,4.9,1,6.7,2.9
			c0.2,0.2,0.4,0.3,0.6,0.3c0.2,0,0.4-0.1,0.6-0.2c0.3-0.3,0.4-0.9,0-1.2c-2.1-2.2-4.9-3.4-8-3.4S27.4,13.3,25.3,15.5z"/>
		<path class="st1" d="M39.7,41.1h1.6c0.2,0.2,0.5,0.3,0.8,0.3c0.7,0,1.2-0.5,1.2-1.2S42.9,39,42.2,39c-0.3,0-0.6,0.1-0.8,0.3h-1.6
			c-0.1-1.3-1.1-2.2-2.3-2.4v-1.6c0.2-0.2,0.3-0.5,0.3-0.8c0-0.7-0.5-1.2-1.2-1.2s-1.2,0.5-1.2,1.2c0,0.3,0.1,0.6,0.3,0.8v1.6h-1.4
			v-1.6c0.2-0.2,0.3-0.5,0.3-0.8c0-0.7-0.5-1.2-1.2-1.2c-0.7,0-1.2,0.5-1.2,1.2c0,0.3,0.1,0.6,0.3,0.8v1.6h-1.6v-1.6
			c0.2-0.2,0.3-0.5,0.3-0.8c0-0.7-0.5-1.2-1.2-1.2s-1.2,0.5-1.2,1.2c0,0.3,0.1,0.6,0.3,0.8V37c-1.3,0.1-2.2,1.1-2.3,2.4h-1.6
			c-0.2-0.2-0.5-0.3-0.8-0.3c-0.7,0-1.2,0.5-1.2,1.2s0.5,1.2,1.2,1.2c0.3,0,0.6-0.1,0.8-0.3h1.6v1.5h-1.6v0
			c-0.2-0.2-0.5-0.3-0.8-0.3c-0.7,0-1.2,0.5-1.2,1.2c0,0.7,0.5,1.2,1.2,1.2c0.3,0,0.6-0.1,0.9-0.4h1.6v1.5h-1.6
			c-0.2-0.2-0.5-0.3-0.8-0.3c-0.7,0-1.2,0.5-1.2,1.2s0.5,1.2,1.2,1.2c0.3,0,0.6-0.1,0.8-0.3h1.6c0.1,1.2,1.1,2.2,2.3,2.3v1.7
			c-0.2,0.2-0.3,0.5-0.3,0.8c0,0.7,0.5,1.2,1.2,1.2s1.2-0.5,1.2-1.2c0-0.3-0.1-0.6-0.3-0.8v-1.6h1.5v1.7h0c-0.2,0.2-0.3,0.5-0.3,0.8
			c0,0.7,0.5,1.2,1.2,1.2c0.7,0,1.2-0.5,1.2-1.2c0-0.3-0.1-0.6-0.4-0.9v-1.6h1.5v1.6c-0.2,0.2-0.3,0.5-0.3,0.8
			c0,0.7,0.5,1.2,1.2,1.2s1.2-0.5,1.2-1.2c0-0.3-0.1-0.6-0.3-0.8v-1.7c1.2-0.1,2.2-1.1,2.3-2.3h1.6c0.2,0.2,0.5,0.3,0.8,0.3
			c0.7,0,1.2-0.5,1.2-1.2s-0.5-1.2-1.2-1.2c-0.3,0-0.6,0.1-0.8,0.3h-1.6v-1.4h1.6c0.2,0.2,0.5,0.3,0.8,0.3c0.7,0,1.2-0.5,1.2-1.2
			c0-0.7-0.5-1.2-1.2-1.2c-0.3,0-0.6,0.1-0.8,0.3h-1.6V41.1z M38,47.3c0,0.5-0.4,0.8-0.8,0.8h-7.8c-0.5,0-0.8-0.4-0.8-0.8v-7.8
			c0-0.5,0.4-0.8,0.8-0.8h7.8c0.5,0,0.8,0.4,0.8,0.8V47.3z"/>
		<path class="st1" d="M62.2,53.9c-1.3,0-2.4,0.8-2.7,2H52h-2.5v-4.3h4.9c0.4,1.2,1.4,2,2.7,2c1.6,0,2.9-1.3,2.9-2.9
			s-1.3-2.9-2.9-2.9c-1.3,0-2.4,0.8-2.7,2h-4.9v-4.8h9.9c0.4,1.2,1.4,2,2.7,2c1.6,0,2.9-1.3,2.9-2.9s-1.3-2.9-2.9-2.9
			c-1.3,0-2.4,0.8-2.7,2h-9.9v-3.4c0-0.5-0.4-0.9-0.9-0.9s-0.9,0.4-0.9,0.9v16.8c0,1.6-1.3,2.9-3,2.9H21.9c-1.6,0-2.9-1.3-2.9-2.9
			V39.9c0-0.5-0.4-0.9-0.9-0.9s-0.9,0.4-0.9,0.9V44h-3.7l-3.4-3.8c0.3-0.5,0.5-1,0.5-1.6c0-1.6-1.3-2.9-2.9-2.9S4.9,37,4.9,38.6
			s1.3,2.9,2.9,2.9c0.3,0,0.7-0.1,1-0.2l2.4,2.7H7.3c-0.4-1.2-1.4-2-2.7-2c-1.6,0-2.9,1.3-2.9,2.9s1.3,2.9,2.9,2.9
			c1.3,0,2.4-0.8,2.7-2h5.4h4.5V50h-4.9c-0.4-1.2-1.4-2-2.7-2c-1.6,0-2.9,1.3-2.9,2.9s1.3,2.9,2.9,2.9c1.3,0,2.4-0.8,2.7-2h4.9v4.8
			H7.3c-0.4-1.2-1.4-2-2.7-2c-1.6,0-2.9,1.3-2.9,2.9s1.3,2.9,2.9,2.9c1.3,0,2.4-0.8,2.7-2h10.2c0.6,1.8,2.4,3.1,4.4,3.1h22.9
			c2.3,0,4.2-1.6,4.6-3.8h1.8l3.3,3.3c-0.2,0.4-0.3,0.8-0.3,1.3c0,1.6,1.3,2.9,2.9,2.9s2.9-1.3,2.9-2.9s-1.3-2.9-2.9-2.9
			c-0.5,0-1,0.1-1.4,0.4l-2.1-2h5.7c0.4,1.2,1.4,2,2.7,2c1.6,0,2.9-1.3,2.9-2.9S63.8,53.9,62.2,53.9z M57.2,49.6
			c0.6,0,1.1,0.5,1.1,1.1s-0.5,1.1-1.1,1.1S56,51.3,56,50.7S56.6,49.6,57.2,49.6z M62.2,43.1c0.6,0,1.1,0.5,1.1,1.1
			s-0.5,1.1-1.1,1.1S61,44.8,61,44.2S61.6,43.1,62.2,43.1z M6.7,38.6c0-0.6,0.5-1.1,1.1-1.1s1.1,0.5,1.1,1.1s-0.5,1.1-1.1,1.1
			S6.7,39.2,6.7,38.6z M4.6,46c-0.6,0-1.1-0.5-1.1-1.1s0.5-1.1,1.1-1.1s1.1,0.5,1.1,1.1S5.2,46,4.6,46z M9.6,52
			c-0.6,0-1.1-0.5-1.1-1.1s0.5-1.1,1.1-1.1s1.1,0.5,1.1,1.1S10.2,52,9.6,52z M4.6,58.5c-0.6,0-1.1-0.5-1.1-1.1s0.5-1.1,1.1-1.1
			s1.1,0.5,1.1,1.1S5.2,58.5,4.6,58.5z M57.2,61.1c0.6,0,1.1,0.5,1.1,1.1s-0.5,1.1-1.1,1.1S56,62.8,56,62.2S56.6,61.1,57.2,61.1z
			 M62.2,57.9c-0.6,0-1.1-0.5-1.1-1.1s0.5-1.1,1.1-1.1s1.1,0.5,1.1,1.1S62.8,57.9,62.2,57.9z"/>
	</g>
</g>
</svg>
