<?xml version="1.0" encoding="utf-8"?>
<!-- Generator: Adobe Illustrator 19.1.0, SVG Export Plug-In . SVG Version: 6.00 Build 0)  -->
<svg version="1.1" id="Layer_1" xmlns="http://www.w3.org/2000/svg" xmlns:xlink="http://www.w3.org/1999/xlink" x="0px" y="0px"
	 viewBox="0 0 66.5 66.5" style="enable-background:new 0 0 66.5 66.5;" xml:space="preserve">
<style type="text/css">
	.st0{fill:none;}
	.st1{fill:#60A9DD;}
</style>
<g>
	<rect x="0.1" y="0" class="st0" width="66.5" height="66.5"/>
	<g>
		<g>
			<path class="st1" d="M25.3,49.2c-6.4,0-12.6-2.5-17.1-7.1c-5-5-7.5-11.9-6.9-19c0.9-11.6,10.4-21.1,22-22
				C29.8,0.6,36.1,2.6,41,6.9l0.7,0.6L27.4,21.8c-1.2,1.2-3.1,1.2-4.2,0l-4.5-4.5c-0.5-0.5-1.3-0.5-1.8,0l-4.2,4.2
				c-0.5,0.5-0.5,1.3,0,1.8l12.2,12.2c0.5,0.5,1.3,0.5,1.8,0L47.2,15l0.5,1.2c1.5,3.7,2,7.6,1.5,11.6c-1.3,11.5-10.6,20.4-22.1,21.3
				C26.5,49.2,25.9,49.2,25.3,49.2z M25.3,2.8c-0.6,0-1.2,0-1.9,0.1C12.6,3.7,3.9,12.5,3,23.3c-0.5,6.5,1.8,13,6.4,17.6
				c4.6,4.6,11,7,17.5,6.5c10.7-0.8,19.3-9.1,20.5-19.7c0.4-3.3,0-6.4-1-9.5L27.9,36.7c-1.1,1.1-3.1,1.1-4.2,0L11.4,24.5
				c-1.2-1.2-1.2-3.1,0-4.2l4.2-4.2c1.1-1.1,3.1-1.1,4.2,0l4.5,4.5c0.5,0.5,1.3,0.5,1.8,0l13-13C35.1,4.4,30.3,2.8,25.3,2.8z"/>
		</g>
		<g>
			<path class="st1" d="M57.1,65.5c-2.3,0-4.4-0.9-6-2.5L34.5,46.6l-0.5-0.9l0.8-0.4c4.5-2.1,8.2-5.8,10.4-10.3
				c0-0.1,0.1-0.2,0.2-0.3c0.3-0.3,0.7-0.3,1.1-0.1c0.1,0,0.1,0.1,0.2,0.2L63.1,51c1.6,1.6,2.5,3.7,2.5,6c0,2.3-0.9,4.4-2.5,6
				C61.5,64.6,59.4,65.5,57.1,65.5z M36.7,46.3l15.6,15.5c1.3,1.3,3,2,4.8,2c1.8,0,3.5-0.7,4.8-2c1.3-1.3,2-3,2-4.8
				c0-1.8-0.7-3.5-2-4.8L46.3,36.8C44.1,40.8,40.7,44.1,36.7,46.3z"/>
		</g>
	</g>
</g>
</svg>
