<?xml version="1.0" encoding="utf-8"?>
<!-- Generator: Adobe Illustrator 19.1.0, SVG Export Plug-In . SVG Version: 6.00 Build 0)  -->
<svg version="1.1" id="Layer_1" xmlns="http://www.w3.org/2000/svg" xmlns:xlink="http://www.w3.org/1999/xlink" x="0px" y="0px"
	 viewBox="0 0 66.5 66.5" style="enable-background:new 0 0 66.5 66.5;" xml:space="preserve">
<style type="text/css">
	.st0{fill:none;}
	.st1{fill:#5EA9DD;}
</style>
<g>
	<rect x="-0.2" y="0" class="st0" width="66.5" height="66.5"/>
	<g>
		<g>
			<path class="st1" d="M33.6,57.6l-5-5c-0.3-0.3-0.3-0.9,0-1.2c0.3-0.3,0.9-0.3,1.2,0l3.7,3.7l3.7-3.7c0.3-0.3,0.9-0.3,1.2,0
				c0.3,0.3,0.3,0.9,0,1.2L33.6,57.6z"/>
		</g>
		<g>
			<g>
				<path class="st1" d="M42.3,47.4c-4.9,0-8.8-4-8.8-8.8c0-0.5,0.4-0.9,0.9-0.9s0.9,0.4,0.9,0.9c0,3.9,3.2,7.1,7.1,7.1l13.1-0.1
					c4.8,0,8.7-3.9,8.7-8.7c0-4.6-3.6-8.4-8.2-8.6l-0.5,0l-0.2-0.4c-1.5-2.5-3.9-4.3-6.7-5.2l-0.5-0.2l-0.1-0.6
					c-0.7-6.2-5.9-10.9-12.1-10.9c-4.8,0-9.2,2.8-11.2,7.3c-0.2,0.4-0.7,0.6-1.2,0.4c-0.4-0.2-0.6-0.7-0.4-1.2
					c2.3-5,7.3-8.3,12.8-8.3c6.9,0,12.8,5.1,13.8,11.9c2.8,1,5.2,2.9,6.9,5.4c5.3,0.5,9.4,5,9.4,10.3c0,5.7-4.7,10.4-10.4,10.4
					L42.3,47.4z"/>
			</g>
			<g>
				<path class="st1" d="M33.6,55.5c-0.5,0-0.9-0.4-0.9-0.9c0-4-3.3-7.3-7.3-7.3H11.9c-6.3,0-11.4-5.1-11.4-11.4s5.1-11.4,11.4-11.4
					c0.1,0,0.3,0,0.4,0C14,20,18.2,17.1,23,17.1c0.2,0,0.5,0,0.7,0c0.5,0,0.8,0.4,0.8,0.9c0,0.5-0.5,0.8-0.9,0.8c-0.2,0-0.4,0-0.6,0
					c-4.3,0-8,2.8-9.2,6.8l-0.2,0.7l-0.7-0.1c-0.3,0-0.6,0-1,0c-5.3,0-9.7,4.3-9.7,9.7s4.3,9.7,9.7,9.7h13.5c5,0,9,4.1,9,9
					C34.4,55.1,34,55.5,33.6,55.5z"/>
			</g>
			<g>
				<path class="st1" d="M38.7,41.8c-0.2,0-0.4-0.1-0.6-0.3l-3.7-3.7l-3.7,3.7c-0.3,0.3-0.9,0.3-1.2,0c-0.3-0.3-0.3-0.9,0-1.2l5-5
					l5,5c0.3,0.3,0.3,0.9,0,1.2C39.1,41.7,38.9,41.8,38.7,41.8z"/>
			</g>
		</g>
	</g>
</g>
</svg>
