<?xml version="1.0" encoding="utf-8"?>
<!-- Generator: Adobe Illustrator 19.1.0, SVG Export Plug-In . SVG Version: 6.00 Build 0)  -->
<svg version="1.1" id="Layer_1" xmlns="http://www.w3.org/2000/svg" xmlns:xlink="http://www.w3.org/1999/xlink" x="0px" y="0px"
	 viewBox="0 0 160 90" style="enable-background:new 0 0 160 90;" xml:space="preserve">
<style type="text/css">
	.st0{fill-rule:evenodd;clip-rule:evenodd;fill:#BBBBBB;}
</style>
<g>
	<g>
		<path class="st0" d="M85.6,21.6L85.6,21.6l0.1,0.1C85.7,21.7,85.7,21.7,85.6,21.6z"/>
		<polygon class="st0" points="85.5,21.6 85.5,21.6 85.5,21.6 		"/>
		<path class="st0" d="M85.5,21.7L85.5,21.7C85.5,21.7,85.5,21.7,85.5,21.7z"/>
		<polygon class="st0" points="85.6,21.8 85.5,21.6 85.5,21.6 85.6,21.7 		"/>
		<path class="st0" d="M85.6,21.8l0.1,0.1L85.6,21.8z"/>
		<path class="st0" d="M86.4,22.9c0,0-0.2-0.3-0.2-0.2c0,0.1,0.1,0.3,0.1,0.3c0,0.1-0.2-0.3-0.2-0.2c0,0.1,0.2,0.7,0.2,0.6
			c0.1-0.1,0.1-0.2,0.1-0.4l-0.1-0.5l0.1,0l-0.2-0.1C86.2,22.4,86.4,22.8,86.4,22.9z"/>
		<path class="st0" d="M86,21.6l0.1,0.1c-0.2-0.2-0.2-0.1-0.1,0l0.1,0.1C86.1,21.9,86,21.8,86,21.6c0.1,0.2,0.2,0.3,0.2,0.2
			C86.1,21.7,86.1,21.7,86,21.6z"/>
		<polygon class="st0" points="86.2,21.8 86.2,21.8 86.2,21.8 86.2,21.8 		"/>
		<path class="st0" d="M85.6,22.1l-0.2,0.1c0,0.1,0.1,0.2,0,0.1l-0.1-0.1l0,0v0v0l0.1,0.1l0.1,0.1l-0.1-0.1l-0.1-0.1l0,0
			c0,0,0,0,0,0v-0.1l0,0l-0.1,0l0,0c0,0.1,0,0.1-0.1-0.1l0,0l0,0l0,0l-0.1,0l0,0.2c0,0-0.1-0.1-0.1-0.2l0,0.2l0.2,0.3
			c0.1,0.2-0.1-0.4,0,0c-0.2-0.3,0,0.2,0,0l-0.2-0.3c0,0.1,0,0-0.1-0.2c0-0.2,0,0,0.1,0.2l0-0.2c0,0.1,0.1,0.2,0.1,0.2l0-0.2
			l-0.2-0.1c-0.4-0.2-0.6,0-0.9-0.2c-0.2-0.1-0.3-0.2-0.5-0.5c-0.3-0.4-0.5,0.1-0.8-0.9c-0.1-0.4-0.2-0.2-0.3-0.1
			c-0.2,0.7-0.3,2.4-0.3,2.4c0,1.5,0.1,0.7,0.3,1.5c-0.1-0.5,0.1-0.9,0.3,0.1c0.3,1.5,0.6,0.3,0.9,0.7c0.1,0.1,0.2,0,0.3,0
			c0.6,0.4,0.9-0.2,1.4-0.3c0.1,0,0.2-0.4,0.2-0.7c0.1-0.1,0.2,0.1,0.3,0c0.1,0,0.1-0.2,0.1-0.4l-0.2,0.3c-0.1,0-0.1-0.5-0.1-0.6
			c0-0.1,0.2,0.3,0.2,0.2c0,0,0-0.2,0-0.3c0-0.1,0.1,0.3,0.1,0.2c0-0.1-0.1-0.6-0.1-0.5l0.2,0.1l0.1,0l0-0.1l-0.2-0.4l0.1,0.1
			l-0.1-0.1l0.2,0.4c0-0.3-0.1-0.5-0.1-0.7l0,0c0,0.1-0.1,0.1-0.2-0.1c0.1,0.1,0.1,0.2,0.1,0.2l-0.1-0.2c0-0.1-0.1-0.2,0.1,0
			c0,0,0-0.1-0.1-0.1c0,0,0.1,0.1,0.2,0.2l0,0C85.8,22.3,85.6,22.1,85.6,22.1z"/>
		<path class="st0" d="M85.3,22.3L85.3,22.3L85.3,22.3C85.3,22.4,85.3,22.4,85.3,22.3z"/>
		<path class="st0" d="M58.6,24.1L58.6,24.1l0.1-0.1C58.7,24,58.7,24.1,58.6,24.1z"/>
		<polygon class="st0" points="58.7,24.2 58.7,24.2 58.8,24.2 		"/>
		<path class="st0" d="M58.9,24.1L58.9,24.1C58.8,24.2,58.8,24.2,58.9,24.1z"/>
		<polygon class="st0" points="58.8,24 58.8,24.2 58.8,24.2 58.8,24.1 		"/>
		<path class="st0" d="M58.8,24l0-0.1L58.8,24z"/>
		<path class="st0" d="M59.3,22.7c0,0-0.1,0.3-0.1,0.3c0.1-0.1,0.1-0.3,0.2-0.2c0-0.1-0.1,0.3,0,0.3c0.1-0.1,0.3-0.6,0.2-0.6
			l-0.2,0.2L59.1,23l0,0l0,0.2C59,23.3,59.3,22.8,59.3,22.7z"/>
		<path class="st0" d="M58.3,23.8c0,0,0.1-0.1,0.1-0.1c-0.1,0.3,0,0.2,0.1,0.1l0.1-0.2c0,0-0.1,0.1-0.1,0.2c0.1-0.2,0-0.3,0-0.3
			C58.4,23.6,58.3,23.7,58.3,23.8z"/>
		<polygon class="st0" points="58.4,23.5 58.4,23.5 58.4,23.5 58.4,23.5 		"/>
		<path class="st0" d="M59.2,23.9l0.4,0.2c0-0.1,0-0.2,0-0.1l0,0.1l0.1,0l0,0l0-0.2v-0.1v0.1l0,0.1l0.1,0c0,0,0,0-0.1,0l0,0.1l0,0
			l0.1,0.1l0,0c0-0.1,0.1-0.1,0.1,0.1l0,0v0l0,0l0.1,0.1l0.1-0.2c0,0,0,0.1,0,0.2c0-0.1,0-0.2,0-0.2l0-0.3c0-0.2-0.1,0.4-0.1,0
			c0,0.4,0.1-0.2,0.1,0l0,0.3c0-0.1,0.1,0,0.1,0.2c0,0.2-0.1,0-0.1-0.2c0,0,0,0.1,0,0.2c0-0.1,0-0.2,0-0.2L60,24.3l0.2,0.1
			c0.4,0.2,0.8,0.3,1.3,0.4c0.2,0.1,0.5,0.2,0.7,0.4c0.5,0.4,0.8-0.2,1.4,0.7c0.2,0.3,0.5,0.1,0.7,0c0.1-0.7-0.4-2.3-0.4-2.4
			c-0.4-1.4-0.4-0.6-0.8-1.4c0.3,0.4,0.1,0.9-0.3,0c-0.5-1.5-0.6-0.2-0.9-0.5c-0.1-0.1-0.1,0-0.2,0c-0.4-0.5-0.8,0.3-1.1,0.1
			c-0.1,0-0.2,0.4-0.3,0.6c-0.1,0.1-0.1-0.1-0.2-0.1c-0.1,0-0.2,0.1-0.2,0.3l0.2-0.2c0.1,0-0.1,0.5-0.1,0.6c0,0.1,0-0.3,0-0.3
			c0,0-0.1,0.2-0.1,0.3c0,0.1,0-0.3,0-0.3c-0.1,0.1-0.2,0.6-0.2,0.5l0-0.2l0,0l0,0.1l-0.1,0.4l0-0.1l0,0.1l0.1-0.4
			c-0.1,0.2-0.2,0.4-0.3,0.5l0,0c0.1,0,0.1,0,0.1,0.3c0-0.1,0-0.2,0.1-0.2l0,0.2c-0.1,0.1-0.1,0.2-0.1-0.1c0,0,0,0.1-0.1,0.1
			c0-0.1,0-0.2,0.1-0.3l0,0C59.2,23.6,59.2,23.9,59.2,23.9z"/>
		<path class="st0" d="M59.7,24L59.7,24L59.7,24C59.8,23.9,59.8,24,59.7,24z"/>
		<path class="st0" d="M68.1,36.1l0-0.2L68,36C67.9,36.1,68,36.1,68.1,36.1z"/>
		<polygon class="st0" points="68,35.7 68,35.6 68,35.6 		"/>
		<path class="st0" d="M67.9,35.3l0.1,0.2C67.9,35.4,67.9,35.4,67.9,35.3z"/>
		<path class="st0" d="M67.8,35.6c0.1,0,0.1-0.1,0.2,0v0l-0.1-0.1L67.8,35.6z"/>
		<path class="st0" d="M67.8,35.6l-0.1,0.1L67.8,35.6z"/>
		<path class="st0" d="M66.4,35.8c0,0,0.3-0.1,0.2-0.2c-0.2-0.1-0.4-0.3-0.4-0.4c-0.1,0,0.3-0.3,0.2-0.3c-0.2-0.3-0.8-0.6-0.7-0.3
			c0.2,0.7,0.3,0.6,0.5,1l0.7,0.8c0,0.1,0,0.2,0,0.3l0.1-0.4C67.1,36.1,66.6,36.1,66.4,35.8z"/>
		<path class="st0" d="M68.3,37.1c0,0.1,0,0.2,0,0.2c-0.1-0.3,0.1-0.1-0.2-0.2L68,37.3c0.1,0.1,0.2,0,0.2-0.1
			c-0.2,0.3,0.2,0.4,0.3,0.2C68.4,37.3,68.3,37.2,68.3,37.1z"/>
		<polygon class="st0" points="68.6,37.3 68.5,37.3 68.5,37.4 68.6,37.3 		"/>
		<path class="st0" d="M67.3,34.5c-0.1-0.5-0.2-1-0.2-1.5c-0.1,0-0.2,0-0.1-0.1l0.1-0.1l0-0.2l0-0.1h0c0,0-0.1,0-0.2,0l-0.1,0.1
			l0.1-0.1l0.1-0.1l-0.1-0.2c0.1,0.1,0.1,0.1,0.1,0.2l0.1,0.1l0,0l0-0.5L67,31.9c-0.1-0.1-0.1-0.2,0-0.3l0-0.1l0,0l0,0l0-0.4
			l-0.3-0.2c0,0,0.1-0.1,0.2-0.1l-0.2-0.1l-0.3,0.2c-0.2,0.1,0.4,0.1,0.1,0.3c0.4-0.2-0.2-0.2-0.1-0.3l0.3-0.2
			c-0.1-0.1,0-0.3,0.1-0.4c0.2,0.1,0,0.3-0.1,0.4l0.2,0.1c-0.1,0-0.2,0.1-0.2,0.1l0.3,0.2l0-0.8c0-1.6-0.1-3.1-0.1-4.8
			c0-0.9,0.1-1.8,0.2-2.7c0.3-1.7-0.3-3.2,0.3-5.3c0.2-0.8-0.3-2.4-1.3-3.5c-2.1-1-1.9,1.4-2.1,1.3c-0.7,1.3,0,0.9-0.5,2.1
			c0.3-0.8,1.1,0.2,0.2,1.1c-1.3,1.1,0,2.2-0.3,3.6c-0.1,0.4,0,0.7,0.1,1c-0.3,1.9,0.5,3.6,0.6,5.7c0.1,0.5,0.5,1,0.7,1.4
			c0.1,0.3,0,0.7,0,1c0,0.4,0.3,0.8,0.5,1.1c-0.1-0.4-0.3-0.7-0.4-1.1c-0.1-0.3,0.5,0.1,0.7,0.3c0.1,0.1-0.3,0.3-0.2,0.3
			c0,0.2,0.2,0.3,0.4,0.5c0.1,0.1-0.3,0.1-0.2,0.2c0.1,0.3,0.7,0.4,0.6,0.5l-0.1,0.4l0,0.2l0.1,0.1l0.4-0.1L66.4,34l0.1-0.3L66,33.9
			l0.8,1l0,0c-0.1-0.2-0.1-0.5,0.1-0.7c-0.1,0.1-0.2,0.1-0.2,0l0.2-0.1c0.1,0.2,0.3,0.3,0,0.6c0,0,0.1,0.1,0.2,0.1
			c0,0.1-0.2,0.1-0.3,0.1L67,35C67.1,34.9,67.3,34.5,67.3,34.5z"/>
		<path class="st0" d="M66.9,32.4L66.9,32.4l0-0.3C66.8,32.1,66.9,32.2,66.9,32.4z"/>
		<path class="st0" d="M74.4,37.3l-0.1-0.2l-0.1,0.1C74.2,37.3,74.3,37.3,74.4,37.3z"/>
		<polygon class="st0" points="74.3,36.9 74.3,36.9 74.2,36.8 		"/>
		<path class="st0" d="M74.1,36.5l0.1,0.2C74.2,36.7,74.2,36.6,74.1,36.5z"/>
		<path class="st0" d="M74.1,36.9c0,0,0.1-0.1,0.2,0l0,0l-0.1-0.1L74.1,36.9z"/>
		<path class="st0" d="M74.1,36.9L74,37L74.1,36.9z"/>
		<path class="st0" d="M72.7,37.1c-0.1,0,0.3-0.1,0.2-0.2c-0.1-0.2-0.4-0.3-0.4-0.5c-0.1-0.1,0.3-0.3,0.2-0.4
			c-0.2-0.2-0.8-0.6-0.7-0.3c0.1,0.5,0.3,0.8,0.5,1.2c0.2,0.3,0.5,0.6,0.8,0.9l0.1,0.3l0-0.4C73.4,37.5,72.8,37.4,72.7,37.1z"/>
		<path class="st0" d="M75,38.8c-0.1,0-0.2,0-0.2,0c0.1-0.3-0.1-0.4-0.3-0.5l-0.1,0.2c0.1,0.1,0.2,0,0.2-0.1c-0.1,0.3,0,0.5,0.2,0.7
			C74.9,39,75,38.9,75,38.8z"/>
		<polygon class="st0" points="74.9,39.2 74.8,39.1 74.8,39.1 74.9,39.2 		"/>
		<path class="st0" d="M73.6,35.8c-0.1-0.5-0.1-1.1-0.1-1.6c-0.1,0-0.2-0.1-0.1-0.1l0.1-0.1l0-0.2l0-0.1h0c0,0-0.1,0-0.2,0l-0.1,0.1
			l0.1-0.1l0.1-0.1l0-0.2c0.1,0.1,0.1,0.1,0,0.2l0.1,0.1l0,0l0-0.5l0-0.1c-0.1-0.1-0.1-0.2,0.1-0.3l0-0.1l0,0l0,0l0-0.4L73.3,32
			c0,0,0.1-0.1,0.2-0.1c-0.1,0-0.2-0.1-0.2-0.1L73,32c-0.2,0.1,0.4,0.2,0,0.3c0.4-0.1-0.2-0.2,0-0.3l0.3-0.2c-0.1-0.1,0-0.3,0.2-0.4
			c0.2,0.2,0,0.3-0.2,0.4c0,0.1,0.1,0.1,0.2,0.1c-0.1,0-0.2,0.1-0.2,0.1l0.2,0.3l0.1-0.8c0.2-1.7,0.2-3.3,0.3-5
			c0.1-0.9,0.2-1.9,0.4-2.8c0.4-1.8-0.2-3.4,0.6-5.3c0.3-0.8-0.1-2.1-0.2-2.8c-0.8-0.8-2.4,0-2.5,0c-1.4,0.8-0.5,1.1-1.2,2.2
			c0.4-0.8,1,0.4,0.1,1.2c-1.5,1.1-0.1,2.4-0.5,3.7c-0.1,0.3,0,0.6,0,1c-0.4,1.9,0.3,3.9,0.2,5.8c0,0.5,0.4,1,0.6,1.5
			c0.1,0.3-0.1,0.7-0.1,1c0,0.4,0.2,0.8,0.4,1.2c-0.1-0.4-0.2-0.7-0.3-1.2c0-0.3,0.5,0.2,0.6,0.4c0.1,0.1-0.3,0.2-0.3,0.3
			c0,0.2,0.2,0.4,0.3,0.6c0.1,0.1-0.3,0.1-0.3,0.1c0.1,0.3,0.6,0.4,0.5,0.6l-0.1,0.4v0.2l0.1,0.1l0.4-0.1l-0.1,0.3l0.1-0.3L72.4,35
			l0.8,1.1l0,0c-0.1-0.2-0.1-0.4,0.1-0.7c-0.1,0.1-0.2,0.1-0.2,0l0.2-0.1c0.1,0.2,0.3,0.4,0,0.6c0,0,0.1,0.1,0.2,0.1
			c0,0.1-0.2,0.1-0.3,0.1l0.1,0.1C73.4,36.1,73.6,35.8,73.6,35.8z"/>
		<path class="st0" d="M73.4,33.5l0,0.1l0-0.4C73.3,33.3,73.3,33.4,73.4,33.5z"/>
		<path class="st0" d="M82.7,37.3l0-0.2l-0.1,0.2C82.6,37.3,82.7,37.3,82.7,37.3z"/>
		<polygon class="st0" points="82.6,36.8 82.6,36.8 82.6,36.8 		"/>
		<path class="st0" d="M82.5,36.4l0.1,0.2C82.5,36.6,82.5,36.5,82.5,36.4z"/>
		<path class="st0" d="M82.4,36.8c0.1,0,0.1-0.1,0.2,0l-0.1-0.1L82.4,36.8z"/>
		<path class="st0" d="M82.4,36.8l-0.1,0.1L82.4,36.8z"/>
		<path class="st0" d="M81,37c0,0,0.3-0.1,0.2-0.2c-0.1-0.2-0.4-0.3-0.4-0.6c-0.1-0.1,0.3-0.3,0.2-0.4c-0.2-0.2-0.8-0.7-0.7-0.4
			c0.1,0.5,0.3,0.8,0.5,1.2c0.2,0.3,0.5,0.6,0.8,1c0,0.1,0,0.2,0,0.3l0.1-0.4C81.8,37.4,81.2,37.3,81,37z"/>
		<path class="st0" d="M83.2,39.1C83.1,39,83,39,83,39c0.2-0.3,0-0.4-0.2-0.6l-0.1,0.2c0.1,0.1,0.2,0.1,0.2-0.1
			c-0.1,0.3,0,0.5,0.1,0.7C83,39.2,83.1,39.1,83.2,39.1z"/>
		<polygon class="st0" points="83,39.4 83,39.3 82.9,39.3 83,39.4 		"/>
		<path class="st0" d="M81.9,35.6c-0.1-0.6-0.1-1.1-0.1-1.7c-0.1,0-0.2-0.1-0.1-0.1l0.1-0.1l0-0.2l0-0.1l0,0c0,0-0.1,0-0.2,0
			l-0.1,0.1l0.1-0.1l0.1-0.1l0-0.2c0,0.1,0.1,0.2,0,0.2l0.1,0.1l0,0l0-0.5l0-0.1c-0.1-0.1-0.1-0.3,0.1-0.3l0-0.1l0,0l0,0l0-0.4
			l-0.2-0.3c0,0,0.1-0.1,0.2-0.1c-0.1,0-0.2-0.1-0.2-0.1l-0.3,0.2c-0.2,0.1,0.4,0.2,0,0.3c0.4-0.1-0.2-0.2,0-0.3l0.3-0.2
			c-0.1-0.1,0-0.3,0.2-0.4c0.2,0.2,0,0.3-0.2,0.4c0,0.1,0.1,0.1,0.2,0.1c-0.1,0-0.2,0.1-0.2,0.1l0.2,0.3L82,31
			c0.2-1.8,0.2-3.5,0.1-5.4c0-1,0.1-2,0.3-3c0.3-1.9-0.4-3.6,0.3-5.7c0.3-0.8-0.1-2.1-0.2-2.9c-0.8-0.9-2.4-0.1-2.5-0.1
			c-1.4,0.8-0.5,1.1-1.2,2.4c0.4-0.9,1,0.5,0.1,1.3c-1.4,1.3,0,2.6-0.2,4c-0.1,0.3,0,0.7,0,1.1c-0.4,2.1,0.5,4.1,0.4,6.1
			c0,0.6,0.4,1.1,0.6,1.6c0.1,0.4-0.1,0.8-0.1,1.1c0,0.5,0.2,0.9,0.4,1.3c-0.1-0.4-0.2-0.8-0.3-1.2c0-0.3,0.5,0.2,0.6,0.4
			c0.1,0.1-0.3,0.2-0.2,0.3c0,0.2,0.2,0.4,0.3,0.6c0.1,0.1-0.3,0.1-0.3,0.1c0.1,0.3,0.6,0.5,0.5,0.7l-0.1,0.4l0,0.2l0.1,0.1l0.4-0.1
			L81,34.9l0.1-0.3l-0.4,0.1l0.8,1.2l0,0c-0.1-0.2-0.1-0.5,0.1-0.7c-0.1,0.1-0.2,0.1-0.2,0l0.2-0.1c0.1,0.2,0.3,0.4,0,0.6
			c0,0,0.1,0.1,0.2,0.1c0,0.1-0.2,0.1-0.3,0.1l0.1,0.1C81.7,35.9,81.9,35.6,81.9,35.6z"/>
		<path class="st0" d="M81.7,33.2l0,0.1l0-0.5C81.6,32.9,81.7,33,81.7,33.2z"/>
		<path class="st0" d="M95.3,0.5l-0.5,0.1l0.3,0.1C95.2,0.7,95.2,0.6,95.3,0.5z"/>
		<polygon class="st0" points="94.3,0.6 94.2,0.7 94.2,0.7 		"/>
		<path class="st0" d="M93.5,0.9l0.4-0.1C93.8,0.8,93.7,0.8,93.5,0.9z"/>
		<path class="st0" d="M94.2,0.9c-0.1,0-0.1-0.1,0-0.2l0,0l-0.2,0.1L94.2,0.9z"/>
		<path class="st0" d="M94.2,0.9L94.4,1L94.2,0.9z"/>
		<path class="st0" d="M94.3,2.3C94.2,2.3,94.1,2,94,2.1c-0.4,0.2-0.6,0.5-1,0.5c-0.1,0.1-0.5-0.2-0.7-0.1c-0.4,0.2-1.2,1-0.6,0.8
			c0.8-0.3,1.4-0.5,2.2-0.8c0.6-0.3,1.2-0.6,1.8-0.9c0.2,0,0.4,0,0.5-0.1l-0.7-0.1C95.1,1.5,94.8,2.1,94.3,2.3z"/>
		<path class="st0" d="M99.1,0.5c-0.1,0-0.3,0.1-0.3,0.1c-0.2-0.2-0.4-0.2-0.6-0.2c-0.2,0-0.4,0.1-0.7,0.1l0.2,0.2
			c0.2,0,0.3-0.1,0.1-0.2c0.5,0.2,0.9,0.3,1.4,0.3C99.2,0.7,99.2,0.6,99.1,0.5z"/>
		<polygon class="st0" points="99.5,0.8 99.2,0.8 99.2,0.9 99.5,0.9 		"/>
		<path class="st0" d="M91.8,1.7c-1.1,0.3-2.1,0.6-3.2,0.9c-0.1,0.1-0.1,0.2-0.2,0.2l-0.3-0.1l-0.4,0.1L87.6,3l0,0
			c-0.1,0.1,0,0.1,0,0.2l0.2,0.1l-0.2-0.1l-0.3,0l-0.4,0.1c0.1-0.1,0.3-0.1,0.4-0.1L87.6,3l0.1-0.1l-1,0.3l-0.2,0.1
			c-0.2,0.1-0.4,0.3-0.7,0.1l-0.2,0l0,0l-0.1,0l-0.8,0.2L84.3,4c0,0-0.2-0.1-0.2-0.1c0,0.1-0.1,0.2-0.2,0.3l0.5,0.2
			c0.2,0.1,0.3-0.5,0.6-0.2c-0.3-0.3-0.3,0.4-0.6,0.2l-0.5-0.2c-0.2,0.1-0.5,0.2-0.9,0.1c0.3-0.3,0.6-0.2,0.9-0.1
			C84,4.1,84.1,4,84.1,3.9C84.2,4,84.3,4,84.3,4l0.4-0.4l-1.5,0.4c-3.4,0.9-6.3,1.9-9.9,2.5c-1.9,0.4-3.8,0.7-5.6,0.9
			C64.1,7.9,61,9.3,57.3,8.9c-1.4-0.1-3.8,0.4-5.1,0.5c-1.7,0.8-0.8,2.4-0.6,2.5c1.2,1.3,2.1,0.6,4.5,1.1c-1.6-0.3,1-1,2.7-0.3
			c2.4,1.1,5.3-0.7,7.9-1c0.7-0.1,1.3-0.3,2.1-0.5c4.2-0.7,7.4-1.9,11.9-3.2c1.1-0.4,1.9-1,2.8-1.5C84,6.1,84.7,6,85.3,5.9
			c0.8-0.3,1.5-0.7,2.2-1c-0.8,0.3-1.3,0.6-2.1,1c-0.6,0.2,0.2-0.6,0.6-0.8C86,4.8,86.4,5.1,86.5,5c0.4-0.1,0.6-0.4,1-0.6
			c0.1-0.1,0.2,0.3,0.3,0.2c0.5-0.3,0.7-0.9,1.1-0.9l0.8,0l0.4-0.1l0.3-0.2L90.1,3l0.5,0l-0.5,0l0.3,0.4c0.6-0.4,1.4-0.9,2.1-1.2
			l0,0C92,2.2,91.6,2.3,91,2.2c0.2,0,0.2,0.1,0,0.2l-0.2-0.1C91.2,2.1,91.5,1.9,92,2c0,0,0.1-0.1,0.2-0.2c0.1,0,0.2,0.1,0.2,0.2
			L92.7,2C92.4,1.8,91.8,1.7,91.8,1.7z"/>
		<path class="st0" d="M87.3,3.1L87.5,3l-0.9,0.2C86.9,3.3,87.1,3.2,87.3,3.1z"/>
	</g>
	<g>
		<polygon class="st0" points="12.6,44.7 23,44.7 23,45.8 18.8,45.8 18.8,62.7 16.7,62.7 16.7,45.8 12.6,45.8 		"/>
		<polygon class="st0" points="25.3,45 27.3,45 27.3,53.2 36.8,53.2 36.8,45 38.8,45 38.8,62.7 36.8,62.7 36.8,54.3 27.3,54.3 
			27.3,62.7 25.3,62.7 		"/>
		<polygon class="st0" points="43.1,45 53.3,45 53.3,46 45.1,46 45.1,53.2 52.9,53.2 52.9,54.3 45.1,54.3 45.1,61.6 53.8,61.6 
			53.8,62.7 43.1,62.7 		"/>
		<path class="st0" d="M66.5,45.8v7.6h3c1.6,0,2.8-0.4,3.4-1.1c0.6-0.7,0.9-1.6,0.9-2.6c0-0.5-0.1-1-0.2-1.5
			c-0.2-0.5-0.4-0.9-0.8-1.2c-0.4-0.4-0.9-0.7-1.5-0.9c-0.6-0.2-1.4-0.3-2.2-0.3H66.5L66.5,45.8z M64.6,44.7H70c1.1,0,2,0.1,2.8,0.4
			c0.8,0.3,1.4,0.7,1.9,1.2c0.5,0.5,0.8,1,1,1.6c0.2,0.6,0.3,1.1,0.3,1.7c0,0.8-0.2,1.6-0.5,2.3c-0.3,0.7-0.9,1.3-1.8,1.8
			c-0.8,0.5-2,0.7-3.4,0.7h-3.9v8.2h-2V44.7z"/>
		<path class="st0" d="M83.9,48.2l-3.3,8h6.3L83.9,48.2L83.9,48.2z M76.7,62.7l7.4-18.4l7.6,18.4h-2.2l-2.2-5.4h-7.2L78,62.7H76.7z"
			/>
		<polygon class="st0" points="94.3,44.7 96.2,44.7 96.2,61.9 102.7,61.9 102.7,62.7 94.3,62.7 		"/>
		<path class="st0" d="M110.5,48.2l-3.3,8h6.3L110.5,48.2L110.5,48.2z M103.4,62.7l7.4-18.4l7.6,18.4h-2.2l-2.2-5.4h-7.2l-2.2,5.4
			H103.4z"/>
		<path class="st0" d="M119.9,53.8c0-1.5,0.2-2.8,0.7-4c0.4-1.2,1.1-2.2,1.9-3c0.8-0.8,1.7-1.5,2.8-1.9c1-0.4,2.2-0.6,3.4-0.6
			c1.1,0,2.1,0.2,3,0.5c0.9,0.3,1.6,0.8,2.2,1.3c0.6,0.6,1,1.3,1.3,2.1l-1.1,0.7c-0.3-0.9-0.7-1.6-1.2-2.1c-0.5-0.5-1.1-0.9-1.8-1.1
			c-0.7-0.2-1.5-0.3-2.4-0.3c-1,0-1.9,0.2-2.6,0.5c-0.8,0.3-1.4,0.8-2,1.5c-0.5,0.7-1,1.6-1.2,2.6c-0.3,1.1-0.4,2.3-0.4,3.8
			c0,1.4,0.2,2.6,0.6,3.6c0.4,1,0.9,1.9,1.5,2.6c0.6,0.7,1.3,1.2,2.1,1.5c0.8,0.3,1.5,0.5,2.3,0.5c0.6,0,1.3-0.1,1.9-0.3
			c0.7-0.2,1.3-0.6,1.9-1.1c0.6-0.6,1.2-1.3,1.6-2.2l1.1,0.7c-0.6,1.1-1.5,2.1-2.5,2.9c-1,0.8-2.3,1.2-4.1,1.2
			c-1.6,0-3.1-0.4-4.5-1.3c-1.4-0.9-2.4-2-3.2-3.4C120.3,57,119.9,55.5,119.9,53.8z"/>
		<polygon class="st0" points="138.3,45 148.5,45 148.5,46 140.2,46 140.2,53.2 148,53.2 148,54.3 140.2,54.3 140.2,61.6 
			148.9,61.6 148.9,62.7 138.3,62.7 		"/>
	</g>
	<g>
		<polygon class="st0" points="35.3,70.8 36,70.8 36,76.6 38.1,76.6 38.1,76.8 35.3,76.8 		"/>
		<path class="st0" d="M41.7,70.8h0.7v4c0,0.4,0.1,0.7,0.2,1c0.1,0.3,0.3,0.5,0.5,0.6c0.2,0.1,0.5,0.2,0.7,0.2c1,0,1.5-0.5,1.5-1.6
			v-4.3h0.4v4.3c0,0.3-0.1,0.6-0.2,0.9c-0.1,0.3-0.3,0.5-0.6,0.7c-0.3,0.2-0.7,0.3-1.2,0.3c-0.4,0-0.7-0.1-1.1-0.2
			c-0.3-0.2-0.6-0.4-0.8-0.7c-0.2-0.3-0.3-0.7-0.3-1.1L41.7,70.8z"/>
		<polygon class="st0" points="49.2,70.8 50,70.8 51.8,73.4 53.7,70.8 54.2,70.8 52.1,73.7 54.2,76.8 53.4,76.8 51.6,74.3 
			49.7,76.8 49.2,76.8 51.4,73.9 		"/>
		<path class="st0" d="M57.6,70.8h0.7v4c0,0.4,0.1,0.7,0.2,1c0.1,0.3,0.3,0.5,0.5,0.6c0.2,0.1,0.5,0.2,0.7,0.2c1,0,1.5-0.5,1.5-1.6
			v-4.3h0.4v4.3c0,0.3-0.1,0.6-0.2,0.9c-0.1,0.3-0.3,0.5-0.6,0.7c-0.3,0.2-0.7,0.3-1.2,0.3c-0.4,0-0.7-0.1-1.1-0.2
			c-0.3-0.2-0.6-0.4-0.8-0.7c-0.2-0.3-0.3-0.7-0.3-1.1V70.8z"/>
		<path class="st0" d="M65.8,70.8h2c0.2,0,0.4,0,0.6,0.1c0.2,0.1,0.4,0.1,0.6,0.3c0.2,0.1,0.4,0.3,0.5,0.5c0.1,0.2,0.2,0.5,0.2,0.8
			c0,0.3-0.1,0.6-0.2,0.8c-0.2,0.2-0.4,0.4-0.6,0.5C68.6,74,68.4,74,68.1,74h-0.4l2,2.8h-0.9l-2.2-3.2h0.9c0.5,0,0.9-0.1,1.1-0.3
			c0.2-0.2,0.3-0.5,0.3-0.8c0-0.2-0.1-0.5-0.2-0.7c-0.1-0.2-0.3-0.3-0.5-0.5c-0.2-0.1-0.5-0.2-0.8-0.2h-1.1v5.6h-0.7V70.8z"/>
		<polygon class="st0" points="72.6,70.8 73.4,70.8 75.2,73.4 77.1,70.8 77.6,70.8 75.5,73.8 75.5,76.8 74.8,76.8 74.8,73.9 		"/>
		<path class="st0" d="M86,70.8h2c0.2,0,0.4,0,0.6,0.1c0.2,0.1,0.4,0.1,0.6,0.3c0.2,0.1,0.4,0.3,0.5,0.5c0.1,0.2,0.2,0.5,0.2,0.8
			c0,0.3-0.1,0.6-0.2,0.8c-0.2,0.2-0.4,0.4-0.6,0.5C88.9,74,88.7,74,88.4,74h-0.4l2,2.8h-0.9L87,73.7h0.9c0.5,0,0.9-0.1,1.1-0.3
			c0.2-0.2,0.3-0.5,0.3-0.8c0-0.2-0.1-0.5-0.2-0.7c-0.1-0.2-0.3-0.3-0.5-0.5c-0.2-0.1-0.5-0.2-0.8-0.2h-1.1v5.6H86V70.8z"/>
		<polygon class="st0" points="93.7,70.9 97.1,70.9 97.1,71.3 94.4,71.3 94.4,73.7 97,73.7 97,74 94.4,74 94.4,76.5 97.3,76.5 
			97.3,76.8 93.7,76.8 		"/>
		<path class="st0" d="M103.6,71.7c-0.1-0.2-0.3-0.4-0.4-0.5c-0.2-0.1-0.4-0.1-0.6-0.1c-0.3,0-0.6,0.1-0.8,0.3
			c-0.2,0.2-0.3,0.5-0.3,0.9c0,0.1,0,0.1,0,0.1c0,0.3,0.1,0.5,0.3,0.6c0.2,0.1,0.5,0.3,1,0.5c0.4,0.2,0.8,0.4,1,0.6
			c0.2,0.2,0.3,0.5,0.3,1c0,0.1,0,0.1,0,0.2c0,0.6-0.2,1-0.6,1.3c-0.4,0.3-0.8,0.4-1.3,0.4c-0.3,0-0.6-0.1-0.9-0.3
			c-0.3-0.2-0.4-0.4-0.6-0.7l0.3-0.3c0.1,0.3,0.3,0.5,0.5,0.6c0.2,0.2,0.4,0.2,0.7,0.2c0.4,0,0.7-0.1,0.9-0.4
			c0.2-0.2,0.3-0.5,0.3-0.9c0-0.2-0.1-0.5-0.2-0.7c-0.1-0.2-0.3-0.4-0.5-0.5c-0.2-0.1-0.4-0.2-0.7-0.3c-0.3-0.1-0.5-0.2-0.7-0.3
			c-0.2-0.1-0.3-0.3-0.4-0.5c-0.1-0.2-0.2-0.4-0.2-0.7c0-0.5,0.2-1,0.5-1.3c0.3-0.3,0.7-0.5,1.3-0.5c0.3,0,0.6,0.1,0.8,0.2
			c0.2,0.1,0.4,0.3,0.5,0.6L103.6,71.7z"/>
		<path class="st0" d="M108.3,73.9c0,0.4,0.1,0.8,0.2,1.2c0.2,0.4,0.4,0.8,0.7,1.1c0.3,0.3,0.7,0.5,1.2,0.5c0.3,0,0.7-0.1,0.9-0.2
			c0.3-0.2,0.5-0.4,0.7-0.6c0.2-0.3,0.3-0.6,0.4-0.9c0.1-0.3,0.1-0.6,0.1-1c0-0.3,0-0.6-0.1-0.9c-0.1-0.3-0.2-0.6-0.4-0.9
			c-0.2-0.3-0.4-0.5-0.7-0.7c-0.3-0.2-0.6-0.3-1-0.3c-0.4,0-0.7,0.1-1,0.3c-0.3,0.2-0.5,0.4-0.7,0.7c-0.2,0.3-0.3,0.6-0.4,0.9
			C108.3,73.2,108.3,73.6,108.3,73.9L108.3,73.9z M107.6,73.9c0-0.5,0.1-1,0.3-1.5c0.2-0.5,0.5-0.9,1-1.2c0.4-0.3,1-0.5,1.6-0.5
			c0.3,0,0.7,0.1,1,0.2c0.3,0.1,0.6,0.3,0.9,0.6c0.3,0.3,0.5,0.6,0.6,1c0.2,0.4,0.2,0.8,0.2,1.4c0,0.6-0.1,1.2-0.4,1.7
			c-0.3,0.5-0.6,0.8-1.1,1.1c-0.4,0.2-0.9,0.4-1.3,0.4c-0.4,0-0.8-0.1-1.1-0.2c-0.4-0.2-0.7-0.4-0.9-0.7c-0.3-0.3-0.5-0.6-0.6-1
			C107.6,74.7,107.6,74.3,107.6,73.9z"/>
		<path class="st0" d="M117,70.8h2c0.2,0,0.4,0,0.6,0.1c0.2,0.1,0.4,0.1,0.6,0.3c0.2,0.1,0.4,0.3,0.5,0.5c0.1,0.2,0.2,0.5,0.2,0.8
			c0,0.3-0.1,0.6-0.2,0.8c-0.2,0.2-0.4,0.4-0.6,0.5c-0.2,0.1-0.5,0.2-0.7,0.2h-0.4l2,2.8h-0.9l-2.2-3.2h0.9c0.5,0,0.9-0.1,1.1-0.3
			c0.2-0.2,0.3-0.5,0.3-0.8c0-0.2-0.1-0.5-0.2-0.7c-0.1-0.2-0.3-0.3-0.5-0.5c-0.2-0.1-0.5-0.2-0.8-0.2h-1.1v5.6H117V70.8z"/>
		<polygon class="st0" points="124,70.8 127.5,70.8 127.5,71.2 126.1,71.2 126.1,76.8 125.4,76.8 125.4,71.2 124,71.2 		"/>
	</g>
	<g>
		<path class="st0" d="M56.5,86.7v2.4h1.3c0.8,0,1.1-0.4,1.1-1.1c0-0.3-0.1-0.5-0.2-0.7c-0.1-0.2-0.3-0.3-0.6-0.4
			c-0.2-0.1-0.5-0.1-0.7-0.1H56.5L56.5,86.7z M56.5,84.3v2.1h0.9c0.4,0,0.7-0.1,0.9-0.2c0.2-0.1,0.4-0.4,0.4-0.8
			c0-0.3-0.1-0.6-0.4-0.8c-0.2-0.2-0.6-0.3-1.1-0.3H56.5L56.5,84.3z M55.9,84h1.5c0.6,0,1,0.1,1.4,0.3c0.3,0.2,0.5,0.6,0.5,1.1
			c0,0.2,0,0.3-0.1,0.5c0,0.1-0.1,0.2-0.2,0.3c-0.1,0.1-0.1,0.2-0.2,0.2c-0.1,0.1-0.2,0.1-0.4,0.2c0.2,0,0.4,0.1,0.6,0.3
			c0.2,0.1,0.3,0.3,0.4,0.5c0.1,0.2,0.2,0.4,0.2,0.7c0,0.4-0.1,0.6-0.2,0.9c-0.2,0.2-0.4,0.4-0.6,0.5c-0.3,0.1-0.5,0.1-0.8,0.1h-2.1
			V84z"/>
		<path class="st0" d="M65.2,85l-1,2.5h1.9L65.2,85L65.2,85z M63,89.5l2.3-5.7l2.3,5.7H67l-0.7-1.7h-2.2l-0.7,1.7H63z"/>
		<polygon class="st0" points="71.4,84 72.1,84 72.1,86.5 75,86.5 75,84 75.6,84 75.6,89.5 75,89.5 75,86.8 72.1,86.8 72.1,89.5 
			71.4,89.5 		"/>
		<path class="st0" d="M79.9,83.9h0.6v3.8c0,0.3,0.1,0.6,0.2,0.9c0.1,0.3,0.3,0.5,0.5,0.6c0.2,0.1,0.4,0.2,0.7,0.2
			c0.9,0,1.4-0.5,1.4-1.5v-4h0.4v4c0,0.3,0,0.6-0.1,0.8c-0.1,0.3-0.3,0.5-0.6,0.7c-0.3,0.2-0.6,0.3-1.1,0.3c-0.4,0-0.7-0.1-1-0.2
			c-0.3-0.1-0.5-0.4-0.7-0.7c-0.2-0.3-0.3-0.6-0.3-1.1L79.9,83.9z"/>
		<path class="st0" d="M88.5,86.7v2.4h1.3c0.8,0,1.1-0.4,1.1-1.1c0-0.3-0.1-0.5-0.2-0.7c-0.1-0.2-0.3-0.3-0.6-0.4
			c-0.2-0.1-0.5-0.1-0.7-0.1H88.5L88.5,86.7z M88.5,84.3v2.1h0.9c0.4,0,0.7-0.1,0.9-0.2c0.2-0.1,0.4-0.4,0.4-0.8
			c0-0.3-0.1-0.6-0.4-0.8c-0.2-0.2-0.6-0.3-1.1-0.3H88.5L88.5,84.3z M87.9,84h1.5c0.6,0,1,0.1,1.4,0.3c0.3,0.2,0.5,0.6,0.5,1.1
			c0,0.2,0,0.3-0.1,0.5c0,0.1-0.1,0.2-0.2,0.3c-0.1,0.1-0.1,0.2-0.2,0.2c-0.1,0.1-0.2,0.1-0.4,0.2c0.2,0,0.4,0.1,0.6,0.3
			c0.2,0.1,0.3,0.3,0.4,0.5c0.1,0.2,0.2,0.4,0.2,0.7c0,0.4-0.1,0.6-0.2,0.9c-0.2,0.2-0.4,0.4-0.6,0.5c-0.3,0.1-0.5,0.1-0.8,0.1h-2.1
			V84z"/>
		<path class="st0" d="M97.3,85l-1,2.5h1.9L97.3,85L97.3,85z M95.1,89.5l2.3-5.7l2.3,5.7H99l-0.7-1.7h-2.2l-0.7,1.7H95.1z"/>
		<polygon class="st0" points="103.5,83.9 104.1,83.9 104.1,89.2 106.1,89.2 106.1,89.5 103.5,89.5 		"/>
	</g>
</g>
</svg>
