<?xml version="1.0" encoding="utf-8"?>
<!-- Generator: Adobe Illustrator 19.1.0, SVG Export Plug-In . SVG Version: 6.00 Build 0)  -->
<svg version="1.1" id="Layer_1" xmlns="http://www.w3.org/2000/svg" xmlns:xlink="http://www.w3.org/1999/xlink" x="0px" y="0px"
	 viewBox="0 0 160 90" style="enable-background:new 0 0 160 90;" xml:space="preserve">
<style type="text/css">
	.st0{fill:#BBBBBB;}
</style>
<g>
	<path class="st0" d="M41.3,77.8c0.2,0.4,0.3,0.7,0.1,1.1c-0.2,0.6-0.4,1.1-0.6,1.7c-0.1,0.2-0.1,0.5-0.4,0.4
		c-0.3,0-0.4-0.2-0.5-0.5c0-0.1,0-0.2,0-0.3c0-0.4,0.1-1-0.5-1.2c-0.5-0.2-1,0-1.4,0.4c-1.1,1.1-1.7,2.4-2,3.9c0,0.1,0,0.2,0,0.3
		c-0.1,0.5-0.2,1.1,0.3,1.4c0.6,0.3,1.2,0.1,1.7-0.3c0.2-0.2,0.4-0.4,0.7-0.6c0.2-0.2,0.4-0.3,0.6-0.1c0.2,0.2,0.4,0.4,0.2,0.7
		c-0.7,1-1.5,1.8-2.8,1.9c-1.4,0.1-2.2-0.4-2.7-1.7c-0.1-0.1,0-0.3-0.2-0.4c0-0.1,0-0.1,0-0.2c0.1-0.4,0.1-0.7,0-1.1
		c0-0.1,0-0.1,0-0.2c0.2-2.2,1.4-3.8,3.3-5c0.5-0.3,1-0.4,1.6-0.4c0.4,0,0.8,0,1.2,0c0.4-0.1,0.8,0.2,1.2-0.1
		C41,77.8,41.2,77.8,41.3,77.8z"/>
	<path class="st0" d="M115.8,89.2c-0.7-0.5-0.9-1-0.5-1.7c0.4-0.6,0.9-0.7,1.4-0.3c0.4,0.3,0.5,0.1,0.5-0.2c0.2-1.5,0.3-3.1,0.5-4.6
		c0.1-0.5-0.6-0.6-0.6-1c0.3-0.5,1.6-1.1,2.1-0.9c0.4,0.1,0.6,0.5,0.6,0.9c0,0.4,0.1,0.7,0.1,1.1c0,0.3,0,0.5-0.1,0.8
		c0.3-0.3,0.3-0.6,0.1-1c-0.2-0.4-0.2-0.8,0-1.2c0.2-0.4,0.6-0.7,1.1-0.7c0.5,0,0.7,0.3,0.9,0.8c0,0.3,0,0.6,0,0.9
		c-0.2,1.2-1,2.2-1.7,3.1c-0.9,1.3-1.8,2.6-3,3.6C116.9,89.1,116.4,89.3,115.8,89.2z"/>
	<path class="st0" d="M110.4,84.9c0.8-1.8,1.5-3.7,2.2-5.5c0-0.1,0.1-0.2,0-0.3c-0.8-1.1,0.2-0.9,0.8-1.1c0.2-0.1,0.4,0,0.5-0.2
		c0.3,0,0.5,0,0.8,0c0.3,0.3,0.4,0.6,0.2,1.1c-0.6,1.5-1.2,3.1-1.8,4.7c-0.1,0.3-0.3,0.7,0.1,1c0.1,0.1,0.2,0.3,0.1,0.5
		c-0.1,0.6-1.3,1.7-2,1.7c-0.7,0-1.1-0.4-1-1.1C110.3,85.4,110.3,85.2,110.4,84.9z"/>
	<path class="st0" d="M117.1,81.1c-0.4,0.9-0.7,1.8-1.1,2.6c-0.1,0.2-0.2,0.4,0.1,0.6c0.5,0.3,0.3,0.7,0,1.1
		c-0.3,0.4-0.7,0.9-1.2,1.1c-0.4,0.2-0.8,0.2-1.1,0c-0.4-0.3-0.4-0.7-0.3-1.1c0.1-0.5,0.4-1,0.6-1.6c0.5-1.4,1.1-2.8,1.6-4.2
		c0.1-0.3,0.3-0.6,0-1c-0.2-0.3-0.1-0.5,0.3-0.6c0.4-0.1,0.8-0.1,1.1-0.3c0.3,0,0.5,0,0.8,0c0.3,0.2,0.5,0.4,0.4,0.7
		C117.9,79.4,117.7,80.4,117.1,81.1z"/>
	<path class="st0" d="M93.9,77.8c0.3,0.2,0.6,0.4,0.7,0.8c0.1,0.6-0.2,1.3-0.8,1.6c-0.4,0.2-0.8,0.1-1.1-0.3
		c-0.3-0.4-0.3-1.2,0.1-1.7c0.1-0.1,0.3-0.3,0.4-0.4C93.5,77.8,93.7,77.8,93.9,77.8z"/>
	<path class="st0" d="M102.4,77.8c0.5,0.3,0.8,0.7,0.7,1.3c-0.2,0.7-0.6,1.1-1.3,1.1c-0.6-0.1-0.9-0.5-0.8-1.1c0-0.7,0.4-1.1,1-1.4
		C102.1,77.8,102.2,77.8,102.4,77.8z"/>
	<path class="st0" d="M39.8,77.8c0,0.1,0,0.1,0,0.1c-0.5,0-0.9,0-1.4,0c0,0,0-0.1,0-0.1C38.9,77.8,39.3,77.8,39.8,77.8z"/>
	<path class="st0" d="M33.6,83.4c0.2,0.4,0.2,0.7,0,1.1C33.6,84.1,33.6,83.7,33.6,83.4z"/>
	<path class="st0" d="M79.2,78c0.8,0,1.6,0,2.4,0c0.4,0.4,0.6,0.8-0.2,1c-0.4,0.1-0.6,0.5-0.7,0.9c-0.5,1.3-1,2.5-1.5,3.8
		c-0.2,0.6-0.5,1.2-1,1.8c-0.8,1-1.8,1.4-3,1.3c-1.3-0.1-2-1.1-1.8-2.4c0.3-1.4,1-2.7,1.4-4.1c0.2-0.6,0.7-1.1-0.1-1.6
		c-0.2-0.1-0.1-0.4,0-0.6c1.2,0,2.3,0,3.5,0c0.3,0.5,0.6,0.9-0.3,0.9c-0.3,0-0.5,0.3-0.6,0.6c-0.6,1.5-1.2,3-1.7,4.5
		c-0.1,0.4-0.3,0.9,0.1,1.2c0.5,0.2,1,0.1,1.4-0.3c0.4-0.4,0.7-0.9,0.9-1.4c0.5-1.3,1-2.6,1.5-3.8c0.1-0.4,0.3-0.7-0.2-0.9
		C79,78.6,78.9,78.3,79.2,78z"/>
	<path class="st0" d="M49.1,81.1c0.5-0.3,1-0.9,1.7-0.4c0.6,0.5,0.4,1.2,0.2,1.8c-0.1,0.4-0.3,0.8-0.5,1.2c-0.2,0.4-0.4,0.8,0.2,1
		c0.2,0.1,0.2,0.2,0.1,0.4c-0.4,0.6-0.8,1.2-1.4,1.5c-0.4,0.2-0.8,0.2-1.2-0.1c-0.4-0.3-0.3-0.7-0.2-1.1c0.2-0.6,0.4-1.3,0.6-1.9
		c-0.7,0.6-1,1.4-1.2,2.2c-0.2,0.8-0.7,1-1.4,0.9c-0.6-0.1-0.8-0.3-0.6-0.9c0.4-1.1,0.8-2.2,1.3-3.3c0.1-0.3,0.2-0.6,0-0.9
		c-0.2-0.3-0.1-0.5,0.2-0.6c0.6-0.1,1.1-0.2,1.7-0.3C48.8,80.5,48.8,80.9,49.1,81.1z"/>
	<path class="st0" d="M54.5,83.4c-0.8,0.8-1.2,1.7-1.5,2.7c-0.2,0.4-1,0.7-1.6,0.5c-0.6-0.3-0.3-0.7-0.2-1.1c0.4-1,0.8-2.1,1.2-3.1
		c0.1-0.2,0.2-0.4,0-0.7c-0.4-0.5-0.2-0.7,0.4-0.8c0.4-0.1,0.8-0.2,1.2-0.2c0.2,0,0.5-0.1,0.5,0c0.4,0.7,0.8,0.3,1.2,0.1
		c0.7-0.3,1.3,0.1,1.3,0.9c0,0.9-0.5,1.6-0.7,2.4c-0.1,0.3-0.3,0.5,0.2,0.7c0.2,0,0.3,0.2,0.2,0.5c-0.4,0.6-0.8,1.2-1.4,1.5
		c-0.4,0.2-0.8,0.2-1.2-0.1c-0.4-0.3-0.3-0.7-0.2-1.1C54,84.7,54.2,84,54.5,83.4z"/>
	<path class="st0" d="M58.9,86.7c-1.3,0-1.9-0.6-1.9-1.6c0.1-1.8,1.7-3.9,3.5-4.4c0.6-0.2,1.2-0.3,1.6,0.2c0.4,0.5,0.2,1.2-0.1,1.7
		c-0.5,0.9-1.4,1.5-2.4,1.7c-0.2,0.1-0.5,0-0.5,0.4c0,0.2-0.1,0.4,0.1,0.5c0.3,0.2,0.5,0,0.8-0.2c0.2-0.1,0.4-0.4,0.7-0.5
		c0.3-0.1,0.5-0.1,0.7,0.2c0.2,0.3,0,0.4-0.1,0.6C60.5,86,59.7,86.7,58.9,86.7z"/>
	<path class="st0" d="M65.1,81.9c-0.7,0.7-1.1,1.5-1.1,2.5c0,0.2-0.1,0.5,0.2,0.7c0.2,0.1,0.5,0,0.7-0.1c0.4-0.2,0.9-0.9,1.2-0.2
		c0.3,0.5-0.4,0.8-0.7,1.1c-0.3,0.4-0.8,0.6-1.3,0.7c-1.3,0.4-2.3-0.4-2.2-1.8c0.2-1.8,1.1-3.2,2.7-4.1c0.3-0.2,0.6-0.3,1-0.3
		c0.6,0,1.2,0.1,1.4,0.8c0.2,0.6-0.1,1.4-0.6,1.7c-0.3,0.2-0.6,0.2-0.9,0C65.1,82.9,65,82.7,65.1,81.9z"/>
	<path class="st0" d="M68.8,84.5c0.8,0.2,0.9,0.3,0.4,1c-0.3,0.5-0.7,0.9-1.2,1.1c-1,0.4-1.6-0.1-1.4-1.1c0.2-0.9,0.6-1.8,1-2.7
		c0.1-0.4,0.3-0.6,0-1c-0.3-0.3-0.1-0.7,0.3-0.9c0.8-0.4,1.4-0.9,2-1.6c0.2-0.2,0.4-0.4,0.6-0.2c0.3,0.2,0.4,0.4,0.2,0.8
		c-0.2,0.4-0.2,0.7,0,1.2c0.2,0.3,0,0.9-0.5,1c-0.4,0.1-0.4,0.3-0.5,0.5C69.3,83.2,69,83.8,68.8,84.5z"/>
	<path class="st0" d="M101.6,80.5c0.7,0,0.8,0.4,0.6,1c-0.4,0.9-0.7,1.9-1.1,2.9c0.3,0.1,0.7,0.1,0.7,0.5c-0.4,0.5-0.7,1.1-1.3,1.5
		c-0.5,0.3-1,0.5-1.5,0.1c-0.5-0.4-0.4-0.9-0.2-1.4c0.3-0.9,0.7-1.8,1.1-2.7c0.2-0.5,0.2-0.8-0.2-1.1c0.1-0.3,0.3-0.4,0.6-0.5
		C100.7,80.7,101.2,80.6,101.6,80.5z"/>
	<path class="st0" d="M90.3,85.5c0.1-0.8,0.6-1.6,0.9-2.5c0.2-0.5,0.7-1.1,0.1-1.7c-0.1-0.2,0-0.4,0.3-0.5c0.5-0.1,1-0.2,1.5-0.3
		c0.6-0.1,0.8,0.3,0.6,0.8c-0.3,0.9-0.7,1.7-1,2.6c-0.1,0.3-0.2,0.5,0.2,0.5c0.2,0,0.5,0.2,0.3,0.5c-0.4,0.7-0.9,1.4-1.7,1.7
		C90.9,86.9,90.3,86.5,90.3,85.5z"/>
	<path class="st0" d="M101.9,84.9c0.5-0.8,0.7-1.7,1-2.5c0.1-0.2,0.1-0.3-0.1-0.5c-0.4-0.5-0.2-0.9,0.3-1.1c0.7-0.3,1.3-0.9,1.8-1.4
		c0.2-0.2,0.4-0.5,0.7-0.2c0.3,0.2,0.4,0.4,0.2,0.8c-0.2,0.4-0.2,0.7,0,1.1c0.2,0.3,0.1,0.9-0.5,1c-0.3,0-0.4,0.2-0.5,0.4
		c0,0.1-0.1,0.3-0.2,0.4c-0.3,0.8-0.9,1.5,0.2,2.2c-0.3,0.2-0.4,0.5-0.6,0.8c-0.3,0.4-0.7,0.7-1.2,0.8c-0.9,0.2-1.4-0.3-1.3-1.2
		C101.9,85.3,101.9,85.1,101.9,84.9z"/>
	<path class="st0" d="M87.9,77.9c-1,0-1.9,0-2.9,0c-0.2,0.3-0.1,0.7,0.2,0.8c0.5,0.2,0.3,0.4,0.2,0.7c-0.7,1.8-1.4,3.6-2.1,5.5
		c-0.1,0.3-0.3,0.6-0.6,0.7c-0.3,0-0.6,0.1-0.5,0.4c0.1,0.4,0.3,0.5,0.7,0.5c0.8,0,1.6,0,2.3,0c3,0.1,5.2-2.7,5.5-5
		C91,79.3,90.1,78.2,87.9,77.9z M87,84.6c-0.3,0.4-0.8,0.8-1.5,0.7c0.8-2,1.5-3.9,2.2-5.8c0.2-0.5,0.4-0.4,0.6-0.1
		c0.2,0.2,0.2,0.5,0.2,0.8C88.6,81.9,88,83.4,87,84.6z"/>
	<path class="st0" d="M99,80.8c-0.5,0.1-0.9-0.1-1.3-0.2c-1.6-0.5-3.5,0.8-3.4,2.5c0.1,0.8,0.2,1.4-0.5,2c-0.1,0.1-0.2,0.3-0.1,0.5
		c0.1,0.5-0.1,0.7-0.5,0.9c-0.5,0.3-0.7,0.7-0.7,1.3c0.1,0.6,0.4,0.9,0.9,1.1c0.3,0.1,0.7,0.2,1,0.2c0.3,0,0.5,0,0.8,0
		c0.6-0.1,1.1-0.2,1.6-0.6c0.7-0.5,1-1.3,0.8-2.1c-0.1-0.8-0.7-1.1-1.4-1.3c-0.2-0.1-0.4-0.1-0.6-0.2c1.1,0.1,2.2-0.2,2.7-1.2
		c0.4-0.8,1-1.5,1.3-2.3C99.4,81.2,99.4,80.8,99,80.8z M95.7,87.6c0.1,0.5-0.4,0.5-0.8,0.5c-0.3-0.1-0.8,0.1-0.8-0.5
		c0-0.4,0.3-0.7,0.6-0.7C95.1,87,95.7,87.1,95.7,87.6z M96.1,83.6c0-0.8,0.3-1.4,0.8-2C96.9,82.5,96.6,83.1,96.1,83.6z"/>
	<path class="st0" d="M45,80.9c-0.6-0.5-1.4-0.5-2.1-0.1c-1.7,0.9-2.6,2.3-2.8,4c0,1.6,0.9,2.3,2.2,1.9c1.8-0.6,2.7-2,3.2-3.8
		C45.6,82.1,45.6,81.4,45,80.9z M42,85.7c-0.1-1.1,0.8-3.2,1.7-4.1C43.4,83.2,42.9,84.5,42,85.7z"/>
	<path class="st0" d="M110.7,81.3c0.2-0.4,0-0.8-0.4-0.8c-1.5-0.1-3-0.1-4,1.5c-0.7,1.1-1.2,2.1-1.4,3.4c0.3,1.4,0.7,1.6,2,1
		c0.2-0.1,0.3-0.1,0.4,0c0.5,0.5,1,0.3,1.5,0.1c0.6-0.4,1-1,1.4-1.6c-0.8-0.5-0.5-1.2-0.2-1.8C110.3,82.5,110.5,81.9,110.7,81.3z
		 M107.1,84.5c0.3-1,0.7-1.8,1.2-2.6C108.4,82.7,107.8,84,107.1,84.5z"/>
</g>
<polygon class="st0" points="32.6,49 66.5,0.4 32.6,0.4 "/>
<g>
	<path class="st0" d="M60.6,44c-1.2-0.8-6.6-4-10.5-3.2s-6.9,6.4-6.9,6.4l18,12.9c0.9,0.4,5-0.5,6-6.1C68,48.3,61.7,44.8,60.6,44z"
		/>
	<path class="st0" d="M68.5,0.4L32.6,51.8v23.4l90.4,0.4V0.4H68.5z M65.2,10.3l5.9,4.2c0,0-6.8,9.3,0.3,17.2
		c7.1,7.9,16.2,2.2,16.2,2.2l-6,9c0,0-11,2.1-18.3-10.6C56.1,19.6,65.2,10.3,65.2,10.3z M58,71.9l1.1-2.2c0,0,1-1.9-0.8-3.2
		S39.8,53.3,39.8,53.3S38.3,52,37,53.7l-1.7,2l-1.9-1.8l9.2-13.2c0,0,9.4-12.6,22.6-3.5s4.4,21.3,4.4,21.3l-9.6,14.4L58,71.9z
		 M100.7,73.6H61.5L89.8,32l-8.4-5.9l-2.9,3.8c0,0-5.9-3.3-5.9-3.5s6.9-9.4,6.9-9.4l13.2,9.1c0,0,2.1-8.2-4.4-13.3
		c-6.5-5-13.3-1.7-14.7-0.4l-6-4.6c0,0,10.9-10.8,25.1-0.7s3.9,27.6,3.9,27.6L80.5,58.8c0,0-1.9,2.5-1,4.4c0.9,1.9,4.1,1.4,4.1,1.4
		l14,0c0,0,3-0.2,3.1,2.2V73.6z M116,73.6h-13.2l-0.3-7.5c0,0-0.1-2,1.8-3.5l3.8-3.4l-0.2-46l-5.1,1.2l0.2-6.4l13.1-4.7L116,73.6z"
		/>
</g>
</svg>
