<?xml version="1.0" encoding="utf-8"?>
<!-- Generator: Adobe Illustrator 19.1.0, SVG Export Plug-In . SVG Version: 6.00 Build 0)  -->
<svg version="1.1" id="Layer_1" xmlns="http://www.w3.org/2000/svg" xmlns:xlink="http://www.w3.org/1999/xlink" x="0px" y="0px"
	 viewBox="0 0 160 90" style="enable-background:new 0 0 160 90;" xml:space="preserve">
<style type="text/css">
	.st0{fill:#BBBBBB;}
</style>
<g>
	<g>
		<path class="st0" d="M106.2,29L106.2,29l-0.1,1.3h0.2C106.3,29.9,106.2,29.5,106.2,29z"/>
	</g>
	<g>
		<path class="st0" d="M106.3,22.4h-0.2v1.3h0C106.2,23.2,106.3,22.8,106.3,22.4z"/>
	</g>
	<g>
		<path class="st0" d="M106.1,23.7v0.5C106.2,24,106.2,23.8,106.1,23.7L106.1,23.7z"/>
	</g>
	<g>
		<path class="st0" d="M106.1,26.8L106.1,26.8c-0.1,0.4-0.1,0.8,0,1.3h0V26.8z"/>
	</g>
	<g>
		<path class="st0" d="M106.1,24.6L106.1,24.6c-0.1,0.4-0.1,0.8-0.1,1.3h0.1V24.6z"/>
	</g>
	<g>
		<path class="st0" d="M106.1,24.2c0,0.2,0,0.3,0,0.5h0V24.2z"/>
	</g>
	<g>
		<path class="st0" d="M106.1,25.9L106.1,25.9C106.1,25.9,106.1,25.9,106.1,25.9c-0.1,0.3-0.1,0.6-0.1,1h0.1V25.9z"/>
	</g>
	<g>
		<path class="st0" d="M106.1,28.5V29h0.1C106.2,28.9,106.2,28.7,106.1,28.5z"/>
	</g>
	<g>
		<path class="st0" d="M106.1,28.1c0,0.1,0,0.3,0,0.4L106.1,28.1L106.1,28.1z"/>
	</g>
	<g>
		<path class="st0" d="M112.7,9.1h-0.1v0.1C112.6,9.2,112.7,9.2,112.7,9.1z"/>
	</g>
	<g>
		<path class="st0" d="M110.5,11.3V12c0.1-0.2,0.3-0.4,0.4-0.6H110.5z"/>
	</g>
	<g>
		<path class="st0" d="M110.5,40.6v0.8h0.6C110.8,41.1,110.6,40.9,110.5,40.6z"/>
	</g>
	<g>
		<path class="st0" d="M154.8,16.4v-0.7h-0.3C154.6,16,154.7,16.2,154.8,16.4z"/>
	</g>
	<g>
		<path class="st0" d="M112.6,43.6h0.2c-0.1-0.1-0.2-0.2-0.2-0.3V43.6z"/>
	</g>
	<g>
		<path class="st0" d="M118.1,4.7h-1.2v0.8C117.3,5.2,117.7,4.9,118.1,4.7z"/>
	</g>
	<g>
		<rect x="114.8" y="4.7" class="st0" width="1.2" height="1.3"/>
	</g>
	<g>
		<path class="st0" d="M122.4,2.6L122.4,2.6l-1.2-0.1V3C121.6,2.9,122,2.7,122.4,2.6z"/>
	</g>
	<g>
		<rect x="116.9" y="2.5" class="st0" width="1.2" height="1.3"/>
	</g>
	<g>
		<path class="st0" d="M119.8,3.7c0.2-0.1,0.3-0.2,0.5-0.2v-1h-1.2v1.3H119.8z"/>
	</g>
	<g>
		<path class="st0" d="M108.3,36.8v0.2h0.1C108.3,36.9,108.3,36.8,108.3,36.8z"/>
	</g>
	<g>
		<path class="st0" d="M108.3,15.8v0.2C108.3,15.9,108.3,15.8,108.3,15.8L108.3,15.8z"/>
	</g>
	<g>
		<path class="st0" d="M151.7,41.4h0.9v-1.3h0C152.3,40.5,152,41,151.7,41.4z"/>
	</g>
	<g>
		<path class="st0" d="M149.9,43.6h0.6v-0.7C150.3,43.1,150.1,43.4,149.9,43.6z"/>
	</g>
	<g>
		<path class="st0" d="M114.8,45.8h0.4c-0.1-0.1-0.3-0.2-0.4-0.4V45.8z"/>
	</g>
	<g>
		<path class="st0" d="M147.5,45.8h0.8v-0.7C148,45.4,147.8,45.6,147.5,45.8z"/>
	</g>
	<g>
		<path class="st0" d="M148.3,6.9h-0.6c0.2,0.2,0.4,0.4,0.6,0.6V6.9z"/>
	</g>
	<g>
		<path class="st0" d="M115,6.9h-0.3v0.2C114.8,7.1,114.9,7,115,6.9z"/>
	</g>
	<g>
		<path class="st0" d="M154.5,17c-0.2-0.3-0.6-0.6-1-0.7V17H154.5z"/>
	</g>
	<g>
		<path class="st0" d="M147.1,42.3L147.1,42.3l0,0.5C147.1,42.6,147.1,42.5,147.1,42.3z"/>
	</g>
	<g>
		<path class="st0" d="M156.5,23.7c0-0.1,0-0.3,0-0.4C156.5,23.4,156.5,23.5,156.5,23.7L156.5,23.7z"/>
	</g>
	<g>
		<path class="st0" d="M156.6,25.9L156.6,25.9c0-0.4,0-0.8,0-1.3h0C156.6,25,156.6,25.5,156.6,25.9z"/>
	</g>
	<g>
		<path class="st0" d="M145,16.2c0.4-0.1,0.8-0.1,1.2-0.1v-0.4H145V16.2z"/>
	</g>
	<g>
		<path class="st0" d="M114.8,44.5v0.9c0.1,0.1,0.3,0.3,0.4,0.4h0.7v-1.3H114.8z"/>
	</g>
	<g>
		<path class="st0" d="M124.5,24.6C124.5,24.6,124.6,24.7,124.5,24.6L124.5,24.6L124.5,24.6z"/>
	</g>
	<g>
		<path class="st0" d="M126.4,4.8C126.4,4.8,126.5,4.7,126.4,4.8l-0.9-0.1v0.9C125.9,5.4,126.2,5.2,126.4,4.8z"/>
	</g>
	<g>
		<path class="st0" d="M149.3,16.5c0,0,0.1,0,0.1,0c0.4,0.1,0.8,0.2,1.1,0.3v-1.1h-1.2V16.5z"/>
	</g>
	<g>
		<path class="st0" d="M150.2,14.8h0.3v-0.2C150.4,14.6,150.3,14.6,150.2,14.8C150.2,14.8,150.2,14.8,150.2,14.8z"/>
	</g>
	<g>
		<path class="st0" d="M120.1,49c0.1,0,0.1,0.1,0.2,0.1V49H120.1z"/>
	</g>
	<g>
		<path class="st0" d="M148.3,45c-0.3,0.2-0.5,0.5-0.8,0.7c0,0-0.1,0-0.1,0.1h0.1C147.8,45.6,148,45.4,148.3,45L148.3,45z"/>
	</g>
	<g>
		<path class="st0" d="M116.9,46.8v0.3c0.4,0.3,0.8,0.5,1.2,0.8v-1c-0.1,0-0.1-0.1-0.2-0.1H116.9z"/>
	</g>
	<g>
		<path class="st0" d="M107.1,33.5c0.1,0.3,0.2,0.6,0.3,0.8v-0.8H107.1z"/>
	</g>
	<g>
		<path class="st0" d="M152.4,15.8h-1V17h1.2v-1C152.5,15.9,152.4,15.9,152.4,15.8z"/>
	</g>
	<g>
		<path class="st0" d="M150.5,42.9c-0.2,0.2-0.4,0.5-0.6,0.7h0.1C150.1,43.4,150.3,43.1,150.5,42.9L150.5,42.9z"/>
	</g>
	<g>
		<path class="st0" d="M152.6,18.4V18h-0.9C152,18.2,152.3,18.3,152.6,18.4z"/>
	</g>
	<g>
		<path class="st0" d="M151.7,41.4c0.3-0.4,0.6-0.8,0.9-1.3h0C152.3,40.5,152,41,151.7,41.4L151.7,41.4z"/>
	</g>
	<g>
		<path class="st0" d="M124.6,3.5c-0.1,0.1-0.2,0.1-0.3,0.2h0.3V3.5z"/>
	</g>
	<g>
		<path class="st0" d="M125.5,36.7v0.2h1.2V36C126.4,36.3,126,36.6,125.5,36.7z"/>
	</g>
	<g>
		<path class="st0" d="M128.4,32.5h0.4v-0.7C128.7,32.1,128.6,32.3,128.4,32.5z"/>
	</g>
	<g>
		<path class="st0" d="M135.4,3.2c-0.3,0.1-0.6,0.3-0.8,0.5h0.8V3.2z"/>
	</g>
	<g>
		<path class="st0" d="M154.5,36.5c-0.1,0.1-0.1,0.3-0.2,0.4h0c0.2-0.3,0.3-0.7,0.4-1v0C154.7,36.1,154.6,36.3,154.5,36.5z"/>
	</g>
	<g>
		<path class="st0" d="M153.6,38.4L153.6,38.4c0.1-0.1,0.2-0.3,0.3-0.5h0C153.7,38.1,153.7,38.2,153.6,38.4z"/>
	</g>
	<g>
		<path class="st0" d="M109.5,13.6c-0.2,0.4-0.4,0.8-0.6,1.2h0.6V13.6z"/>
	</g>
	<g>
		<path class="st0" d="M153.6,18v0.6c0.3,0,0.5,0,0.8,0c0.1,0,0.2,0,0.4,0V18H153.6z"/>
	</g>
	<g>
		<path class="st0" d="M128.9,8.2V7.9c-0.1,0-0.2-0.1-0.4-0.1c-0.3-0.1-0.6-0.2-0.8-0.2v0.5H128.9z"/>
	</g>
	<g>
		<path class="st0" d="M145.6,8.2c-0.1-0.1-0.3-0.2-0.4-0.3c-0.1,0-0.1-0.1-0.2-0.2v0.4H145.6z"/>
	</g>
	<g>
		<path class="st0" d="M107.3,18.4c-0.1,0.3-0.2,0.6-0.3,0.9h0.3V18.4z"/>
	</g>
	<g>
		<path class="st0" d="M124.4,5.7c0.1,0,0.1,0.1,0.2,0.1V4.7h-0.5C124.1,5.1,124.2,5.6,124.4,5.7z"/>
	</g>
	<g>
		<path class="st0" d="M116.9,20.2L116.9,20.2C116.9,20.2,117,20.2,116.9,20.2L116.9,20.2z"/>
	</g>
	<g>
		<path class="st0" d="M132,51.2v0.4c0.4,0,0.8,0,1.2-0.1v-0.4H132z"/>
	</g>
	<g>
		<path class="st0" d="M134.2,51.2v0.3c0.4,0,0.8-0.1,1.2-0.2v-0.1H134.2z"/>
	</g>
	<g>
		<path class="st0" d="M149.7,14.8c-0.1-0.1-0.1-0.2-0.1-0.3c0-0.4-0.1-0.6-0.3-0.7v1H149.7z"/>
	</g>
	<g>
		<path class="st0" d="M147.1,37.9v1.3h0.2c0.1-0.2,0.2-0.3,0.4-0.5c0.2-0.2,0.4-0.5,0.6-0.7v-0.1H147.1z"/>
	</g>
	<g>
		<path class="st0" d="M132,1.5c0.1-0.1,0.1-0.3,0.2-0.4c-0.1,0-0.2,0-0.2,0L132,1.5L132,1.5z"/>
	</g>
	<g>
		<path class="st0" d="M130.9,1.5h0.1V1.2c0,0,0-0.1-0.1-0.1c-0.2,0-0.3,0-0.5,0C130.7,1.2,130.8,1.3,130.9,1.5z"/>
	</g>
	<g>
		<path class="st0" d="M133.2,5.4c-0.1,0.1-0.2,0.2-0.3,0.3c-0.4-0.3-0.7-0.6-0.9-0.9v1.1h1.2V5.4z"/>
	</g>
	<g>
		<path class="st0" d="M141.6,28.1c-0.3-0.3-0.7-0.6-1-0.8v0.8H141.6z"/>
	</g>
	<g>
		<path class="st0" d="M126.6,51.2c0,0,0.1,0,0.1,0v0H126.6z"/>
	</g>
	<g>
		<path class="st0" d="M121.7,22.4C121.7,22.4,121.7,22.4,121.7,22.4c0.3,0.1,0.5,0.2,0.8,0.3v-0.3H121.7z"/>
	</g>
	<g>
		<path class="st0" d="M120.3,10.2c-0.1,0.1-0.2,0.1-0.3,0.1h0.3V10.2z"/>
	</g>
	<g>
		<path class="st0" d="M146.1,11.7v-0.4H145v1.1C145.4,12.3,145.8,12.1,146.1,11.7z"/>
	</g>
	<g>
		<path class="st0" d="M112.6,27c0-0.1,0-0.1,0-0.1v1.2h0.1C112.7,27.7,112.7,27.4,112.6,27z"/>
	</g>
	<g>
		<path class="st0" d="M113.2,24.6h-0.6v1.3h0C112.7,25.4,112.9,25,113.2,24.6z"/>
	</g>
	<g>
		<path class="st0" d="M113.8,18h-0.3c0,0.1,0,0.3,0,0.4c-0.1,0.3-0.1,0.6,0,0.9h0.3V18z"/>
	</g>
	<g>
		<path class="st0" d="M117.7,20.2c0.1,0,0.1,0.1,0.2,0.1c0.1,0,0.2,0.1,0.2,0.1v-0.2H117.7z"/>
	</g>
	<g>
		<path class="st0" d="M112.7,18.6c0,0-0.1-0.1-0.1-0.1v0.7h0.3C112.9,19,112.8,18.8,112.7,18.6z"/>
	</g>
	<g>
		<path class="st0" d="M129.9,51.2v0.4c0.4,0,0.8,0,1.2,0v-0.4H129.9z"/>
	</g>
	<g>
		<path class="st0" d="M113.8,16.1c-0.1,0.2-0.3,0.3-0.4,0.5c-0.1,0.1-0.2,0.3-0.3,0.4h0.7V16.1z"/>
	</g>
	<g>
		<path class="st0" d="M127.7,51.2v0.2c0.4,0.1,0.8,0.1,1.2,0.1v-0.3H127.7z"/>
	</g>
	<g>
		<path class="st0" d="M116,21.1v-0.9h-1.2V21c0.1,0,0.1,0.1,0.2,0.1C115.3,21.1,115.7,21.2,116,21.1z"/>
	</g>
	<g>
		<polygon class="st0" points="147.1,13.5 147.1,14.8 148.3,14.8 148.3,13.5 148.3,13.5 		"/>
	</g>
	<g>
		<path class="st0" d="M147.1,16.2c0.4,0,0.8,0.1,1.2,0.1v-0.6h-1.2V16.2z"/>
	</g>
	<g>
		<path class="st0" d="M128.9,1.2V1.1c-0.4,0-0.8,0.1-1.2,0.1v0.1C128.1,1.2,128.5,1.2,128.9,1.2z"/>
	</g>
	<g>
		<polygon class="st0" points="111.6,10.4 111.6,10.4 111.6,10.4 		"/>
	</g>
	<g>
		<path class="st0" d="M116.9,5.6c0.4-0.3,0.8-0.5,1.2-0.8V4.7h0c-0.4,0.2-0.8,0.5-1.2,0.8V5.6z"/>
	</g>
	<g>
		<path class="st0" d="M126.7,1.4V1.3c-0.3,0.1-0.6,0.1-0.9,0.2h0.5C126.5,1.5,126.6,1.5,126.7,1.4z"/>
	</g>
	<g>
		<path class="st0" d="M113.8,8.1V8c-0.1,0-0.1,0.1-0.2,0.1L113.8,8.1C113.8,8.2,113.8,8.1,113.8,8.1z"/>
	</g>
	<g>
		<path class="st0" d="M112.6,9.4c0.1-0.1,0.2-0.2,0.2-0.3h-0.1c0,0-0.1,0.1-0.1,0.1V9.4z"/>
	</g>
	<g>
		<path class="st0" d="M130.5,1.1C130.4,1,130.2,1,129.9,1c0,0,0,0,0,0v0.1C130.1,1.1,130.3,1.1,130.5,1.1z"/>
	</g>
	<g>
		<path class="st0" d="M120.3,3.6L120.3,3.6c-0.2,0-0.3,0.1-0.5,0.1h0.2C120.1,3.7,120.2,3.6,120.3,3.6z"/>
	</g>
	<g>
		<path class="st0" d="M111,11.3h-0.1c-0.2,0.2-0.3,0.4-0.4,0.6v0.1C110.6,11.8,110.8,11.6,111,11.3z"/>
	</g>
	<g>
		<path class="st0" d="M122.4,2.6L122.4,2.6c-0.4,0.1-0.8,0.2-1.2,0.4v0.1C121.6,3,122,2.8,122.4,2.6z"/>
	</g>
	<g>
		<path class="st0" d="M114.8,7.3c0.1-0.1,0.3-0.2,0.4-0.4H115c-0.1,0.1-0.2,0.1-0.3,0.2V7.3z"/>
	</g>
	<g>
		<path class="st0" d="M123.4,38.4c0.1-0.1,0.2-0.3,0.2-0.4c0,0,0,0,0-0.1h-0.3V38.4z"/>
	</g>
	<g>
		<path class="st0" d="M113.3,20.2c0.1,0.1,0.2,0.2,0.3,0.3c0.1,0.1,0.1,0.1,0.2,0.2v-0.4H113.3z"/>
	</g>
	<g>
		<rect x="119.1" y="4.7" class="st0" width="1.2" height="1.3"/>
	</g>
	<g>
		<polygon class="st0" points="113.8,8.1 113.8,8.2 113.8,8.2 		"/>
	</g>
	<g>
		<path class="st0" d="M118.1,5.9V4.8c-0.4,0.3-0.8,0.5-1.2,0.8v0.4H118.1z"/>
	</g>
	<g>
		<path class="st0" d="M124.6,5.9V5.8c-0.1,0-0.2,0-0.2-0.1c-0.2-0.1-0.3-0.6-0.3-1.1h-0.7v1.3H124.6z"/>
	</g>
	<g>
		<path class="st0" d="M117.6,12.6h0.5v-1.3H117c0.3,0.2,0.5,0.6,0.6,1.1C117.6,12.5,117.6,12.5,117.6,12.6z"/>
	</g>
	<g>
		<path class="st0" d="M119.1,42.7c0.1-0.1,0.2-0.3,0.3-0.4h-0.3V42.7z"/>
	</g>
	<g>
		<rect x="121.2" y="4.7" class="st0" width="1.2" height="1.3"/>
	</g>
	<g>
		<path class="st0" d="M127.7,34.2c0.1-0.2,0.2-0.5,0.3-0.7h-0.3V34.2z"/>
	</g>
	<g>
		<path class="st0" d="M115.6,37.9c0,0,0,0.1,0,0.1c0.2,0.4,0.2,0.8,0.2,1.1h0.1v-1.3H115.6z"/>
	</g>
	<g>
		<path class="st0" d="M120.3,3.6c-0.1,0-0.2,0.1-0.3,0.1h0.3V3.6z"/>
	</g>
	<g>
		<path class="st0" d="M122.3,9.4C122.4,9.4,122.4,9.4,122.3,9.4l0.1-0.2h-1.2v0.5C121.5,9.3,121.9,9.2,122.3,9.4z"/>
	</g>
	<g>
		<path class="st0" d="M129.9,29.5v0.8h0.1C130,30,130,29.8,129.9,29.5z"/>
	</g>
	<g>
		<path class="st0" d="M126.7,5.9V4.7h-0.2c0,0-0.1,0.1-0.1,0.1c-0.2,0.4-0.5,0.6-0.9,0.8v0.4H126.7z"/>
	</g>
	<g>
		<path class="st0" d="M125.9,2.7c0.2-0.1,0.5-0.2,0.8-0.2c0,0,0.1,0,0.1,0v0h-1.2v0.4C125.6,2.8,125.8,2.7,125.9,2.7z"/>
	</g>
	<g>
		<path class="st0" d="M121.2,3.7h1.2V2.6c-0.4,0.2-0.8,0.3-1.2,0.5V3.7z"/>
	</g>
	<g>
		<path class="st0" d="M123.4,3.7h0.9c0.1-0.1,0.2-0.1,0.3-0.2V2.5h-1.2V3.7z"/>
	</g>
	<g>
		<path class="st0" d="M117.9,46.8c0.1,0,0.1,0.1,0.2,0.1v-0.1H117.9z"/>
	</g>
	<g>
		<path class="st0" d="M123.4,23.3v0.3h0.4C123.6,23.5,123.5,23.4,123.4,23.3z"/>
	</g>
	<g>
		<path class="st0" d="M116,35.7L116,35.7c-0.1,0.3-0.2,0.6-0.3,1c0,0.1,0,0.2,0,0.3h0.3V35.7z"/>
	</g>
	<g>
		<path class="st0" d="M126.7,1.4c-0.1,0-0.2,0-0.3,0.1L126.7,1.4L126.7,1.4z"/>
	</g>
	<g>
		<path class="st0" d="M127.7,28.1L127.7,28.1C127.7,28.1,127.7,28.1,127.7,28.1L127.7,28.1z"/>
	</g>
	<g>
		<rect x="127.7" y="4.7" class="st0" width="1.2" height="1.3"/>
	</g>
	<g>
		<path class="st0" d="M115.6,33.5c0.1,0.1,0.1,0.3,0.2,0.4c0,0.1,0.1,0.1,0.1,0.2v-0.6H115.6z"/>
	</g>
	<g>
		<path class="st0" d="M129.9,1.5h1.1c-0.1-0.2-0.2-0.4-0.4-0.4c-0.2,0-0.4,0-0.7,0V1.5z"/>
	</g>
	<g>
		<path class="st0" d="M156.3,30.3L156.3,30.3c0.1-0.4,0.1-0.8,0.2-1.3h0C156.5,29.5,156.4,29.9,156.3,30.3z"/>
	</g>
	<g>
		<path class="st0" d="M151.7,11.3c0.3,0.4,0.6,0.8,0.9,1.3h0v-0.2c-0.2-0.4-0.5-0.7-0.7-1H151.7z"/>
	</g>
	<g>
		<path class="st0" d="M155.9,32.5L155.9,32.5c0.1-0.4,0.2-0.8,0.3-1.3h0C156.1,31.7,156,32.1,155.9,32.5z"/>
	</g>
	<g>
		<path class="st0" d="M156.2,21.4L156.2,21.4c0-0.4-0.1-0.8-0.2-1.3h-0.1C156,20.6,156.1,21,156.2,21.4z"/>
	</g>
	<g>
		<path class="st0" d="M153.9,14.8h0.2c-0.1-0.3-0.3-0.6-0.4-0.8v0.3C153.7,14.4,153.8,14.6,153.9,14.8z"/>
	</g>
	<g>
		<path class="st0" d="M148.3,7.6L148.3,7.6c-0.2-0.3-0.4-0.5-0.6-0.7h-0.1C147.8,7.1,148.1,7.3,148.3,7.6z"/>
	</g>
	<g>
		<path class="st0" d="M150.5,9.8V9.6c-0.1-0.2-0.3-0.3-0.4-0.5h-0.1C150.1,9.3,150.3,9.5,150.5,9.8z"/>
	</g>
	<g>
		<path class="st0" d="M154.3,15.8c0.2,0.3,0.3,0.7,0.4,1v-0.3c-0.1-0.2-0.2-0.5-0.3-0.7H154.3z"/>
	</g>
	<g>
		<path class="st0" d="M156.6,28.1L156.6,28.1c0-0.4,0.1-0.8,0.1-1.3h0C156.6,27.3,156.6,27.7,156.6,28.1z"/>
	</g>
	<g>
		<path class="st0" d="M146.1,5.8L146.1,5.8c-0.2-0.3-0.5-0.4-0.7-0.6C145.3,5.1,145.1,5,145,5v0C145.4,5.3,145.8,5.5,146.1,5.8z"/>
	</g>
	<g>
		<path class="st0" d="M156.5,23.2c0-0.3-0.1-0.6-0.1-0.8h0C156.4,22.7,156.4,23,156.5,23.2z"/>
	</g>
	<g>
		<path class="st0" d="M146.1,44.8c-0.2,0.3-0.4,0.6-0.5,1h0.5V44.8z"/>
	</g>
	<g>
		<path class="st0" d="M144,16.6c-0.2,0.1-0.4,0.3-0.6,0.4c0,0,0,0,0,0h0.6V16.6z"/>
	</g>
	<g>
		<path class="st0" d="M146.1,12.6v-0.8c-0.3,0.3-0.7,0.5-1.2,0.6v0.2H146.1z"/>
	</g>
	<g>
		<path class="st0" d="M145.7,46.8c0,0,0.1,0,0.1-0.1L145.7,46.8C145.7,46.8,145.7,46.8,145.7,46.8z"/>
	</g>
	<g>
		<path class="st0" d="M153.8,37.9h-0.2v0.5C153.7,38.2,153.7,38.1,153.8,37.9z"/>
	</g>
	<g>
		<path class="st0" d="M144,12.6C144,12.6,144,12.6,144,12.6L144,12.6L144,12.6z"/>
	</g>
	<g>
		<polygon class="st0" points="148.3,13.5 148.3,13.5 148.3,13.5 		"/>
	</g>
	<g>
		<path class="st0" d="M144,13.5h-0.6c0.2,0.3,0.4,0.7,0.6,0.9V13.5z"/>
	</g>
	<g>
		<path class="st0" d="M152.6,16v-0.2h-0.2C152.4,15.9,152.5,15.9,152.6,16z"/>
	</g>
	<g>
		<path class="st0" d="M144,6.9h-0.2c0,0.2,0.1,0.3,0.2,0.4V6.9z"/>
	</g>
	<g>
		<path class="st0" d="M139.6,25.9h0.1v-1.3h-0.2C139.4,25.1,139.4,25.5,139.6,25.9z"/>
	</g>
	<g>
		<path class="st0" d="M145,29.3C145,29.3,145,29.3,145,29.3c0.5,0,0.8-0.1,1.2,0V29H145V29.3z"/>
	</g>
	<g>
		<path class="st0" d="M144,29.2V29h-0.7C143.5,29.1,143.7,29.2,144,29.2z"/>
	</g>
	<g>
		<path class="st0" d="M135.4,1.3L135.4,1.3c-0.4-0.1-0.8-0.2-1.2-0.2v0.1C134.6,1.2,135,1.3,135.4,1.3z"/>
	</g>
	<g>
		<path class="st0" d="M133.2,1c-0.3,0-0.6-0.1-0.9-0.1c0,0.1-0.1,0.1-0.1,0.2c0.3,0,0.6,0,1,0V1z"/>
	</g>
	<g>
		<path class="st0" d="M137.1,1.5C137.1,1.5,137.1,1.5,137.1,1.5c-0.2-0.1-0.5-0.1-0.8-0.1v0.1H137.1z"/>
	</g>
	<g>
		<path class="st0" d="M136.6,2.5h-0.2v0.3C136.4,2.7,136.5,2.6,136.6,2.5z"/>
	</g>
	<g>
		<g>
			<rect x="125.5" y="6.9" class="st0" width="1.2" height="1.3"/>
		</g>
		<g>
			<rect x="125.5" y="33.5" class="st0" width="1.2" height="1.3"/>
		</g>
		<g>
			<rect x="110.5" y="13.5" class="st0" width="1.2" height="1.3"/>
		</g>
		<g>
			<rect x="119.1" y="37.9" class="st0" width="1.2" height="1.3"/>
		</g>
		<g>
			<path class="st0" d="M125.5,35.7v1c0.5-0.1,0.9-0.4,1.2-0.7v-0.3H125.5z"/>
		</g>
		<g>
			<path class="st0" d="M111.6,11.3H111c-0.2,0.3-0.4,0.5-0.5,0.8v0.5h1.2V11.3z"/>
		</g>
		<g>
			<path class="st0" d="M121.2,40.8c0.3-0.2,0.5-0.4,0.7-0.7h-0.7V40.8z"/>
		</g>
		<g>
			<path class="st0" d="M116,43.5v-1.2h-0.3C115.8,42.7,115.9,43.1,116,43.5z"/>
		</g>
		<g>
			<rect x="114.8" y="29" class="st0" width="1.2" height="1.3"/>
		</g>
		<g>
			<rect x="116.9" y="6.9" class="st0" width="1.2" height="1.3"/>
		</g>
		<g>
			<path class="st0" d="M116,8.2V6.9h-0.8c-0.1,0.1-0.3,0.2-0.4,0.4v0.9H116z"/>
		</g>
		<g>
			<rect x="119.1" y="29" class="st0" width="1.2" height="1.3"/>
		</g>
		<g>
			<path class="st0" d="M111.6,16.6v-0.8h-1.2v0.2c0.2,0.2,0.4,0.3,0.7,0.4C111.3,16.4,111.5,16.5,111.6,16.6z"/>
		</g>
		<g>
			<rect x="119.1" y="24.6" class="st0" width="1.2" height="1.3"/>
		</g>
		<g>
			<rect x="119.1" y="6.9" class="st0" width="1.2" height="1.3"/>
		</g>
		<g>
			<rect x="119.1" y="26.8" class="st0" width="1.2" height="1.3"/>
		</g>
		<g>
			<path class="st0" d="M112.9,19.2h0.5c0-0.3,0-0.6,0-0.9c0-0.1,0-0.2,0-0.4h-0.9v0.5c0,0,0.1,0.1,0.1,0.1
				C112.8,18.8,112.9,19,112.9,19.2z"/>
		</g>
		<g>
			<path class="st0" d="M113.2,24.6c-0.3,0.4-0.5,0.8-0.6,1.3h1.2v-1.3H113.2z"/>
		</g>
		<g>
			<rect x="119.1" y="33.5" class="st0" width="1.2" height="1.3"/>
		</g>
		<g>
			<path class="st0" d="M112.6,10.4h1.2V9.1h-1c-0.1,0.1-0.2,0.2-0.2,0.3V10.4z"/>
		</g>
		<g>
			<path class="st0" d="M113.4,16.6c0.1-0.2,0.3-0.3,0.4-0.5v-0.3h-1.2V17h0.5C113.2,16.9,113.3,16.7,113.4,16.6z"/>
		</g>
		<g>
			<path class="st0" d="M113.8,11.5v-0.1h-1.2v1.1C112.9,12,113.3,11.7,113.8,11.5z"/>
		</g>
		<g>
			<rect x="116.9" y="37.9" class="st0" width="1.2" height="1.3"/>
		</g>
		<g>
			<rect x="121.2" y="37.9" class="st0" width="1.2" height="1.3"/>
		</g>
		<g>
			<rect x="119.1" y="40.1" class="st0" width="1.2" height="1.3"/>
		</g>
		<g>
			<path class="st0" d="M116,21.1c-0.3,0.1-0.6,0.1-1,0c-0.1,0-0.2-0.1-0.2-0.1v0.5h1.2V21.1z"/>
		</g>
		<g>
			<rect x="121.2" y="29" class="st0" width="1.2" height="1.3"/>
		</g>
		<g>
			<rect x="121.2" y="26.8" class="st0" width="1.2" height="1.3"/>
		</g>
		<g>
			<rect x="121.2" y="24.6" class="st0" width="1.2" height="1.3"/>
		</g>
		<g>
			<path class="st0" d="M115.7,40.1c0,0.1,0,0.1,0,0.2c-0.1,0.3-0.1,0.7-0.1,1h0.4v-1.3H115.7z"/>
		</g>
		<g>
			<path class="st0" d="M113,29c0.3,0.3,0.5,0.6,0.8,0.9V29H113z"/>
		</g>
		<g>
			<rect x="116.9" y="44.5" class="st0" width="1.2" height="1.3"/>
		</g>
		<g>
			<rect x="123.4" y="6.9" class="st0" width="1.2" height="1.3"/>
		</g>
		<g>
			<path class="st0" d="M120.3,21.4c-0.1,0-0.1-0.1-0.2-0.1c-0.3-0.2-0.7-0.3-1-0.4v0.6L120.3,21.4L120.3,21.4z"/>
		</g>
		<g>
			<rect x="116.9" y="40.1" class="st0" width="1.2" height="1.3"/>
		</g>
		<g>
			<rect x="119.1" y="22.4" class="st0" width="1.2" height="1.3"/>
		</g>
		<g>
			<path class="st0" d="M112.7,28.1h1.1v-1.3h-1.2v0c0,0,0,0.1,0,0.1C112.7,27.4,112.7,27.7,112.7,28.1z"/>
		</g>
		<g>
			<path class="st0" d="M122.4,22.7c-0.2-0.1-0.5-0.2-0.7-0.3c0,0,0,0-0.1,0h-0.4v1.3h1.2V22.7z"/>
		</g>
		<g>
			<rect x="121.2" y="6.9" class="st0" width="1.2" height="1.3"/>
		</g>
		<g>
			<rect x="119.1" y="35.7" class="st0" width="1.2" height="1.3"/>
		</g>
		<g>
			<rect x="116.9" y="22.4" class="st0" width="1.2" height="1.3"/>
		</g>
		<g>
			<rect x="116.9" y="24.6" class="st0" width="1.2" height="1.3"/>
		</g>
		<g>
			<rect x="127.7" y="29" class="st0" width="1.2" height="1.3"/>
		</g>
		<g>
			<rect x="116.9" y="9.1" class="st0" width="1.2" height="1.3"/>
		</g>
		<g>
			<rect x="123.4" y="29" class="st0" width="1.2" height="1.3"/>
		</g>
		<g>
			<path class="st0" d="M118.1,20.4c-0.1,0-0.2-0.1-0.2-0.1c-0.1,0-0.1-0.1-0.2-0.1H117c0,0-0.1,0-0.1,0v1.2h1.2V20.4z"/>
		</g>
		<g>
			<path class="st0" d="M126.1,27.3c-0.1-0.2-0.2-0.3-0.3-0.5h-0.3v1.3h1.2v-0.3C126.4,27.7,126.2,27.6,126.1,27.3z"/>
		</g>
		<g>
			<path class="st0" d="M120,10.4c0.1,0,0.2-0.1,0.3-0.1V9.1h-1.2v1.3H120z"/>
		</g>
		<g>
			<rect x="125.5" y="29" class="st0" width="1.2" height="1.3"/>
		</g>
		<g>
			<rect x="123.4" y="26.8" class="st0" width="1.2" height="1.3"/>
		</g>
		<g>
			<rect x="116.9" y="33.5" class="st0" width="1.2" height="1.3"/>
		</g>
		<g>
			<rect x="116.9" y="31.3" class="st0" width="1.2" height="1.3"/>
		</g>
		<g>
			<rect x="116.9" y="26.8" class="st0" width="1.2" height="1.3"/>
		</g>
		<g>
			<path class="st0" d="M124.6,24.7C124.6,24.7,124.5,24.6,124.6,24.7l-1.2-0.1v1.3h1.2V24.7z"/>
		</g>
		<g>
			<rect x="116.9" y="29" class="st0" width="1.2" height="1.3"/>
		</g>
		<g>
			<rect x="116.9" y="35.7" class="st0" width="1.2" height="1.3"/>
		</g>
		<g>
			<path class="st0" d="M128.9,1.5V1.2c-0.4,0-0.8,0.1-1.2,0.1v0.2H128.9z"/>
		</g>
		<g>
			<path class="st0" d="M116,31.3h-1c0.1,0.1,0.3,0.3,0.4,0.4c0.1,0.1,0.2,0.4,0.2,0.5c0,0.1,0,0.2,0,0.3h0.5V31.3z"/>
		</g>
		<g>
			<rect x="123.4" y="35.7" class="st0" width="1.2" height="1.3"/>
		</g>
		<g>
			<rect x="123.4" y="33.5" class="st0" width="1.2" height="1.3"/>
		</g>
		<g>
			<rect x="114.8" y="9.1" class="st0" width="1.2" height="1.3"/>
		</g>
		<g>
			<rect x="116.9" y="42.3" class="st0" width="1.2" height="1.3"/>
		</g>
		<g>
			<rect x="114.8" y="24.6" class="st0" width="1.2" height="1.3"/>
		</g>
		<g>
			<rect x="121.2" y="33.5" class="st0" width="1.2" height="1.3"/>
		</g>
		<g>
			<rect x="114.8" y="22.4" class="st0" width="1.2" height="1.3"/>
		</g>
		<g>
			<path class="st0" d="M128.5,7.8c0.2,0.1,0.3,0.1,0.4,0.1v-1h-1.2v0.7C127.9,7.6,128.2,7.7,128.5,7.8z"/>
		</g>
		<g>
			<path class="st0" d="M127.7,2.6c0,0,0.1,0,0.1,0c0.4,0,0.7,0,1.1,0V2.5h-1.2V2.6z"/>
		</g>
		<g>
			<rect x="114.8" y="26.8" class="st0" width="1.2" height="1.3"/>
		</g>
		<g>
			<rect x="151.4" y="20.2" class="st0" width="1.2" height="1.3"/>
		</g>
		<g>
			<rect x="153.6" y="22.4" class="st0" width="1.2" height="1.3"/>
		</g>
		<g>
			<path class="st0" d="M145.6,8.2h0.6V6.9H145v0.8c0.1,0.1,0.1,0.1,0.2,0.2C145.3,8,145.4,8.1,145.6,8.2z"/>
		</g>
		<g>
			<path class="st0" d="M140.6,27.3c0.3,0.3,0.7,0.6,1,0.8h0.2v-1.3h-1.2V27.3z"/>
		</g>
		<g>
			<path class="st0" d="M153.6,36.9h0.7c0.1-0.1,0.1-0.3,0.2-0.4c0.1-0.2,0.2-0.4,0.3-0.6v-0.2h-1.2V36.9z"/>
		</g>
		<g>
			<path class="st0" d="M151.4,18v1.3h1.2v-0.8c-0.3-0.1-0.6-0.2-0.9-0.4H151.4z"/>
		</g>
		<g>
			<path class="st0" d="M155.7,25.9h0.9c0-0.4,0-0.8-0.1-1.3h-0.8V25.9z"/>
		</g>
		<g>
			<rect x="151.4" y="22.4" class="st0" width="1.2" height="1.3"/>
		</g>
		<g>
			<rect x="147.1" y="24.6" class="st0" width="1.2" height="1.3"/>
		</g>
		<g>
			<path class="st0" d="M148.3,8.2V7.6c-0.2-0.2-0.5-0.4-0.7-0.7h-0.4v1.3H148.3z"/>
		</g>
		<g>
			<path class="st0" d="M151.4,12.6h1.2c-0.3-0.4-0.6-0.8-0.9-1.3h-0.3V12.6z"/>
		</g>
		<g>
			<path class="st0" d="M156.6,28.1c0-0.4,0-0.8,0.1-1.3h-0.9v1.3H156.6z"/>
		</g>
		<g>
			<rect x="153.6" y="29" class="st0" width="1.2" height="1.3"/>
		</g>
		<g>
			<rect x="145" y="13.5" class="st0" width="1.2" height="1.3"/>
		</g>
		<g>
			<path class="st0" d="M155.7,32.5h0.2c0.1-0.4,0.2-0.8,0.3-1.3h-0.4V32.5z"/>
		</g>
		<g>
			<rect x="153.6" y="33.5" class="st0" width="1.2" height="1.3"/>
		</g>
		<g>
			<rect x="153.6" y="20.2" class="st0" width="1.2" height="1.3"/>
		</g>
		<g>
			<rect x="153.6" y="24.6" class="st0" width="1.2" height="1.3"/>
		</g>
		<g>
			<path class="st0" d="M153.6,16.3c0.4,0.1,0.7,0.4,1,0.7h0.2v-0.2c-0.1-0.3-0.3-0.7-0.4-1h-0.8V16.3z"/>
		</g>
		<g>
			<rect x="153.6" y="31.3" class="st0" width="1.2" height="1.3"/>
		</g>
		<g>
			<rect x="151.4" y="13.5" class="st0" width="1.2" height="1.3"/>
		</g>
		<g>
			<path class="st0" d="M154.4,18.5c-0.3,0-0.6,0-0.8,0v0.7h1.2v-0.7C154.7,18.5,154.5,18.5,154.4,18.5z"/>
		</g>
		<g>
			<rect x="153.6" y="26.8" class="st0" width="1.2" height="1.3"/>
		</g>
		<g>
			<rect x="147.1" y="20.2" class="st0" width="1.2" height="1.3"/>
		</g>
		<g>
			<path class="st0" d="M144,5.1c-0.1,0-0.1,0.1-0.2,0.1c-0.1,0.1-0.1,0.4-0.1,0.8h0.3V5.1z"/>
		</g>
		<g>
			<path class="st0" d="M155.7,30.3h0.6c0.1-0.4,0.1-0.8,0.2-1.3h-0.8V30.3z"/>
		</g>
		<g>
			<path class="st0" d="M147.3,39.2h1V38c-0.2,0.3-0.4,0.5-0.6,0.7C147.5,38.8,147.4,39,147.3,39.2z"/>
		</g>
		<g>
			<path class="st0" d="M147.1,44.5v1.3h0.3c0,0,0.1,0,0.1-0.1c0.3-0.2,0.6-0.5,0.8-0.7v-0.5H147.1z"/>
		</g>
		<g>
			<path class="st0" d="M147.1,17h1.2v-0.7c-0.4,0-0.8-0.1-1.2-0.1V17z"/>
		</g>
		<g>
			<rect x="147.1" y="11.3" class="st0" width="1.2" height="1.3"/>
		</g>
		<g>
			<path class="st0" d="M141.8,19.2v-0.9c-0.3,0.2-0.5,0.3-0.8,0.5c-0.2,0.1-0.3,0.2-0.4,0.3v0.1H141.8z"/>
		</g>
		<g>
			<rect x="147.1" y="26.8" class="st0" width="1.2" height="1.3"/>
		</g>
		<g>
			<rect x="147.1" y="18" class="st0" width="1.2" height="1.3"/>
		</g>
		<g>
			<path class="st0" d="M153.9,14.8c-0.1-0.2-0.2-0.4-0.3-0.5v0.5H153.9z"/>
		</g>
		<g>
			<rect x="140.6" y="22.4" class="st0" width="1.2" height="1.3"/>
		</g>
		<g>
			<rect x="151.4" y="26.8" class="st0" width="1.2" height="1.3"/>
		</g>
		<g>
			<rect x="147.1" y="40.1" class="st0" width="1.2" height="1.3"/>
		</g>
		<g>
			<rect x="151.4" y="29" class="st0" width="1.2" height="1.3"/>
		</g>
		<g>
			<rect x="140.6" y="24.6" class="st0" width="1.2" height="1.3"/>
		</g>
		<g>
			<path class="st0" d="M155.7,21.4h0.4c-0.1-0.4-0.2-0.8-0.3-1.3h-0.2V21.4z"/>
		</g>
		<g>
			<rect x="147.1" y="22.4" class="st0" width="1.2" height="1.3"/>
		</g>
		<g>
			<rect x="151.4" y="24.6" class="st0" width="1.2" height="1.3"/>
		</g>
		<g>
			<path class="st0" d="M151.4,41.4h0.2c0.3-0.4,0.6-0.8,0.9-1.3h-1.1V41.4z"/>
		</g>
		<g>
			<rect x="140.6" y="20.2" class="st0" width="1.2" height="1.3"/>
		</g>
		<g>
			<rect x="151.4" y="31.3" class="st0" width="1.2" height="1.3"/>
		</g>
		<g>
			<rect x="151.4" y="33.5" class="st0" width="1.2" height="1.3"/>
		</g>
		<g>
			<rect x="151.4" y="37.9" class="st0" width="1.2" height="1.3"/>
		</g>
		<g>
			<rect x="151.4" y="35.7" class="st0" width="1.2" height="1.3"/>
		</g>
		<g>
			<rect x="149.3" y="20.2" class="st0" width="1.2" height="1.3"/>
		</g>
		<g>
			<rect x="142.8" y="24.6" class="st0" width="1.2" height="1.3"/>
		</g>
		<g>
			<rect x="145" y="20.2" class="st0" width="1.2" height="1.3"/>
		</g>
		<g>
			<path class="st0" d="M147.1,42.3c0,0.2,0,0.3,0,0.5v0.8h1.2v-1.3H147.1z"/>
		</g>
		<g>
			<path class="st0" d="M149.3,16.5V17h1.2v-0.2c-0.3-0.2-0.7-0.2-1.1-0.3C149.3,16.5,149.3,16.5,149.3,16.5z"/>
		</g>
		<g>
			<rect x="145" y="26.8" class="st0" width="1.2" height="1.3"/>
		</g>
		<g>
			<rect x="142.8" y="26.8" class="st0" width="1.2" height="1.3"/>
		</g>
		<g>
			<rect x="149.3" y="24.6" class="st0" width="1.2" height="1.3"/>
		</g>
		<g>
			<rect x="149.3" y="29" class="st0" width="1.2" height="1.3"/>
		</g>
		<g>
			<path class="st0" d="M149.3,42.3v1.3h0.6c0.2-0.2,0.4-0.5,0.6-0.7v-0.5H149.3z"/>
		</g>
		<g>
			<rect x="145" y="24.6" class="st0" width="1.2" height="1.3"/>
		</g>
		<g>
			<rect x="149.3" y="18" class="st0" width="1.2" height="1.3"/>
		</g>
		<g>
			<rect x="149.3" y="22.4" class="st0" width="1.2" height="1.3"/>
		</g>
		<g>
			<rect x="142.8" y="22.4" class="st0" width="1.2" height="1.3"/>
		</g>
		<g>
			<rect x="149.3" y="40.1" class="st0" width="1.2" height="1.3"/>
		</g>
		<g>
			<rect x="145" y="22.4" class="st0" width="1.2" height="1.3"/>
		</g>
		<g>
			<rect x="149.3" y="33.5" class="st0" width="1.2" height="1.3"/>
		</g>
		<g>
			<rect x="149.3" y="35.7" class="st0" width="1.2" height="1.3"/>
		</g>
		<g>
			<rect x="149.3" y="37.9" class="st0" width="1.2" height="1.3"/>
		</g>
		<g>
			<rect x="149.3" y="31.3" class="st0" width="1.2" height="1.3"/>
		</g>
		<g>
			<path class="st0" d="M146.1,5.8c-0.4-0.3-0.8-0.6-1.2-0.8v0.9h1.2V5.8z"/>
		</g>
		<g>
			<rect x="142.8" y="20.2" class="st0" width="1.2" height="1.3"/>
		</g>
		<g>
			<rect x="142.8" y="18" class="st0" width="1.2" height="1.3"/>
		</g>
		<g>
			<rect x="149.3" y="26.8" class="st0" width="1.2" height="1.3"/>
		</g>
		<g>
			<rect x="147.1" y="9.1" class="st0" width="1.2" height="1.3"/>
		</g>
		<g>
			<path class="st0" d="M145,16.2V17h1.2v-0.9C145.7,16.1,145.3,16.1,145,16.2z"/>
		</g>
		<g>
			<path class="st0" d="M149.3,13.8c0.2,0.1,0.3,0.4,0.3,0.7c0,0.1,0.1,0.2,0.1,0.3h0.5c0,0,0.1,0,0.1-0.1c0.1-0.1,0.1-0.1,0.2-0.2
				v-1h-1.2V13.8z"/>
		</g>
		<g>
			<path class="st0" d="M150.5,10.4V9.8c-0.2-0.2-0.4-0.4-0.6-0.6h-0.6v1.3H150.5z"/>
		</g>
		<g>
			<rect x="149.3" y="11.3" class="st0" width="1.2" height="1.3"/>
		</g>
		<g>
			<path class="st0" d="M155.7,22.4v1.3h0.8c0-0.1,0-0.3,0-0.4c0-0.3-0.1-0.6-0.1-0.8H155.7z"/>
		</g>
		<g>
			<rect x="145" y="18" class="st0" width="1.2" height="1.3"/>
		</g>
		<g>
			<path class="st0" d="M135.4,1.5V1.3c-0.4-0.1-0.8-0.1-1.2-0.2v0.3H135.4z"/>
		</g>
		<g>
			<path class="st0" d="M134.5,3.7c0.2-0.2,0.5-0.4,0.8-0.5V2.5h-1.2v1.3H134.5z"/>
		</g>
		<g>
			<path class="st0" d="M132.9,5.7c0.1-0.1,0.2-0.2,0.3-0.3V4.7H132v0.2C132.2,5.2,132.5,5.5,132.9,5.7z"/>
		</g>
		<g>
			<rect x="132" y="2.5" class="st0" width="1.2" height="1.3"/>
		</g>
		<g>
			<path class="st0" d="M133.2,1.5V1.1c-0.3,0-0.6,0-1,0c-0.1,0.1-0.1,0.3-0.2,0.4H133.2z"/>
		</g>
		<g>
			<path class="st0" d="M128.9,31.3h-1.2v1.3h0.7c0.1-0.2,0.3-0.4,0.4-0.7V31.3z"/>
		</g>
		<g>
			<rect x="119.1" y="31.3" class="st0" width="1.2" height="1.3"/>
		</g>
		<g>
			<rect x="123.4" y="31.3" class="st0" width="1.2" height="1.3"/>
		</g>
		<g>
			<rect x="125.5" y="31.3" class="st0" width="1.2" height="1.3"/>
		</g>
		<g>
			<rect x="121.2" y="31.3" class="st0" width="1.2" height="1.3"/>
		</g>
		<g>
			<rect x="121.2" y="35.7" class="st0" width="1.2" height="1.3"/>
		</g>
	</g>
	<g>
		<path class="st0" d="M131.1,1C131,1,131,1,131.1,1C131,1,131,1.1,131.1,1C131,1.1,131,1.1,131.1,1L131.1,1z"/>
	</g>
	<g>
		<path class="st0" d="M131.1,1.1C131,1.1,131,1.1,131.1,1.1c0,0,0,0.1,0,0.1V1.1z"/>
	</g>
	<g>
		<rect x="127.7" y="23.7" class="st0" width="1.2" height="1"/>
	</g>
	<g>
		<path class="st0" d="M138.5,23.7v1h1c0-0.1,0-0.2,0.1-0.3c0-0.2,0.1-0.3,0.1-0.5v-0.2H138.5z"/>
	</g>
	<g>
		<path class="st0" d="M124.6,23.7h-0.8c0.3,0.3,0.5,0.6,0.8,1h0.1V23.7z"/>
	</g>
	<g>
		<path class="st0" d="M107.3,24.6v-1h-1.1c0,0.2,0,0.3,0,0.5v0.5H107.3z"/>
	</g>
	<g>
		<rect x="134.2" y="23.7" class="st0" width="1.2" height="1"/>
	</g>
	<g>
		<rect x="136.3" y="23.7" class="st0" width="1.2" height="1"/>
	</g>
	<g>
		<rect x="125.5" y="23.7" class="st0" width="1.2" height="1"/>
	</g>
	<g>
		<rect x="110.5" y="23.7" class="st0" width="1.2" height="1"/>
	</g>
	<g>
		<rect x="129.9" y="23.7" class="st0" width="1.2" height="1"/>
	</g>
	<g>
		<rect x="132" y="23.7" class="st0" width="1.2" height="1"/>
	</g>
	<g>
		<rect x="108.3" y="23.7" class="st0" width="1.2" height="1"/>
	</g>
	<g>
		<path class="st0" d="M113.8,23.9c-0.2,0.2-0.3,0.4-0.5,0.6c0,0,0,0.1-0.1,0.1h0.6V23.9z"/>
	</g>
	<g>
		<path class="st0" d="M139.5,24.6h0.2v-0.7c0,0.2-0.1,0.3-0.1,0.5C139.5,24.4,139.5,24.5,139.5,24.6z"/>
	</g>
	<g>
		<rect x="108.3" y="25.9" class="st0" width="1.2" height="1"/>
	</g>
	<g>
		<path class="st0" d="M126.7,26.8v-1h-1.2v0.4c0.1,0.2,0.2,0.4,0.3,0.5H126.7z"/>
	</g>
	<g>
		<rect x="134.2" y="25.9" class="st0" width="1.2" height="1"/>
	</g>
	<g>
		<rect x="132" y="25.9" class="st0" width="1.2" height="1"/>
	</g>
	<g>
		<rect x="127.7" y="25.9" class="st0" width="1.2" height="1"/>
	</g>
	<g>
		<rect x="106.1" y="25.9" class="st0" width="1.2" height="1"/>
	</g>
	<g>
		<rect x="129.9" y="25.9" class="st0" width="1.2" height="1"/>
	</g>
	<g>
		<path class="st0" d="M112.6,25.9v0.2C112.6,26,112.6,25.9,112.6,25.9L112.6,25.9z"/>
	</g>
	<g>
		<rect x="136.3" y="25.9" class="st0" width="1.2" height="1"/>
	</g>
	<g>
		<rect x="110.5" y="25.9" class="st0" width="1.2" height="1"/>
	</g>
	<g>
		<path class="st0" d="M138.5,25.9v1h1.2v-0.6c-0.1-0.1-0.1-0.2-0.1-0.3H138.5z"/>
	</g>
	<g>
		<path class="st0" d="M125.5,26.3v0.5h0.3C125.7,26.7,125.6,26.5,125.5,26.3z"/>
	</g>
	<g>
		<path class="st0" d="M156.6,26.8c0-0.1,0-0.1,0-0.2C156.6,26.7,156.6,26.8,156.6,26.8L156.6,26.8z"/>
	</g>
	<g>
		<path class="st0" d="M139.7,26.2v-0.3h-0.1C139.6,26,139.6,26.1,139.7,26.2z"/>
	</g>
	<g>
		<path class="st0" d="M131.1,1.2v0.3h0.2C131.2,1.4,131.1,1.3,131.1,1.2z"/>
	</g>
	<g>
		<path class="st0" d="M131.7,1.5h0.3V1.1c-0.1,0-0.1,0-0.2,0C131.8,1.2,131.8,1.4,131.7,1.5z"/>
	</g>
	<g>
		<path class="st0" d="M131.1,51.2v0.4c0,0,0,0,0,0c0.3,0,0.6,0,1,0v-0.4H131.1z"/>
	</g>
	<g>
		<path class="st0" d="M132,4.7h-0.1c0,0.1,0.1,0.1,0.1,0.2V4.7z"/>
	</g>
	<g>
		<rect x="131.1" y="23.7" class="st0" width="1" height="1"/>
	</g>
	<g>
		<rect x="131.1" y="25.9" class="st0" width="1" height="1"/>
	</g>
	<g>
		<path class="st0" d="M133.2,51.2v0.4c0.3,0,0.6-0.1,1-0.1v-0.3H133.2z"/>
	</g>
	<g>
		<rect x="133.2" y="23.7" class="st0" width="1" height="1"/>
	</g>
	<g>
		<rect x="133.2" y="25.9" class="st0" width="1" height="1"/>
	</g>
	<g>
		<path class="st0" d="M129.6,29.2c0.1,0.1,0.2,0.2,0.3,0.3V29h-0.4C129.5,29.1,129.5,29.1,129.6,29.2z"/>
	</g>
	<g>
		<path class="st0" d="M128.9,51.2v0.3c0.3,0,0.6,0.1,1,0.1v-0.4H128.9z"/>
	</g>
	<g>
		<path class="st0" d="M129.4,31.3c-0.2,0.2-0.4,0.4-0.5,0.6v0.7h1v-1.3H129.4z"/>
	</g>
	<g>
		<rect x="128.9" y="23.7" class="st0" width="1" height="1"/>
	</g>
	<g>
		<rect x="128.9" y="25.9" class="st0" width="1" height="1"/>
	</g>
	<g>
		<path class="st0" d="M127.7,7.7c-0.3,0-0.6,0.2-0.9,0.5h0.9V7.7z"/>
	</g>
	<g>
		<path class="st0" d="M127.5,34.7C127.5,34.7,127.5,34.7,127.5,34.7l0.2,0.1v-0.5C127.6,34.3,127.6,34.5,127.5,34.7z"/>
	</g>
	<g>
		<path class="st0" d="M126.7,51.2L126.7,51.2c0.3,0.1,0.6,0.1,1,0.2v-0.2H126.7z"/>
	</g>
	<g>
		<rect x="126.7" y="23.7" class="st0" width="1" height="1"/>
	</g>
	<g>
		<rect x="126.7" y="25.9" class="st0" width="1" height="1"/>
	</g>
	<g>
		<path class="st0" d="M125.2,36.8c-0.2,0-0.4,0.1-0.6,0.2h0.9v-0.2C125.4,36.7,125.3,36.7,125.2,36.8z"/>
	</g>
	<g>
		<path class="st0" d="M125.3,25.9c0.1,0.1,0.2,0.3,0.2,0.4v-0.4H125.3z"/>
	</g>
	<g>
		<path class="st0" d="M122.4,50.2h0.6c-0.2-0.1-0.4-0.1-0.6-0.2V50.2z"/>
	</g>
	<g>
		<path class="st0" d="M122.8,39.2h0.6v-0.8C123.2,38.6,123,38.9,122.8,39.2z"/>
	</g>
	<g>
		<path class="st0" d="M122.5,9.3c0.1-0.1,0.2-0.1,0.3-0.2h-0.4L122.5,9.3C122.5,9.3,122.5,9.3,122.5,9.3z"/>
	</g>
	<g>
		<path class="st0" d="M120.3,49L120.3,49c0.3,0.3,0.6,0.4,1,0.5V49H120.3z"/>
	</g>
	<g>
		<path class="st0" d="M120.5,41.3C120.5,41.3,120.5,41.4,120.5,41.3l0.7,0v-0.6C121,41,120.8,41.2,120.5,41.3z"/>
	</g>
	<g>
		<path class="st0" d="M120.3,21.4L120.3,21.4L120.3,21.4C120.3,21.4,120.3,21.4,120.3,21.4z"/>
	</g>
	<g>
		<path class="st0" d="M118.1,48h0.2c-0.1,0-0.1-0.1-0.2-0.1V48z"/>
	</g>
	<g>
		<path class="st0" d="M118.1,4.7L118.1,4.7c0.1,0.1,0.1,0,0.2,0H118.1z"/>
	</g>
	<g>
		<path class="st0" d="M118.4,44.5h-0.3v1.3h0.3C118.4,45.4,118.4,44.9,118.4,44.5z"/>
	</g>
	<g>
		<path class="st0" d="M116,43.6L116,43.6C116,43.6,116,43.5,116,43.6L116,43.6z"/>
	</g>
	<g>
		<path class="st0" d="M113.8,29.9v0.3h0.3C114,30.2,113.9,30.1,113.8,29.9z"/>
	</g>
	<g>
		<path class="st0" d="M114.8,45.4v-0.9h-1C114.1,44.8,114.4,45.1,114.8,45.4z"/>
	</g>
	<g>
		<path class="st0" d="M113.8,15.8v0.3c0.1-0.1,0.2-0.2,0.2-0.3H113.8z"/>
	</g>
	<g>
		<path class="st0" d="M114.1,11.3h-0.3v0.1C113.9,11.4,114,11.4,114.1,11.3z"/>
	</g>
	<g>
		<path class="st0" d="M113.8,23.7v0.3c0.1-0.1,0.1-0.2,0.2-0.3H113.8z"/>
	</g>
	<g>
		<path class="st0" d="M112.6,12.4c-0.1,0.1-0.1,0.1-0.1,0.2h0.1V12.4z"/>
	</g>
	<g>
		<path class="st0" d="M112.6,43.3v-1h-0.8C112,42.7,112.3,43,112.6,43.3z"/>
	</g>
	<g>
		<path class="st0" d="M111.9,13.8c0-0.1,0-0.2,0.1-0.3h-0.3v1.3h0.2C111.8,14.5,111.8,14.2,111.9,13.8z"/>
	</g>
	<g>
		<path class="st0" d="M112.6,26.8C112.6,26.8,112.6,26.8,112.6,26.8L112.6,26.8L112.6,26.8z"/>
	</g>
	<g>
		<path class="st0" d="M112.6,26.1c0,0.2,0,0.5,0,0.7h0V26.1z"/>
	</g>
	<g>
		<path class="st0" d="M109.5,39.1L109.5,39.1L109.5,39.1C109.5,39.1,109.5,39.1,109.5,39.1z"/>
	</g>
	<g>
		<path class="st0" d="M109.5,13.5L109.5,13.5C109.5,13.6,109.5,13.6,109.5,13.5L109.5,13.5z"/>
	</g>
	<g>
		<path class="st0" d="M110.1,40.1c0.1,0.2,0.2,0.3,0.3,0.5v-0.5H110.1z"/>
	</g>
	<g>
		<path class="st0" d="M110.5,12.1V12c-0.1,0.1-0.2,0.3-0.3,0.4c0,0.1-0.1,0.1-0.1,0.2h0.1C110.2,12.4,110.3,12.3,110.5,12.1z"/>
	</g>
	<g>
		<path class="st0" d="M110.5,13.5H110c0,0.1,0,0.3,0,0.4c-0.1,0.3-0.1,0.6-0.1,0.8h0.5V13.5z"/>
	</g>
	<g>
		<path class="st0" d="M110.1,12.6h0.3v-0.5C110.3,12.3,110.2,12.4,110.1,12.6z"/>
	</g>
	<g>
		<path class="st0" d="M110.3,15.8c0,0.1,0.1,0.1,0.2,0.2v-0.2H110.3z"/>
	</g>
	<g>
		<rect x="109.5" y="23.7" class="st0" width="1" height="1"/>
	</g>
	<g>
		<rect x="109.5" y="25.9" class="st0" width="1" height="1"/>
	</g>
	<g>
		<path class="st0" d="M107.3,18v0.4c0-0.1,0.1-0.3,0.1-0.4H107.3z"/>
	</g>
	<g>
		<path class="st0" d="M107.3,34.3v0.4h0.1C107.4,34.6,107.4,34.4,107.3,34.3z"/>
	</g>
	<g>
		<path class="st0" d="M108.3,19.2V18h-0.8c0,0.1-0.1,0.3-0.1,0.4v0.9H108.3z"/>
	</g>
	<g>
		<path class="st0" d="M107.8,35.7c0.1,0.4,0.3,0.7,0.5,1.1v-1.1H107.8z"/>
	</g>
	<g>
		<path class="st0" d="M108.3,15.9c-0.2,0.4-0.3,0.7-0.5,1.1h0.5V15.9z"/>
	</g>
	<g>
		<rect x="107.3" y="23.7" class="st0" width="1" height="1"/>
	</g>
	<g>
		<rect x="107.3" y="25.9" class="st0" width="1" height="1"/>
	</g>
	<g>
		<path class="st0" d="M135.4,51.2v0.1c0.2,0,0.5-0.1,0.7-0.1H135.4z"/>
	</g>
	<g>
		<rect x="135.4" y="23.7" class="st0" width="1" height="1"/>
	</g>
	<g>
		<rect x="135.4" y="25.9" class="st0" width="1" height="1"/>
	</g>
	<g>
		<rect x="137.5" y="23.7" class="st0" width="1" height="1"/>
	</g>
	<g>
		<rect x="137.5" y="25.9" class="st0" width="1" height="1"/>
	</g>
	<g>
		<path class="st0" d="M140.6,19.1c0,0-0.1,0.1-0.1,0.1h0.1V19.1z"/>
	</g>
	<g>
		<path class="st0" d="M139.7,23.9c0-0.1,0-0.1,0.1-0.2h-0.1V23.9z"/>
	</g>
	<g>
		<path class="st0" d="M142.7,3.7c-0.3-0.2-0.6-0.3-0.9-0.4v0.4H142.7z"/>
	</g>
	<g>
		<path class="st0" d="M141.8,49.4c0.3-0.1,0.6-0.3,0.8-0.4h-0.8V49.4z"/>
	</g>
	<g>
		<path class="st0" d="M144.4,48h0.5v-0.3C144.8,47.8,144.6,47.9,144.4,48z"/>
	</g>
	<g>
		<polygon class="st0" points="145,5 144.9,5 145,5 		"/>
	</g>
	<g>
		<path class="st0" d="M146.3,44.5h-0.1v0.2c0,0,0,0,0,0C146.2,44.7,146.2,44.6,146.3,44.5z"/>
	</g>
	<g>
		<path class="st0" d="M146.1,46.9c0,0,0.1-0.1,0.1-0.1h-0.1V46.9z"/>
	</g>
	<g>
		<path class="st0" d="M147.1,40.1h-0.3c-0.1,0.4-0.1,0.8,0.1,1.3h0.2V40.1z"/>
	</g>
	<g>
		<path class="st0" d="M147.1,42.8c0,0.3-0.1,0.5-0.3,0.8h0.3V42.8z"/>
	</g>
	<g>
		<path class="st0" d="M146.3,5.9c-0.1,0-0.1-0.1-0.2-0.1v0.1H146.3z"/>
	</g>
	<g>
		<path class="st0" d="M148.3,38C148.3,37.9,148.3,37.9,148.3,38L148.3,38L148.3,38z"/>
	</g>
	<g>
		<path class="st0" d="M148.3,34.7h0.3c-0.1-0.4-0.2-0.8-0.2-1.3h-0.1V34.7z"/>
	</g>
	<g>
		<path class="st0" d="M150.7,17c-0.1-0.1-0.2-0.1-0.2-0.2V17H150.7z"/>
	</g>
	<g>
		<path class="st0" d="M152.7,12.6c0-0.1-0.1-0.1-0.1-0.2v0.2H152.7z"/>
	</g>
	<g>
		<path class="st0" d="M154.8,18.5c0.1,0,0.1,0,0.2,0c0-0.2,0-0.4,0-0.5h-0.2V18.5z"/>
	</g>
	<g>
		<path class="st0" d="M154.8,35.9c0-0.1,0.1-0.2,0.1-0.2C154.8,35.8,154.8,35.8,154.8,35.9L154.8,35.9z"/>
	</g>
	<g>
		<path class="st0" d="M154.9,17h0.1c-0.1-0.2-0.1-0.4-0.2-0.6v0.3C154.8,16.8,154.8,16.9,154.9,17z"/>
	</g>
	<g>
		<path class="st0" d="M155.6,19.2L155.6,19.2c0-0.4-0.2-0.8-0.3-1.3h-0.1C155.4,18.4,155.5,18.8,155.6,19.2z"/>
	</g>
	<g>
		<polygon class="st0" points="154.9,35.7 154.9,35.7 154.9,35.7 		"/>
	</g>
	<g>
		<path class="st0" d="M155.2,34.7c0.2-0.4,0.3-0.8,0.4-1.3h0C155.5,33.9,155.4,34.3,155.2,34.7L155.2,34.7z"/>
	</g>
	<g>
		<path class="st0" d="M154.9,17c0-0.1-0.1-0.2-0.1-0.2V17H154.9z"/>
	</g>
	<g>
		<path class="st0" d="M154.8,35.7v0.2C154.8,35.8,154.8,35.8,154.8,35.7C154.9,35.7,154.9,35.7,154.8,35.7L154.8,35.7z"/>
	</g>
	<g>
		<rect x="138.5" y="28.1" class="st0" width="1.2" height="1"/>
	</g>
	<g>
		<rect x="108.3" y="28.1" class="st0" width="1.2" height="1"/>
	</g>
	<g>
		<path class="st0" d="M128.9,28.6v-0.6h-1.1C128.2,28.2,128.5,28.4,128.9,28.6z"/>
	</g>
	<g>
		<path class="st0" d="M107.3,29v-1h-1.2v0.4c0,0.2,0,0.4,0.1,0.6H107.3z"/>
	</g>
	<g>
		<path class="st0" d="M112.9,28.9c-0.1-0.1-0.1-0.2-0.1-0.4c0-0.2,0-0.3,0-0.5h-0.1v1h0.4C113,29,112.9,29,112.9,28.9z"/>
	</g>
	<g>
		<rect x="110.5" y="28.1" class="st0" width="1.2" height="1"/>
	</g>
	<g>
		<path class="st0" d="M143.3,29c-0.2-0.1-0.3-0.1-0.5-0.2V29H143.3z"/>
	</g>
	<g>
		<rect x="134.2" y="28.1" class="st0" width="1.2" height="1"/>
	</g>
	<g>
		<rect x="132" y="28.1" class="st0" width="1.2" height="1"/>
	</g>
	<g>
		<rect x="129.9" y="28.1" class="st0" width="1.2" height="1"/>
	</g>
	<g>
		<rect x="136.3" y="28.1" class="st0" width="1.2" height="1"/>
	</g>
	<g>
		<path class="st0" d="M141.7,28.1c0,0,0.1,0.1,0.1,0.1v-0.2L141.7,28.1C141.7,28.1,141.7,28.1,141.7,28.1z"/>
	</g>
	<g>
		<rect x="131.1" y="28.1" class="st0" width="1" height="1"/>
	</g>
	<g>
		<rect x="133.2" y="28.1" class="st0" width="1" height="1"/>
	</g>
	<g>
		<path class="st0" d="M128.9,28.1v0.6c0.2,0.1,0.4,0.3,0.5,0.4h0.4v-1H128.9z"/>
	</g>
	<g>
		<path class="st0" d="M128.9,29h0.5c-0.2-0.1-0.3-0.3-0.5-0.4V29z"/>
	</g>
	<g>
		<rect x="111.6" y="28.1" class="st0" width="1" height="1"/>
	</g>
	<g>
		<rect x="109.5" y="28.1" class="st0" width="1" height="1"/>
	</g>
	<g>
		<rect x="107.3" y="28.1" class="st0" width="1" height="1"/>
	</g>
	<g>
		<rect x="135.4" y="28.1" class="st0" width="1" height="1"/>
	</g>
	<g>
		<rect x="137.5" y="28.1" class="st0" width="1" height="1"/>
	</g>
	<g>
		<path class="st0" d="M114.8,31v0.2h0.2C114.9,31.2,114.8,31.1,114.8,31z"/>
	</g>
	<g>
		<rect x="140.6" y="30.3" class="st0" width="1.2" height="1"/>
	</g>
	<g>
		<rect x="132" y="30.3" class="st0" width="1.2" height="1"/>
	</g>
	<g>
		<path class="st0" d="M107.3,30.3h-1c0.1,0.3,0.1,0.6,0.2,1h0.8V30.3z"/>
	</g>
	<g>
		<rect x="145" y="30.3" class="st0" width="1.2" height="1"/>
	</g>
	<g>
		<rect x="136.3" y="30.3" class="st0" width="1.2" height="1"/>
	</g>
	<g>
		<path class="st0" d="M130,30.3c0,0.1-0.1,0.3-0.1,0.4v0.5h1.2v-1H130z"/>
	</g>
	<g>
		<rect x="112.6" y="30.3" class="st0" width="1.2" height="1"/>
	</g>
	<g>
		<rect x="134.2" y="30.3" class="st0" width="1.2" height="1"/>
	</g>
	<g>
		<rect x="110.5" y="30.3" class="st0" width="1.2" height="1"/>
	</g>
	<g>
		<rect x="142.8" y="30.3" class="st0" width="1.2" height="1"/>
	</g>
	<g>
		<rect x="138.5" y="30.3" class="st0" width="1.2" height="1"/>
	</g>
	<g>
		<rect x="108.3" y="30.3" class="st0" width="1.2" height="1"/>
	</g>
	<g>
		<path class="st0" d="M129.9,30.7c0.1-0.1,0.1-0.3,0.1-0.4h-0.1V30.7z"/>
	</g>
	<g>
		<rect x="131.1" y="30.3" class="st0" width="1" height="1"/>
	</g>
	<g>
		<rect x="133.2" y="30.3" class="st0" width="1" height="1"/>
	</g>
	<g>
		<path class="st0" d="M129.8,30.8c-0.1,0.1-0.1,0.2-0.2,0.3c-0.1,0-0.1,0.1-0.2,0.1h0.4L129.8,30.8
			C129.8,30.8,129.8,30.8,129.8,30.8z"/>
	</g>
	<g>
		<rect x="111.6" y="30.3" class="st0" width="1" height="1"/>
	</g>
	<g>
		<rect x="109.5" y="30.3" class="st0" width="1" height="1"/>
	</g>
	<g>
		<rect x="107.3" y="30.3" class="st0" width="1" height="1"/>
	</g>
	<g>
		<rect x="135.4" y="30.3" class="st0" width="1" height="1"/>
	</g>
	<g>
		<rect x="137.5" y="30.3" class="st0" width="1" height="1"/>
	</g>
	<g>
		<rect x="139.7" y="30.3" class="st0" width="1" height="1"/>
	</g>
	<g>
		<rect x="141.8" y="30.3" class="st0" width="1" height="1"/>
	</g>
	<g>
		<rect x="144" y="30.3" class="st0" width="1" height="1"/>
	</g>
	<g>
		<rect x="145" y="32.5" class="st0" width="1.2" height="1"/>
	</g>
	<g>
		<rect x="140.6" y="32.5" class="st0" width="1.2" height="1"/>
	</g>
	<g>
		<path class="st0" d="M107.3,32.5h-0.5c0.1,0.3,0.2,0.6,0.3,1h0.3V32.5z"/>
	</g>
	<g>
		<rect x="129.9" y="32.5" class="st0" width="1.2" height="1"/>
	</g>
	<g>
		<rect x="132" y="32.5" class="st0" width="1.2" height="1"/>
	</g>
	<g>
		<rect x="138.5" y="32.5" class="st0" width="1.2" height="1"/>
	</g>
	<g>
		<path class="st0" d="M128.4,32.5c-0.2,0.3-0.3,0.6-0.5,1h0.9v-1H128.4z"/>
	</g>
	<g>
		<rect x="134.2" y="32.5" class="st0" width="1.2" height="1"/>
	</g>
	<g>
		<rect x="142.8" y="32.5" class="st0" width="1.2" height="1"/>
	</g>
	<g>
		<rect x="136.3" y="32.5" class="st0" width="1.2" height="1"/>
	</g>
	<g>
		<path class="st0" d="M115.5,32.5h-0.7v1h0.8C115.5,33.2,115.5,32.8,115.5,32.5z"/>
	</g>
	<g>
		<rect x="147.1" y="32.5" class="st0" width="1.2" height="1"/>
	</g>
	<g>
		<rect x="108.3" y="32.5" class="st0" width="1.2" height="1"/>
	</g>
	<g>
		<rect x="112.6" y="32.5" class="st0" width="1.2" height="1"/>
	</g>
	<g>
		<rect x="110.5" y="32.5" class="st0" width="1.2" height="1"/>
	</g>
	<g>
		<path class="st0" d="M116,32.5h-0.5c0,0.3,0,0.7,0.1,1h0.3V32.5z"/>
	</g>
	<g>
		<rect x="131.1" y="32.5" class="st0" width="1" height="1"/>
	</g>
	<g>
		<rect x="133.2" y="32.5" class="st0" width="1" height="1"/>
	</g>
	<g>
		<rect x="128.9" y="32.5" class="st0" width="1" height="1"/>
	</g>
	<g>
		<rect x="113.8" y="32.5" class="st0" width="1" height="1"/>
	</g>
	<g>
		<rect x="111.6" y="32.5" class="st0" width="1" height="1"/>
	</g>
	<g>
		<rect x="109.5" y="32.5" class="st0" width="1" height="1"/>
	</g>
	<g>
		<rect x="107.3" y="32.5" class="st0" width="1" height="1"/>
	</g>
	<g>
		<rect x="135.4" y="32.5" class="st0" width="1" height="1"/>
	</g>
	<g>
		<rect x="137.5" y="32.5" class="st0" width="1" height="1"/>
	</g>
	<g>
		<rect x="139.7" y="32.5" class="st0" width="1" height="1"/>
	</g>
	<g>
		<rect x="141.8" y="32.5" class="st0" width="1" height="1"/>
	</g>
	<g>
		<rect x="144" y="32.5" class="st0" width="1" height="1"/>
	</g>
	<g>
		<rect x="146.1" y="32.5" class="st0" width="1" height="1"/>
	</g>
	<g>
		<path class="st0" d="M148.3,33.5h0.1c0-0.3,0.1-0.6,0.2-1h-0.3V33.5z"/>
	</g>
	<g>
		<path class="st0" d="M155.7,33.5v-0.3C155.7,33.3,155.7,33.4,155.7,33.5L155.7,33.5z"/>
	</g>
	<g>
		<path class="st0" d="M155.6,33.5L155.6,33.5c0-0.1,0.1-0.2,0.1-0.3v-0.1C155.7,33.2,155.7,33.3,155.6,33.5z"/>
	</g>
	<g>
		<rect x="110.5" y="34.7" class="st0" width="1.2" height="1"/>
	</g>
	<g>
		<rect x="136.3" y="34.7" class="st0" width="1.2" height="1"/>
	</g>
	<g>
		<rect x="129.9" y="34.7" class="st0" width="1.2" height="1"/>
	</g>
	<g>
		<rect x="112.6" y="34.7" class="st0" width="1.2" height="1"/>
	</g>
	<g>
		<rect x="108.3" y="34.7" class="st0" width="1.2" height="1"/>
	</g>
	<g>
		<rect x="140.6" y="34.7" class="st0" width="1.2" height="1"/>
	</g>
	<g>
		<rect x="147.1" y="34.7" class="st0" width="1.2" height="1"/>
	</g>
	<g>
		<rect x="138.5" y="34.7" class="st0" width="1.2" height="1"/>
	</g>
	<g>
		<rect x="142.8" y="34.7" class="st0" width="1.2" height="1"/>
	</g>
	<g>
		<rect x="145" y="34.7" class="st0" width="1.2" height="1"/>
	</g>
	<g>
		<rect x="127.7" y="34.7" class="st0" width="1.2" height="1"/>
	</g>
	<g>
		<rect x="132" y="34.7" class="st0" width="1.2" height="1"/>
	</g>
	<g>
		<rect x="134.2" y="34.7" class="st0" width="1.2" height="1"/>
	</g>
	<g>
		<path class="st0" d="M116,35.5v-0.7h-1.2v1h1.1C115.9,35.6,115.9,35.5,116,35.5z"/>
	</g>
	<g>
		<path class="st0" d="M116,35.5c0,0.1,0,0.2-0.1,0.2h0.1V35.5z"/>
	</g>
	<g>
		<rect x="131.1" y="34.7" class="st0" width="1" height="1"/>
	</g>
	<g>
		<rect x="133.2" y="34.7" class="st0" width="1" height="1"/>
	</g>
	<g>
		<rect x="128.9" y="34.7" class="st0" width="1" height="1"/>
	</g>
	<g>
		<rect x="113.8" y="34.7" class="st0" width="1" height="1"/>
	</g>
	<g>
		<rect x="111.6" y="34.7" class="st0" width="1" height="1"/>
	</g>
	<g>
		<rect x="109.5" y="34.7" class="st0" width="1" height="1"/>
	</g>
	<g>
		<path class="st0" d="M108.3,34.7h-0.8c0.1,0.3,0.2,0.6,0.4,1h0.5V34.7z"/>
	</g>
	<g>
		<rect x="135.4" y="34.7" class="st0" width="1" height="1"/>
	</g>
	<g>
		<rect x="137.5" y="34.7" class="st0" width="1" height="1"/>
	</g>
	<g>
		<rect x="139.7" y="34.7" class="st0" width="1" height="1"/>
	</g>
	<g>
		<rect x="141.8" y="34.7" class="st0" width="1" height="1"/>
	</g>
	<g>
		<rect x="144" y="34.7" class="st0" width="1" height="1"/>
	</g>
	<g>
		<rect x="146.1" y="34.7" class="st0" width="1" height="1"/>
	</g>
	<g>
		<rect x="142.8" y="36.9" class="st0" width="1.2" height="1"/>
	</g>
	<g>
		<rect x="127.7" y="36.9" class="st0" width="1.2" height="1"/>
	</g>
	<g>
		<rect x="129.9" y="36.9" class="st0" width="1.2" height="1"/>
	</g>
	<g>
		<rect x="112.6" y="36.9" class="st0" width="1.2" height="1"/>
	</g>
	<g>
		<rect x="138.5" y="36.9" class="st0" width="1.2" height="1"/>
	</g>
	<g>
		<rect x="140.6" y="36.9" class="st0" width="1.2" height="1"/>
	</g>
	<g>
		<path class="st0" d="M109.5,36.9h-1.1c0.2,0.3,0.3,0.6,0.5,1h0.6V36.9z"/>
	</g>
	<g>
		<path class="st0" d="M115.7,36.9h-0.9v1h0.8C115.5,37.6,115.6,37.3,115.7,36.9z"/>
	</g>
	<g>
		<rect x="110.5" y="36.9" class="st0" width="1.2" height="1"/>
	</g>
	<g>
		<path class="st0" d="M124,37.6c-0.1,0.1-0.2,0.2-0.3,0.3h0.9V37C124.3,37.1,124.1,37.3,124,37.6z"/>
	</g>
	<g>
		<rect x="132" y="36.9" class="st0" width="1.2" height="1"/>
	</g>
	<g>
		<rect x="147.1" y="36.9" class="st0" width="1.2" height="1"/>
	</g>
	<g>
		<rect x="134.2" y="36.9" class="st0" width="1.2" height="1"/>
	</g>
	<g>
		<rect x="145" y="36.9" class="st0" width="1.2" height="1"/>
	</g>
	<g>
		<rect x="136.3" y="36.9" class="st0" width="1.2" height="1"/>
	</g>
	<g>
		<rect x="125.5" y="36.9" class="st0" width="1.2" height="1"/>
	</g>
	<g>
		<rect x="131.1" y="36.9" class="st0" width="1" height="1"/>
	</g>
	<g>
		<rect x="133.2" y="36.9" class="st0" width="1" height="1"/>
	</g>
	<g>
		<rect x="128.9" y="36.9" class="st0" width="1" height="1"/>
	</g>
	<g>
		<rect x="126.7" y="36.9" class="st0" width="1" height="1"/>
	</g>
	<g>
		<path class="st0" d="M124.6,36.9C124.6,36.9,124.6,37,124.6,36.9l-0.1,1h1v-1H124.6z"/>
	</g>
	<g>
		<path class="st0" d="M124.6,37C124.6,37,124.6,36.9,124.6,37L124.6,37L124.6,37z"/>
	</g>
	<g>
		<rect x="113.8" y="36.9" class="st0" width="1" height="1"/>
	</g>
	<g>
		<rect x="111.6" y="36.9" class="st0" width="1" height="1"/>
	</g>
	<g>
		<rect x="109.5" y="36.9" class="st0" width="1" height="1"/>
	</g>
	<g>
		<rect x="135.4" y="36.9" class="st0" width="1" height="1"/>
	</g>
	<g>
		<rect x="137.5" y="36.9" class="st0" width="1" height="1"/>
	</g>
	<g>
		<rect x="139.7" y="36.9" class="st0" width="1" height="1"/>
	</g>
	<g>
		<rect x="141.8" y="36.9" class="st0" width="1" height="1"/>
	</g>
	<g>
		<rect x="144" y="36.9" class="st0" width="1" height="1"/>
	</g>
	<g>
		<rect x="146.1" y="36.9" class="st0" width="1" height="1"/>
	</g>
	<g>
		<path class="st0" d="M152.6,40.1L152.6,40.1C152.6,40.1,152.6,40.1,152.6,40.1L152.6,40.1z"/>
	</g>
	<g>
		<rect x="138.5" y="39.2" class="st0" width="1.2" height="1"/>
	</g>
	<g>
		<rect x="129.9" y="39.2" class="st0" width="1.2" height="1"/>
	</g>
	<g>
		<rect x="125.5" y="39.2" class="st0" width="1.2" height="1"/>
	</g>
	<g>
		<rect x="142.8" y="39.2" class="st0" width="1.2" height="1"/>
	</g>
	<g>
		<rect x="145" y="39.2" class="st0" width="1.2" height="1"/>
	</g>
	<g>
		<rect x="123.4" y="39.2" class="st0" width="1.2" height="1"/>
	</g>
	<g>
		<rect x="134.2" y="39.2" class="st0" width="1.2" height="1"/>
	</g>
	<g>
		<path class="st0" d="M122,40.1h0.4v-0.5C122.3,39.8,122.1,40,122,40.1z"/>
	</g>
	<g>
		<rect x="140.6" y="39.2" class="st0" width="1.2" height="1"/>
	</g>
	<g>
		<rect x="127.7" y="39.2" class="st0" width="1.2" height="1"/>
	</g>
	<g>
		<path class="st0" d="M152.5,40.1L152.5,40.1C152.6,40.1,152.6,40.1,152.5,40.1l0.1-0.1C152.6,40,152.6,40.1,152.5,40.1z"/>
	</g>
	<g>
		<rect x="112.6" y="39.2" class="st0" width="1.2" height="1"/>
	</g>
	<g>
		<path class="st0" d="M147.1,39.4c0.1-0.1,0.1-0.2,0.2-0.3h-0.2V39.4z"/>
	</g>
	<g>
		<rect x="136.3" y="39.2" class="st0" width="1.2" height="1"/>
	</g>
	<g>
		<rect x="132" y="39.2" class="st0" width="1.2" height="1"/>
	</g>
	<g>
		<rect x="110.5" y="39.2" class="st0" width="1.2" height="1"/>
	</g>
	<g>
		<path class="st0" d="M114.8,39.2v1h0.9c0.1-0.3,0.1-0.6,0.1-1H114.8z"/>
	</g>
	<g>
		<rect x="131.1" y="39.2" class="st0" width="1" height="1"/>
	</g>
	<g>
		<rect x="133.2" y="39.2" class="st0" width="1" height="1"/>
	</g>
	<g>
		<rect x="128.9" y="39.2" class="st0" width="1" height="1"/>
	</g>
	<g>
		<rect x="126.7" y="39.2" class="st0" width="1" height="1"/>
	</g>
	<g>
		<rect x="124.6" y="39.2" class="st0" width="1" height="1"/>
	</g>
	<g>
		<path class="st0" d="M122.8,39.2c-0.1,0.2-0.3,0.3-0.4,0.5v0.5h1v-1H122.8z"/>
	</g>
	<g>
		<path class="st0" d="M122.4,39.6c0.1-0.2,0.3-0.3,0.4-0.5h-0.4V39.6z"/>
	</g>
	<g>
		<rect x="113.8" y="39.2" class="st0" width="1" height="1"/>
	</g>
	<g>
		<rect x="111.6" y="39.2" class="st0" width="1" height="1"/>
	</g>
	<g>
		<path class="st0" d="M110.5,39.2h-0.9c0.2,0.3,0.4,0.6,0.6,1h0.3V39.2z"/>
	</g>
	<g>
		<rect x="135.4" y="39.2" class="st0" width="1" height="1"/>
	</g>
	<g>
		<rect x="137.5" y="39.2" class="st0" width="1" height="1"/>
	</g>
	<g>
		<rect x="139.7" y="39.2" class="st0" width="1" height="1"/>
	</g>
	<g>
		<rect x="141.8" y="39.2" class="st0" width="1" height="1"/>
	</g>
	<g>
		<rect x="144" y="39.2" class="st0" width="1" height="1"/>
	</g>
	<g>
		<path class="st0" d="M146.8,40.1h0.3v-0.7C147,39.6,146.9,39.9,146.8,40.1z"/>
	</g>
	<g>
		<rect x="136.3" y="41.4" class="st0" width="1.2" height="1"/>
	</g>
	<g>
		<rect x="140.6" y="41.4" class="st0" width="1.2" height="1"/>
	</g>
	<g>
		<rect x="138.5" y="41.4" class="st0" width="1.2" height="1"/>
	</g>
	<g>
		<path class="st0" d="M119.4,42.3h0.9v-0.8C119.9,41.8,119.6,42,119.4,42.3z"/>
	</g>
	<g>
		<rect x="132" y="41.4" class="st0" width="1.2" height="1"/>
	</g>
	<g>
		<rect x="121.2" y="41.4" class="st0" width="1.2" height="1"/>
	</g>
	<g>
		<rect x="125.5" y="41.4" class="st0" width="1.2" height="1"/>
	</g>
	<g>
		<rect x="123.4" y="41.4" class="st0" width="1.2" height="1"/>
	</g>
	<g>
		<rect x="142.8" y="41.4" class="st0" width="1.2" height="1"/>
	</g>
	<g>
		<rect x="134.2" y="41.4" class="st0" width="1.2" height="1"/>
	</g>
	<g>
		<rect x="129.9" y="41.4" class="st0" width="1.2" height="1"/>
	</g>
	<g>
		<rect x="127.7" y="41.4" class="st0" width="1.2" height="1"/>
	</g>
	<g>
		<path class="st0" d="M111,41.4c0.2,0.3,0.4,0.6,0.6,0.8v-0.8H111z"/>
	</g>
	<g>
		<path class="st0" d="M115.5,41.4h-0.8v1h0.9c0-0.2-0.1-0.4-0.1-0.6C115.6,41.6,115.5,41.5,115.5,41.4z"/>
	</g>
	<g>
		<rect x="112.6" y="41.4" class="st0" width="1.2" height="1"/>
	</g>
	<g>
		<path class="st0" d="M147.1,42v0.3h0C147.1,42.2,147.1,42.1,147.1,42z"/>
	</g>
	<g>
		<rect x="145" y="41.4" class="st0" width="1.2" height="1"/>
	</g>
	<g>
		<path class="st0" d="M115.5,41.4c0,0.1,0,0.3,0,0.4c0,0.2,0.1,0.4,0.1,0.6h0.3v-1H115.5z"/>
	</g>
	<g>
		<rect x="131.1" y="41.4" class="st0" width="1" height="1"/>
	</g>
	<g>
		<rect x="133.2" y="41.4" class="st0" width="1" height="1"/>
	</g>
	<g>
		<rect x="128.9" y="41.4" class="st0" width="1" height="1"/>
	</g>
	<g>
		<rect x="126.7" y="41.4" class="st0" width="1" height="1"/>
	</g>
	<g>
		<rect x="124.6" y="41.4" class="st0" width="1" height="1"/>
	</g>
	<g>
		<rect x="122.4" y="41.4" class="st0" width="1" height="1"/>
	</g>
	<g>
		<path class="st0" d="M120.5,41.4c-0.1,0-0.1,0.1-0.2,0.1v0.8h1v-1H120.5z"/>
	</g>
	<g>
		<path class="st0" d="M120.3,41.5c0.1,0,0.1-0.1,0.2-0.1h-0.2V41.5z"/>
	</g>
	<g>
		<rect x="113.8" y="41.4" class="st0" width="1" height="1"/>
	</g>
	<g>
		<path class="st0" d="M111.6,42.3h0.1c0,0-0.1-0.1-0.1-0.1V42.3z"/>
	</g>
	<g>
		<path class="st0" d="M111.6,41.4v0.8c0,0,0.1,0.1,0.1,0.1h0.8v-1H111.6z"/>
	</g>
	<g>
		<rect x="135.4" y="41.4" class="st0" width="1" height="1"/>
	</g>
	<g>
		<rect x="137.5" y="41.4" class="st0" width="1" height="1"/>
	</g>
	<g>
		<rect x="139.7" y="41.4" class="st0" width="1" height="1"/>
	</g>
	<g>
		<rect x="141.8" y="41.4" class="st0" width="1" height="1"/>
	</g>
	<g>
		<rect x="144" y="41.4" class="st0" width="1" height="1"/>
	</g>
	<g>
		<path class="st0" d="M146.9,41.4c0,0.1,0,0.1,0.1,0.2c0.1,0.2,0.1,0.3,0.1,0.5v-0.7H146.9z"/>
	</g>
	<g>
		<rect x="140.6" y="43.6" class="st0" width="1.2" height="1"/>
	</g>
	<g>
		<rect x="119.1" y="43.6" class="st0" width="1.2" height="1"/>
	</g>
	<g>
		<path class="st0" d="M113.8,44.5v-1h-0.9C113.2,43.9,113.5,44.2,113.8,44.5z"/>
	</g>
	<g>
		<rect x="114.8" y="43.6" class="st0" width="1.2" height="1"/>
	</g>
	<g>
		<rect x="138.5" y="43.6" class="st0" width="1.2" height="1"/>
	</g>
	<g>
		<rect x="142.8" y="43.6" class="st0" width="1.2" height="1"/>
	</g>
	<g>
		<rect x="121.2" y="43.6" class="st0" width="1.2" height="1"/>
	</g>
	<g>
		<rect x="136.3" y="43.6" class="st0" width="1.2" height="1"/>
	</g>
	<g>
		<rect x="125.5" y="43.6" class="st0" width="1.2" height="1"/>
	</g>
	<g>
		<rect x="145" y="43.6" class="st0" width="1.2" height="1"/>
	</g>
	<g>
		<rect x="123.4" y="43.6" class="st0" width="1.2" height="1"/>
	</g>
	<g>
		<path class="st0" d="M149.3,44.1L149.3,44.1c0.2-0.1,0.4-0.4,0.6-0.6h-0.1C149.6,43.8,149.5,44,149.3,44.1z"/>
	</g>
	<g>
		<rect x="134.2" y="43.6" class="st0" width="1.2" height="1"/>
	</g>
	<g>
		<rect x="132" y="43.6" class="st0" width="1.2" height="1"/>
	</g>
	<g>
		<rect x="129.9" y="43.6" class="st0" width="1.2" height="1"/>
	</g>
	<g>
		<rect x="127.7" y="43.6" class="st0" width="1.2" height="1"/>
	</g>
	<g>
		<rect x="131.1" y="43.6" class="st0" width="1" height="1"/>
	</g>
	<g>
		<rect x="133.2" y="43.6" class="st0" width="1" height="1"/>
	</g>
	<g>
		<rect x="128.9" y="43.6" class="st0" width="1" height="1"/>
	</g>
	<g>
		<rect x="126.7" y="43.6" class="st0" width="1" height="1"/>
	</g>
	<g>
		<rect x="124.6" y="43.6" class="st0" width="1" height="1"/>
	</g>
	<g>
		<rect x="122.4" y="43.6" class="st0" width="1" height="1"/>
	</g>
	<g>
		<rect x="120.3" y="43.6" class="st0" width="1" height="1"/>
	</g>
	<g>
		<polygon class="st0" points="113.8,44.5 113.8,44.5 113.8,44.5 		"/>
	</g>
	<g>
		<polygon class="st0" points="113.8,43.6 113.8,44.5 113.8,44.5 114.8,44.5 114.8,43.6 		"/>
	</g>
	<g>
		<rect x="135.4" y="43.6" class="st0" width="1" height="1"/>
	</g>
	<g>
		<rect x="137.5" y="43.6" class="st0" width="1" height="1"/>
	</g>
	<g>
		<rect x="139.7" y="43.6" class="st0" width="1" height="1"/>
	</g>
	<g>
		<rect x="141.8" y="43.6" class="st0" width="1" height="1"/>
	</g>
	<g>
		<rect x="144" y="43.6" class="st0" width="1" height="1"/>
	</g>
	<g>
		<path class="st0" d="M145.7,45.8H145v1h0.7C145.6,46.4,145.6,46.1,145.7,45.8z"/>
	</g>
	<g>
		<path class="st0" d="M116.9,45.9v0.8h1C117.5,46.5,117.2,46.2,116.9,45.9z"/>
	</g>
	<g>
		<path class="st0" d="M147.1,46v0.1c0.1-0.1,0.3-0.2,0.4-0.3h-0.1C147.3,45.9,147.2,45.9,147.1,46z"/>
	</g>
	<g>
		<rect x="129.9" y="45.8" class="st0" width="1.2" height="1"/>
	</g>
	<g>
		<rect x="136.3" y="45.8" class="st0" width="1.2" height="1"/>
	</g>
	<g>
		<rect x="142.8" y="45.8" class="st0" width="1.2" height="1"/>
	</g>
	<g>
		<rect x="140.6" y="45.8" class="st0" width="1.2" height="1"/>
	</g>
	<g>
		<rect x="127.7" y="45.8" class="st0" width="1.2" height="1"/>
	</g>
	<g>
		<rect x="138.5" y="45.8" class="st0" width="1.2" height="1"/>
	</g>
	<g>
		<rect x="125.5" y="45.8" class="st0" width="1.2" height="1"/>
	</g>
	<g>
		<path class="st0" d="M116,46.4v-0.6h-0.7C115.5,46,115.7,46.2,116,46.4z"/>
	</g>
	<g>
		<rect x="121.2" y="45.8" class="st0" width="1.2" height="1"/>
	</g>
	<g>
		<path class="st0" d="M146.1,46.8v-0.2c-0.1,0.1-0.2,0.1-0.4,0.2H146.1z"/>
	</g>
	<g>
		<rect x="123.4" y="45.8" class="st0" width="1.2" height="1"/>
	</g>
	<g>
		<rect x="119.1" y="45.8" class="st0" width="1.2" height="1"/>
	</g>
	<g>
		<rect x="132" y="45.8" class="st0" width="1.2" height="1"/>
	</g>
	<g>
		<rect x="134.2" y="45.8" class="st0" width="1.2" height="1"/>
	</g>
	<g>
		<path class="st0" d="M145.7,45.8c-0.1,0.3-0.1,0.6,0,1h0.1c0.1-0.1,0.2-0.1,0.4-0.2v-0.8H145.7z"/>
	</g>
	<g>
		<path class="st0" d="M147.1,45.8V46c0.1-0.1,0.2-0.1,0.3-0.2H147.1z"/>
	</g>
	<g>
		<rect x="131.1" y="45.8" class="st0" width="1" height="1"/>
	</g>
	<g>
		<rect x="133.2" y="45.8" class="st0" width="1" height="1"/>
	</g>
	<g>
		<rect x="128.9" y="45.8" class="st0" width="1" height="1"/>
	</g>
	<g>
		<rect x="126.7" y="45.8" class="st0" width="1" height="1"/>
	</g>
	<g>
		<rect x="124.6" y="45.8" class="st0" width="1" height="1"/>
	</g>
	<g>
		<rect x="122.4" y="45.8" class="st0" width="1" height="1"/>
	</g>
	<g>
		<rect x="120.3" y="45.8" class="st0" width="1" height="1"/>
	</g>
	<g>
		<path class="st0" d="M116.8,45.8c0,0,0.1,0.1,0.1,0.1v-0.1H116.8z"/>
	</g>
	<g>
		<rect x="135.4" y="45.8" class="st0" width="1" height="1"/>
	</g>
	<g>
		<rect x="137.5" y="45.8" class="st0" width="1" height="1"/>
	</g>
	<g>
		<rect x="139.7" y="45.8" class="st0" width="1" height="1"/>
	</g>
	<g>
		<rect x="141.8" y="45.8" class="st0" width="1" height="1"/>
	</g>
	<g>
		<rect x="144" y="45.8" class="st0" width="1" height="1"/>
	</g>
	<g>
		<rect x="127.7" y="48" class="st0" width="1.2" height="1"/>
	</g>
	<g>
		<rect x="138.5" y="48" class="st0" width="1.2" height="1"/>
	</g>
	<g>
		<rect x="132" y="48" class="st0" width="1.2" height="1"/>
	</g>
	<g>
		<path class="st0" d="M142.8,48v0.9c0.4-0.2,0.8-0.4,1.2-0.6V48H142.8z"/>
	</g>
	<g>
		<rect x="134.2" y="48" class="st0" width="1.2" height="1"/>
	</g>
	<g>
		<rect x="140.6" y="48" class="st0" width="1.2" height="1"/>
	</g>
	<g>
		<rect x="136.3" y="48" class="st0" width="1.2" height="1"/>
	</g>
	<g>
		<rect x="125.5" y="48" class="st0" width="1.2" height="1"/>
	</g>
	<g>
		<path class="st0" d="M120.3,48h-1.2v0.4c0.3,0.2,0.7,0.4,1,0.5h0.2V48z"/>
	</g>
	<g>
		<rect x="123.4" y="48" class="st0" width="1.2" height="1"/>
	</g>
	<g>
		<rect x="121.2" y="48" class="st0" width="1.2" height="1"/>
	</g>
	<g>
		<rect x="129.9" y="48" class="st0" width="1.2" height="1"/>
	</g>
	<g>
		<rect x="131.1" y="48" class="st0" width="1" height="1"/>
	</g>
	<g>
		<rect x="133.2" y="48" class="st0" width="1" height="1"/>
	</g>
	<g>
		<rect x="128.9" y="48" class="st0" width="1" height="1"/>
	</g>
	<g>
		<rect x="126.7" y="48" class="st0" width="1" height="1"/>
	</g>
	<g>
		<rect x="124.6" y="48" class="st0" width="1" height="1"/>
	</g>
	<g>
		<rect x="122.4" y="48" class="st0" width="1" height="1"/>
	</g>
	<g>
		<rect x="120.3" y="48" class="st0" width="1" height="1"/>
	</g>
	<g>
		<path class="st0" d="M119.1,48.4V48h-0.7C118.6,48.2,118.8,48.3,119.1,48.4z"/>
	</g>
	<g>
		<rect x="135.4" y="48" class="st0" width="1" height="1"/>
	</g>
	<g>
		<rect x="137.5" y="48" class="st0" width="1" height="1"/>
	</g>
	<g>
		<rect x="139.7" y="48" class="st0" width="1" height="1"/>
	</g>
	<g>
		<path class="st0" d="M142.7,49h0.1v-0.1C142.8,48.9,142.7,48.9,142.7,49z"/>
	</g>
	<g>
		<path class="st0" d="M142.8,48h-1v1h0.8c0,0,0.1,0,0.1-0.1V48z"/>
	</g>
	<g>
		<path class="st0" d="M144,48.3c0.1-0.1,0.3-0.2,0.4-0.2H144V48.3z"/>
	</g>
	<g>
		<path class="st0" d="M125.5,51.2h1.1c-0.4-0.1-0.7-0.1-1.1-0.2V51.2z"/>
	</g>
	<g>
		<path class="st0" d="M123.4,50.2v0.1c0.4,0.1,0.8,0.3,1.2,0.4v-0.5H123.4z"/>
	</g>
	<g>
		<rect x="127.7" y="50.2" class="st0" width="1.2" height="1"/>
	</g>
	<g>
		<rect x="129.9" y="50.2" class="st0" width="1.2" height="1"/>
	</g>
	<g>
		<rect x="132" y="50.2" class="st0" width="1.2" height="1"/>
	</g>
	<g>
		<rect x="134.2" y="50.2" class="st0" width="1.2" height="1"/>
	</g>
	<g>
		<path class="st0" d="M126.7,50.2h-1.2V51c0.4,0.1,0.7,0.2,1.1,0.2h0.1V50.2z"/>
	</g>
	<g>
		<path class="st0" d="M136.3,50.2v0.9c0.4-0.1,0.8-0.2,1.2-0.3v-0.6H136.3z"/>
	</g>
	<g>
		<path class="st0" d="M138.5,50.2v0.4c0.4-0.1,0.8-0.2,1.2-0.4v0H138.5z"/>
	</g>
	<g>
		<rect x="131.1" y="50.2" class="st0" width="1" height="1"/>
	</g>
	<g>
		<rect x="133.2" y="50.2" class="st0" width="1" height="1"/>
	</g>
	<g>
		<rect x="128.9" y="50.2" class="st0" width="1" height="1"/>
	</g>
	<g>
		<rect x="126.7" y="50.2" class="st0" width="1" height="1"/>
	</g>
	<g>
		<path class="st0" d="M124.6,50.7c0.3,0.1,0.6,0.2,1,0.2v-0.7h-1V50.7z"/>
	</g>
	<g>
		<path class="st0" d="M123,50.2c0.1,0,0.2,0.1,0.4,0.1v-0.1H123z"/>
	</g>
	<g>
		<path class="st0" d="M136.1,51.2h0.2v0C136.2,51.2,136.2,51.2,136.1,51.2z"/>
	</g>
	<g>
		<path class="st0" d="M135.4,50.2v1h0.7c0.1,0,0.2,0,0.2,0v-0.9H135.4z"/>
	</g>
	<g>
		<path class="st0" d="M137.5,50.2v0.6c0.3-0.1,0.6-0.2,1-0.3v-0.4H137.5z"/>
	</g>
	<g>
		<path class="st0" d="M139.7,50.2C139.7,50.2,139.7,50.2,139.7,50.2L139.7,50.2L139.7,50.2z"/>
	</g>
	<g>
		<rect x="129.9" y="21.4" class="st0" width="1.2" height="1"/>
	</g>
	<g>
		<rect x="132" y="21.4" class="st0" width="1.2" height="1"/>
	</g>
	<g>
		<rect x="136.3" y="21.4" class="st0" width="1.2" height="1"/>
	</g>
	<g>
		<rect x="138.5" y="21.4" class="st0" width="1.2" height="1"/>
	</g>
	<g>
		<path class="st0" d="M107.3,21.4h-0.8c-0.1,0.3-0.1,0.6-0.2,1h1V21.4z"/>
	</g>
	<g>
		<rect x="134.2" y="21.4" class="st0" width="1.2" height="1"/>
	</g>
	<g>
		<rect x="112.6" y="21.4" class="st0" width="1.2" height="1"/>
	</g>
	<g>
		<rect x="123.4" y="21.4" class="st0" width="1.2" height="1"/>
	</g>
	<g>
		<rect x="108.3" y="21.4" class="st0" width="1.2" height="1"/>
	</g>
	<g>
		<rect x="110.5" y="21.4" class="st0" width="1.2" height="1"/>
	</g>
	<g>
		<rect x="125.5" y="21.4" class="st0" width="1.2" height="1"/>
	</g>
	<g>
		<rect x="127.7" y="21.4" class="st0" width="1.2" height="1"/>
	</g>
	<g>
		<path class="st0" d="M121.3,22.1C121.3,22.1,121.3,22.1,121.3,22.1l-0.1,0.3h0.4C121.5,22.3,121.4,22.2,121.3,22.1z"/>
	</g>
	<g>
		<rect x="131.1" y="21.4" class="st0" width="1" height="1"/>
	</g>
	<g>
		<rect x="133.2" y="21.4" class="st0" width="1" height="1"/>
	</g>
	<g>
		<rect x="128.9" y="21.4" class="st0" width="1" height="1"/>
	</g>
	<g>
		<rect x="126.7" y="21.4" class="st0" width="1" height="1"/>
	</g>
	<g>
		<rect x="124.6" y="21.4" class="st0" width="1" height="1"/>
	</g>
	<g>
		<path class="st0" d="M114.8,21.4h-0.3c0.2,0.3,0.2,0.6,0.1,1h0.1V21.4z"/>
	</g>
	<g>
		<rect x="109.5" y="21.4" class="st0" width="1" height="1"/>
	</g>
	<g>
		<rect x="107.3" y="21.4" class="st0" width="1" height="1"/>
	</g>
	<g>
		<rect x="135.4" y="21.4" class="st0" width="1" height="1"/>
	</g>
	<g>
		<rect x="137.5" y="21.4" class="st0" width="1" height="1"/>
	</g>
	<g>
		<path class="st0" d="M107.3,19.2h-0.3c-0.1,0.3-0.2,0.6-0.3,1h0.5V19.2z"/>
	</g>
	<g>
		<rect x="119.1" y="19.2" class="st0" width="1.2" height="1"/>
	</g>
	<g>
		<rect x="125.5" y="19.2" class="st0" width="1.2" height="1"/>
	</g>
	<g>
		<rect x="127.7" y="19.2" class="st0" width="1.2" height="1"/>
	</g>
	<g>
		<rect x="108.3" y="19.2" class="st0" width="1.2" height="1"/>
	</g>
	<g>
		<rect x="123.4" y="19.2" class="st0" width="1.2" height="1"/>
	</g>
	<g>
		<path class="st0" d="M113.1,19.7c-0.1-0.2-0.1-0.3-0.2-0.5h-0.3v1h0.7C113.2,20,113.2,19.9,113.1,19.7z"/>
	</g>
	<g>
		<rect x="129.9" y="19.2" class="st0" width="1.2" height="1"/>
	</g>
	<g>
		<rect x="114.8" y="19.2" class="st0" width="1.2" height="1"/>
	</g>
	<g>
		<rect x="121.2" y="19.2" class="st0" width="1.2" height="1"/>
	</g>
	<g>
		<rect x="134.2" y="19.2" class="st0" width="1.2" height="1"/>
	</g>
	<g>
		<rect x="136.3" y="19.2" class="st0" width="1.2" height="1"/>
	</g>
	<g>
		<rect x="138.5" y="19.2" class="st0" width="1.2" height="1"/>
	</g>
	<g>
		<path class="st0" d="M113.8,19.2h-0.3c0,0.3,0.2,0.6,0.3,0.9V19.2z"/>
	</g>
	<g>
		<path class="st0" d="M117.7,20.2h0.5v-1h-1.2v1h0.1C117.2,20.1,117.4,20.1,117.7,20.2z"/>
	</g>
	<g>
		<rect x="132" y="19.2" class="st0" width="1.2" height="1"/>
	</g>
	<g>
		<rect x="110.5" y="19.2" class="st0" width="1.2" height="1"/>
	</g>
	<g>
		<path class="st0" d="M117,20.2h0.7C117.4,20.1,117.2,20.1,117,20.2z"/>
	</g>
	<g>
		<rect x="131.1" y="19.2" class="st0" width="1" height="1"/>
	</g>
	<g>
		<rect x="133.2" y="19.2" class="st0" width="1" height="1"/>
	</g>
	<g>
		<rect x="128.9" y="19.2" class="st0" width="1" height="1"/>
	</g>
	<g>
		<rect x="126.7" y="19.2" class="st0" width="1" height="1"/>
	</g>
	<g>
		<rect x="124.6" y="19.2" class="st0" width="1" height="1"/>
	</g>
	<g>
		<rect x="122.4" y="19.2" class="st0" width="1" height="1"/>
	</g>
	<g>
		<rect x="120.3" y="19.2" class="st0" width="1" height="1"/>
	</g>
	<g>
		<path class="st0" d="M113.8,20.2L113.8,20.2C113.8,20.2,113.8,20.1,113.8,20.2L113.8,20.2z"/>
	</g>
	<g>
		<rect x="109.5" y="19.2" class="st0" width="1" height="1"/>
	</g>
	<g>
		<rect x="107.3" y="19.2" class="st0" width="1" height="1"/>
	</g>
	<g>
		<rect x="135.4" y="19.2" class="st0" width="1" height="1"/>
	</g>
	<g>
		<rect x="137.5" y="19.2" class="st0" width="1" height="1"/>
	</g>
	<g>
		<path class="st0" d="M155.7,19.3v-0.1h0C155.7,19.3,155.7,19.3,155.7,19.3z"/>
	</g>
	<g>
		<rect x="129.9" y="17" class="st0" width="1.2" height="1"/>
	</g>
	<g>
		<rect x="127.7" y="17" class="st0" width="1.2" height="1"/>
	</g>
	<g>
		<rect x="123.4" y="17" class="st0" width="1.2" height="1"/>
	</g>
	<g>
		<rect x="121.2" y="17" class="st0" width="1.2" height="1"/>
	</g>
	<g>
		<rect x="125.5" y="17" class="st0" width="1.2" height="1"/>
	</g>
	<g>
		<path class="st0" d="M143.4,17h-0.6v0.6C143,17.4,143.2,17.2,143.4,17z"/>
	</g>
	<g>
		<rect x="114.8" y="17" class="st0" width="1.2" height="1"/>
	</g>
	<g>
		<rect x="140.6" y="17" class="st0" width="1.2" height="1"/>
	</g>
	<g>
		<rect x="110.5" y="17" class="st0" width="1.2" height="1"/>
	</g>
	<g>
		<rect x="108.3" y="17" class="st0" width="1.2" height="1"/>
	</g>
	<g>
		<rect x="116.9" y="17" class="st0" width="1.2" height="1"/>
	</g>
	<g>
		<rect x="134.2" y="17" class="st0" width="1.2" height="1"/>
	</g>
	<g>
		<rect x="119.1" y="17" class="st0" width="1.2" height="1"/>
	</g>
	<g>
		<rect x="138.5" y="17" class="st0" width="1.2" height="1"/>
	</g>
	<g>
		<rect x="132" y="17" class="st0" width="1.2" height="1"/>
	</g>
	<g>
		<rect x="136.3" y="17" class="st0" width="1.2" height="1"/>
	</g>
	<g>
		<path class="st0" d="M113.5,18c0-0.1,0-0.2-0.1-0.3c-0.3-0.2-0.4-0.5-0.3-0.7h-0.5v1H113.5z"/>
	</g>
	<g>
		<path class="st0" d="M151.7,18c-0.1-0.1-0.2-0.2-0.3-0.2V18H151.7z"/>
	</g>
	<g>
		<rect x="131.1" y="17" class="st0" width="1" height="1"/>
	</g>
	<g>
		<rect x="133.2" y="17" class="st0" width="1" height="1"/>
	</g>
	<g>
		<rect x="128.9" y="17" class="st0" width="1" height="1"/>
	</g>
	<g>
		<rect x="126.7" y="17" class="st0" width="1" height="1"/>
	</g>
	<g>
		<rect x="124.6" y="17" class="st0" width="1" height="1"/>
	</g>
	<g>
		<rect x="122.4" y="17" class="st0" width="1" height="1"/>
	</g>
	<g>
		<rect x="120.3" y="17" class="st0" width="1" height="1"/>
	</g>
	<g>
		<rect x="118.1" y="17" class="st0" width="1" height="1"/>
	</g>
	<g>
		<rect x="109.5" y="17" class="st0" width="1" height="1"/>
	</g>
	<g>
		<path class="st0" d="M107.8,17c-0.1,0.3-0.2,0.6-0.4,1h0.8v-1H107.8z"/>
	</g>
	<g>
		<rect x="135.4" y="17" class="st0" width="1" height="1"/>
	</g>
	<g>
		<rect x="137.5" y="17" class="st0" width="1" height="1"/>
	</g>
	<g>
		<rect x="139.7" y="17" class="st0" width="1" height="1"/>
	</g>
	<g>
		<path class="st0" d="M142.8,17.6c-0.1,0.1-0.3,0.3-0.5,0.4h0.5V17.6z"/>
	</g>
	<g>
		<rect x="123.4" y="14.8" class="st0" width="1.2" height="1"/>
	</g>
	<g>
		<path class="st0" d="M108.8,14.8c-0.2,0.3-0.3,0.6-0.5,1h1.1v-1H108.8z"/>
	</g>
	<g>
		<rect x="129.9" y="14.8" class="st0" width="1.2" height="1"/>
	</g>
	<g>
		<rect x="125.5" y="14.8" class="st0" width="1.2" height="1"/>
	</g>
	<g>
		<rect x="127.7" y="14.8" class="st0" width="1.2" height="1"/>
	</g>
	<g>
		<rect x="140.6" y="14.8" class="st0" width="1.2" height="1"/>
	</g>
	<g>
		<rect x="142.8" y="14.8" class="st0" width="1.2" height="1"/>
	</g>
	<g>
		<rect x="114.8" y="14.8" class="st0" width="1.2" height="1"/>
	</g>
	<g>
		<rect x="138.5" y="14.8" class="st0" width="1.2" height="1"/>
	</g>
	<g>
		<rect x="116.9" y="14.8" class="st0" width="1.2" height="1"/>
	</g>
	<g>
		<rect x="121.2" y="14.8" class="st0" width="1.2" height="1"/>
	</g>
	<g>
		<rect x="132" y="14.8" class="st0" width="1.2" height="1"/>
	</g>
	<g>
		<rect x="134.2" y="14.8" class="st0" width="1.2" height="1"/>
	</g>
	<g>
		<rect x="136.3" y="14.8" class="st0" width="1.2" height="1"/>
	</g>
	<g>
		<rect x="119.1" y="14.8" class="st0" width="1.2" height="1"/>
	</g>
	<g>
		<rect x="110.5" y="14.8" class="st0" width="1.2" height="1"/>
	</g>
	<g>
		<rect x="131.1" y="14.8" class="st0" width="1" height="1"/>
	</g>
	<g>
		<rect x="133.2" y="14.8" class="st0" width="1" height="1"/>
	</g>
	<g>
		<rect x="128.9" y="14.8" class="st0" width="1" height="1"/>
	</g>
	<g>
		<rect x="126.7" y="14.8" class="st0" width="1" height="1"/>
	</g>
	<g>
		<rect x="124.6" y="14.8" class="st0" width="1" height="1"/>
	</g>
	<g>
		<rect x="122.4" y="14.8" class="st0" width="1" height="1"/>
	</g>
	<g>
		<rect x="120.3" y="14.8" class="st0" width="1" height="1"/>
	</g>
	<g>
		<rect x="118.1" y="14.8" class="st0" width="1" height="1"/>
	</g>
	<g>
		<path class="st0" d="M109.9,14.8h-0.4v1h0.8C110,15.5,109.9,15.2,109.9,14.8z"/>
	</g>
	<g>
		<path class="st0" d="M110.5,14.8h-0.5c0,0.4,0.1,0.7,0.4,1h0.2V14.8z"/>
	</g>
	<g>
		<rect x="135.4" y="14.8" class="st0" width="1" height="1"/>
	</g>
	<g>
		<rect x="137.5" y="14.8" class="st0" width="1" height="1"/>
	</g>
	<g>
		<rect x="139.7" y="14.8" class="st0" width="1" height="1"/>
	</g>
	<g>
		<rect x="141.8" y="14.8" class="st0" width="1" height="1"/>
	</g>
	<g>
		<rect x="140.6" y="12.6" class="st0" width="1.2" height="1"/>
	</g>
	<g>
		<rect x="136.3" y="12.6" class="st0" width="1.2" height="1"/>
	</g>
	<g>
		<rect x="134.2" y="12.6" class="st0" width="1.2" height="1"/>
	</g>
	<g>
		<path class="st0" d="M143.4,13.5c-0.1-0.1-0.1-0.3-0.2-0.4c0-0.1,0.1-0.3,0.2-0.3c0.2-0.1,0.4-0.1,0.6-0.2h-1.2v1H143.4z"/>
	</g>
	<g>
		<rect x="138.5" y="12.6" class="st0" width="1.2" height="1"/>
	</g>
	<g>
		<rect x="114.8" y="12.6" class="st0" width="1.2" height="1"/>
	</g>
	<g>
		<rect x="119.1" y="12.6" class="st0" width="1.2" height="1"/>
	</g>
	<g>
		<rect x="112.6" y="12.6" class="st0" width="1.2" height="1"/>
	</g>
	<g>
		<rect x="132" y="12.6" class="st0" width="1.2" height="1"/>
	</g>
	<g>
		<path class="st0" d="M118.1,13.5v-0.1c-0.3-0.2-0.4-0.5-0.5-0.8h-0.7v1H118.1z"/>
	</g>
	<g>
		<rect x="129.9" y="12.6" class="st0" width="1.2" height="1"/>
	</g>
	<g>
		<rect x="121.2" y="12.6" class="st0" width="1.2" height="1"/>
	</g>
	<g>
		<rect x="127.7" y="12.6" class="st0" width="1.2" height="1"/>
	</g>
	<g>
		<rect x="123.4" y="12.6" class="st0" width="1.2" height="1"/>
	</g>
	<g>
		<rect x="125.5" y="12.6" class="st0" width="1.2" height="1"/>
	</g>
	<g>
		<path class="st0" d="M118.1,13.4v-0.8h-0.5C117.7,12.9,117.8,13.2,118.1,13.4z"/>
	</g>
	<g>
		<path class="st0" d="M152.6,12.6L152.6,12.6C152.6,12.6,152.6,12.6,152.6,12.6L152.6,12.6z"/>
	</g>
	<g>
		<path class="st0" d="M143.2,13.1c0.1,0.1,0.1,0.3,0.2,0.4h0.6v-1h0c-0.2,0.1-0.4,0.1-0.6,0.2C143.3,12.8,143.2,13.1,143.2,13.1z"
			/>
	</g>
	<g>
		<rect x="131.1" y="12.6" class="st0" width="1" height="1"/>
	</g>
	<g>
		<rect x="133.2" y="12.6" class="st0" width="1" height="1"/>
	</g>
	<g>
		<rect x="128.9" y="12.6" class="st0" width="1" height="1"/>
	</g>
	<g>
		<rect x="126.7" y="12.6" class="st0" width="1" height="1"/>
	</g>
	<g>
		<rect x="124.6" y="12.6" class="st0" width="1" height="1"/>
	</g>
	<g>
		<rect x="122.4" y="12.6" class="st0" width="1" height="1"/>
	</g>
	<g>
		<rect x="120.3" y="12.6" class="st0" width="1" height="1"/>
	</g>
	<g>
		<path class="st0" d="M118.3,13.5c0.1-0.3,0.1-0.6,0.2-0.9h-0.4v0.8C118.2,13.5,118.2,13.5,118.3,13.5z"/>
	</g>
	<g>
		<path class="st0" d="M110.1,12.6c0,0.1,0,0.1,0,0.2C110.1,12.7,110.1,12.6,110.1,12.6L110.1,12.6z"/>
	</g>
	<g>
		<path class="st0" d="M110.5,12.6h-0.3c0,0.1-0.1,0.1-0.1,0.2c0,0.1,0,0.1,0,0.2c0,0.2,0,0.4,0,0.6h0.4V12.6z"/>
	</g>
	<g>
		<rect x="135.4" y="12.6" class="st0" width="1" height="1"/>
	</g>
	<g>
		<rect x="137.5" y="12.6" class="st0" width="1" height="1"/>
	</g>
	<g>
		<rect x="139.7" y="12.6" class="st0" width="1" height="1"/>
	</g>
	<g>
		<rect x="141.8" y="12.6" class="st0" width="1" height="1"/>
	</g>
	<g>
		<path class="st0" d="M116,11.3v-0.4c-0.1,0-0.1,0-0.2,0c-0.3,0-0.7,0-1,0.1v0.3H116z"/>
	</g>
	<g>
		<rect x="142.8" y="10.4" class="st0" width="1.2" height="1"/>
	</g>
	<g>
		<rect x="145" y="10.4" class="st0" width="1.2" height="1"/>
	</g>
	<g>
		<rect x="129.9" y="10.4" class="st0" width="1.2" height="1"/>
	</g>
	<g>
		<rect x="127.7" y="10.4" class="st0" width="1.2" height="1"/>
	</g>
	<g>
		<rect x="140.6" y="10.4" class="st0" width="1.2" height="1"/>
	</g>
	<g>
		<rect x="134.2" y="10.4" class="st0" width="1.2" height="1"/>
	</g>
	<g>
		<rect x="136.3" y="10.4" class="st0" width="1.2" height="1"/>
	</g>
	<g>
		<rect x="121.2" y="10.4" class="st0" width="1.2" height="1"/>
	</g>
	<g>
		<path class="st0" d="M117,11.3c0,0-0.1-0.1-0.1-0.1v0.1H117z"/>
	</g>
	<g>
		<rect x="123.4" y="10.4" class="st0" width="1.2" height="1"/>
	</g>
	<g>
		<rect x="138.5" y="10.4" class="st0" width="1.2" height="1"/>
	</g>
	<g>
		<rect x="132" y="10.4" class="st0" width="1.2" height="1"/>
	</g>
	<g>
		<rect x="125.5" y="10.4" class="st0" width="1.2" height="1"/>
	</g>
	<g>
		<rect x="131.1" y="10.4" class="st0" width="1" height="1"/>
	</g>
	<g>
		<rect x="133.2" y="10.4" class="st0" width="1" height="1"/>
	</g>
	<g>
		<rect x="128.9" y="10.4" class="st0" width="1" height="1"/>
	</g>
	<g>
		<rect x="126.7" y="10.4" class="st0" width="1" height="1"/>
	</g>
	<g>
		<rect x="124.6" y="10.4" class="st0" width="1" height="1"/>
	</g>
	<g>
		<rect x="122.4" y="10.4" class="st0" width="1" height="1"/>
	</g>
	<g>
		<path class="st0" d="M111.6,10.4v0.1c0,0,0.1-0.1,0.1-0.1H111.6z"/>
	</g>
	<g>
		<rect x="135.4" y="10.4" class="st0" width="1" height="1"/>
	</g>
	<g>
		<rect x="137.5" y="10.4" class="st0" width="1" height="1"/>
	</g>
	<g>
		<rect x="139.7" y="10.4" class="st0" width="1" height="1"/>
	</g>
	<g>
		<rect x="141.8" y="10.4" class="st0" width="1" height="1"/>
	</g>
	<g>
		<rect x="144" y="10.4" class="st0" width="1" height="1"/>
	</g>
	<g>
		<rect x="142.8" y="8.2" class="st0" width="1.2" height="1"/>
	</g>
	<g>
		<rect x="138.5" y="8.2" class="st0" width="1.2" height="1"/>
	</g>
	<g>
		<rect x="134.2" y="8.2" class="st0" width="1.2" height="1"/>
	</g>
	<g>
		<rect x="136.3" y="8.2" class="st0" width="1.2" height="1"/>
	</g>
	<g>
		<rect x="140.6" y="8.2" class="st0" width="1.2" height="1"/>
	</g>
	<g>
		<rect x="132" y="8.2" class="st0" width="1.2" height="1"/>
	</g>
	<g>
		<rect x="129.9" y="8.2" class="st0" width="1.2" height="1"/>
	</g>
	<g>
		<rect x="127.7" y="8.2" class="st0" width="1.2" height="1"/>
	</g>
	<g>
		<path class="st0" d="M126.5,8.3c0.1,0,0.2,0,0.3-0.1V8.2h-1.2v0.3C125.8,8.4,126.1,8.3,126.5,8.3z"/>
	</g>
	<g>
		<path class="st0" d="M146.1,8.2h-0.6c0.2,0.1,0.4,0.2,0.6,0.4V8.2z"/>
	</g>
	<g>
		<rect x="131.1" y="8.2" class="st0" width="1" height="1"/>
	</g>
	<g>
		<rect x="133.2" y="8.2" class="st0" width="1" height="1"/>
	</g>
	<g>
		<rect x="128.9" y="8.2" class="st0" width="1" height="1"/>
	</g>
	<g>
		<path class="st0" d="M126.7,8.2v0.9h1v-1L126.7,8.2C126.8,8.2,126.8,8.2,126.7,8.2C126.8,8.2,126.8,8.2,126.7,8.2z"/>
	</g>
	<g>
		<path class="st0" d="M126.8,8.2C126.8,8.2,126.8,8.2,126.8,8.2L126.8,8.2L126.8,8.2C126.8,8.2,126.8,8.2,126.8,8.2z"/>
	</g>
	<g>
		<path class="st0" d="M123.4,8.9c-0.2,0.1-0.4,0.2-0.6,0.2h0.6V8.9z"/>
	</g>
	<g>
		<rect x="135.4" y="8.2" class="st0" width="1" height="1"/>
	</g>
	<g>
		<rect x="137.5" y="8.2" class="st0" width="1" height="1"/>
	</g>
	<g>
		<rect x="139.7" y="8.2" class="st0" width="1" height="1"/>
	</g>
	<g>
		<rect x="141.8" y="8.2" class="st0" width="1" height="1"/>
	</g>
	<g>
		<rect x="134.2" y="5.9" class="st0" width="1.2" height="1"/>
	</g>
	<g>
		<rect x="129.9" y="5.9" class="st0" width="1.2" height="1"/>
	</g>
	<g>
		<rect x="140.6" y="5.9" class="st0" width="1.2" height="1"/>
	</g>
	<g>
		<path class="st0" d="M143.8,6.9c0-0.1,0-0.2-0.1-0.3c0-0.1-0.1-0.3-0.1-0.4c0-0.1,0-0.2,0-0.3h-0.8v1H143.8z"/>
	</g>
	<g>
		<rect x="138.5" y="5.9" class="st0" width="1.2" height="1"/>
	</g>
	<g>
		<rect x="136.3" y="5.9" class="st0" width="1.2" height="1"/>
	</g>
	<g>
		<rect x="132" y="5.9" class="st0" width="1.2" height="1"/>
	</g>
	<g>
		<path class="st0" d="M147.7,6.9c-0.2-0.2-0.4-0.3-0.5-0.4v0.1c0.1,0.1,0.3,0.2,0.4,0.4H147.7z"/>
	</g>
	<g>
		<path class="st0" d="M143.7,6.7c0,0.1,0,0.2,0.1,0.3h0.2v-1h-0.3c0,0.1,0,0.2,0,0.3C143.6,6.4,143.7,6.5,143.7,6.7z"/>
	</g>
	<g>
		<rect x="131.1" y="5.9" class="st0" width="1" height="1"/>
	</g>
	<g>
		<rect x="135.4" y="5.9" class="st0" width="1" height="1"/>
	</g>
	<g>
		<rect x="137.5" y="5.9" class="st0" width="1" height="1"/>
	</g>
	<g>
		<rect x="139.7" y="5.9" class="st0" width="1" height="1"/>
	</g>
	<g>
		<rect x="141.8" y="5.9" class="st0" width="1" height="1"/>
	</g>
	<g>
		<path class="st0" d="M118.1,4.7C118.1,4.7,118.1,4.7,118.1,4.7L118.1,4.7L118.1,4.7z"/>
	</g>
	<g>
		<path class="st0" d="M126.7,4.6c-0.1,0-0.2,0-0.2,0.1L126.7,4.6L126.7,4.6z"/>
	</g>
	<g>
		<path class="st0" d="M142.8,3.7L142.8,3.7C142.8,3.7,142.8,3.7,142.8,3.7L142.8,3.7z"/>
	</g>
	<g>
		<path class="st0" d="M137.5,1.8V1.5h-0.4c0,0-0.1,0.1-0.1,0.1C137.2,1.7,137.4,1.7,137.5,1.8z"/>
	</g>
	<g>
		<path class="st0" d="M125.9,1.5h-0.3v0.1C125.7,1.6,125.8,1.5,125.9,1.5z"/>
	</g>
	<g>
		<path class="st0" d="M132,1.5L132,1.5L132,1.5C132,1.5,132,1.5,132,1.5z"/>
	</g>
	<g>
		<path class="st0" d="M137.5,2.5V1.8c-0.2,0-0.3-0.1-0.5-0.1c-0.2,0.3-0.3,0.6-0.5,0.8H137.5z"/>
	</g>
	<g>
		<path class="st0" d="M139.7,2.5L139.7,2.5c-0.4-0.2-0.8-0.3-1.2-0.4v0.4H139.7z"/>
	</g>
	<g>
		<path class="st0" d="M136.3,1.5c0.2,0,0.5,0.1,0.7,0.1c0,0,0.1-0.1,0.1-0.1L136.3,1.5L136.3,1.5z"/>
	</g>
	<g>
		<path class="st0" d="M136.6,2.5c0.1-0.3,0.3-0.5,0.5-0.8c-0.2-0.1-0.5-0.1-0.7-0.1v1H136.6z"/>
	</g>
	<g>
		<path class="st0" d="M136.3,1.5L136.3,1.5C136.3,1.5,136.3,1.5,136.3,1.5L136.3,1.5z"/>
	</g>
	<g>
		<path class="st0" d="M138.5,2.5V2c-0.3-0.1-0.6-0.2-1-0.3v0.7H138.5z"/>
	</g>
	<g>
		<path class="st0" d="M139.8,2.5c-0.1,0-0.1,0-0.2-0.1v0.1H139.8z"/>
	</g>
</g>
<g>
	<path class="st0" d="M39.5,82.3c0,1.9-0.7,3.3-2.2,4.4c-1.5,1.1-3.7,1.6-6.6,1.6H10.5V62.7h20.2c5.8,0,8.7,2,8.7,5.9v2.1
		c0,1.3-0.2,2.2-0.7,2.9c-0.5,0.8-1.5,1.5-2.7,1.9c0,0,0.5,0.2,1.3,0.5c1.1,0.6,1.8,1.6,2.1,3C39.4,79.4,39.5,80.5,39.5,82.3z
		 M33.1,81.6V80c0-1.6-1.4-2.4-4.2-2.4H16.8v6.6h12.1C31.7,84.1,33.1,83.3,33.1,81.6z M33.2,71.1v-1.9c0-1.6-1.5-2.4-4.5-2.4H16.9
		v6.6h12C31.7,73.4,33.2,72.7,33.2,71.1z"/>
	<path class="st0" d="M74.3,73.2c0,1.8-0.8,3.1-2.4,4.1c-1.6,1-3.7,1.5-6.5,1.5H51.6v9.4h-6.4V62.6h19.9c2.6,0,4.7,0.4,6.3,1.3
		c1.8,1,2.7,2.3,2.8,3.9C74.3,69.5,74.3,71.3,74.3,73.2z M67.9,72v-3c0-1.5-1.4-2.3-4.3-2.3h-12v7.8h11.9
		C66.4,74.6,67.9,73.8,67.9,72z"/>
	<path class="st0" d="M86.1,88.3h-6.4V62.7h6.4V88.3z M108.4,88.3h-7.7L87.5,77.6c-1.2-1-1.9-1.7-1.9-2.3c0-0.5,0.6-1.2,1.8-2.2
		l12.8-10.4h7.8L92.7,75.3L108.4,88.3z"/>
	<path class="st0" d="M153.8,62.7l-8.1,23.2c-0.7,1.9-2.3,2.8-4.8,2.8c-2.6,0-4.2-0.9-4.8-2.8l-5.4-16.8l-5.3,16.8
		c-0.6,1.9-2.2,2.8-4.8,2.8c-2.5,0-4.1-0.9-4.8-2.8l-8.1-23.2h6.3l6.8,19.2l5.3-16.5c0.6-2,2.2-3,4.6-3c2.5,0,4.1,1,4.8,3l5.3,16.5
		l6.8-19.2H153.8z"/>
</g>
</svg>
