<?xml version="1.0" encoding="utf-8"?>
<!-- Generator: Adobe Illustrator 19.1.0, SVG Export Plug-In . SVG Version: 6.00 Build 0)  -->
<svg version="1.1" id="Layer_1" xmlns="http://www.w3.org/2000/svg" xmlns:xlink="http://www.w3.org/1999/xlink" x="0px" y="0px"
	 viewBox="0 0 160 90" style="enable-background:new 0 0 160 90;" xml:space="preserve">
<style type="text/css">
	.st0{fill:#BBBBBB;}
</style>
<g>
	<g>
		<path class="st0" d="M6,56.8H1.2v-6h4.7v1.3H3.2v1h2.6v1.3H3.2v1.1H6V56.8z"/>
		<path class="st0" d="M8.8,56.9c-0.7,0-1.4-0.1-2.1-0.3l0.1-1.4c0.6,0.3,1.2,0.4,1.9,0.4c0.3,0,0.5,0,0.7-0.1
			c0.2-0.1,0.3-0.2,0.3-0.4c0-0.2-0.2-0.4-0.7-0.6c-0.5-0.1-0.8-0.2-1.1-0.3c-0.2-0.1-0.5-0.2-0.8-0.4c-0.3-0.2-0.4-0.6-0.4-1.2
			c0-0.7,0.3-1.2,0.8-1.5c0.6-0.3,1.2-0.4,2-0.4c0.6,0,1.2,0.1,1.8,0.2l-0.1,1.4c-0.5-0.2-1-0.3-1.5-0.3c-0.3,0-0.5,0-0.7,0.1
			c-0.2,0.1-0.3,0.2-0.3,0.4c0,0.2,0.3,0.4,0.9,0.5c0.6,0.2,1.1,0.3,1.5,0.6c0.4,0.2,0.6,0.7,0.6,1.3c0,0.7-0.3,1.2-0.8,1.5
			C10.3,56.7,9.6,56.9,8.8,56.9z"/>
		<path class="st0" d="M18.4,56.8H16l-1.7-2.6l0,2.6h-1.9v-6h1.9v2.4l1.6-2.4h2.3l-2.1,2.8L18.4,56.8z"/>
		<path class="st0" d="M25.4,56.8h-2.1l-0.4-1.3h-2.1l-0.4,1.3h-2l2.2-6h2.6L25.4,56.8z M22.6,54.2L21.9,52l-0.7,2.2H22.6z"/>
		<path class="st0" d="M31.8,50.8l-2.2,4v2h-2v-2l-2.2-4h2.2l1.1,2.5l0-0.1l1-2.4H31.8z"/>
		<path class="st0" d="M37,56.8h-4.8v-6h4.7v1.3h-2.8v1h2.6v1.3h-2.6v1.1H37V56.8z"/>
		<path class="st0" d="M42.3,52.1h-2.6v1.1h2.5v1.3h-2.5v2.3h-2v-6h4.6V52.1z"/>
		<path class="st0" d="M49,54.9h-1.1v1.9h-2v-6h2.9c0.8,0,1.3,0.2,1.8,0.5c0.4,0.3,0.7,0.8,0.7,1.5c0,0.7-0.2,1.2-0.6,1.5
			C50.2,54.7,49.7,54.9,49,54.9z M48.3,52h-0.5v1.6h0.5c0.3,0,0.6-0.1,0.8-0.2c0.2-0.1,0.3-0.3,0.3-0.6c0-0.3-0.1-0.5-0.3-0.6
			C48.8,52.1,48.6,52,48.3,52z"/>
		<path class="st0" d="M57.6,56.8h-1.9v-2.4h-1.7v2.4h-2v-6h2V53h1.7v-2.2h1.9V56.8z"/>
		<path class="st0" d="M65,56.8h-2.1l-0.4-1.3h-2.1L60,56.8h-2l2.2-6h2.6L65,56.8z M62.2,54.2L61.5,52l-0.7,2.2H62.2z"/>
		<path class="st0" d="M71,56.8h-2l-0.2-0.9c-0.1-0.3-0.1-0.5-0.2-0.5c-0.1-0.3-0.2-0.5-0.4-0.6c-0.1-0.1-0.3-0.2-0.5-0.2h-0.4v2.2
			h-2v-6h3.3c0.7,0,1.2,0.1,1.6,0.4c0.4,0.3,0.6,0.6,0.6,1.2c0,0.4-0.1,0.8-0.3,1c-0.2,0.3-0.5,0.4-1,0.5c0.2,0.1,0.4,0.2,0.5,0.3
			c0.1,0.1,0.2,0.3,0.3,0.5c0.1,0.2,0.2,0.6,0.4,1.2L71,56.8z M67.8,52h-0.5v1.3h0.5c0.3,0,0.6,0,0.8-0.1c0.2-0.1,0.3-0.3,0.3-0.6
			c0-0.2-0.1-0.4-0.3-0.5C68.4,52.1,68.1,52,67.8,52z"/>
		<path class="st0" d="M79.6,56.8h-1.8v-4.7l-1.4,4.7h-1.7l-1.3-4.7l0,4.7h-1.8v-6h3l1,3.6l1.1-3.6h2.9V56.8z"/>
		<path class="st0" d="M87,56.8h-2.1l-0.4-1.3h-2.1L82,56.8h-2l2.2-6h2.6L87,56.8z M84.2,54.2L83.5,52l-0.7,2.2H84.2z"/>
		<path class="st0" d="M90.7,56.9c-1,0-1.8-0.3-2.5-0.8c-0.7-0.5-1-1.3-1-2.3c0-1,0.3-1.7,1-2.3c0.7-0.5,1.5-0.8,2.5-0.8
			c0.3,0,0.6,0,0.8,0.1c0.3,0,0.5,0.1,0.9,0.2l-0.1,1.4c-0.1-0.1-0.2-0.1-0.3-0.1c-0.1,0-0.2-0.1-0.4-0.1c-0.2,0-0.4-0.1-0.6-0.1
			c-0.5,0-1,0.2-1.3,0.5c-0.3,0.3-0.5,0.7-0.5,1.2c0,0.5,0.2,1,0.5,1.3c0.3,0.3,0.8,0.5,1.3,0.5c0.2,0,0.4,0,0.7-0.1
			c0.2,0,0.5-0.1,0.7-0.2l0,1.4c-0.1,0-0.2,0.1-0.4,0.1c-0.1,0-0.3,0.1-0.4,0.1c-0.2,0-0.3,0-0.4,0.1C91,56.9,90.9,56.9,90.7,56.9z"
			/>
		<path class="st0" d="M97.8,56.8H93v-6h4.7v1.3h-2.8v1h2.6v1.3h-2.6v1.1h2.9V56.8z"/>
		<path class="st0" d="M101.4,56.9c-0.9,0-1.5-0.2-2-0.6c-0.5-0.4-0.8-1-0.8-1.8v-3.7h1.9v3.5c0,0.4,0.1,0.7,0.2,0.9
			c0.1,0.2,0.4,0.3,0.7,0.3c0.3,0,0.6-0.1,0.7-0.3c0.1-0.2,0.2-0.5,0.2-0.9v-3.5h1.9v3.6c0,0.9-0.2,1.5-0.7,1.9
			C103,56.7,102.3,56.9,101.4,56.9z"/>
		<path class="st0" d="M110.2,52.3h-1.7v4.5h-2v-4.5h-1.8v-1.5h5.4V52.3z"/>
		<path class="st0" d="M112.8,56.8h-2v-6h2V56.8z"/>
		<path class="st0" d="M117,56.9c-1,0-1.8-0.3-2.5-0.8c-0.7-0.5-1-1.3-1-2.3c0-1,0.3-1.7,1-2.3c0.7-0.5,1.5-0.8,2.5-0.8
			c0.3,0,0.6,0,0.8,0.1c0.3,0,0.5,0.1,0.9,0.2l-0.1,1.4c-0.1-0.1-0.2-0.1-0.3-0.1c-0.1,0-0.2-0.1-0.4-0.1c-0.2,0-0.4-0.1-0.6-0.1
			c-0.5,0-1,0.2-1.3,0.5c-0.3,0.3-0.5,0.7-0.5,1.2c0,0.5,0.2,1,0.5,1.3c0.3,0.3,0.8,0.5,1.3,0.5c0.2,0,0.4,0,0.7-0.1
			c0.2,0,0.5-0.1,0.7-0.2l0,1.4c-0.1,0-0.2,0.1-0.4,0.1c-0.1,0-0.3,0.1-0.4,0.1c-0.2,0-0.3,0-0.4,0.1
			C117.4,56.9,117.2,56.9,117,56.9z"/>
		<path class="st0" d="M125.9,56.8h-2.1l-0.4-1.3h-2.1l-0.4,1.3h-2l2.2-6h2.6L125.9,56.8z M123,54.2l-0.7-2.2l-0.7,2.2H123z"/>
		<path class="st0" d="M130.9,56.8h-4.6v-6h2v4.5h2.6V56.8z"/>
		<path class="st0" d="M133.6,56.9c-0.7,0-1.4-0.1-2.1-0.3l0.1-1.4c0.6,0.3,1.2,0.4,1.9,0.4c0.3,0,0.5,0,0.7-0.1
			c0.2-0.1,0.3-0.2,0.3-0.4c0-0.2-0.2-0.4-0.7-0.6c-0.5-0.1-0.8-0.2-1.1-0.3c-0.2-0.1-0.5-0.2-0.8-0.4c-0.3-0.2-0.4-0.6-0.4-1.2
			c0-0.7,0.3-1.2,0.8-1.5c0.6-0.3,1.2-0.4,2-0.4c0.6,0,1.2,0.1,1.8,0.2l-0.1,1.4c-0.5-0.2-1-0.3-1.5-0.3c-0.3,0-0.5,0-0.7,0.1
			c-0.2,0.1-0.3,0.2-0.3,0.4c0,0.2,0.3,0.4,0.9,0.5c0.6,0.2,1.1,0.3,1.5,0.6c0.4,0.2,0.6,0.7,0.6,1.3c0,0.7-0.3,1.2-0.8,1.5
			C135,56.7,134.3,56.9,133.6,56.9z"/>
		<path class="st0" d="M144.6,56.8H140v-6h2v4.5h2.6V56.8z"/>
		<path class="st0" d="M150.3,52.3h-1.7v4.5h-2v-4.5h-1.8v-1.5h5.4V52.3z"/>
		<path class="st0" d="M150.9,50.8h2.8c1,0,1.8,0.2,2.4,0.7c0.6,0.4,0.8,1.2,0.8,2.3c0,1.1-0.3,1.8-0.9,2.3
			c-0.6,0.5-1.4,0.7-2.4,0.7h-2.7V50.8z M153.4,52.1h-0.6v3.4h0.6c0.5,0,0.9-0.1,1.1-0.4c0.2-0.3,0.3-0.7,0.3-1.3
			c0-0.5-0.1-1-0.3-1.3C154.3,52.2,153.9,52.1,153.4,52.1z"/>
		<path class="st0" d="M159.5,56.8h-1.6v-1.5h1.6V56.8z"/>
	</g>
	<g>
		<path class="st0" d="M68.1,37.8c-1.5-0.3-2.7-0.8-2.7-1.5c0-0.6,1.4-1.4,2.6-1.4c1,0,1.6,0.1,2,0.3c1.1,0.4,1.6-0.5,1-1
			c-0.6-0.6-2.4-1.1-4-1.1c-3.7,0-5.5,2.5-5.5,3.9c0,2.9,4.4,3.7,5.4,4c1,0.3,1.8,0.8,1.8,1.4c0,0.6-0.9,1.3-2.2,1.3
			c-1.4,0-2.7-0.7-3.7-1.2c-1-0.4-1.7,0.7-1,1.3c0.8,0.6,3.2,1.9,5.5,1.9c2.3,0,5.2-1.5,5.2-3.9C72.6,39.3,69.6,38.1,68.1,37.8z"/>
		<path class="st0" d="M76.3,33.1h-0.8c-0.7,0-1.3,0.6-1.3,1.3v9.9c0,0.7,0.6,1.3,1.3,1.3h0.8c0.7,0,1.3-0.6,1.3-1.3v-9.9
			C77.6,33.7,77,33.1,76.3,33.1z"/>
		<path class="st0" d="M81.4,39.8c-0.2-0.3-0.3-0.6,0.1-1.2c0.4-0.7,2.6-4.9,2.8-5.1c0.1-0.3,0-0.3-0.2-0.3c-0.1,0-1.9,0-2.3,0
			c-0.2,0-0.7,0.1-1,0.7c-0.2,0.4-2.5,4.6-2.7,4.9c-0.2,0.3-0.3,0.5,0,1.1c0.3,0.6,2.3,4.4,2.6,4.8c0.2,0.5,0.4,0.9,1.1,0.9
			c0.8,0,2,0,2.3,0c0.3,0,0.2-0.3,0.2-0.4C84.3,45.1,81.6,40.1,81.4,39.8z"/>
		<path class="st0" d="M88.4,38.5h-0.8c-0.2,0-0.4-0.2-0.4-0.4v-0.8c0-0.4-0.3-0.7-0.7-0.7h-0.4c-0.4,0-0.7,0.3-0.7,0.7v0.8
			c0,0.2-0.2,0.4-0.4,0.4h-0.8c-0.3,0-0.6,0.3-0.6,0.6v0.5c0,0.3,0.3,0.6,0.6,0.6h0.8c0.2,0,0.4,0.2,0.4,0.4v0.8
			c0,0.4,0.3,0.7,0.7,0.7h0.4c0.4,0,0.7-0.3,0.7-0.7v-0.8c0-0.2,0.2-0.4,0.4-0.4h0.8c0.3,0,0.6-0.3,0.6-0.6v-0.5
			C89.1,38.8,88.8,38.5,88.4,38.5z"/>
		<path class="st0" d="M94.9,35.3h3.9c0.4,0,0.6-0.3,0.6-0.6v-0.9c0-0.4-0.3-0.6-0.6-0.6h-5.7c0,0,0,0-0.1,0c0,0,0,0,0,0h-0.8
			c-0.7,0-1.3,0.6-1.3,1.3v9.9c0,0.7,0.6,1.3,1.3,1.3h0.8c0.7,0,1.3-0.6,1.3-1.3v-3.7c0-0.3,0.3-0.6,0.6-0.6h3.9
			c0.4,0,0.7-0.3,0.7-0.7v-0.6c0-0.4-0.3-0.7-0.7-0.7h-3.9c-0.3,0-0.6-0.3-0.6-0.6v-1.7C94.4,35.5,94.6,35.3,94.9,35.3z"/>
	</g>
</g>
</svg>
