<?xml version="1.0" encoding="utf-8"?>
<!-- Generator: Adobe Illustrator 19.1.0, SVG Export Plug-In . SVG Version: 6.00 Build 0)  -->
<svg version="1.1" id="Layer_1" xmlns="http://www.w3.org/2000/svg" xmlns:xlink="http://www.w3.org/1999/xlink" x="0px" y="0px"
	 viewBox="0 0 160 90" style="enable-background:new 0 0 160 90;" xml:space="preserve">
<style type="text/css">
	.st0{fill:#BBBBBB;}
</style>
<g>
	<path class="st0" d="M28.9,39.1c-6-1.2-11-3.4-11-6c0-2.6,5.9-5.6,10.5-5.6c4.1-0.1,6.6,0.6,8.3,1.1c4.5,1.4,6.7-1.9,4.3-4.3
		c-2.4-2.3-9.8-4.5-16.6-4.5C9.1,19.8,2.1,29.9,2.1,35.5C2.1,47.4,20,50.6,24,51.9c4.1,1.3,7.4,3.1,7.4,5.6c0,2.5-3.6,5.2-9.2,5.2
		c-5.5,0-11.2-2.9-15.1-4.8c-4-1.8-7,2.8-3.9,5.3c3.1,2.4,13,7.9,22.3,7.9C35,71,47,65,47,55C47,44.9,34.9,40.3,28.9,39.1z"/>
	<path class="st0" d="M62.3,19.8H59c-3,0-5.3,2.4-5.3,5.3v40.5c0,3,2.4,5.3,5.3,5.3h3.3c3,0,5.3-2.4,5.3-5.3V25.1
		C67.6,22.2,65.2,19.8,62.3,19.8z"/>
	<path class="st0" d="M83.2,47c-0.7-1.3-1.1-2.3,0.5-4.8c1.6-2.9,10.7-19.9,11.3-21.1c0.6-1.1,0-1.3-0.6-1.3c-0.6,0-7.7,0-9.5,0
		c-1,0-2.8,0.4-4.2,3.1C79.8,24.7,70.5,41.8,69.9,43c-0.6,1.2-1.2,2,0.1,4.3c1.3,2.4,9.4,17.9,10.4,19.8c1,1.9,1.8,3.9,4.5,3.9
		c3.2,0,8.3,0,9.6,0c1.3,0,0.9-1.2,0.6-1.6C94.8,69,83.9,48.3,83.2,47z"/>
	<path class="st0" d="M112,41.8h-3.4c-0.8,0-1.5-0.7-1.5-1.5v-3.3c0-1.5-1.2-2.7-2.7-2.7h-1.7c-1.5,0-2.7,1.2-2.7,2.7v3.3
		c0,0.8-0.7,1.5-1.5,1.5h-3.4c-1.4,0-2.6,1.2-2.6,2.6v1.9c0,1.4,1.2,2.6,2.6,2.6h3.4c0.8,0,1.5,0.7,1.5,1.5v3.3
		c0,1.5,1.2,2.7,2.7,2.7h1.7c1.5,0,2.7-1.2,2.7-2.7v-3.3c0-0.8,0.7-1.5,1.5-1.5h3.4c1.4,0,2.6-1.2,2.6-2.6v-1.9
		C114.6,43,113.4,41.8,112,41.8z"/>
	<path class="st0" d="M138.5,28.7h16c1.4,0,2.6-1.2,2.6-2.6v-3.8c0-1.4-1.2-2.6-2.6-2.6h-23.3c-0.1,0-0.2,0-0.2,0c0,0-0.1,0-0.1,0
		h-3.3c-3,0-5.3,2.4-5.3,5.3v40.5c0,3,2.4,5.3,5.3,5.3h3.3c3,0,5.3-2.4,5.3-5.3V50.4c0-1.3,1-2.3,2.3-2.3h15.8
		c1.5,0,2.7-1.2,2.7-2.7v-2.6c0-1.5-1.2-2.7-2.7-2.7h-15.8c-1.3,0-2.3-1-2.3-2.3V31C136.2,29.7,137.2,28.7,138.5,28.7z"/>
</g>
</svg>
