<?xml version="1.0" encoding="utf-8"?>
<!-- Generator: Adobe Illustrator 19.1.0, SVG Export Plug-In . SVG Version: 6.00 Build 0)  -->
<svg version="1.1" id="Layer_1" xmlns="http://www.w3.org/2000/svg" xmlns:xlink="http://www.w3.org/1999/xlink" x="0px" y="0px"
	 viewBox="0 0 160 90" style="enable-background:new 0 0 160 90;" xml:space="preserve">
<style type="text/css">
	.st0{fill:#BBBBBB;}
</style>
<g>
	<path class="st0" d="M85.6,37.3c-0.1,1.6-0.1,3.3-0.3,4.9c-0.1,1-0.4,1.9-1.5,2.3c-0.5,0.2-0.9,0.2-1.3-0.2
		C82.2,44,82,43.6,82.1,43c0.8-2.8,0.9-5.7,1.1-8.5c0.1-0.7,0.1-1.2-0.9-0.9c-0.4,0.1-0.7-0.2-0.8-0.6c-0.1-0.6-0.3-1.3,0.3-1.6
		c1.1-0.5,1.1-1.4,1-2.4c-0.3-2.7-0.5-5.4-0.8-8.1c-0.1-0.7-0.1-1.4-0.2-2c0-0.4,0.1-0.6,0.4-0.7c0.2-0.1,0.5-0.2,0.7-0.3
		c1.3-0.4,1.8,0,1.9,1.3c0.3,3.3,0.6,6.6,0.8,9.9c0,0.6,0.3,0.8,0.9,0.6c1.5-0.4,1.5-0.4,1.5-1.9c0.1-3.1,0.2-6.3,0.3-9.4
		c0-0.5,0.2-0.7,0.7-0.7c0.6,0.1,1.3,0.1,1.9,0.2c0.6,0.1,0.7,0.6,0.7,1.1c-0.2,1.8-0.4,3.7-0.5,5.5c-0.1,1.1-0.1,2.1-0.3,3.2
		c-0.1,0.7,0.2,0.8,0.8,0.6c1-0.3,2-0.6,3.1-0.3c0.4,0.1,0.8,0.3,0.9,0.7c0.1,0.4-0.2,0.6-0.5,0.9c-0.5,0.4-1,0.5-1.6,0.7
		c-0.6,0.2-1.2,0.4-1.7,0.5c-1.1,0.4-1.1,0.4-1.2,1.6c0,3.1-0.1,6.2-0.1,9.3c0,0.5,0,1.1-0.5,1.2c-0.7,0.2-1.6,0.4-2.3-0.2
		c-0.2-0.2-0.2-0.5-0.2-0.8c0.1-3.1,0.2-6.1,0.4-9.2c0-0.4-0.1-0.7-0.6-0.5c-0.2,0.1-0.4,0.2-0.7,0.2c-0.7,0.1-0.9,0.5-0.9,1.1
		C85.6,34.8,85.6,36.1,85.6,37.3z"/>
	<path class="st0" d="M18.9,19.2c0,0.9-0.5,1.5-1.5,1.8c-2.2,0.6-4.5,1.2-6.7,1.7c-1.2,0.3-1.4,0.5-1.3,1.7c0.1,0.9,0.2,1.9,0.3,2.8
		c0,0.3,0.2,0.4,0.4,0.3c1.8-0.5,3.6-0.7,5.4-1.3c0.7-0.2,1.1,0,1.4,0.5c0.3,0.5,0.3,1-0.3,1.4c-0.1,0.1-0.3,0.2-0.3,0.4
		c0.1,0.8-0.5,0.9-1.1,1.1c-1.6,0.4-3.2,0.7-4.8,1c-0.6,0.1-0.8,0.4-0.8,1c0,3.6-0.2,7.2,0,10.7c0,0.6-0.7,1.4-1.3,1.5
		c-0.5,0-1-0.6-1.1-1.4c-0.2-1.2-0.1-2.5-0.2-3.7C6.9,34.1,6.9,29.5,6.5,25c-0.1-1.2-0.3-2.3-0.2-3.5c0.1-1.5,0.7-2,2.1-1.6
		c0.3,0.1,0.5,0,0.8,0c2.7-0.7,5.4-1.4,8-2C18.4,17.6,18.9,18,18.9,19.2z"/>
	<path class="st0" d="M156.2,40.9c0,0.5,0,0.8-0.3,0.9c-0.3,0.1-0.6-0.1-0.8-0.2c-0.9-0.7-1.4-1.8-1.6-2.9c-0.2-1.5-0.4-3-0.6-4.5
		c-0.1-0.6-0.2-1.1-0.5-1.7c-0.3-0.7-0.8-0.8-1.4-0.4c-0.5,0.3-0.7,0.8-1,1.3c-1.2,2.5-1.9,5.2-2.5,7.9c-0.3,1.4-1.3,1.7-2.4,0.8
		c-1-0.9-1.2-2.1-1.4-3.3c-0.4-3-0.8-5.9-1.1-8.9c-0.1-0.6,0-1.2,0.6-1.5c0.6-0.3,1.1,0.2,1.5,0.7c0.4,0.5,0.4,1.2,0.6,1.8
		c0.3,1.3,0.5,2.7,0.8,4c0,0.2,0.1,0.5,0.3,0.5c0.3,0,0.4-0.2,0.5-0.4c0.6-1.3,1.2-2.6,1.8-3.8c0.4-0.8,0.8-1.6,1.4-2.2
		c1.4-1.5,3.6-1.1,4.5,0.8c0.5,1.2,0.7,2.4,0.9,3.7c0.3,2.4,0.6,4.9,1,7.3C156.3,40.8,156.3,40.9,156.2,40.9z"/>
	<path class="st0" d="M26.6,31.4c0,0.7,0.1,1.4,0,2.1c-0.2,1.2,0.3,2,1.3,2.7c0.3,0.2,0.7,0.5,0.7,1c-0.1,1.2-0.8,1.6-1.9,1.2
		c-0.4-0.2-0.7-0.8-1.1-0.5c-0.3,0.2-0.4,0.7-0.6,1.1c-0.6,1.2-1.3,2.3-2.4,3.1c-1.7,1.4-3.5,1.2-4.9-0.5c-0.9-1.1-1.3-2.3-1.5-3.7
		c-0.4-3.6,0.7-6.8,3.4-9.3c0.6-0.6,1.3-1,2.1-1.2c0.4-0.1,0.5,0,0.5,0.4c0,0.5-0.2,0.9-0.5,1.3c-1.6,2.4-2.8,5-3.1,8
		c-0.1,0.9,0.1,1.7,0.4,2.5c0.5,1.3,1.9,1.5,2.8,0.5c1.3-1.4,1.8-3.2,2-5.1c0.2-2,0.2-4,0.2-5.9c0-0.3-0.1-0.7-0.1-1
		c-0.1-0.6-0.4-0.9-1-0.9c-0.3,0-0.5,0-0.8-0.1c-0.4-0.1-0.6-0.3-0.7-0.7c0-0.4,0.1-0.7,0.4-0.9c2-1.2,4.1-0.3,4.6,1.9
		C26.8,28.7,26.6,30,26.6,31.4z"/>
	<path class="st0" d="M67.4,21.8c0.5,0,1,0,1.5,0.1c2.3,0.4,3.2,1.9,2.8,4.2c-0.2,1.4-0.9,2.6-1.4,3.9c-1.1,2.7-2.2,5.3-3.1,8
		c-0.2,0.6-0.6,1.2,0,1.7c0.6,0.5,1.3,0.3,1.9,0.1c0.7-0.3,1.3-0.6,2-1c0.3-0.1,0.5-0.1,0.8,0.1c0.2,0.2,0.2,0.5,0,0.7
		c-1.2,1.7-2.6,3.1-5,2.9c-2.1-0.1-3.6-2.1-2.9-4.1c0.9-2.6,2.2-5.1,3.2-7.6c0.6-1.5,1.3-3,1.6-4.7c0.2-1.1-0.2-1.7-1.3-1.8
		c-1-0.1-2,0.2-2.9,0.6c-1,0.4-1.9,0.9-2.9,1.2c-0.8,0.2-1.5-0.1-1.7-0.9c-0.2-0.5,0-1,0.5-1.3C62.6,22.8,64.8,21.8,67.4,21.8z"/>
	<path class="st0" d="M118.5,43.5c-1.1,0-1.8-0.2-2.5-0.6c-0.5-0.3-0.9-0.8-0.7-1.4c0.2-0.6,0.8-0.5,1.3-0.4c1.4,0.3,2.6,0,3.9-0.5
		c0.3-0.1,0.6-0.3,0.8-0.5c1.2-0.9,1.1-1.9-0.2-2.6c-0.8-0.5-1.8-0.8-2.6-1.1c-2.9-1.3-4.4-3.6-4.3-6.6c0.1-3.1,3.1-6.4,6.1-6.9
		c1-0.1,1.7,0.1,1.8,0.6c0.2,0.9-0.4,1.2-1,1.6c-0.7,0.4-1.5,0.8-2.2,1.3c-2.5,1.7-2.6,5.2-0.1,7c0.8,0.6,1.8,1,2.8,1.4
		c0.8,0.3,1.6,0.7,2.2,1.3c1.4,1.2,1.6,2.8,0.6,4.3C122.8,42.4,120.7,43.3,118.5,43.5z"/>
	<path class="st0" d="M30.6,25.2c0.2,0,0.3,0,0.4,0.1c1,0.8,2,0.2,3-0.1c1.4-0.3,2.7-0.7,4-1.1c0,0,0.1,0,0.1,0c1-0.2,1.6,0,1.8,0.7
		c0.2,0.7-0.2,1.4-1.1,1.7c-0.7,0.2-1.4,0.4-2.1,0.7c-0.3,0.1-0.6,0.2-0.9,0.3c-2,0.7-2.7,1.6-2.7,3.8c0,2.3,0.2,4.6,0.6,6.8
		c0.1,0.9,0.3,1.8,0.4,2.7c0.1,0.8-0.3,1.3-0.9,1.5c-0.7,0.2-1.2-0.2-1.5-0.9c-0.7-1.9-1-4-1.3-6c-0.4-2.2-0.8-4.4-1.2-6.7
		c-0.2-1,0.1-1.9,0.4-2.8C29.9,25.3,30.2,25.2,30.6,25.2z"/>
	<path class="st0" d="M126.4,37.8c0-1.4,0.1-2.4,0.4-3.4c0.1-0.5,0.4-0.7,0.8-0.5c0.5,0.1,1.3-0.2,1.4,0.7c0.1,0.8,0,1.5-0.1,2.3
		c0,0.5-0.1,1.1-0.1,1.6c0,0.6,0.1,1.1,0.7,1.3c0.6,0.2,1.1,0,1.4-0.4c0.9-1.1,1.5-2.4,1.7-3.8c0.1-0.6,0-1.1,0-1.7
		c-0.1-0.9-0.5-1.6-1.3-2c-0.8-0.3-1.5,0.2-2,0.7c-0.7,0.6-1.1,0.7-1.7,0.1c-0.7-0.6-0.8-1.2-0.1-1.9c1.8-1.9,4.6-1.8,6.3,0.2
		c0.2,0.3,0.4,0.5,0.7,0.7c0.7,0.4,0.8,1,0.7,1.8c-0.1,0.8-0.2,1.5-0.3,2.3c-0.1,2.1,0.3,4,2.2,5.4c0.2,0.2,0.3,0.3,0.2,0.6
		c-0.1,0.2-0.4,0.2-0.6,0.2c-1.3-0.1-2.1-0.8-2.7-1.9c-0.5-0.9-0.5-0.9-1.2,0c-0.5,0.7-1.1,1.3-1.8,1.7c-2,1.2-4,0.2-4.4-2
		C126.4,38.9,126.4,38.2,126.4,37.8z"/>
	<path class="st0" d="M109.5,28.1c-0.4,0-0.8-0.1-1.3,0.1c-1.1,0.4-1.4,1.5-0.7,2.4c0.4,0.5,0.9,0.9,1.5,1.1c1.2,0.5,2.4,1.2,3.4,2
		c1.7,1.3,2.3,3.3,1.5,4.9c-0.7,1.3-1.6,2.3-3,2.8c-1.7,0.7-3.5,0.8-5.3,0.3c-0.5-0.2-1-0.4-0.9-1.1c0.1-0.5,0.8-0.9,1.4-0.8
		c0.5,0.1,0.9,0.2,1.4,0.3c1.7,0.2,3.4-0.9,3.9-2.5c0.2-0.7,0.1-1.3-0.5-1.8c-0.8-0.7-1.7-1.3-2.7-1.7c-0.9-0.4-1.7-1-2.4-1.7
		c-1.4-1.4-1.7-3.5-0.7-5c1.1-1.6,3.4-2.4,5.2-1.7c0.2,0.1,0.4,0.2,0.5,0.3c0.4,0.3,0.9,0.6,0.6,1.2c-0.2,0.6-0.5,1.1-1.3,1.1
		C110.1,28.1,109.8,28.1,109.5,28.1z"/>
	<path class="st0" d="M140.4,33.7c0,2.5,0.5,4.9,0.6,7.4c0,0.4,0.2,1-0.5,1.2c-0.7,0.1-1.1-0.2-1.3-0.9c-0.9-2.8-1.8-5.6-1.6-8.6
		c0-0.2,0-0.3,0-0.5c0.1-1.1,1.3-1.8,2.3-1.2c0.3,0.2,0.5,0.5,0.5,1C140.4,32.7,140.4,33.2,140.4,33.7z"/>
	<path class="st0" d="M124,69c0,0.9,0,1.8,0,2.7c0,0.4-0.1,0.6-0.5,0.6c-0.4,0-0.4-0.2-0.4-0.5c0-0.7,0-1.4,0-2.1
		c0-0.4-0.1-0.5-0.5-0.5c-0.7,0-1.3,0-2,0c-0.5,0-0.6,0.2-0.5,0.6c0,0.7,0,1.4,0,2.1c0,0.4-0.1,0.5-0.5,0.5c-0.3,0-0.4-0.1-0.4-0.5
		c0-1.9,0-3.8,0-5.6c0-0.3,0.1-0.4,0.5-0.4c0.4,0,0.5,0.1,0.5,0.5c0,0.5,0,1,0,1.5c0,0.4,0.1,0.5,0.5,0.5c0.7,0,1.4,0,2.1,0
		c0.4,0,0.5-0.2,0.5-0.5c0-0.5,0-1,0-1.4c0-0.3,0.1-0.5,0.5-0.5c0.4,0,0.5,0.1,0.5,0.5C124,67.1,124,68,124,69z"/>
	<path class="st0" d="M133.2,68.6c0.4-0.5,0.8-0.8,1.4-0.8c0.6,0,1.1,0.5,1.1,1.2c0,0.9,0,1.8,0,2.7c0,0.3-0.1,0.5-0.5,0.5
		c-0.4,0-0.5-0.2-0.5-0.5c0-0.7,0-1.3,0-2c0-0.5,0.1-1-0.6-1c-0.6,0-0.9,0.4-0.9,1c-0.1,0.7,0,1.4,0,2.1c0,0.3-0.1,0.5-0.4,0.5
		c-0.3,0-0.5-0.1-0.5-0.5c0-0.7,0-1.4,0-2.1c0-0.4,0-0.9-0.6-1c-0.6-0.1-0.9,0.3-1,0.8c-0.1,0.7,0,1.4-0.1,2c0,0.3,0.1,0.6-0.4,0.6
		c-0.5,0-0.5-0.3-0.5-0.6c0-1,0-2.1,0-3.1c0-0.2-0.1-0.5,0.2-0.5c0.2,0,0.6-0.2,0.7,0.2c0.1,0.3,0.2,0.2,0.3,0.1
		C132,67.6,132.3,67.7,133.2,68.6z"/>
	<path class="st0" d="M11,66.9c-1.5-0.6-3-0.8-4.1,0.7c-0.6,0.8-0.6,1.9,0,2.7c1.1,1.5,2.6,1.3,4.1,0.7c0.3,0.8-0.1,1.1-0.8,1.3
		c-2,0.5-4.1-0.5-4.6-2.4C5,68,6.1,66.1,8.1,65.6c0.7-0.2,1.4-0.1,2.1,0C10.9,65.7,11.3,66.1,11,66.9z"/>
	<path class="st0" d="M58,68.9c0-0.9,0-1.8,0-2.7c0-0.4,0.1-0.5,0.5-0.5c0.9,0,1.8,0,2.7,0c0.3,0,0.5,0.1,0.5,0.5
		c0,0.4-0.2,0.5-0.5,0.5c-0.5,0-0.9,0-1.4,0c-0.6,0-0.9,0-0.9,0.8c0,0.8,0.4,0.8,1,0.8c0.4,0,0.9,0,1.3,0c0.3,0,0.5,0,0.5,0.4
		c0,0.4-0.2,0.5-0.5,0.5c-0.1,0-0.2,0-0.2,0c-0.6,0.1-1.4-0.3-1.8,0.1c-0.4,0.4-0.1,1.2-0.1,1.8c0,0.2,0,0.5,0,0.7
		c0,0.3-0.1,0.4-0.5,0.4c-0.3,0-0.5,0-0.5-0.4C58,70.8,58,69.9,58,68.9z"/>
	<path class="st0" d="M49.1,69.2c0,1,0,2,0,3c0,0.5-0.1,0.9-0.7,0.9c-0.7,0-0.8-0.4-0.8-1c0-1.9,0-3.9,0-5.8c0-0.5,0.2-0.9,0.8-0.9
		c0.6,0,0.8,0.4,0.8,1C49.1,67.3,49.1,68.3,49.1,69.2z"/>
	<path class="st0" d="M87.9,68.5c0.3-0.2,0.4-0.3,0.6-0.4c1-0.6,2.2,0,2.2,1.2c0,0.8,0,1.6,0,2.4c0,0.4-0.1,0.5-0.5,0.5
		c-0.4,0-0.5-0.2-0.4-0.5c0-0.7,0-1.3,0-2c0-0.5-0.1-1-0.7-1c-0.6,0-1,0.4-1.1,1c-0.1,0.6,0,1.3-0.1,1.9c0,0.3,0.1,0.7-0.4,0.7
		c-0.5,0-0.5-0.3-0.5-0.6c0-1.8,0-3.7,0-5.5c0-0.3,0-0.6,0.5-0.6c0.5,0,0.5,0.2,0.5,0.6C87.9,66.8,87.9,67.6,87.9,68.5z"/>
	<path class="st0" d="M108.7,69.3c0-1,0-2,0-3c0-0.5,0.2-0.9,0.7-0.9c0.6,0,0.8,0.4,0.8,0.9c0,2,0,4,0,5.9c0,0.5-0.2,0.9-0.8,0.9
		c-0.6,0-0.7-0.4-0.7-0.9C108.7,71.3,108.7,70.3,108.7,69.3z"/>
	<path class="st0" d="M136.9,24.1c0-0.6,0.1-1.1,0.4-1.5c0.4-0.6,0.9-0.8,1.6-0.6c0.7,0.2,1.2,0.8,1.1,1.5c0,0.4-0.1,0.9-0.4,1.2
		c-0.4,0.5-0.9,0.8-0.9,1.6c0,0.4-0.6,0.4-0.9,0.1C137.2,25.8,136.9,25,136.9,24.1z"/>
	<path class="st0" d="M73.2,70c0-0.5,0-1.1,0-1.6c0-0.2-0.1-0.4,0.2-0.4c0.2,0,0.6-0.1,0.7,0.1c0.1,0.4,0.2,0.3,0.5,0.1
		c0.5-0.4,1.1-0.5,1.6-0.2c0.6,0.3,0.7,0.8,0.7,1.4c0,0.8,0,1.5,0,2.3c0,0.4-0.2,0.5-0.5,0.5c-0.3,0-0.4-0.1-0.4-0.5
		c0-0.7,0-1.4,0-2.1c0-0.5-0.1-1-0.7-1c-0.6-0.1-1,0.3-1.1,0.8c-0.1,0.3,0,0.6-0.1,0.9c-0.2,0.6,0.6,1.7-0.5,1.7
		c-1,0-0.2-1.1-0.4-1.7C73.2,70.3,73.2,70.1,73.2,70z"/>
	<path class="st0" d="M143.3,68.5c0.4-0.3,0.7-0.6,1.2-0.7c0.8-0.1,1.5,0.4,1.5,1.2c0,0.9,0,1.8,0,2.7c0,0.4-0.2,0.4-0.5,0.4
		c-0.3,0-0.5,0-0.5-0.4c0-0.7,0-1.4,0-2.1c0-0.6-0.1-1-0.7-1.1c-0.5,0-1,0.5-1.1,1.1c0,0.7,0,1.3,0,2c0,0.3-0.1,0.5-0.5,0.5
		c-0.4,0-0.5-0.1-0.5-0.5c0-1.1,0-2.1,0-3.2c0-0.2-0.2-0.5,0.3-0.6C143,67.9,143.4,67.9,143.3,68.5z"/>
	<path class="st0" d="M156.4,68c-0.9,1.9-1.8,3.8-2.6,5.7c-0.3,0.6-0.6,0.4-1.2,0.4c0.4-0.9,0.8-1.7,1.2-2.5c0.2-0.4,0.2-0.6-0.1-1
		c-0.6-0.9-1.2-1.7-1.8-2.7c1.7-0.3,1.6,1.5,2.6,2.1c0.2-0.5,0.5-0.9,0.7-1.4C155.4,68,155.7,67.8,156.4,68z"/>
	<path class="st0" d="M128.8,69.5c0,0.4,0,0.7,0,1.1c0,1-0.8,1.7-1.8,1.7c-1,0-1.8-0.7-1.8-1.7c0-0.8,0-1.5,0-2.3
		c0-0.3,0.1-0.4,0.4-0.4c0.3,0,0.5,0,0.5,0.4c0,0.7,0,1.3,0,2c0,0.6,0.3,1.1,0.9,1c0.6,0,0.9-0.5,0.9-1.1c0-0.6,0-1.2,0-1.7
		c0-0.3-0.1-0.7,0.4-0.7c0.5,0,0.5,0.3,0.5,0.6C128.8,68.9,128.8,69.2,128.8,69.5z"/>
	<path class="st0" d="M20.7,69.5c0,0.3,0,0.6,0,0.9c0,1.2-0.7,1.9-1.8,1.9c-1.1,0-1.8-0.7-1.8-1.9c0-0.7,0-1.4,0-2.1
		c0-0.4,0.2-0.4,0.5-0.4c0.3,0,0.4,0.1,0.4,0.4c0,0.7,0,1.3,0,2c0,0.6,0.3,1.1,0.9,1.1c0.7,0,0.9-0.4,0.9-1.1c0-0.7,0-1.3,0-2
		c0-0.3,0.1-0.4,0.4-0.4c0.3,0,0.5,0.1,0.5,0.5C20.7,68.7,20.7,69.1,20.7,69.5z"/>
	<path class="st0" d="M86.2,68.5c-0.3,0.4-0.5,0.6-1,0.3c-0.2-0.2-0.6-0.2-0.8,0.2c-0.2,0.4,0.2,0.5,0.5,0.6c0.3,0.2,0.7,0.3,1,0.5
		c0.4,0.4,0.5,0.8,0.3,1.3c-0.2,0.6-0.7,0.9-1.4,0.9c-0.6,0-1-0.2-1.4-0.7c-0.1-0.1,0-0.2,0.1-0.2c0.2-0.1,0.4-0.3,0.6-0.2
		c0.2,0.1,0.3,0.2,0.5,0.2c0.3,0.1,0.7,0,0.8-0.3c0.1-0.3-0.2-0.5-0.4-0.6c-0.2-0.1-0.5-0.2-0.8-0.4c-0.6-0.3-0.9-0.8-0.7-1.4
		c0.1-0.6,0.9-1,1.5-0.9C85.5,67.9,85.9,68.1,86.2,68.5z"/>
	<path class="st0" d="M149.7,70.5c0-0.4,0-0.7,0-1.1c0-0.3,0-0.7-0.5-0.6c-0.3,0-0.2-0.3-0.2-0.5c0-0.2,0-0.4,0.2-0.4
		c0.6,0.1,0.5-0.3,0.5-0.7c0-0.3,0-0.6,0.5-0.6c0.5,0,0.5,0.2,0.5,0.6c0,0.4,0,0.8,0.6,0.7c0.3,0,0.3,0.2,0.3,0.4
		c0,0.2,0,0.5-0.3,0.5c-0.6-0.1-0.6,0.3-0.6,0.7c0,0.7,0,1.5,0,2.2c0,0.4-0.2,0.5-0.5,0.5c-0.4,0-0.4-0.1-0.4-0.5
		C149.7,71.3,149.7,70.9,149.7,70.5z"/>
	<path class="st0" d="M63.5,68.5c0.4-0.3,0.5-0.6,0.8-0.6c0.2-0.1,0.4-0.2,0.7,0c0.2,0.1,0.1,0.3,0,0.5c-0.1,0.3-0.1,0.4-0.5,0.4
		c-0.7,0-1,0.4-1,1.1c0,0.6,0,1.2,0,1.8c0,0.4-0.1,0.5-0.5,0.5c-0.4,0-0.5-0.2-0.5-0.5c0-1.1,0-2.1,0-3.2c0-0.2-0.1-0.5,0.3-0.6
		C63.2,67.9,63.6,67.9,63.5,68.5z"/>
	<path class="st0" d="M22.7,68.6c0.4-0.3,0.6-0.7,1.1-0.7c0.2,0,0.5-0.1,0.6,0.2c0,0.3,0,0.7-0.4,0.8c-1.1,0.2-1.1,0.3-1.1,1.4
		c0,0.5,0,1,0,1.4c0,0.4-0.1,0.5-0.5,0.5c-0.4,0-0.4-0.2-0.4-0.5c0-1,0-2,0-3c0-0.2-0.2-0.7,0.3-0.7C22.6,67.9,22.9,68,22.7,68.6z"
		/>
	<path class="st0" d="M148.1,70.1c0,0.5,0,1.1,0,1.6c0,0.4-0.1,0.5-0.5,0.5c-0.4,0-0.4-0.2-0.4-0.5c0-1.1,0-2.2,0-3.3
		c0-0.4,0.1-0.5,0.5-0.5c0.4,0,0.5,0.1,0.5,0.5C148.1,68.9,148.1,69.5,148.1,70.1z"/>
	<path class="st0" d="M66,70c0-0.6,0-1.1,0-1.7c0-0.3,0.1-0.4,0.4-0.4c0.3,0,0.5,0,0.5,0.4c0,1.1,0,2.2,0,3.3c0,0.4-0.1,0.5-0.5,0.5
		C66,72.2,66,72,66,71.7C66,71.1,66,70.6,66,70z"/>
	<path class="st0" d="M92.7,70c0,0.5,0,1.1,0,1.6c0,0.3,0,0.6-0.5,0.6c-0.4,0-0.5-0.2-0.4-0.5c0-1.1,0-2.2,0-3.3
		c0-0.3,0.1-0.5,0.4-0.5c0.4,0,0.5,0.2,0.5,0.5C92.7,69,92.7,69.5,92.7,70z"/>
	<path class="st0" d="M66.5,65.9c0.4,0,0.7,0.2,0.7,0.7c0,0.4-0.3,0.7-0.7,0.7c-0.4,0-0.7-0.3-0.7-0.8C65.8,66.1,66,65.9,66.5,65.9z
		"/>
	<path class="st0" d="M92.3,65.9c0.4,0,0.7,0.3,0.6,0.7c0,0.4-0.3,0.7-0.8,0.7c-0.4,0-0.7-0.3-0.6-0.8C91.6,66,91.9,65.9,92.3,65.9z
		"/>
	<path class="st0" d="M147.6,67.3c-0.4-0.1-0.7-0.3-0.7-0.7c0-0.4,0.2-0.7,0.7-0.7c0.4,0,0.7,0.2,0.7,0.6
		C148.3,67,148,67.2,147.6,67.3z"/>
	<path class="st0" d="M138.9,48.9c0.1,0,0.1-0.1,0.2-0.1c0.8,0.3,1.6,0.1,2.4,0.1c0.3,0,0.5,0,0.8,0c0,0.3-0.2,0.3-0.4,0.3
		c-1-0.3-2,0-3-0.2C138.8,49,138.8,48.9,138.9,48.9C138.8,48.9,138.9,48.9,138.9,48.9z"/>
	<path class="st0" d="M143.6,49.4c-1,0-2,0-3.1,0c0.3-0.3,0.7-0.2,1-0.2C142.1,49.5,142.9,49.1,143.6,49.4z"/>
	<path class="st0" d="M144.1,50.7c-0.6,0-1.2-0.1-1.9-0.1c0,0,0-0.1,0-0.1c1,0,1.9,0,2.9,0C144.8,50.7,144.4,50.4,144.1,50.7z"/>
	<path class="st0" d="M119.8,55.6c0.8-0.3,0.9-0.2,0.8,0.8C120.3,56.2,120,55.9,119.8,55.6z"/>
	<path class="st0" d="M153.1,58.3c-0.6,0-1.2,0-2,0c0.8-0.4,1.4-0.3,2.1-0.3C153.1,58.1,153.1,58.2,153.1,58.3z"/>
	<path class="st0" d="M136.6,55c-0.5-0.3-1.1-0.1-1.7-0.1c-0.3,0-0.6,0-0.9-0.1c1,0,1.9,0,2.9,0C136.9,54.9,136.8,55,136.6,55z"/>
	<path class="st0" d="M139.6,48.7c-0.3-0.2-0.6,0-0.9-0.1c0.6-0.2,1.3-0.1,2-0.1C140.3,48.7,140,48.7,139.6,48.7z"/>
	<path class="st0" d="M147.7,50.9c-0.5,0.1-1,0.1-1.4,0C146.8,50.7,147.3,50.7,147.7,50.9z"/>
	<path class="st0" d="M151.4,58.8c0.4-0.1,0.8-0.1,1.2-0.2c0.1,0,0.2,0.1,0.3,0.1c-0.5,0.2-1,0.1-1.5,0.1
		C151.3,58.9,151.3,58.9,151.4,58.8C151.3,58.8,151.4,58.8,151.4,58.8z"/>
	<path class="st0" d="M118.3,55.5c-0.3,0-0.7,0-1.1,0c0.2-0.4,0.5-0.2,0.8-0.3C118.1,55.3,118.2,55.4,118.3,55.5z"/>
	<path class="st0" d="M141.1,53.2c0.6-0.1,1.1-0.1,1.5,0.1C142.1,53.5,141.7,53.5,141.1,53.2z"/>
	<path class="st0" d="M150.5,58.9c-0.5,0.3-1,0.2-1.6,0c0.2-0.2,0.4-0.2,0.5-0.2c0.2,0,0.3,0,0.5,0C150,59,150.3,58.8,150.5,58.9z"
		/>
	<path class="st0" d="M150.5,58.9c-0.2,0-0.5,0.1-0.6-0.2c0.5,0,1,0,1.5,0c0,0,0,0.1,0,0.1C151.1,58.9,150.8,58.9,150.5,58.9z"/>
	<path class="st0" d="M138.9,48.9c0,0,0,0.1,0,0.1c-0.2,0-0.4,0-0.7,0C138.4,48.6,138.6,48.8,138.9,48.9z"/>
	<path class="st0" d="M27,58.7c0.2-0.2,0.3-0.1,0.6-0.1C27.4,58.8,27.2,58.8,27,58.7z"/>
	<g>
		<path class="st0" d="M58.9,33.7c0.2-1.5,0.5-3,0.2-4.5c-0.2-1.2-0.6-2.4-1.5-3.2c-1-0.9-2.2-1-3.5-0.9c-0.9,0.1-0.7,1.1-1.2,1.5
			c-0.1,0.1-0.1,0.2-0.2,0.3c-0.7,1.1-1.4,2.2-1.8,3.5c-0.5,1.7-0.9,3.3-0.9,5.1c-0.1,1.9,0.1,3.7,1,5.4c0.4,0.6,0.8,1.2,1.6,1.3
			c1.7,0.3,2.8,0,3.7-1.4c0.3-0.4,0.5-1,1-1.3c0.3,0.6,0.6,1.2,0.9,1.9c0.4,0.9,1.1,1.5,2.1,1.8c0.3,0.1,0.7,0.2,0.9-0.2
			c0.3-0.4,0-0.6-0.2-0.9C59.1,39.6,58.5,36.8,58.9,33.7z M56.8,32.8c-0.1,1.5-0.2,2.9-0.6,4.2c-0.3,1-0.8,1.9-1.6,2.5
			c-0.9,0.8-1.5,0.7-1.9-0.5c-0.5-1.3-0.3-2.6-0.2-4c0.2-2.3,0.9-4.5,2.1-6.5c0.4-0.7,0.7-0.8,1.2-0.1c0.7,0.8,1,1.8,1.1,2.9
			C56.8,31.9,56.8,32.4,56.8,32.8z"/>
		<path class="st0" d="M47.9,38.3c-0.5-0.4-0.8-0.9-0.9-1.6c-0.2-1.3-0.2-2.6-0.1-3.9c0.1-0.9,0.1-1.9,0-2.8c-0.4-2.7-2.4-4.1-5.2-3
			c-0.7,0.3-1.4,0.7-1.4,1.6c0,0.2-0.2,0.3-0.3,0.3c-0.6,0.2-0.8,0.7-1,1.3c-0.2,0.8-0.3,1.5-0.5,2.3c-0.6,2.7-0.7,5.3-0.1,8
			c0.4,1.6,2,2.4,3.5,1.9c1.3-0.4,2.2-1.2,2.9-2.3c0.4-0.6,0.7-0.7,1.4-0.4c0.3,0.1,0.7,0.2,1,0.3c0.5,0,1,0,1.2-0.5
			C48.6,38.9,48.3,38.6,47.9,38.3z M43.1,38.6c-0.3,0.5-0.7,0.9-1.1,1.3c-0.6,0.5-1.1,0.3-1.4-0.4c-0.2-0.6-0.2-1.1-0.2-1.7
			c0.1-2.4,0.6-4.8,1.3-7.1c0.2-0.6,0.4-1.2-0.4-1.7c0.5-0.3,1-0.7,1.5-0.9c0.6-0.3,1,0,1.3,0.5c0.1,0.2,0.2,0.3,0.2,0.5
			C44.9,32.4,45.1,35.6,43.1,38.6z"/>
		<path class="st0" d="M97.8,27.4c-0.4,0.2-0.8,0.4-0.8,0.9c0,0.5,0.5,0.6,0.9,0.8c-1.5,1.3-2.5,2.8-3.1,4.6
			C94,36,94,38.3,95.4,40.3c0.8,1.1,1.8,1.8,3.2,1.7c1.2-0.1,2-0.8,2.8-1.7c1.2-1.4,1.6-3.1,1.8-4.8c0.3-2.1,0.6-4.1-0.2-6.2
			C102.1,26.8,100.2,26.3,97.8,27.4z M100.1,37.8c-0.4,1-1.1,1.6-1.7,1.5c-0.6-0.1-1.1-1-1.2-2.1c-0.1-2.2,0.9-4,2.2-5.7
			c1-1.3,0.9-1.9-0.5-2.7c-0.1,0-0.1-0.1-0.1-0.2c0.9-0.3,1.3-0.2,1.8,0.5c0.4,0.6,0.7,1.4,0.7,2.1C101.4,33.6,101,35.7,100.1,37.8z
			"/>
		<path class="st0" d="M34.8,67.9c-0.5-0.1-0.4,0.4-0.5,0.6c-1.1-0.9-2-1-2.9-0.1c-0.8,0.8-0.9,2.2-0.1,3.1c0.8,0.9,1.7,1,3,0.1
			c0.1,0.6,0,1.2-0.5,1.5c-0.6,0.3-1.1,0.2-1.5-0.3c-0.3-0.4-0.7-0.2-1.1-0.2c0.4,1.1,1.3,1.6,2.3,1.5c1-0.1,1.8-0.9,1.8-1.8
			c0-1.3,0-2.6,0-4C35.2,68,35.1,68,34.8,67.9z M33,71.4c-0.7,0-1.4-0.6-1.4-1.4c0-0.7,0.6-1.4,1.4-1.4c0.7,0,1.4,0.6,1.4,1.3
			C34.4,70.8,33.8,71.4,33,71.4z"/>
		<path class="st0" d="M82.4,66.1c0-0.4-0.1-0.6-0.5-0.6c-0.4,0-0.4,0.2-0.4,0.5c0,0.8,0,1.6,0,2.5c-1.3-1-2.2-0.9-3-0.1
			c-0.8,0.9-0.8,2.3,0,3.1c0.8,0.9,1.7,0.9,3,0c0,0.5,0.2,0.7,0.7,0.6c0.5-0.1,0.3-0.4,0.3-0.6C82.4,69.7,82.4,67.9,82.4,66.1z
			 M80.2,71.4c-0.7,0-1.4-0.7-1.4-1.4c0-0.7,0.6-1.3,1.4-1.3c0.8,0,1.4,0.6,1.4,1.4C81.5,70.8,80.9,71.4,80.2,71.4z"/>
		<path class="st0" d="M95.1,68.5c0-0.5-0.3-0.6-0.7-0.6c-0.5,0.1-0.3,0.4-0.3,0.7c0,1.6,0,3.3,0,5c0,0.3,0,0.6,0.5,0.6
			c0.5,0,0.4-0.3,0.4-0.6c0-0.6,0-1.3,0-2c1.3,0.9,2.2,0.9,3,0c0.8-0.8,0.8-2.2,0-3.1C97.3,67.6,96.3,67.6,95.1,68.5z M96.2,71.4
			c-0.7,0-1.3-0.7-1.3-1.5c0-0.7,0.6-1.3,1.4-1.3c0.7,0,1.4,0.7,1.3,1.4C97.7,70.8,97,71.5,96.2,71.4z"/>
		<path class="st0" d="M141.2,68.7c0-0.3,0.2-0.7-0.3-0.8c-0.5-0.1-0.6,0.2-0.7,0.6c-1.2-0.9-2.1-0.9-2.9,0c-0.8,0.9-0.8,2.3,0,3.1
			c0.8,0.9,1.8,0.9,3.1-0.1c-0.2,0.7,0.2,0.7,0.5,0.7c0.5,0,0.3-0.4,0.3-0.7C141.3,70.6,141.3,69.6,141.2,68.7z M139.1,71.4
			c-0.8,0-1.4-0.6-1.4-1.4c0-0.7,0.7-1.4,1.4-1.4c0.7,0,1.3,0.6,1.4,1.4C140.4,70.8,139.8,71.4,139.1,71.4z"/>
		<path class="st0" d="M29.2,67.9c-0.5,0-0.7,0.1-0.6,0.6c-1.3-0.9-2.3-0.9-3,0c-0.8,0.9-0.7,2.4,0.1,3.2c0.8,0.7,1.8,0.7,2.9-0.3
			c-0.1,0.5-0.1,0.8,0.4,0.7c0.6,0,0.4-0.4,0.4-0.7c0-1,0-1.9,0-2.9C29.5,68.4,29.8,68,29.2,67.9z M27.4,71.4
			c-0.8,0-1.4-0.6-1.4-1.4c0-0.7,0.6-1.4,1.3-1.4c0.7,0,1.4,0.6,1.4,1.3C28.8,70.8,28.2,71.4,27.4,71.4z"/>
		<path class="st0" d="M70.2,67.8c-0.9,0-1.8,0.6-2.1,1.6c-0.3,1,0,2,0.8,2.6c0.8,0.5,2,0.5,2.8-0.1c0.2-0.1,0.6-0.3,0.3-0.6
			c-0.2-0.2-0.4-0.4-0.8-0.1c-0.7,0.5-1.6,0.4-2-0.2c-0.1-0.2-0.3-0.3-0.2-0.5c0.1-0.3,0.3-0.1,0.5-0.1c0.4,0,0.8,0,1.1,0
			c0.4,0,0.8,0,1.1,0c0.8,0.1,0.8-0.3,0.6-0.8C72,68.5,71.2,67.8,70.2,67.8z M69.1,69.5c0.5-1,1.5-1.1,2.3,0
			C70.5,69.5,69.8,69.5,69.1,69.5z"/>
		<path class="st0" d="M38.2,67.8c-1.2,0.2-2.1,1.2-2,2.4c0.1,1.3,1,2.1,2.3,2.1c0.5,0,1-0.1,1.4-0.4c0.2-0.2,0.6-0.3,0.4-0.6
			c-0.2-0.3-0.5-0.4-0.9-0.1c-0.7,0.5-1.6,0.3-2.1-0.3c-0.2-0.3-0.3-0.6,0.3-0.6c0.8,0,1.7,0,2.5,0c0.5,0,0.6-0.2,0.5-0.6
			C40.3,68.5,39.3,67.7,38.2,67.8z M37.2,69.4c0.7-1.1,1.7-1,2.3,0C38.7,69.4,38,69.4,37.2,69.4z"/>
		<path class="st0" d="M14,67.8c-1.2,0-2.3,1.1-2.3,2.2c0,1.2,1,2.2,2.3,2.3c1.2,0,2.2-1,2.3-2.2C16.3,68.9,15.2,67.8,14,67.8z
			 M14,71.4c-0.7,0-1.3-0.6-1.3-1.3c0-0.7,0.7-1.3,1.4-1.3c0.7,0,1.4,0.6,1.3,1.4C15.3,70.8,14.7,71.4,14,71.4z"/>
	</g>
	<g>
		<path class="st0" d="M152.9,58.8c-0.5,0-1,0.1-1.5,0.1c-0.2,0-0.4,0-0.6,0c0.2,0,0.4,0,0.6,0c0.4,0,0.9,0,1.3-0.2
			c0.2-0.1,0.5,0,0.5-0.3c-0.2-0.1-0.3-0.1-0.5-0.1c0.2,0,0.3,0,0.5-0.1c0.4-0.6-0.2-0.3-0.3-0.3c-2.7,0-5.5,0-8.2,0
			c-0.7,0-1.4,0.2-1.9-0.5c-0.1-0.1-0.3-0.1-0.5-0.1c-1.1,0-2.2-0.1-3.2-0.3c-2.2-0.3-4.5-0.1-6.8-0.2c-0.8,0-1.6-0.1-2.4-0.2
			c2.2-0.4,4.5-0.2,6.7-0.4c-2.4,0-4.7-0.4-7-0.5c-2.4-0.1-4.8,0-7.2-0.1c-0.6,0-0.6,0.2-0.6,0.7c0,0.9,0,1.7,0,2.5
			c-1.1-1.1-2.3-2.1-3.4-3.2c-0.2-0.1-0.4,0-0.6-0.1c0.1,0,0.2-0.1,0.2-0.2c-0.5-0.6-1-1.1-1.7-1.8c0,1.7,0,3.1,0,4.5
			c0,0.4,0.1,0.7-0.5,0.7c-0.6,0-0.5-0.3-0.5-0.7c0-1.8,0-3.7,0-5.5c0-0.5,0-0.9,0-1.5c0.3,0.2,0.4,0.4,0.5,0.5
			c1.2,1.2,2.3,2.4,3.4,3.6c0.4,0.4,0.9,0.3,1.3,0.2c0.4-0.1,0.2-0.5,0.2-0.8c0-0.9,0-1.7,0-2.6c0-0.4,0-0.6,0.5-0.6
			c0.5,0,0.5,0.2,0.5,0.6c0,0.9,0,1.8,0,2.7c0,0.6,0.2,0.6,0.7,0.6c4.7,0.1,9.5-0.2,14.2-0.2c0-0.1-0.1-0.2-0.1-0.2
			c0.2,0,0.3,0,0.5,0c1.1,0,2.3-0.1,3.4-0.1c4,0.1,8.1-0.1,12.1-0.2c0.5,0,1.1-0.1,1.6-0.2c-0.6-0.2-1.3-0.2-1.9-0.1
			c-2.4,0.1-4.7-0.4-7-0.5c-0.7,0-1.5-0.1-2.2-0.1c0-0.1,0-0.1,0-0.2c1.6,0,3.1,0,4.7,0c0-0.1,0-0.1,0-0.2c-1.2-0.1-2.3-0.1-3.5-0.2
			c-3.3-0.1-6.6-0.1-9.8-0.1c-0.6,0-1.3-0.2-1.9-0.3c1-0.1,1.9-0.5,2.9-0.6c2.3-0.1,4.5-0.1,6.8-0.2c0.9,0,1.8-0.2,2.6-0.7
			c-0.2-0.2-0.4-0.2-0.6-0.2c-0.2-0.1-0.5-0.1-0.7-0.2c0.6,0,1.2,0,1.7-0.1c0.8-0.1,1.6-0.1,2.3-0.2c-0.9-0.4-1.8-0.2-2.7-0.3
			c-0.2,0-0.4,0-0.5,0c0.2-0.8-0.5-0.2-0.6-0.5c-0.7-0.1-1.5,0-2.2-0.1c-0.1,0-0.1,0-0.2,0c0.1,0,0.2,0,0.3-0.1c0.1,0,0.3,0,0.4-0.1
			c0-0.3-0.3-0.2-0.5-0.2c-0.8,0-1.5,0-2.3,0c-0.1,0-0.2,0-0.4,0c-0.1,0-0.1,0-0.1,0c0,0,0.1,0,0.1,0c0.1,0,0.1-0.1,0.2-0.2
			c0.2,0,0.4,0,0.6,0c-0.2-0.4-0.6-0.1-0.9-0.1c-0.6,0-1.2-0.1-1.7-0.1c-2.2,0.1-4.3-0.5-6.5-0.4c-0.3,0-0.5,0-0.8-0.1
			c-1.7-0.4-3.4-0.3-5.1-0.4c-2.2-0.2-4.5-0.1-6.7,0c-0.4,0-0.8,0-1.2-0.3c-0.3-0.2-0.8-0.3-1.1,0c-0.2,0.1-0.3,0.1-0.5,0.1
			c-1.2,0-2.5,0.1-3.7-0.1c-2.1-0.4-4.2-0.1-6.2-0.2c-3.8-0.1-7.6-0.4-11.4-0.3c-3.1,0.1-6.3,0.1-9.4,0c-3.7-0.1-7.5-0.3-11.2-0.4
			c-0.9,0-1.7,0-2.6,0.3c-0.9,0.3-1.9,0-2.8,0.1c-4.6,0.2-9.2,0-13.9,0c-2.9,0-5.8-0.1-8.7-0.3c-1.9-0.1-3.6,0-5.3,0.7
			c-0.2,0.1-0.5,0.1-0.3,0.4c0.3,0.4,0.1,0.4-0.2,0.5c-0.2,0-0.5,0.1-0.5,0.2c-0.2,0.7-0.8,0.5-1.3,0.6c-0.3,0.1-1-0.3-0.7,0.5
			c0,0-0.2,0.2-0.3,0.2c-0.7,0.3-1.4,0.6-2.2,0.6c-3.1,0-6.3,0.2-9.4,0.1c-1.5,0-3,0.1-4.5,0.4c-0.3,0.1-0.6,0.1-0.8,0.4
			c-0.5,0.7-0.7,1.5-1.8,1.5c-0.1,0-0.2,0-0.2,0.1c-0.3,0.5-0.3,0.5-0.8,0.6c-0.8,0.1-1.6,0.1-2.4,0.2c-2.7,0.1-5.4,0-8.1,0.3
			c-1.4,0.2-2.9,0-3.9,1.2c-0.5,0.6-0.4,1.5,0.3,1.8c0.2,0.1,0.5,0,0.6,0.3c-0.1,0.1-0.1,0.2-0.2,0.2c-0.7,0.3-1.1,0.8-1,1.5
			c0.1,0.8,0.8,0.8,1.4,1c2.5,0.7,5.1,0.8,7.7,0.9C16.8,60.8,22.4,61,28,61c5.4,0,10.8-0.2,16.2-0.2c9.5,0,19,0.1,28.5-0.1
			c6.4-0.1,12.9-0.2,19.4-0.2c9.2,0,18.3,0,27.5,0c4.3,0,8.6,0,12.9-0.1c3.9-0.1,7.7-0.2,11.6-0.3c3.6-0.1,7.1-0.5,10.7-0.6
			c1.1,0,2.2-0.1,3.3-0.3C156.3,59.1,154.6,58.6,152.9,58.8z M151.5,58.2c0.2,0,0.4,0,0.6,0C151.9,58.2,151.7,58.2,151.5,58.2
			C151.5,58.2,151.4,58.2,151.5,58.2C151.5,58.4,151.3,58.2,151.5,58.2z M136.1,54.7c0,0-0.1,0-0.1,0c0,0-0.1,0-0.1,0
			C135.9,54.7,136,54.7,136.1,54.7z M135.2,54.7c-0.4,0-0.7,0-0.9,0C134.6,54.7,134.9,54.7,135.2,54.7z M142.3,50.5
			c0.1,0,0.1,0,0.2,0C142.5,50.5,142.4,50.5,142.3,50.5C142.4,50.6,142.2,50.6,142.3,50.5z M41.8,55.1c-0.7,0-1.3,0-2,0
			c-0.4,0-0.6,0.1-0.6,0.5c0,0.8,0,1.6,0,2.4c0,0.5-0.2,0.5-0.6,0.5c-0.4,0-0.5-0.1-0.5-0.5c0-1.1,0-2.1,0-3.2c0-1,0-2.1,0-3.1
			c0-0.4,0.1-0.6,0.5-0.6c1,0,2.1,0,3.1,0c0.4,0,0.5,0.2,0.5,0.6c0,0.4-0.1,0.5-0.5,0.5c-0.7,0-1.4,0-2.1,0c-0.4,0-0.6,0.1-0.6,0.6
			c0,0.2,0,0.5,0,0.7c-0.1,0.5,0.2,0.6,0.6,0.6c0.7,0,1.3,0,2,0c0.4,0,0.5,0.1,0.5,0.5C42.4,55,42.3,55.2,41.8,55.1z M49.2,58.9
			c-2.3,0-4.1-1.8-4.1-4c0-2.2,1.8-3.9,4.2-3.9c2.2,0,4.1,1.8,4.1,3.9C53.3,57.1,51.4,58.9,49.2,58.9z M62.2,56.2
			c0,1.5-1.1,2.6-2.6,2.7c-1.5,0.1-2.8-0.8-3-2.3c-0.3-1.6-0.1-3.3-0.1-4.9c0-0.5,0.3-0.4,0.6-0.4c0.4,0,0.5,0.2,0.5,0.5
			c0,1.4,0,2.7,0,4.1c0,1.3,0.7,2.1,1.9,2c1,0,1.7-0.7,1.7-1.7c0-1.4,0-2.8,0-4.3c0-0.4,0.1-0.7,0.6-0.7c0.5,0,0.5,0.3,0.5,0.6
			c0,0.7,0,1.5,0,2.2C62.2,54.8,62.2,55.5,62.2,56.2z M67.9,47.6c0.1,0,0.1,0.1,0.3,0.1c-0.2,0.1-0.3,0.1-0.3,0.1
			c0,0-0.1-0.1-0.1-0.1C67.8,47.6,67.8,47.6,67.9,47.6z M71.9,51.8c0,2.3,0,4.7,0,7c-1.8-1.8-3.6-3.5-5.4-5.2c0,1.4,0,2.9,0,4.3
			c0,0.7-0.3,0.7-0.8,0.7c-0.3,0-0.3-0.2-0.3-0.4c0-2.4,0-4.8,0-7.1c1.8,1.7,3.6,3.4,5.5,5.1c0-0.6,0-1.3,0-2c0-0.8,0-1.6,0-2.4
			c0-0.4,0.1-0.6,0.6-0.6C72,51.2,71.9,51.5,71.9,51.8z M77.8,58.6c-2.5,0.2-2.5,0.2-2.5-2.3c0-0.5,0-0.9,0-1.4c0-1,0-2.1,0-3.1
			c0-0.4,0.1-0.7,0.6-0.6c0.7,0,1.4,0,2.1,0.1c2,0.3,3.4,1.7,3.4,3.7C81.3,56.9,79.8,58.4,77.8,58.6z M88.9,57.8
			c-0.2-0.8-0.7-1.2-1.5-1c-0.2,0-0.4,0-0.5,0c-1.1-0.2-1.8,0.2-2.1,1.3c-0.2,0.6-0.3,0.6-1.3,0.5c1.1-2.5,2.3-5,3.5-7.7
			c1.2,2.6,2.3,5.1,3.5,7.6C89.5,58.8,89.1,58.5,88.9,57.8z M96.2,52.3C95,52.3,95,52.3,95,53.6c0,1.5,0,3,0,4.5
			c0,0.4,0,0.6-0.5,0.6c-0.4,0-0.6-0.1-0.6-0.5c0-0.9,0-1.8,0-2.7c0-0.7,0-1.4,0-2.1c0-1.1,0-1.1-1.1-1.1c-0.5,0-0.7-0.2-0.6-0.7
			c0-0.3,0.2-0.4,0.4-0.4c1.2,0,2.4,0,3.6,0c0.4,0,0.5,0.2,0.5,0.6C96.7,52.2,96.5,52.2,96.2,52.3z M100.2,58.6
			c-0.4,0-0.5-0.2-0.5-0.6c0-2.1,0-4.2,0-6.3c0-0.4,0-0.6,0.5-0.6c0.4,0,0.6,0.1,0.6,0.6c0,1.1,0,2.1,0,3.2c0,1,0,2.1,0,3.1
			C100.7,58.5,100.6,58.6,100.2,58.6z M108,58.9c-2.3,0-4.1-1.8-4.1-4.1c0-2.2,1.8-3.8,4.2-3.8c2.2,0,4,1.8,3.9,4
			C112,57.2,110.2,58.9,108,58.9z M149.6,58.9c0.1,0,0.2,0,0.3,0c0.2,0,0.3,0,0.5,0C150.2,58.9,149.9,58.9,149.6,58.9z"/>
		<path class="st0" d="M49.2,52.1c-1.7,0-3,1.3-3,2.9c0,1.6,1.4,2.8,3.1,2.8c1.6,0,2.9-1.3,2.9-2.9C52.1,53.3,50.9,52.1,49.2,52.1z"
			/>
		<path class="st0" d="M108,52.1c-1.6,0-3,1.3-3,2.8c0,1.6,1.3,2.9,3,2.9c1.6,0,3-1.3,3-2.8C111,53.3,109.7,52.1,108,52.1z"/>
		<path class="st0" d="M76.9,52.2c-0.4,0-0.5,0.1-0.5,0.5c0,0.7,0,1.4,0,2.1c0,0.5,0,0.9,0,1.4c0,1.5,0,1.5,1.5,1.3
			c1.1-0.1,1.9-0.7,2.3-1.7c0.4-1,0.2-2-0.6-2.8C78.8,52.3,77.9,52.3,76.9,52.2z"/>
		<path class="st0" d="M85.8,55.9c0.8,0,1.5,0,2.3,0c-0.4-0.8-0.7-1.6-1.1-2.5C86.5,54.3,86.2,55,85.8,55.9z"/>
	</g>
</g>
</svg>
