<?xml version="1.0" encoding="utf-8"?>
<!-- Generator: Adobe Illustrator 19.1.0, SVG Export Plug-In . SVG Version: 6.00 Build 0)  -->
<svg version="1.1" id="Layer_1" xmlns="http://www.w3.org/2000/svg" xmlns:xlink="http://www.w3.org/1999/xlink" x="0px" y="0px"
	 viewBox="0 0 160 90" style="enable-background:new 0 0 160 90;" xml:space="preserve">
<style type="text/css">
	.st0{fill:#BBBBBB;}
</style>
<g>
	<g>
		<path class="st0" d="M49,35.8c0.1-0.1,8.5-6.8,16-2.9c1.3,0.7,2.6,1.4,3.8,2.1c3.8,2.1,7.5,4.2,11.1,4.2c2.4,0,4.8-0.9,7.2-3.4
			c0.3-0.3,0.3-0.9,0-1.2c-0.3-0.3-0.9-0.3-1.2,0c-4.9,5.2-9.9,2.4-16.3-1.1c-1.2-0.7-2.5-1.4-3.8-2.1c-8.5-4.3-17.5,2.8-17.8,3.1
			c-0.4,0.3-0.4,0.8-0.1,1.2C48.1,36,48.6,36.1,49,35.8z M104.9,36.6c2.4,0,4.8-0.9,7.2-3.4c0.3-0.3,0.3-0.9,0-1.2
			c-0.3-0.3-0.9-0.3-1.2,0c-5,5.2-10,2.4-16.3-1.1c-1.2-0.7-2.5-1.4-3.8-2.1c-8.5-4.3-17.5,2.8-17.8,3.1c-0.4,0.3-0.4,0.8-0.1,1.2
			c0.3,0.4,0.8,0.4,1.2,0.1c0.1-0.1,8.5-6.8,16-2.9c1.3,0.7,2.6,1.4,3.8,2C97.6,34.6,101.3,36.6,104.9,36.6z M57.3,30.1
			c0.5-0.1,0.8-0.5,0.7-1c0-0.1-1.4-12.4,5.3-20C66.8,5,72,3,78.7,3c6.5,0,11.5,2,14.9,6c6.9,8,5.2,21.5,5.2,21.7
			c-0.1,0.5,0.3,0.9,0.7,1c0,0,0.1,0,0.1,0c0.4,0,0.8-0.3,0.8-0.7c0.1-0.6,1.8-14.4-5.6-23c-3.8-4.4-9.2-6.6-16.2-6.6
			C71.5,1.3,65.9,3.5,62,8c-7.1,8.2-5.8,20.8-5.7,21.3C56.4,29.8,56.8,30.1,57.3,30.1z M90,10.9c-1.4-1.4-2.4-3.6-6.5-2.7
			c-1.5-0.9-3.8-4.5-7.3-2.5c-1.7,1,2.8-1,1.7,2c-3.4-0.1-6.6-0.8-7.3,4.1C72,10.7,74,9.6,75,11c-1.2,1-4.2,1.8-3.2,7.3
			c0.9-2.4,1.1-4,4-4.6c0.3,1.6,0.6,5.2,1.1,1.8c0.5-2.6,2-3,2.1-1.8c0.1,1.3,0.5,6.4-5.8,12.2c-2.5,2.2-6.4,4.8-6.4,4.8
			c1,0.1,4.8,0,4.8,0S80,25.2,81.1,15c1.4,0.7,1.3,3.2,1.4,5.1c0.9-0.7,1.6-2.4,1.2-6.3c1.8,0.9,3.7,2.5,4.4,4.7
			c0.2-2.4-0.7-5.8-2.8-7C86.2,11.2,87.3,9.7,90,10.9z M26.8,51.1c0.2-0.4,0.5-0.6,0.7-0.8c0.2-0.1,0.6-0.2,0.9-0.2v-0.4h-4.5v0.4
			c0.4,0,0.8,0,1.1,0.1c0.2,0.1,0.3,0.2,0.4,0.3c0.1,0.1,0.2,0.3,0.2,0.5c0,0.3-0.2,1-0.5,1.8l-2.8,8L19.4,53
			c-0.3-0.9-0.5-1.5-0.5-1.9c0-0.3,0.1-0.5,0.3-0.7c0.2-0.2,0.5-0.3,0.9-0.3h0.4v-0.4h-5.8v0.4c0.3,0,0.5,0,0.7,0.1
			c0.2,0.1,0.4,0.1,0.6,0.3c0.1,0.1,0.3,0.2,0.4,0.3c0.2,0.3,0.4,0.6,0.5,0.9l0.4,1l0.4,1.2l-2.5,6.9l-2.9-8.1
			c-0.3-0.9-0.5-1.5-0.5-1.7c0-0.2,0.1-0.4,0.3-0.6c0.2-0.2,0.5-0.3,0.9-0.3h0.3v-0.4H7.6v0.4c0.4,0,0.8,0.1,1,0.2
			c0.3,0.1,0.5,0.3,0.6,0.6c0.1,0.2,0.3,0.7,0.6,1.6l4.4,12h0.4l3.4-9.3l3.4,9.3h0.4l4.2-11.7C26.4,51.9,26.6,51.3,26.8,51.1z
			 M36.1,63.8h-0.5c-0.4,0-0.7-0.1-1-0.3c-0.2-0.1-0.4-0.3-0.5-0.5c-0.1-0.2-0.1-0.7-0.1-1.5v-4.4h7v4.4c0,0.9-0.1,1.4-0.3,1.6
			c-0.3,0.3-0.7,0.5-1.3,0.5h-0.5v0.4h6.4v-0.4h-0.5c-0.4,0-0.7-0.1-1-0.3c-0.2-0.1-0.4-0.3-0.5-0.5C43,62.8,43,62.4,43,61.6v-9.3
			c0-0.7,0-1.2,0.1-1.4c0.1-0.2,0.2-0.4,0.5-0.5c0.3-0.2,0.6-0.2,1-0.2h0.5v-0.4h-6.4v0.4h0.5c0.4,0,0.7,0.1,1,0.3
			c0.2,0.1,0.4,0.3,0.5,0.5c0.1,0.2,0.1,0.7,0.1,1.5v4.1h-7v-4.1c0-0.7,0-1.2,0.1-1.4c0.1-0.2,0.2-0.4,0.5-0.5
			c0.3-0.2,0.7-0.2,1-0.2h0.5v-0.4h-6.4v0.4h0.5c0.4,0,0.7,0.1,1,0.3c0.2,0.1,0.4,0.3,0.5,0.5c0.1,0.2,0.1,0.7,0.1,1.5v9.3
			c0,0.9-0.1,1.4-0.3,1.6c-0.3,0.3-0.7,0.5-1.3,0.5h-0.5v0.4h6.4V63.8z M46.8,50.1h0.5c0.4,0,0.7,0.1,1,0.3c0.2,0.1,0.4,0.3,0.5,0.5
			c0.1,0.2,0.1,0.7,0.1,1.5v9.3c0,0.9-0.1,1.4-0.3,1.6c-0.3,0.3-0.7,0.5-1.3,0.5h-0.5v0.4h6.4v-0.4h-0.5c-0.4,0-0.7-0.1-1-0.3
			c-0.2-0.1-0.4-0.3-0.5-0.5c-0.1-0.2-0.1-0.7-0.1-1.5v-9.3c0-0.9,0.1-1.4,0.3-1.6c0.3-0.3,0.7-0.5,1.3-0.5h0.5v-0.4h-6.4V50.1z
			 M66.9,51.8c0.1,0.3,0.3,0.7,0.3,1.3h0.4l-0.2-3.4H55.3l-0.2,3.4h0.4c0.1-0.7,0.2-1.2,0.5-1.6c0.3-0.4,0.6-0.6,1-0.8
			c0.3-0.1,0.8-0.1,1.5-0.1h1.8v11.1c0,0.8-0.1,1.3-0.2,1.6c-0.3,0.4-0.7,0.6-1.3,0.6h-0.5v0.4h6.3v-0.4H64c-0.6,0-1-0.1-1.3-0.4
			c-0.2-0.2-0.3-0.8-0.3-1.7V50.6h2.1c0.6,0,1.1,0.1,1.5,0.3C66.4,51.1,66.7,51.4,66.9,51.8z M71.4,63c-0.1,0.2-0.2,0.4-0.5,0.5
			c-0.3,0.2-0.7,0.2-1,0.2h-0.5v0.4h11.5l1.3-3.6h-0.4c-0.5,0.9-0.9,1.6-1.4,2c-0.4,0.3-0.7,0.6-1.1,0.7c-0.4,0.1-1,0.2-1.8,0.2
			h-2.5c-0.4,0-0.7,0-0.8-0.1c-0.1-0.1-0.3-0.2-0.3-0.3c-0.1-0.1-0.1-0.5-0.1-1.2V57h3.3c0.6,0,1.1,0.1,1.4,0.2
			c0.3,0.1,0.5,0.3,0.7,0.6c0.1,0.2,0.2,0.7,0.3,1.4h0.4v-5h-0.4c0,0.8-0.3,1.4-0.6,1.7c-0.3,0.3-0.9,0.4-1.7,0.4h-3.3v-5.7h4.1
			c0.7,0,1.3,0.1,1.6,0.2c0.4,0.1,0.6,0.4,0.8,0.7c0.2,0.3,0.4,0.8,0.5,1.6h0.4l-0.2-3.2H69.4v0.4h0.5c0.6,0,1.1,0.1,1.3,0.4
			c0.2,0.2,0.3,0.8,0.3,1.7v9.4C71.5,62.3,71.5,62.8,71.4,63z M99.8,63.3c0.9-0.8,1.3-1.7,1.3-2.8c0-0.6-0.1-1.1-0.4-1.7
			c-0.3-0.5-0.7-1-1.2-1.4c-0.5-0.4-1.5-0.9-2.9-1.7c-1.7-0.9-2.8-1.6-3.3-2.1c-0.3-0.4-0.5-0.8-0.5-1.2c0-0.6,0.3-1.1,0.8-1.5
			c0.5-0.5,1.1-0.7,1.9-0.7c0.7,0,1.3,0.2,2,0.5c0.6,0.3,1.1,0.8,1.5,1.4c0.3,0.6,0.6,1.3,0.7,2.3h0.4v-5h-0.4
			c-0.1,0.3-0.2,0.6-0.3,0.7c-0.1,0.1-0.3,0.2-0.5,0.2c-0.2,0-0.5-0.1-0.9-0.3c-0.9-0.4-1.7-0.6-2.5-0.6c-1.3,0-2.3,0.4-3.1,1.1
			c-0.8,0.8-1.2,1.6-1.2,2.7c0,0.6,0.1,1.1,0.4,1.6c0.3,0.5,0.7,1,1.2,1.4c0.5,0.4,1.5,1,2.7,1.7c1.3,0.7,2.1,1.1,2.3,1.4
			c0.4,0.3,0.7,0.7,0.9,1c0.2,0.4,0.3,0.7,0.3,1.1c0,0.6-0.3,1.2-0.8,1.7c-0.5,0.5-1.3,0.7-2.2,0.7c-0.8,0-1.5-0.2-2.2-0.5
			c-0.7-0.3-1.2-0.8-1.5-1.3c-0.3-0.5-0.6-1.3-0.8-2.3h-0.4v5h0.4c0.1-0.3,0.1-0.6,0.2-0.7c0.1-0.1,0.3-0.2,0.4-0.2
			c0.2,0,0.6,0.1,1.4,0.3c0.7,0.2,1.2,0.4,1.4,0.4c0.4,0.1,0.8,0.1,1.2,0.1C97.8,64.5,98.9,64.1,99.8,63.3z M116.5,61.4l-5.2-12
			h-0.4l-5.3,11.9c-0.5,1-0.9,1.7-1.2,2.1c-0.2,0.2-0.6,0.3-1.2,0.4v0.4h4.7v-0.4c-0.7,0-1.2-0.2-1.4-0.3c-0.2-0.2-0.3-0.4-0.3-0.6
			c0-0.3,0.1-0.7,0.4-1.3l1-2.3h5.8l0.9,2.1c0.3,0.7,0.4,1.2,0.4,1.5c0,0.2-0.1,0.4-0.3,0.6c-0.2,0.2-0.6,0.3-1.2,0.3v0.4h5.9v-0.4
			c-0.6,0-1.1-0.2-1.4-0.5C117.3,63,116.9,62.4,116.5,61.4z M107.9,58.6l2.6-5.8l2.5,5.8H107.9z M130.8,50.1h0.5
			c0.6,0,1,0.1,1.3,0.4c0.2,0.2,0.3,0.8,0.3,1.7v8.3l-9.1-10.9h-4.1v0.4c0.4,0,0.8,0,1,0.1c0.4,0.1,0.8,0.3,1,0.4
			c0.2,0.2,0.6,0.5,1,1v10.1c0,0.8-0.1,1.3-0.2,1.6c-0.3,0.4-0.7,0.6-1.4,0.6h-0.5v0.4h5.2v-0.4h-0.5c-0.6,0-1-0.1-1.3-0.4
			c-0.2-0.2-0.3-0.8-0.3-1.7v-8.9l9.9,11.7h0.4V52.2c0-0.8,0.1-1.3,0.2-1.6c0.3-0.4,0.7-0.6,1.3-0.6h0.5v-0.4h-5.2V50.1z
			 M151.4,52.9c-0.7-1.1-1.6-2-2.8-2.5c-1.2-0.5-2.9-0.7-5.1-0.7h-6.1v0.4h0.6c0.6,0,1,0.2,1.3,0.5c0.2,0.2,0.3,0.8,0.3,1.7v9.3
			c0,0.8-0.1,1.3-0.2,1.6c-0.3,0.4-0.7,0.6-1.3,0.6h-0.6v0.4h6.7c2.9,0,5.1-0.8,6.5-2.3c1.3-1.4,1.9-3,1.9-5
			C152.4,55.4,152.1,54.1,151.4,52.9z M148.2,61.7c-1.1,1.2-2.5,1.7-4.2,1.7c-0.6,0-1.4-0.1-2.4-0.3V50.8c0.8-0.2,1.6-0.3,2.3-0.3
			c1.8,0,3.2,0.6,4.3,1.7c1.1,1.2,1.7,2.7,1.7,4.7C149.9,59,149.3,60.5,148.2,61.7z M120.1,74.8h15v-0.3h-15V74.8z M24.7,74.8h15
			v-0.3h-15V74.8z M50.5,76.6L49,74.7c0.6-0.1,1.1-0.3,1.4-0.6c0.3-0.3,0.4-0.7,0.4-1.1c0-0.4-0.1-0.7-0.4-1
			c-0.3-0.3-0.6-0.5-0.9-0.6c-0.4-0.1-0.9-0.2-1.7-0.2h-2.7v0.2h0.3c0.3,0,0.5,0.1,0.6,0.2c0.1,0.1,0.2,0.4,0.2,0.8v4.3
			c0,0.4,0,0.6-0.1,0.7c-0.1,0.2-0.4,0.3-0.7,0.3h-0.3V78h3.1v-0.2h-0.3c-0.3,0-0.5-0.1-0.6-0.2c-0.1-0.1-0.2-0.4-0.2-0.8v-1.9
			c0.1,0,0.1,0,0.2,0c0.1,0,0.1,0,0.2,0c0.1,0,0.3,0,0.4,0l2.5,3.1h1.9v-0.2c-0.4,0-0.7-0.1-1-0.3C51.1,77.4,50.8,77.1,50.5,76.6z
			 M47.5,74.6c0,0-0.1,0-0.1,0c0,0-0.1,0-0.2,0v-2.8c0.4-0.1,0.6-0.1,0.8-0.1c0.5,0,0.8,0.1,1.1,0.4c0.3,0.3,0.4,0.6,0.4,1
			c0,0.4-0.2,0.8-0.5,1.1C48.7,74.4,48.2,74.6,47.5,74.6z M59.2,77.4c0,0.1-0.1,0.2-0.2,0.2c-0.2,0.1-0.3,0.1-0.5,0.1h-0.3V78h5.6
			l0.6-1.7h-0.2c-0.2,0.4-0.5,0.7-0.7,0.9c-0.2,0.2-0.4,0.3-0.5,0.3c-0.2,0.1-0.5,0.1-0.9,0.1h-1.2c-0.2,0-0.3,0-0.4-0.1
			c-0.1,0-0.1-0.1-0.2-0.2c0-0.1,0-0.2,0-0.5v-2.2h1.6c0.3,0,0.5,0,0.7,0.1c0.1,0.1,0.3,0.2,0.3,0.3c0,0.1,0.1,0.3,0.1,0.6h0.2v-2.3
			H63c0,0.4-0.1,0.6-0.3,0.8c-0.1,0.1-0.4,0.2-0.8,0.2h-1.6v-2.6h2c0.4,0,0.6,0,0.8,0.1c0.2,0.1,0.3,0.2,0.4,0.3
			c0.1,0.1,0.2,0.4,0.2,0.7h0.2l-0.1-1.5h-5.6v0.2h0.3c0.3,0,0.5,0.1,0.6,0.2c0.1,0.1,0.1,0.4,0.1,0.8v4.3
			C59.2,77.1,59.2,77.3,59.2,77.4z M75.9,76.3c0-0.3-0.1-0.5-0.2-0.8c-0.1-0.2-0.3-0.5-0.6-0.6c-0.3-0.2-0.7-0.4-1.4-0.8
			c-0.8-0.4-1.4-0.7-1.6-1C72,73,72,72.8,72,72.6c0-0.3,0.1-0.5,0.4-0.7c0.2-0.2,0.6-0.3,0.9-0.3c0.3,0,0.6,0.1,1,0.2
			c0.3,0.2,0.5,0.4,0.7,0.6c0.2,0.3,0.3,0.6,0.3,1.1h0.2v-2.3h-0.2c0,0.2-0.1,0.3-0.1,0.3c-0.1,0.1-0.1,0.1-0.2,0.1
			c-0.1,0-0.2,0-0.4-0.1c-0.4-0.2-0.8-0.3-1.2-0.3c-0.6,0-1.1,0.2-1.5,0.5c-0.4,0.3-0.6,0.8-0.6,1.2c0,0.3,0.1,0.5,0.2,0.8
			c0.1,0.2,0.3,0.4,0.6,0.6c0.3,0.2,0.7,0.4,1.3,0.8c0.6,0.3,1,0.5,1.1,0.6c0.2,0.1,0.4,0.3,0.5,0.5c0.1,0.2,0.1,0.3,0.1,0.5
			c0,0.3-0.1,0.5-0.4,0.8c-0.3,0.2-0.6,0.3-1.1,0.3c-0.4,0-0.7-0.1-1.1-0.2c-0.3-0.2-0.6-0.4-0.7-0.6c-0.2-0.2-0.3-0.6-0.4-1.1h-0.2
			v2.3h0.2c0-0.2,0.1-0.3,0.1-0.3c0.1,0,0.1-0.1,0.2-0.1c0.1,0,0.3,0.1,0.7,0.2c0.3,0.1,0.6,0.2,0.7,0.2c0.2,0,0.4,0,0.6,0
			c0.7,0,1.2-0.2,1.7-0.5C75.7,77.2,75.9,76.8,75.9,76.3z M83.8,72c-0.8,0.7-1.2,1.5-1.2,2.6c0,1,0.3,1.9,1,2.5c0.7,0.7,1.5,1,2.5,1
			c1,0,1.8-0.3,2.5-1c0.7-0.7,1-1.5,1-2.5c0-1-0.3-1.8-1-2.5c-0.7-0.7-1.5-1-2.5-1C85.3,71.2,84.5,71.5,83.8,72z M88.5,74.7
			c0,1-0.2,1.8-0.7,2.3c-0.4,0.5-1,0.7-1.7,0.7c-0.6,0-1.2-0.2-1.5-0.7c-0.5-0.6-0.8-1.4-0.8-2.5c0-1.1,0.2-1.9,0.7-2.4
			c0.4-0.4,0.9-0.7,1.6-0.7c0.7,0,1.2,0.2,1.6,0.7C88.3,72.7,88.5,73.6,88.5,74.7z M98.3,74.9c0.1,0,0.1,0,0.2,0c0.1,0,0.3,0,0.4,0
			l2.5,3.1h1.9v-0.2c-0.4,0-0.7-0.1-1-0.3c-0.2-0.1-0.5-0.4-0.9-0.9l-1.5-1.9c0.6-0.1,1.1-0.3,1.4-0.6c0.3-0.3,0.4-0.7,0.4-1.1
			c0-0.4-0.1-0.7-0.4-1c-0.3-0.3-0.6-0.5-0.9-0.6c-0.4-0.1-0.9-0.2-1.7-0.2h-2.7v0.2h0.3c0.3,0,0.5,0.1,0.6,0.2
			c0.1,0.1,0.2,0.4,0.2,0.8v4.3c0,0.4,0,0.6-0.1,0.7c-0.1,0.2-0.4,0.3-0.7,0.3h-0.3V78h3.1v-0.2h-0.3c-0.3,0-0.5-0.1-0.6-0.2
			c-0.1-0.1-0.2-0.4-0.2-0.8v-1.9C98.2,74.9,98.3,74.9,98.3,74.9z M98.2,71.8c0.4-0.1,0.6-0.1,0.8-0.1c0.5,0,0.8,0.1,1.1,0.4
			c0.3,0.3,0.4,0.6,0.4,1c0,0.4-0.2,0.8-0.5,1.1c-0.4,0.3-0.9,0.4-1.6,0.4c0,0-0.1,0-0.1,0c-0.1,0-0.1,0-0.2,0V71.8z M108.7,71.3
			l-0.1,1.6h0.2c0-0.3,0.1-0.5,0.2-0.7c0.1-0.2,0.3-0.3,0.5-0.4c0.1,0,0.4-0.1,0.7-0.1h0.9v5.1c0,0.4,0,0.6-0.1,0.7
			c-0.1,0.2-0.3,0.3-0.7,0.3h-0.3V78h3.1v-0.2H113c-0.3,0-0.5-0.1-0.6-0.2c-0.1-0.1-0.1-0.4-0.1-0.8v-5.1h1c0.3,0,0.5,0,0.7,0.1
			c0.2,0.1,0.3,0.2,0.4,0.4c0.1,0.1,0.1,0.3,0.2,0.6h0.2l-0.1-1.6H108.7z M58.8,88.3c-0.2,0.1-0.5,0.2-0.7,0.2
			c-0.3,0-0.6-0.1-0.8-0.2c-0.2-0.1-0.4-0.4-0.6-0.6c-0.1-0.3-0.2-0.6-0.2-1c0-0.4,0.1-0.8,0.2-1.1c0.1-0.3,0.3-0.5,0.5-0.7
			c0.2-0.1,0.5-0.2,0.8-0.2c0.3,0,0.6,0.1,0.9,0.3c0.2,0.2,0.4,0.5,0.6,0.9h0.1l-0.1-1.4h-0.1c0,0.1-0.1,0.2-0.1,0.2
			c0,0-0.1,0.1-0.1,0.1c0,0-0.1,0-0.2-0.1c-0.3-0.1-0.6-0.2-0.9-0.2c-0.4,0-0.8,0.1-1.1,0.3c-0.3,0.2-0.6,0.5-0.8,0.8
			c-0.2,0.3-0.3,0.7-0.3,1.1c0,0.5,0.1,0.9,0.4,1.3c0.4,0.5,0.9,0.8,1.6,0.8c0.4,0,0.7-0.1,1-0.3c0.3-0.2,0.5-0.4,0.7-0.8l-0.1-0.1
			C59.3,88,59.1,88.2,58.8,88.3z M63.1,84.5c-0.6,0-1,0.2-1.4,0.5C61.3,85.4,61,86,61,86.6c0,0.6,0.2,1.2,0.6,1.6
			c0.4,0.4,0.9,0.6,1.5,0.6c0.6,0,1.1-0.2,1.5-0.6c0.4-0.4,0.6-0.9,0.6-1.5c0-0.6-0.2-1.1-0.6-1.5C64.2,84.7,63.7,84.5,63.1,84.5z
			 M64.1,88.1c-0.3,0.3-0.6,0.4-1,0.4c-0.4,0-0.7-0.1-0.9-0.4c-0.3-0.4-0.4-0.9-0.4-1.5c0-0.7,0.1-1.1,0.4-1.5
			c0.2-0.3,0.5-0.4,0.9-0.4c0.4,0,0.7,0.1,0.9,0.4c0.3,0.3,0.4,0.9,0.4,1.6C64.5,87.3,64.3,87.8,64.1,88.1z M69.9,87.7L69,86.4
			l0.8-1c0.2-0.2,0.3-0.4,0.4-0.4c0.1-0.1,0.2-0.1,0.3-0.2c0.1,0,0.2,0,0.3-0.1v-0.1h-1.5v0.1c0.1,0,0.2,0,0.3,0c0,0,0.1,0,0.1,0.1
			c0,0,0,0.1,0,0.1c0,0,0,0.1,0,0.1c0,0-0.1,0.1-0.2,0.2l-0.8,0.9l-0.6-0.9C68.1,85.1,68,85,68,84.9c0-0.1,0-0.1,0.1-0.2
			c0.1,0,0.2-0.1,0.3-0.1v-0.1h-2v0.1c0.2,0,0.4,0.1,0.5,0.2c0.2,0.1,0.3,0.3,0.6,0.6l0.8,1.2l-1,1.2c-0.1,0.2-0.3,0.3-0.4,0.4
			c-0.1,0.1-0.2,0.2-0.4,0.2c-0.1,0-0.2,0.1-0.3,0.1v0.1h1.5v-0.1c-0.2,0-0.3,0-0.3-0.1c-0.1,0-0.1-0.1-0.1-0.2c0,0,0-0.1,0-0.1
			c0,0,0.1-0.1,0.2-0.2l0.9-1.1l0.7,1c0.1,0.1,0.2,0.2,0.2,0.3c0,0,0,0.1,0,0.1c0,0,0,0.1,0,0.1c0,0-0.1,0.1-0.1,0.1
			c-0.1,0-0.1,0-0.3,0v0.1h1.8v-0.1c-0.2,0-0.3-0.1-0.5-0.2C70.3,88.3,70.1,88.1,69.9,87.7z M72.4,84.5c-0.1,0-0.2,0-0.3,0.1
			c-0.1,0.1-0.1,0.1-0.1,0.2c0,0.1,0,0.2,0.1,0.2c0.1,0.1,0.1,0.1,0.2,0.1c0,0,0.1,0,0.1,0c0,0,0.1,0,0.1,0c0,0,0.1,0,0.1,0
			c0,0,0,0.1,0,0.1c0,0.1,0,0.2-0.1,0.3c-0.1,0.1-0.2,0.2-0.4,0.3V86c0.2-0.1,0.4-0.2,0.5-0.3c0.2-0.2,0.3-0.4,0.3-0.6
			c0-0.2-0.1-0.3-0.2-0.4C72.7,84.5,72.6,84.5,72.4,84.5z M76.7,86.8c-0.1-0.1-0.4-0.3-0.8-0.5c-0.5-0.3-0.8-0.4-0.9-0.6
			c-0.1-0.1-0.1-0.2-0.1-0.3c0-0.2,0.1-0.3,0.2-0.4c0.1-0.1,0.3-0.2,0.5-0.2c0.2,0,0.4,0,0.6,0.1c0.2,0.1,0.3,0.2,0.4,0.4
			c0.1,0.2,0.2,0.4,0.2,0.6h0.1v-1.4h-0.1c0,0.1,0,0.2-0.1,0.2c0,0-0.1,0-0.1,0c0,0-0.1,0-0.2-0.1c-0.3-0.1-0.5-0.2-0.7-0.2
			c-0.4,0-0.7,0.1-0.9,0.3c-0.2,0.2-0.3,0.5-0.3,0.8c0,0.2,0,0.3,0.1,0.5c0.1,0.1,0.2,0.3,0.3,0.4c0.2,0.1,0.4,0.3,0.8,0.5
			c0.4,0.2,0.6,0.3,0.7,0.4c0.1,0.1,0.2,0.2,0.3,0.3c0.1,0.1,0.1,0.2,0.1,0.3c0,0.2-0.1,0.3-0.2,0.5c-0.2,0.1-0.4,0.2-0.6,0.2
			c-0.2,0-0.4,0-0.6-0.1c-0.2-0.1-0.3-0.2-0.4-0.4c-0.1-0.1-0.2-0.4-0.2-0.7h-0.1v1.4h0.1c0-0.1,0-0.2,0.1-0.2c0,0,0.1,0,0.1,0
			c0.1,0,0.2,0,0.4,0.1c0.2,0.1,0.3,0.1,0.4,0.1c0.1,0,0.2,0,0.3,0c0.4,0,0.7-0.1,1-0.3c0.2-0.2,0.4-0.5,0.4-0.8
			c0-0.2,0-0.3-0.1-0.5C77,87,76.9,86.9,76.7,86.8z M83,86.6c0.3-0.1,0.4-0.2,0.6-0.4c0.1-0.2,0.2-0.3,0.2-0.6
			c0-0.2-0.1-0.4-0.2-0.6c-0.2-0.2-0.4-0.3-0.7-0.4c-0.2,0-0.5-0.1-0.8-0.1h-1.8v0.1h0.2c0.2,0,0.3,0,0.4,0.1
			c0.1,0.1,0.1,0.2,0.1,0.5v2.6c0,0.2,0,0.4-0.1,0.4c-0.1,0.1-0.2,0.2-0.4,0.2h-0.2v0.1h2c0.5,0,0.8,0,1.1-0.1
			c0.2-0.1,0.4-0.2,0.5-0.4c0.1-0.2,0.2-0.4,0.2-0.6c0-0.3-0.1-0.5-0.3-0.7C83.5,86.7,83.3,86.6,83,86.6z M81.3,84.8
			c0.2,0,0.4-0.1,0.6-0.1c0.4,0,0.7,0.1,0.9,0.3c0.2,0.2,0.3,0.4,0.3,0.6c0,0.2,0,0.3-0.1,0.4c-0.1,0.1-0.2,0.2-0.4,0.3
			c-0.2,0.1-0.4,0.1-0.7,0.1c-0.1,0-0.2,0-0.3,0c-0.1,0-0.2,0-0.3,0V84.8z M82.9,88.2c-0.2,0.2-0.5,0.2-0.9,0.2
			c-0.2,0-0.5,0-0.7-0.1v-1.7c0.1,0,0.1,0,0.2,0c0.1,0,0.2,0,0.3,0c0.3,0,0.5,0,0.7,0.1c0.2,0.1,0.3,0.2,0.4,0.3
			c0.1,0.1,0.1,0.3,0.1,0.5C83.2,87.8,83.1,88,82.9,88.2z M89,87.9l-1.5-3.4h-0.1L86,87.8c-0.1,0.3-0.2,0.5-0.4,0.6
			c-0.1,0-0.2,0.1-0.3,0.1v0.1h1.3v-0.1c-0.2,0-0.3,0-0.4-0.1c-0.1,0-0.1-0.1-0.1-0.2c0-0.1,0-0.2,0.1-0.4l0.3-0.6h1.6l0.3,0.6
			c0.1,0.2,0.1,0.3,0.1,0.4c0,0.1,0,0.1-0.1,0.2c-0.1,0-0.2,0.1-0.3,0.1v0.1h1.7v-0.1c-0.2,0-0.3-0.1-0.4-0.1
			C89.3,88.3,89.2,88.1,89,87.9z M86.6,87.1l0.7-1.6l0.7,1.6H86.6z M94,88.2c-0.1,0.1-0.3,0.2-0.6,0.2h-1.7l2.8-3.8h-3.1l-0.1,1h0.1
			c0-0.2,0.1-0.4,0.1-0.5c0.1-0.1,0.1-0.2,0.2-0.2c0.1,0,0.3-0.1,0.5-0.1h1.4l-2.7,3.7v0.1h3.4l0.2-1.1l-0.1,0
			C94.3,87.9,94.2,88.1,94,88.2z M99.4,87.9L98,84.5h-0.1l-1.5,3.4c-0.1,0.3-0.2,0.5-0.4,0.6c-0.1,0-0.2,0.1-0.3,0.1v0.1H97v-0.1
			c-0.2,0-0.3,0-0.4-0.1c-0.1,0-0.1-0.1-0.1-0.2c0-0.1,0-0.2,0.1-0.4l0.3-0.6h1.6l0.3,0.6c0.1,0.2,0.1,0.3,0.1,0.4
			c0,0.1,0,0.1-0.1,0.2c-0.1,0-0.2,0.1-0.3,0.1v0.1h1.7v-0.1c-0.2,0-0.3-0.1-0.4-0.1C99.7,88.3,99.6,88.1,99.4,87.9z M97,87.1
			l0.7-1.6l0.7,1.6H97z M104.4,87.8l-0.9-1.2c0.4-0.1,0.6-0.2,0.8-0.4c0.2-0.2,0.3-0.4,0.3-0.7c0-0.2-0.1-0.4-0.2-0.6
			c-0.1-0.2-0.3-0.3-0.5-0.3c-0.2-0.1-0.5-0.1-1-0.1h-1.5v0.1h0.2c0.2,0,0.3,0,0.4,0.1c0.1,0.1,0.1,0.2,0.1,0.5v2.6
			c0,0.2,0,0.4-0.1,0.4c-0.1,0.1-0.2,0.2-0.4,0.2h-0.2v0.1h1.8v-0.1H103c-0.2,0-0.3,0-0.4-0.1c-0.1-0.1-0.1-0.2-0.1-0.5v-1.2
			c0,0,0.1,0,0.1,0c0,0,0.1,0,0.1,0c0.1,0,0.2,0,0.3,0l1.4,1.9h1.1v-0.1c-0.2,0-0.4-0.1-0.6-0.2C104.8,88.3,104.6,88.1,104.4,87.8z
			 M102.7,86.6C102.7,86.6,102.6,86.6,102.7,86.6c-0.1,0-0.1,0-0.2,0v-1.7c0.2,0,0.4-0.1,0.5-0.1c0.3,0,0.5,0.1,0.7,0.2
			c0.2,0.2,0.2,0.4,0.2,0.6c0,0.3-0.1,0.5-0.3,0.6C103.4,86.5,103.1,86.6,102.7,86.6z"/>
	</g>
</g>
</svg>
