<?xml version="1.0" encoding="utf-8"?>
<!-- Generator: Adobe Illustrator 19.1.0, SVG Export Plug-In . SVG Version: 6.00 Build 0)  -->
<svg version="1.1" id="Layer_1" xmlns="http://www.w3.org/2000/svg" xmlns:xlink="http://www.w3.org/1999/xlink" x="0px" y="0px"
	 viewBox="0 0 160 90" style="enable-background:new 0 0 160 90;" xml:space="preserve">
<style type="text/css">
	.st0{fill:#BBBBBB;}
	.st1{enable-background:new    ;}
</style>
<g>
	<g>
		<path class="st0" d="M156.9,14.5v61H2.1v-61H156.9 M157.9,13.5H1.1v63h156.7L157.9,13.5L157.9,13.5z"/>
	</g>
</g>
<g>
	<rect x="1.1" y="36.2" class="st0" width="156.8" height="1"/>
</g>
<g>
	<rect x="1.1" y="44" class="st0" width="156.8" height="1"/>
</g>
<g>
	<rect x="1.1" y="51.9" class="st0" width="156.8" height="1"/>
</g>
<g>
	<rect x="1.1" y="59.8" class="st0" width="156.8" height="1"/>
</g>
<g>
	<rect x="1.1" y="67.7" class="st0" width="156.8" height="1"/>
</g>
<g>
	<rect x="8.8" y="28.2" class="st0" width="1" height="48.3"/>
</g>
<g>
	<rect x="17.5" y="28.2" class="st0" width="1" height="48.3"/>
</g>
<g>
	<rect x="26.2" y="28.2" class="st0" width="1" height="48.3"/>
</g>
<g>
	<rect x="34.9" y="28.2" class="st0" width="1" height="48.3"/>
</g>
<g>
	<rect x="43.6" y="28.2" class="st0" width="1" height="48.3"/>
</g>
<g>
	<rect x="52.3" y="28.2" class="st0" width="1" height="48.3"/>
</g>
<g>
	<rect x="61" y="28.2" class="st0" width="1" height="48.3"/>
</g>
<g>
	<rect x="69.7" y="28.2" class="st0" width="1" height="48.3"/>
</g>
<g>
	<rect x="78.3" y="28.2" class="st0" width="1" height="48.3"/>
</g>
<g>
	<rect x="87" y="28.2" class="st0" width="1" height="48.3"/>
</g>
<g>
	<rect x="95.7" y="28.2" class="st0" width="1" height="48.3"/>
</g>
<g>
	<rect x="104.4" y="28.2" class="st0" width="1" height="48.3"/>
</g>
<g>
	<rect x="113.1" y="28.2" class="st0" width="1" height="48.3"/>
</g>
<g>
	<rect x="121.8" y="28.2" class="st0" width="1" height="48.3"/>
</g>
<g>
	<rect x="130.5" y="28.2" class="st0" width="1" height="48.3"/>
</g>
<g>
	<rect x="139.2" y="28.2" class="st0" width="1" height="48.3"/>
</g>
<g>
	<rect x="147.8" y="28.2" class="st0" width="1" height="48.3"/>
</g>
<g>
	<rect x="1.1" y="13.5" class="st0" width="156.7" height="15"/>
</g>
<g class="st1">
	<path class="st0" d="M28.3,55.4l3.9,1.4c-0.6,2.5-1.6,4.4-3,5.7c-1.4,1.2-3.1,1.8-5.2,1.8c-2.6,0-4.8-1.1-6.5-3.2s-2.5-5-2.5-8.7
		c0-3.9,0.8-6.9,2.5-9c1.7-2.1,3.9-3.2,6.7-3.2c2.4,0,4.4,0.8,5.9,2.5c0.9,1,1.6,2.4,2,4.3l-3.9,1.1c-0.2-1.2-0.7-2.2-1.5-2.9
		c-0.7-0.7-1.6-1-2.7-1c-1.5,0-2.6,0.6-3.6,1.9s-1.4,3.2-1.4,6c0,2.9,0.4,5,1.3,6.3c0.9,1.2,2.1,1.9,3.5,1.9c1.1,0,2-0.4,2.7-1.2
		C27.4,58.4,27.9,57.1,28.3,55.4z"/>
</g>
<g class="st1">
	<path class="st0" d="M34.4,56c0-1.6,0.2-3,0.6-4.1c0.3-0.8,0.7-1.6,1.3-2.2c0.5-0.7,1.1-1.1,1.8-1.4c0.9-0.4,1.8-0.6,2.9-0.6
		c2,0,3.6,0.7,4.8,2.2c1.2,1.5,1.8,3.5,1.8,6.1c0,2.6-0.6,4.6-1.8,6.1c-1.2,1.5-2.8,2.2-4.8,2.2c-2,0-3.6-0.7-4.8-2.2
		S34.4,58.6,34.4,56z M37.2,55.9c0,1.8,0.4,3.2,1.1,4.1c0.7,0.9,1.6,1.4,2.7,1.4c1.1,0,2-0.5,2.7-1.4c0.7-0.9,1.1-2.3,1.1-4.2
		c0-1.8-0.3-3.2-1-4.1s-1.6-1.4-2.7-1.4c-1.1,0-2.1,0.5-2.7,1.4C37.6,52.7,37.2,54,37.2,55.9z"/>
	<path class="st0" d="M49.8,64V47.9h2.7l5.6,10.8V47.9h2.6V64h-2.8l-5.5-10.5V64H49.8z"/>
	<path class="st0" d="M62.9,58.7l2.7-0.3c0.2,1.1,0.5,1.8,1,2.3s1.2,0.7,2,0.7c0.9,0,1.6-0.2,2-0.7s0.7-1,0.7-1.6
		c0-0.4-0.1-0.7-0.3-1c-0.2-0.3-0.5-0.5-1-0.7c-0.3-0.1-1.1-0.4-2.2-0.7c-1.5-0.4-2.5-1-3.1-1.6c-0.8-0.9-1.3-2-1.3-3.2
		c0-0.8,0.2-1.6,0.6-2.3s1-1.3,1.7-1.6s1.6-0.6,2.7-0.6c1.7,0,3,0.4,3.9,1.3c0.9,0.9,1.3,2.1,1.4,3.5l-2.8,0.1
		c-0.1-0.8-0.4-1.4-0.8-1.8s-1-0.5-1.7-0.5c-0.8,0-1.4,0.2-1.9,0.6c-0.3,0.2-0.4,0.6-0.4,1c0,0.4,0.1,0.7,0.4,1
		c0.3,0.3,1.2,0.7,2.5,1.1c1.3,0.4,2.3,0.8,3,1.2s1.1,0.9,1.5,1.6c0.4,0.7,0.5,1.5,0.5,2.6c0,0.9-0.2,1.8-0.7,2.6
		c-0.4,0.8-1,1.4-1.8,1.8c-0.8,0.4-1.8,0.6-3,0.6c-1.7,0-3-0.5-4-1.4C63.6,61.9,63,60.5,62.9,58.7z"/>
	<path class="st0" d="M76.2,47.9H79v8.7c0,1.4,0,2.3,0.1,2.7c0.1,0.7,0.4,1.2,0.8,1.6c0.4,0.4,1.1,0.6,1.8,0.6
		c0.8,0,1.4-0.2,1.8-0.6c0.4-0.4,0.6-0.8,0.7-1.4c0.1-0.5,0.1-1.5,0.1-2.7v-8.9h2.8v8.5c0,1.9-0.1,3.3-0.2,4.1s-0.4,1.5-0.8,2
		c-0.4,0.5-0.9,1-1.6,1.3c-0.7,0.3-1.5,0.5-2.6,0.5c-1.3,0-2.3-0.2-3-0.5c-0.7-0.4-1.2-0.8-1.6-1.4c-0.4-0.6-0.6-1.2-0.8-1.8
		c-0.2-0.9-0.3-2.3-0.3-4.1V47.9z"/>
	<path class="st0" d="M90,64V47.9h4.1l2.5,11l2.4-11h4.1V64h-2.6V51.3L97.9,64h-2.7l-2.7-12.7V64H90z"/>
	<path class="st0" d="M118.2,64h-3l-1.2-3.7h-5.5l-1.1,3.7h-2.9l5.3-16.1h2.9L118.2,64z M113.1,57.6l-1.9-6l-1.8,6H113.1z"/>
	<path class="st0" d="M119.7,64V47.9h5.8c1.5,0,2.5,0.1,3.2,0.4c0.7,0.3,1.2,0.8,1.6,1.5c0.4,0.7,0.6,1.6,0.6,2.5
		c0,1.2-0.3,2.2-0.9,3s-1.5,1.3-2.7,1.5c0.6,0.4,1.1,0.9,1.5,1.4c0.4,0.5,0.9,1.4,1.6,2.6L132,64h-3.3l-2-3.5
		c-0.7-1.3-1.2-2-1.5-2.4c-0.3-0.3-0.5-0.5-0.8-0.7c-0.3-0.1-0.8-0.2-1.4-0.2h-0.6V64H119.7z M122.4,54.7h2c1.3,0,2.1-0.1,2.5-0.2
		c0.3-0.1,0.6-0.4,0.8-0.7c0.2-0.3,0.3-0.7,0.3-1.2c0-0.5-0.1-1-0.4-1.3s-0.6-0.5-1-0.6c-0.2,0-0.9-0.1-2-0.1h-2.1V54.7z"/>
	<path class="st0" d="M133.5,64V47.9h2.8V55l5.6-7.2h3.7l-5.1,6.3l5.4,9.8h-3.6l-3.8-7.6l-2.2,2.7V64H133.5z"/>
</g>
</svg>
