<?xml version="1.0" encoding="utf-8"?>
<!-- Generator: Adobe Illustrator 19.1.0, SVG Export Plug-In . SVG Version: 6.00 Build 0)  -->
<svg version="1.1" id="Layer_1" xmlns="http://www.w3.org/2000/svg" xmlns:xlink="http://www.w3.org/1999/xlink" x="0px" y="0px"
	 viewBox="0 0 160 90" style="enable-background:new 0 0 160 90;" xml:space="preserve">
<style type="text/css">
	.st0{fill:#BBBBBB;}
</style>
<g>
	<path class="st0" d="M16.6,46.5v11.8h-2.4v-7L10.3,54l-3.8-2.7v7H4V46.5l6.3,4.7L16.6,46.5z"/>
	<path class="st0" d="M21.4,58.3h-2.5V46.7h2.5V58.3z"/>
	<path class="st0" d="M26.1,56.3v2h-2.5V46.7h4.1c2.8,0,4.9,2,4.9,4.6c0,2.1-1,3.6-2.7,4.4l2.6,2.7h-3.3l-1.9-2H26.1z M27.1,54.1
		c2,0,3-0.9,3-2.7c0-1.4-0.9-2.6-2.5-2.6h-1.5v5.3H27.1z"/>
	<path class="st0" d="M34.3,58.3V46.7h4c2.9,0,5,2.3,5,4.7c0,3-2.1,5.2-5.1,5.2h-1.4v1.8H34.3z M38.2,54.3c1.7,0,2.7-1.2,2.7-2.7
		c0-1.4-0.9-2.8-2.5-2.8h-1.5v5.5H38.2z"/>
	<path class="st0" d="M44.6,52.9v-6.3h2.5v6.7c0,1.8,0.9,2.9,2.7,2.9c1.8,0,2.6-1.1,2.6-2.9v-6.7h2.4v6.5c0,3.4-1.9,5.4-5.1,5.4
		C46.3,58.5,44.6,56.1,44.6,52.9z"/>
	<path class="st0" d="M59.4,56.3v2h-2.5V46.7h4.1c2.8,0,4.9,2,4.9,4.6c0,2.1-1,3.6-2.7,4.4l2.6,2.7h-3.3l-1.9-2H59.4z M60.4,54.1
		c2,0,3-0.9,3-2.7c0-1.4-0.9-2.6-2.5-2.6h-1.5v5.3H60.4z"/>
</g>
<g>
	<polygon class="st0" points="63,88.8 101.2,64.2 92.8,58.8 63,77.9 	"/>
	<polygon class="st0" points="70,43.9 70.2,33.1 95,17 95,27.5 	"/>
	<polygon class="st0" points="79,25.1 95,15.1 95,5.5 79,15.3 	"/>
	<polygon class="st0" points="83,12.6 83,1 88,1 88,9.5 	"/>
	<polygon class="st0" points="70,73 70,63.9 93.5,48.7 100.5,53.3 	"/>
	<polygon class="st0" points="86,33.7 101,43.7 101,53.2 86,43.2 	"/>
	<polygon class="st0" points="101,53.5 101,53.5 101,64.2 92.8,58.8 	"/>
	<polygon class="st0" points="93,48.4 78.1,38.3 69.9,43.8 85,53.7 85,53.7 93,48.4 	"/>
</g>
<g>
	<path class="st0" d="M105.4,48.9c0-1.1,1-1.9,2-1.9c0.7,0,1.3,0.2,1.8,0.8l-1.1,0.8c-0.2-0.2-0.5-0.3-0.7-0.3
		c-0.4,0-0.6,0.2-0.6,0.6c0,0.3,0.2,0.6,0.9,0.6c1.1,0.1,2.1,0.8,2.1,2.1c0,1.3-1.1,2.2-2.3,2.2c-0.8,0-1.5-0.3-2.2-1l1.1-0.8
		c0.3,0.4,0.6,0.5,1,0.5c0.5,0,0.8-0.4,0.8-0.8c0-0.5-0.4-0.9-1-0.9C106.1,50.6,105.4,49.9,105.4,48.9z"/>
	<path class="st0" d="M112,47.1v2.5h3.1v-2.5h1.4v6.5h-1.4v-2.9H112v2.9h-1.4v-6.5H112z"/>
	<path class="st0" d="M117.5,50.4c0-1.9,1.5-3.4,3.4-3.4c1.9,0,3.5,1.5,3.5,3.4s-1.5,3.4-3.4,3.4C119,53.8,117.5,52.3,117.5,50.4z
		 M118.9,50.4c0,1.2,0.9,2.1,2,2.1c1.1,0,2-0.9,2-2.1c0-1.2-0.9-2.1-2-2.1C119.8,48.3,118.9,49.2,118.9,50.4z"/>
	<path class="st0" d="M125.3,53.7v-6.5h2.3c1.6,0,2.8,1.3,2.8,2.6c0,1.7-1.2,2.9-2.9,2.9h-0.8v1H125.3z M127.5,51.4
		c1,0,1.5-0.7,1.5-1.5c0-0.8-0.5-1.5-1.4-1.5h-0.8v3.1H127.5z"/>
	<path class="st0" d="M131.3,53.7v-6.5h2.3c1.6,0,2.8,1.3,2.8,2.6c0,1.7-1.2,2.9-2.9,2.9h-0.8v1H131.3z M133.5,51.4
		c1,0,1.5-0.7,1.5-1.5c0-0.8-0.5-1.5-1.4-1.5h-0.8v3.1H133.5z"/>
	<path class="st0" d="M138.5,53.7h-1.4v-6.5h1.4V53.7z"/>
	<path class="st0" d="M144.5,47.1h1.4v6.7l-4.7-3.9v3.8h-1.4V47l4.7,3.9V47.1z"/>
	<path class="st0" d="M153.8,50.3c0,1.9-1.5,3.5-3.5,3.5c-1.9,0-3.4-1.5-3.4-3.4s1.5-3.4,3.4-3.4c1.2,0,2.3,0.6,2.9,1.6l-1.1,0.8
		c-0.3-0.6-1-1.1-1.8-1.1c-1.1,0-2,0.9-2,2.1c0,1.2,0.9,2.1,2,2.1c0.8,0,1.5-0.4,1.8-1.2h-1.8v-1.2h3.4V50.3z"/>
	<path class="st0" d="M113.3,56.6h1.4l-3.4,6.7l-1.5-2.7l-1.4,2.7l-3.6-6.7h1.6l2,3.8l0.6-1.2l-1.4-2.7h1.6l2,3.8L113.3,56.6z"/>
	<path class="st0" d="M114.4,59.9c0-1.9,1.5-3.4,3.4-3.4c1.9,0,3.5,1.5,3.5,3.4s-1.5,3.4-3.4,3.4C116,63.3,114.4,61.8,114.4,59.9z
		 M115.8,59.9c0,1.2,0.9,2.1,2,2.1c1.1,0,2-0.9,2-2.1c0-1.2-0.9-2.1-2-2.1C116.7,57.8,115.8,58.7,115.8,59.9z"/>
	<path class="st0" d="M123.7,62v1.1h-1.4v-6.5h2.3c1.6,0,2.8,1.2,2.8,2.6c0,1.2-0.6,2-1.5,2.5l1.4,1.5h-1.8l-1.1-1.1H123.7z
		 M124.3,60.8c1.1,0,1.7-0.5,1.7-1.5c0-0.8-0.5-1.5-1.4-1.5h-0.8v3H124.3z"/>
	<path class="st0" d="M129.7,56.6v5.3h2.7v1.2h-4.1v-6.5H129.7z"/>
	<path class="st0" d="M135.9,56.6c1.9,0,3.5,1.4,3.5,3.3c0,1.9-1.6,3.3-3.5,3.3h-2.7v-6.5H135.9z M135.9,61.9c1.2,0,2.1-0.9,2.1-2
		c0-1.2-0.9-2-2.1-2h-1.3v4.1H135.9z"/>
</g>
</svg>
