<?xml version="1.0" encoding="utf-8"?>
<!-- Generator: Adobe Illustrator 19.1.0, SVG Export Plug-In . SVG Version: 6.00 Build 0)  -->
<svg version="1.1" id="Layer_1" xmlns="http://www.w3.org/2000/svg" xmlns:xlink="http://www.w3.org/1999/xlink" x="0px" y="0px"
	 viewBox="0 0 160 90" style="enable-background:new 0 0 160 90;" xml:space="preserve">
<style type="text/css">
	.st0{fill:#BBBBBB;}
</style>
<g>
	<g>
		<path class="st0" d="M103,33l-7.3-5.5c-2.4,3.9-4,8.2-4.6,12.9h9.2C100.7,37.8,101.7,35.3,103,33z"/>
	</g>
	<g>
		<path class="st0" d="M124.6,11.3c-10.2,0-19.4,4.5-25.6,11.7l7.3,5.4c4.5-5,11.1-8.1,18.3-8.1c2.2,0,4.3,0.3,6.4,0.8
			c-0.4-0.1-0.8-0.2-1.2-0.3c-1.2,1.6-1.9,3.6-1.9,5.7c0,5.2,4.2,9.5,9.5,9.5c3.4,0,6.4-1.8,8.1-4.5c2.6,3.9,4.1,8.6,4.1,13.6
			c0,4.7-1.3,9.1-3.6,12.8l7.3,5.4c3.4-5.3,5.3-11.5,5.3-18.3C158.5,26.5,143.3,11.3,124.6,11.3z M136.6,23.5c0.3,0.2,0.7,0.4,1,0.6
			C137.3,23.9,137,23.7,136.6,23.5z M131,21.2c0.4,0.1,0.8,0.2,1.2,0.3C131.7,21.4,131.4,21.3,131,21.2z M132.2,21.6
			c0.4,0.1,0.8,0.3,1.1,0.4C132.9,21.8,132.5,21.7,132.2,21.6z M133.3,22c0.4,0.1,0.7,0.3,1.1,0.4C134.1,22.3,133.7,22.1,133.3,22z
			 M134.5,22.4c0.4,0.2,0.7,0.3,1.1,0.5C135.2,22.8,134.8,22.6,134.5,22.4z M135.6,23c0.3,0.2,0.7,0.4,1,0.5
			C136.3,23.3,135.9,23.1,135.6,23z M139.6,25.5c2.2,1.7,4.2,3.8,5.7,6.1C143.8,29.3,141.9,27.2,139.6,25.5z M137.7,24.1
			c0.3,0.2,0.7,0.4,1,0.6C138.3,24.5,138,24.3,137.7,24.1z M138.7,24.8c0.3,0.2,0.6,0.5,1,0.7C139.3,25.2,139,25,138.7,24.8z"/>
	</g>
	<g>
		<path class="st0" d="M142.5,62.5c-4.5,4.7-10.9,7.6-17.9,7.6c-1.8,0-3.5-0.2-5.1-0.5c1.1-1.5,1.7-3.4,1.7-5.4
			c0-5.2-4.2-9.5-9.5-9.5c-3.3,0-6.1,1.6-7.8,4.2c0,0,0.1,0.1,0.1,0.1c0.3,0.4,0.6,0.9,0.9,1.3c0,0,0,0.1,0.1,0.1
			c0.3,0.4,0.7,0.9,1.1,1.3c0.1,0.1,0.2,0.2,0.2,0.3c0.3,0.3,0.6,0.6,0.9,0.9c0.1,0.1,0.2,0.2,0.3,0.3c0.4,0.4,0.8,0.7,1.2,1.1
			c-0.4-0.4-0.8-0.7-1.2-1.1c-0.1-0.1-0.2-0.2-0.3-0.3c-0.3-0.3-0.6-0.6-0.9-0.9c-0.1-0.1-0.2-0.2-0.2-0.3c-0.4-0.4-0.7-0.8-1.1-1.3
			c0,0,0-0.1-0.1-0.1c-0.3-0.4-0.6-0.8-0.9-1.3c0,0-0.1-0.1-0.1-0.1c0,0,0,0,0,0c-1.6-2.4-2.7-5.1-3.4-7.9h-9.2
			c2.7,16,16.6,28.2,33.4,28.2c10,0,19-4.3,25.2-11.2L142.5,62.5z M108.6,64.3c0.3,0.3,0.6,0.5,0.9,0.7
			C109.2,64.8,108.9,64.5,108.6,64.3z M109.5,65c0.3,0.2,0.6,0.5,1,0.7C110.1,65.5,109.8,65.2,109.5,65z M110.5,65.7
			c0.3,0.2,0.6,0.4,1,0.6C111.1,66.2,110.8,65.9,110.5,65.7z M111.5,66.4c0.3,0.2,0.7,0.4,1,0.6C112.2,66.8,111.8,66.6,111.5,66.4z
			 M112.6,67c0.3,0.2,0.7,0.4,1,0.5C113.2,67.4,112.9,67.2,112.6,67z M113.6,67.6c0.3,0.2,0.7,0.3,1,0.5
			C114.3,67.9,114,67.7,113.6,67.6z M114.7,68.1c0.4,0.2,0.7,0.3,1.1,0.4C115.5,68.4,115.1,68.2,114.7,68.1z M115.9,68.5
			c0.4,0.1,0.7,0.3,1.1,0.4C116.6,68.8,116.2,68.7,115.9,68.5z M117,68.9c0.4,0.1,0.8,0.2,1.2,0.3C117.8,69.2,117.4,69.1,117,68.9z
			 M118.2,69.3c0.4,0.1,0.8,0.2,1.2,0.3C119,69.5,118.6,69.4,118.2,69.3z"/>
	</g>
	<g>
		<path class="st0" d="M0.5,38.8h3c1.3,0,2.6,0.2,3.6,0.8c1,0.6,1.7,1.6,1.7,3.2c0,1.5-0.7,2.5-1.7,3.2s-2.3,0.9-3.6,0.9v5.4h-3
			V38.8z M3.5,44.8c0.9,0,1.5-0.1,1.8-0.4c0.3-0.3,0.4-0.8,0.4-1.5s-0.1-1.3-0.4-1.6s-0.9-0.5-1.8-0.5V44.8z"/>
		<path class="st0" d="M15.6,52.2l-1.6-5.7h-0.8v5.7h-3V38.8h3c3.6,0,5.1,1.3,5.1,3.9c0,1.3-0.5,2.5-1.7,3l1.9,6.5H15.6z M13.3,44.7
			c0.4,0,1,0,1.4-0.3s0.8-0.7,0.8-1.7c0-0.9-0.4-1.5-0.8-1.7s-1-0.3-1.4-0.3V44.7z"/>
		<path class="st0" d="M19.4,52.2l3.1-13.4h3.7l3.1,13.4h-2.9l-0.6-2.7h-2.9l-0.6,2.7H19.4z M24.5,43.1l-0.1-0.3h-0.2l-0.1,0.3
			l-0.9,4.2h2.1L24.5,43.1z"/>
		<path class="st0" d="M38.5,47.6v1.8c0,0.5-0.2,1-0.5,1.5c-0.2,0.4-0.6,0.7-1.2,1c-0.6,0.3-1.3,0.5-2.3,0.5c-1,0-1.8-0.2-2.3-0.5
			c-0.6-0.3-0.9-0.6-1.2-1c-0.3-0.4-0.5-0.9-0.5-1.5v-7.9c0-0.5,0.2-1,0.5-1.4c0.2-0.4,0.6-0.7,1.2-1s1.3-0.5,2.3-0.5
			c1,0,1.7,0.2,2.3,0.5s0.9,0.6,1.2,1c0.3,0.4,0.5,0.9,0.5,1.4v1.8h-2.8v-1.8c0-0.4-0.1-0.6-0.4-0.8c-0.1-0.1-0.4-0.1-0.7-0.1
			c-0.5,0-0.8,0.3-0.9,0.5c-0.1,0.1-0.1,0.3-0.1,0.5v7.9c0,0.4,0.2,0.6,0.5,0.8c0.1,0.1,0.3,0.1,0.6,0.1c0.6,0,0.9-0.2,1-0.5
			c0.1-0.1,0.1-0.3,0.1-0.5v-1.8H38.5z"/>
		<path class="st0" d="M39.2,40.8v-2h8.7v2H45v11.4h-3V40.8H39.2z"/>
		<path class="st0" d="M49,38.8h3v13.4h-3V38.8z"/>
		<path class="st0" d="M62,47.6v1.8c0,0.5-0.2,1-0.5,1.5c-0.2,0.4-0.6,0.7-1.2,1c-0.6,0.3-1.3,0.5-2.3,0.5s-1.8-0.2-2.3-0.5
			c-0.6-0.3-0.9-0.6-1.2-1c-0.3-0.4-0.5-0.9-0.5-1.5v-7.9c0-0.5,0.2-1,0.5-1.4c0.2-0.4,0.6-0.7,1.2-1s1.3-0.5,2.3-0.5
			s1.7,0.2,2.3,0.5s0.9,0.6,1.2,1c0.3,0.4,0.5,0.9,0.5,1.4v1.8h-2.8v-1.8c0-0.4-0.1-0.6-0.4-0.8c-0.1-0.1-0.4-0.1-0.7-0.1
			c-0.5,0-0.8,0.3-0.9,0.5c-0.1,0.1-0.1,0.3-0.1,0.5v7.9c0,0.4,0.2,0.6,0.5,0.8c0.1,0.1,0.3,0.1,0.6,0.1c0.6,0,0.9-0.2,1-0.5
			c0.1-0.1,0.1-0.3,0.1-0.5v-1.8H62z"/>
		<path class="st0" d="M63,52.2l3.1-13.4h3.7l3.1,13.4h-2.9l-0.6-2.7h-2.9l-0.6,2.7H63z M68.1,43.1L68,42.8h-0.2l-0.1,0.3l-0.9,4.2
			h2.1L68.1,43.1z"/>
		<path class="st0" d="M74.2,38.8h3v11.6h4v1.8h-7V38.8z"/>
		<path class="st0" d="M85.8,52.2l3.1-13.4h3.7l3.1,13.4h-2.9l-0.6-2.7h-2.9l-0.6,2.7H85.8z M90.9,43.1l-0.1-0.3h-0.2l-0.1,0.3
			l-0.9,4.2h2.1L90.9,43.1z"/>
		<path class="st0" d="M104.8,47.6v1.8c0,0.5-0.2,1-0.5,1.5c-0.2,0.4-0.6,0.7-1.2,1c-0.6,0.3-1.3,0.5-2.3,0.5c-1,0-1.8-0.2-2.3-0.5
			c-0.6-0.3-0.9-0.6-1.2-1c-0.3-0.4-0.5-0.9-0.5-1.5v-7.9c0-0.5,0.2-1,0.5-1.4c0.2-0.4,0.6-0.7,1.2-1s1.3-0.5,2.3-0.5
			c1,0,1.7,0.2,2.3,0.5s0.9,0.6,1.2,1c0.3,0.4,0.5,0.9,0.5,1.4v1.8H102v-1.8c0-0.4-0.1-0.6-0.4-0.8c-0.1-0.1-0.4-0.1-0.7-0.1
			c-0.5,0-0.8,0.3-0.9,0.5c-0.1,0.1-0.1,0.3-0.1,0.5v7.9c0,0.4,0.2,0.6,0.5,0.8c0.1,0.1,0.3,0.1,0.6,0.1c0.6,0,0.9-0.2,1-0.5
			c0.1-0.1,0.1-0.3,0.1-0.5v-1.8H104.8z"/>
		<path class="st0" d="M105.6,40.8v-2h8.7v2h-2.8v11.4h-3V40.8H105.6z"/>
		<path class="st0" d="M115.4,38.8h3v13.4h-3V38.8z"/>
		<path class="st0" d="M128.4,49.4c0,0.5-0.2,1-0.5,1.5c-0.2,0.4-0.6,0.7-1.2,1c-0.6,0.3-1.3,0.5-2.3,0.5c-1,0-1.8-0.2-2.3-0.5
			c-0.6-0.3-0.9-0.6-1.2-1c-0.3-0.4-0.5-0.9-0.5-1.5v-7.9c0-0.5,0.2-1,0.5-1.4c0.2-0.4,0.6-0.7,1.2-1s1.3-0.5,2.3-0.5
			c1,0,1.7,0.2,2.3,0.5s0.9,0.6,1.2,1c0.3,0.4,0.5,0.9,0.5,1.4V49.4z M125.4,41.5c0-0.4-0.1-0.6-0.4-0.8c-0.1-0.1-0.4-0.1-0.6-0.1
			c-0.5,0-0.8,0.3-0.9,0.5c-0.1,0.1-0.1,0.3-0.1,0.5v7.9c0,0.4,0.1,0.6,0.4,0.8c0.1,0.1,0.3,0.1,0.6,0.1c0.5,0,0.8-0.2,0.9-0.5
			c0.1-0.1,0.1-0.3,0.1-0.5V41.5z"/>
		<path class="st0" d="M133.6,45.2l-0.3-0.6h-0.2v7.6h-2.7V38.8h2.7l2.9,7l0.3,0.6h0.2v-7.6h2.7v13.4h-2.7L133.6,45.2z"/>
	</g>
</g>
</svg>
