<?xml version="1.0" encoding="utf-8"?>
<!-- Generator: Adobe Illustrator 19.1.0, SVG Export Plug-In . SVG Version: 6.00 Build 0)  -->
<svg version="1.1" id="Layer_1" xmlns="http://www.w3.org/2000/svg" xmlns:xlink="http://www.w3.org/1999/xlink" x="0px" y="0px"
	 viewBox="0 0 160 90" style="enable-background:new 0 0 160 90;" xml:space="preserve">
<style type="text/css">
	.st0{fill:#BBBBBB;}
</style>
<g>
	<path class="st0" d="M2.3,39h3.7v14H2.3V39z"/>
	<path class="st0" d="M19,53l-6.6-6.6V53H8.7V39h1.5l6.6,6.6V39h3.7v14H19z"/>
	<path class="st0" d="M23,39h11v3.6h-3.7V53h-3.7V42.7H23V39z"/>
	<path class="st0" d="M36.5,39h8.7v3h-5v2.3h4.4v3.1h-4.4V50h5v3h-8.7V39z"/>
	<path class="st0" d="M55.9,53l-2.2-3.7h-2.3V53h-3.7V39h5.9c2.8,0,5.1,2.3,5.1,5.1c0,1.5-0.7,2.8-1.7,3.8l3,5.1H55.9z M51.5,46.1
		h2.3c1.1,0,2-0.9,2-2s-0.9-2-2-2h-2.3V46.1z"/>
	<path class="st0" d="M70.6,43.7c-0.6-0.6-1.4-0.9-2.3-0.9c-1.9,0-3.3,1.4-3.3,3.3c0,1.9,1.4,3.3,3.3,3.3c0.9,0,1.8-0.3,2.3-0.9
		l2.6,2.6c-1.3,1.3-3,2.1-5,2.1c-3.9,0-7-3.1-7-7c0-3.9,3.1-7,7-7c1.9,0,3.6,0.8,4.9,2L70.6,43.7z"/>
	<path class="st0" d="M103.7,53l-6.6-6.6V53h-3.7V39H95l6.6,6.6V39h3.7v14H103.7z"/>
	<path class="st0" d="M118.3,53l-6.6-6.6V53H108V39h1.5l6.6,6.6V39h3.7v14H118.3z"/>
	<path class="st0" d="M122.6,39h8.7v3h-5v2.3h4.4v3.1h-4.4V50h5v3h-8.7V39z"/>
	<path class="st0" d="M142.9,43.7c-0.6-0.6-1.4-0.9-2.3-0.9c-1.9,0-3.3,1.4-3.3,3.3c0,1.9,1.4,3.3,3.3,3.3c0.9,0,1.8-0.3,2.3-0.9
		l2.6,2.6c-1.3,1.3-3,2.1-5,2.1c-3.9,0-7-3.1-7-7c0-3.9,3.1-7,7-7c1.9,0,3.6,0.8,4.9,2L142.9,43.7z"/>
	<path class="st0" d="M147.8,39h11v3.6h-3.7V53h-3.7V42.7h-3.6V39z"/>
	<path class="st0" d="M86,46.1c0.9,1.6,1.2,3,0.6,3.6c-1,1-3.8-0.2-6.3-2.6c-2.5-2.5-3.6-5.3-2.6-6.3c0.6-0.6,1.9-0.4,3.4,0.4
		c0.3,0.2,1.3-0.2,1.6-0.6c-2.6-1.8-5.1-2.3-6.4-1.1c-1.6,1.6-3.9,6.3,0.6,10.9c4.2,4.2,9.3,2.2,10.9,0.6c1.3-1.3,0.7-4-1.2-6.6
		C86.2,44.8,85.8,45.8,86,46.1L86,46.1z"/>
	<path class="st0" d="M79.8,43.6c0,0.4,0.4,0.7,0.8,0.6l2.3-0.3c0.1,0.2,0.3,0.4,0.6,0.6l-0.3,2.3c0,0.4,0.2,0.7,0.6,0.8
		c0,0,0.1,0,0.1,0c0.3,0,0.7-0.3,0.7-0.6l0.3-2.3c0.7-0.2,1.2-0.8,1.2-1.6c0-0.9-0.8-1.7-1.7-1.7c-0.7,0-1.4,0.5-1.6,1.2l-2.3,0.3
		C80.1,42.9,79.8,43.2,79.8,43.6L79.8,43.6z"/>
	<path class="st0" d="M84.3,38c-0.5,0-0.8,0.4-0.8,0.8c0,0.5,0.4,0.8,0.8,0.8c2.5,0,3.4,0.9,3.4,3.4c0,0.5,0.4,0.8,0.8,0.8
		c0.5,0,0.8-0.4,0.8-0.8C89.4,39.7,87.7,38,84.3,38L84.3,38z"/>
	<path class="st0" d="M84.3,34.7c-0.5,0-0.8,0.4-0.8,0.8c0,0.5,0.4,0.8,0.8,0.8c3.7,0,6.7,3,6.7,6.7c0,0.5,0.4,0.8,0.8,0.8
		c0.5,0,0.8-0.4,0.8-0.8C92.7,38.4,89,34.7,84.3,34.7L84.3,34.7z"/>
	<path class="st0" d="M83.5,36.2"/>
</g>
</svg>
