<?xml version="1.0" encoding="utf-8"?>
<!-- Generator: Adobe Illustrator 19.1.0, SVG Export Plug-In . SVG Version: 6.00 Build 0)  -->
<svg version="1.1" id="Layer_1" xmlns="http://www.w3.org/2000/svg" xmlns:xlink="http://www.w3.org/1999/xlink" x="0px" y="0px"
	 viewBox="0 0 160 90" style="enable-background:new 0 0 160 90;" xml:space="preserve">
<style type="text/css">
	.st0{fill:#BBBBBB;}
</style>
<g>
	<path class="st0" d="M16.4,48.1c-2,3.6-3.8,6.8-5.6,10c-1,1.9-3.1,2.6-6.3,2c-2.9-0.5-3.1-1-2.4-3.8c0.6-2.3,1.1-4.6,1.3-6.9
		C4,45.6,5.1,42,7.2,38.8c2.1-3.3,5.2-5.3,9.2-5.1c3,0.1,6,0.5,8.9,1.3c3,0.8,3.9,3.3,2.8,6.2c-0.4,1-0.8,2-0.8,3.3
		c1.6-1.4,3.3-2.9,4.9-4.3c3.2-2.8,6.4-5.6,9.7-8.3c3.6-3,7.7-3.8,12.1-2.3c2,0.7,3,2.2,3.2,4.3c0.2,3.3-0.3,6.2-3.3,8.3
		c-2.4,1.8-2.4,4.8-3,7.5c-0.7,3.4-1.4,6.8-2,10.2c-0.3,1.7-1,3-2.8,3.1c-1.9,0.1-2.2-1.6-2.6-2.9c-1.3-5.7-3.2-11.4-2.9-17.4
		c0-0.2-0.1-0.3-0.4-0.9c-1,1.4-2.1,2.5-2.8,3.9c-2.6,5.1-7.1,6.4-12.3,6.4C21.8,52,18.7,51.2,16.4,48.1z"/>
	<path class="st0" d="M79.6,40.7c3-0.3,5.7-0.5,8.3-0.9c0.5-0.1,0.9-0.9,1.2-1.5c1.2-2.6,2.2-5.4,3.7-7.9c0.5-0.9,2.1-1.5,3.3-1.6
		c5.8-0.4,7.3,1.3,6.2,7c-0.3,1.4-0.8,2.7-1.3,4.3c1,0.2,2,0.3,2.9,0.6c0.6,0.2,1.1,0.7,1.7,1.1c-0.5,0.4-1,1-1.7,1.2
		c-0.8,0.3-1.7,0.2-2.5,0.3c-2.4,0.1-3.4,1-3.7,3.3c-0.2,1.8-0.3,3.7-0.4,5.5c-0.1,3-1.2,4.3-3.8,4.5c-2.8,0.3-5-1.2-5.5-3.9
		c-0.3-2-0.3-4-0.4-6.1c0-0.6,0-1.3,0-2.2c-3,0.3-5.7,0.5-8.4,0.8c-0.4,0.1-0.9,0.7-1.2,1.1c-1.9,3-3.7,6.1-5.7,9.1
		c-0.9,1.3-2.1,2.2-3.8,1.9c-1.7-0.3-2.3-1.6-2.5-3.2c-1-7.6-0.5-14.9,4-21.5c2-3,4.9-3.8,8.3-2.4c2.2,0.9,2.9,2.2,2.5,4.7
		C80.5,36.8,80.1,38.6,79.6,40.7z"/>
	<path class="st0" d="M157.8,31.7c-0.8,0.3-1.5,0.7-2.3,0.9c-3.6,0.6-7.1,1.4-10.7,1.4c-3.8,0-6.1,1.9-7.5,4.9
		c-2.2,4.9-4.2,9.9-6.2,14.8c-0.3,0.7-0.3,1.5-0.7,2c-0.5,0.7-1.4,1.7-1.8,1.6c-0.9-0.2-2.1-1.1-2.2-1.8c-0.8-5.7-1-11.4,0.9-16.9
		c0.4-1.3,1.3-2.3,2.2-3.8c-0.9-0.1-1.6-0.2-2.3-0.2c-3-0.2-6-0.3-9-0.5c-0.4,0-0.8-0.1-1.1-0.3c-0.6-0.4-1.1-1-1.6-1.5
		c0.6-0.4,1.1-1,1.7-1.1c6.9-0.7,13.8-1.7,20.7-2c5.1-0.3,10.2,0.1,15.3,0.4c1.5,0.1,3.1,0.7,4.6,1
		C157.8,31.1,157.8,31.4,157.8,31.7z"/>
</g>
</svg>
