<?xml version="1.0" encoding="utf-8"?>
<!-- Generator: Adobe Illustrator 19.1.0, SVG Export Plug-In . SVG Version: 6.00 Build 0)  -->
<svg version="1.1" id="Layer_1" xmlns="http://www.w3.org/2000/svg" xmlns:xlink="http://www.w3.org/1999/xlink" x="0px" y="0px"
	 viewBox="0 0 320 190" style="enable-background:new 0 0 320 190;" xml:space="preserve">
<style type="text/css">
	.st0{fill:#BBBBBB;}
</style>
<g>
	<path class="st0" d="M15.9,150.4c0.1,0.2,0.2,0.3,0.4,0.5c0.2,0.1,0.5,0.3,0.8,0.4c0.4,0.1,0.8,0.2,1.4,0.4
		c0.6,0.2,1.1,0.3,1.6,0.5c0.5,0.2,0.9,0.4,1.2,0.7c0.3,0.3,0.5,0.6,0.7,0.9c0.2,0.4,0.2,0.8,0.2,1.3c0,0.6-0.1,1-0.3,1.5
		c-0.2,0.4-0.5,0.8-0.8,1.1c-0.4,0.3-0.8,0.5-1.3,0.7c-0.5,0.2-1.1,0.2-1.7,0.2c-0.9,0-1.7-0.2-2.6-0.5c-0.8-0.3-1.6-0.8-2.3-1.4
		l1.2-1.5c0.6,0.5,1.1,0.9,1.7,1.1c0.6,0.3,1.2,0.4,2,0.4c0.6,0,1.1-0.1,1.5-0.4c0.4-0.3,0.6-0.6,0.6-1.1c0-0.2,0-0.4-0.1-0.6
		c-0.1-0.2-0.2-0.3-0.4-0.5c-0.2-0.1-0.5-0.3-0.8-0.4c-0.3-0.1-0.8-0.2-1.3-0.4c-0.6-0.1-1.2-0.3-1.6-0.5c-0.5-0.2-0.9-0.4-1.2-0.7
		c-0.3-0.3-0.6-0.6-0.7-1c-0.2-0.4-0.3-0.8-0.3-1.4c0-0.5,0.1-1,0.3-1.4c0.2-0.4,0.5-0.8,0.8-1.1c0.3-0.3,0.8-0.5,1.2-0.7
		c0.5-0.2,1-0.2,1.6-0.2c0.8,0,1.6,0.1,2.3,0.4c0.7,0.2,1.3,0.6,1.9,1.1l-1.1,1.5c-0.5-0.4-1.1-0.7-1.6-0.9c-0.5-0.2-1-0.3-1.6-0.3
		c-0.6,0-1.1,0.1-1.4,0.4c-0.3,0.3-0.5,0.6-0.5,1C15.8,150,15.8,150.2,15.9,150.4z"/>
	<path class="st0" d="M33.2,148.6h-6.5v3h5.8v1.8h-5.8v3.1h6.6v1.8h-8.6v-11.6h8.6V148.6z"/>
	<path class="st0" d="M46.8,158.3h-2.1l-1.2-2.8H38l-1.2,2.8h-2.1l5.1-11.7h1.9L46.8,158.3z M40.8,149.1l-2,4.6h4L40.8,149.1z"/>
	<path class="st0" d="M62.4,152.3c-0.2,0.5-0.6,0.9-1,1.2c-0.4,0.3-0.9,0.6-1.5,0.8c-0.6,0.2-1.2,0.3-1.8,0.3h-2.3v3.7h-2v-11.6h4.6
		c0.7,0,1.3,0.1,1.8,0.3c0.5,0.2,1,0.4,1.4,0.8c0.4,0.3,0.7,0.7,0.9,1.2c0.2,0.5,0.3,1,0.3,1.6C62.7,151.3,62.6,151.8,62.4,152.3z
		 M60,149.1c-0.5-0.3-1.1-0.5-1.8-0.5h-2.4v4.2h2.4c0.8,0,1.4-0.2,1.8-0.6c0.4-0.4,0.7-0.9,0.7-1.5C60.7,150,60.4,149.4,60,149.1z"
		/>
	<path class="st0" d="M73.4,148.6h-6.5v3h5.8v1.8h-5.8v3.1h6.6v1.8h-8.6v-11.6h8.6V148.6z"/>
	<path class="st0" d="M87,158.3h-2.1l-1.2-2.8h-5.5l-1.2,2.8h-2.1l5.1-11.7h1.9L87,158.3z M80.9,149.1l-2,4.6h4L80.9,149.1z"/>
	<path class="st0" d="M96.4,158.3l-2.9-4H91v4h-2v-11.6h5.2c0.7,0,1.3,0.1,1.8,0.3c0.5,0.2,1,0.4,1.4,0.7c0.4,0.3,0.7,0.7,0.9,1.2
		c0.2,0.5,0.3,1,0.3,1.5c0,0.5-0.1,0.9-0.2,1.3c-0.1,0.4-0.3,0.7-0.6,1c-0.2,0.3-0.5,0.5-0.9,0.7c-0.3,0.2-0.7,0.4-1.1,0.5l3.1,4.4
		H96.4z M95.7,149.1c-0.4-0.3-1-0.5-1.8-0.5h-3v3.9h3c0.7,0,1.3-0.2,1.7-0.5c0.4-0.4,0.6-0.8,0.6-1.4
		C96.3,149.9,96.1,149.4,95.7,149.1z"/>
	<path class="st0" d="M100.9,146.7h2v9.7h6.1v1.8h-8.1V146.7z"/>
	<path class="st0" d="M124,147.5c0.7,0.5,1,1.3,1,2.2c0,0.4,0,0.7-0.1,0.9c-0.1,0.3-0.2,0.5-0.4,0.7c-0.1,0.2-0.3,0.4-0.5,0.5
		c-0.2,0.2-0.4,0.3-0.6,0.4c0.3,0.1,0.6,0.3,0.9,0.4c0.3,0.2,0.5,0.4,0.7,0.6c0.2,0.2,0.4,0.5,0.5,0.8s0.2,0.7,0.2,1
		c0,0.5-0.1,1-0.3,1.4c-0.2,0.4-0.5,0.7-0.9,1c-0.4,0.3-0.8,0.5-1.4,0.6c-0.5,0.1-1.1,0.2-1.7,0.2h-5.3v-11.6h5.2
		C122.4,146.7,123.3,147,124,147.5z M122.4,151.2c0.4-0.3,0.6-0.7,0.6-1.2c0-0.5-0.2-0.8-0.5-1.1c-0.3-0.3-0.8-0.4-1.5-0.4h-2.9v3.1
		h2.8C121.5,151.6,122,151.5,122.4,151.2z M123.1,156.1c0.4-0.3,0.6-0.7,0.6-1.2c0-0.5-0.2-0.9-0.6-1.2c-0.4-0.3-1-0.4-1.8-0.4h-3.2
		v3.2h3.4C122.1,156.5,122.7,156.4,123.1,156.1z"/>
	<path class="st0" d="M136.6,148.6H130v3h5.8v1.8H130v3.1h6.6v1.8H128v-11.6h8.6V148.6z"/>
	<path class="st0" d="M150.2,158.3H148l-1.2-2.8h-5.5l-1.2,2.8h-2.1l5.1-11.7h1.9L150.2,158.3z M144.1,149.1l-2,4.6h4L144.1,149.1z"
		/>
	<path class="st0" d="M161.3,157.3c-0.3,0.2-0.7,0.5-1,0.6c-0.4,0.2-0.8,0.3-1.2,0.4c-0.4,0.1-0.9,0.1-1.5,0.1
		c-0.8,0-1.6-0.2-2.3-0.5c-0.7-0.3-1.3-0.7-1.9-1.3c-0.5-0.5-0.9-1.2-1.2-1.9c-0.3-0.7-0.4-1.5-0.4-2.3c0-0.8,0.1-1.6,0.4-2.3
		c0.3-0.7,0.7-1.4,1.2-1.9c0.5-0.5,1.2-1,1.9-1.3c0.7-0.3,1.5-0.5,2.4-0.5c0.5,0,1,0,1.4,0.1c0.4,0.1,0.8,0.2,1.2,0.4
		c0.4,0.2,0.7,0.4,1,0.6c0.3,0.2,0.6,0.5,0.9,0.7l-1.3,1.5c-0.5-0.4-1-0.8-1.5-1c-0.5-0.3-1.1-0.4-1.8-0.4c-0.6,0-1.1,0.1-1.5,0.3
		c-0.5,0.2-0.9,0.5-1.2,0.9c-0.3,0.4-0.6,0.8-0.8,1.3c-0.2,0.5-0.3,1-0.3,1.6s0.1,1.1,0.3,1.6c0.2,0.5,0.5,0.9,0.8,1.3
		c0.3,0.4,0.7,0.7,1.2,0.9c0.5,0.2,1,0.3,1.5,0.3c0.7,0,1.3-0.1,1.8-0.4c0.5-0.3,1-0.6,1.5-1.1l1.3,1.3
		C161.9,156.8,161.6,157.1,161.3,157.3z"/>
	<path class="st0" d="M166.4,153.4v4.9h-2v-11.6h2v4.8h5.6v-4.8h2v11.6h-2v-4.9H166.4z"/>
	<path class="st0" d="M189.3,158.3l-2.9-4h-2.6v4h-2v-11.6h5.2c0.7,0,1.3,0.1,1.8,0.3c0.5,0.2,1,0.4,1.4,0.7
		c0.4,0.3,0.7,0.7,0.9,1.2c0.2,0.5,0.3,1,0.3,1.5c0,0.5-0.1,0.9-0.2,1.3c-0.1,0.4-0.3,0.7-0.6,1c-0.2,0.3-0.5,0.5-0.9,0.7
		c-0.3,0.2-0.7,0.4-1.1,0.5l3.1,4.4H189.3z M188.6,149.1c-0.4-0.3-1-0.5-1.8-0.5h-3v3.9h3c0.7,0,1.3-0.2,1.7-0.5
		c0.4-0.4,0.6-0.8,0.6-1.4C189.2,149.9,189,149.4,188.6,149.1z"/>
	<path class="st0" d="M202.4,148.6h-6.5v3h5.8v1.8h-5.8v3.1h6.6v1.8h-8.6v-11.6h8.6V148.6z"/>
	<path class="st0" d="M206.7,150.4c0.1,0.2,0.2,0.3,0.4,0.5c0.2,0.1,0.5,0.3,0.8,0.4c0.4,0.1,0.8,0.2,1.4,0.4
		c0.6,0.2,1.1,0.3,1.6,0.5c0.5,0.2,0.9,0.4,1.2,0.7c0.3,0.3,0.5,0.6,0.7,0.9c0.2,0.4,0.2,0.8,0.2,1.3c0,0.6-0.1,1-0.3,1.5
		c-0.2,0.4-0.5,0.8-0.8,1.1c-0.4,0.3-0.8,0.5-1.3,0.7c-0.5,0.2-1.1,0.2-1.7,0.2c-0.9,0-1.7-0.2-2.6-0.5c-0.8-0.3-1.6-0.8-2.3-1.4
		l1.2-1.5c0.6,0.5,1.1,0.9,1.7,1.1c0.6,0.3,1.2,0.4,2,0.4c0.6,0,1.1-0.1,1.5-0.4c0.4-0.3,0.6-0.6,0.6-1.1c0-0.2,0-0.4-0.1-0.6
		c-0.1-0.2-0.2-0.3-0.4-0.5c-0.2-0.1-0.5-0.3-0.8-0.4s-0.8-0.2-1.3-0.4c-0.6-0.1-1.2-0.3-1.6-0.5c-0.5-0.2-0.9-0.4-1.2-0.7
		c-0.3-0.3-0.6-0.6-0.7-1c-0.2-0.4-0.3-0.8-0.3-1.4c0-0.5,0.1-1,0.3-1.4c0.2-0.4,0.5-0.8,0.8-1.1c0.3-0.3,0.8-0.5,1.2-0.7
		s1-0.2,1.6-0.2c0.8,0,1.6,0.1,2.3,0.4c0.7,0.2,1.3,0.6,1.9,1.1l-1.1,1.5c-0.5-0.4-1.1-0.7-1.6-0.9c-0.5-0.2-1-0.3-1.6-0.3
		c-0.6,0-1.1,0.1-1.4,0.4c-0.3,0.3-0.5,0.6-0.5,1C206.6,150,206.6,150.2,206.7,150.4z"/>
	<path class="st0" d="M226.6,154.8c-0.3,0.7-0.7,1.4-1.3,1.9c-0.5,0.5-1.2,1-1.9,1.3c-0.7,0.3-1.6,0.5-2.4,0.5
		c-0.9,0-1.7-0.2-2.4-0.5c-0.7-0.3-1.4-0.7-1.9-1.3c-0.5-0.5-0.9-1.2-1.2-1.9c-0.3-0.7-0.4-1.5-0.4-2.3c0-0.8,0.1-1.6,0.4-2.3
		c0.3-0.7,0.7-1.4,1.3-1.9c0.5-0.5,1.2-1,1.9-1.3c0.7-0.3,1.6-0.5,2.4-0.5s1.7,0.2,2.4,0.5c0.7,0.3,1.4,0.7,1.9,1.3
		c0.5,0.5,0.9,1.2,1.2,1.9c0.3,0.7,0.4,1.5,0.4,2.3C227,153.3,226.9,154.1,226.6,154.8z M224.6,150.9c-0.2-0.5-0.5-0.9-0.8-1.3
		c-0.3-0.4-0.8-0.7-1.2-0.9c-0.5-0.2-1-0.3-1.6-0.3c-0.6,0-1.1,0.1-1.6,0.3c-0.5,0.2-0.9,0.5-1.2,0.9c-0.3,0.4-0.6,0.8-0.8,1.3
		c-0.2,0.5-0.3,1-0.3,1.6s0.1,1.1,0.3,1.6c0.2,0.5,0.5,0.9,0.8,1.3c0.3,0.4,0.8,0.7,1.2,0.9c0.5,0.2,1,0.3,1.6,0.3s1.1-0.1,1.6-0.3
		c0.5-0.2,0.9-0.5,1.2-0.9c0.3-0.4,0.6-0.8,0.8-1.3s0.3-1,0.3-1.6C224.9,152,224.8,151.4,224.6,150.9z"/>
	<path class="st0" d="M236.9,158.3l-2.9-4h-2.6v4h-2v-11.6h5.2c0.7,0,1.3,0.1,1.8,0.3c0.5,0.2,1,0.4,1.4,0.7
		c0.4,0.3,0.7,0.7,0.9,1.2c0.2,0.5,0.3,1,0.3,1.5c0,0.5-0.1,0.9-0.2,1.3c-0.1,0.4-0.3,0.7-0.6,1c-0.2,0.3-0.5,0.5-0.9,0.7
		c-0.3,0.2-0.7,0.4-1.1,0.5l3.1,4.4H236.9z M236.3,149.1c-0.4-0.3-1-0.5-1.8-0.5h-3v3.9h3c0.7,0,1.3-0.2,1.7-0.5
		c0.4-0.4,0.6-0.8,0.6-1.4C236.9,149.9,236.7,149.4,236.3,149.1z"/>
	<path class="st0" d="M246.3,158.3h-2v-9.7h-3.7v-1.9h9.4v1.9h-3.7V158.3z"/>
	<path class="st0" d="M265.1,158.5l-1.5-1.6c-0.5,0.5-1,0.8-1.6,1.1c-0.6,0.3-1.2,0.4-1.9,0.4c-0.5,0-1-0.1-1.5-0.2
		c-0.5-0.2-0.9-0.4-1.2-0.7c-0.3-0.3-0.6-0.6-0.8-1.1c-0.2-0.4-0.3-0.9-0.3-1.4c0-0.8,0.2-1.4,0.6-1.9c0.4-0.5,1-1,1.8-1.3
		c-0.3-0.4-0.6-0.8-0.7-1.2c-0.2-0.4-0.2-0.8-0.2-1.2c0-0.4,0.1-0.8,0.2-1.1c0.2-0.4,0.4-0.7,0.7-0.9c0.3-0.3,0.6-0.5,1-0.6
		c0.4-0.2,0.9-0.2,1.4-0.2c0.5,0,0.9,0.1,1.3,0.2c0.4,0.1,0.7,0.3,1,0.6c0.3,0.3,0.5,0.6,0.6,0.9c0.1,0.3,0.2,0.7,0.2,1.1
		c0,0.8-0.2,1.4-0.7,1.9c-0.5,0.5-1.1,0.9-1.9,1.1l2,2c0.2-0.3,0.4-0.7,0.6-1.1s0.4-0.8,0.6-1.2l1.5,0.8c-0.2,0.5-0.5,0.9-0.7,1.4
		c-0.3,0.4-0.5,0.9-0.8,1.3l1.8,1.9L265.1,158.5z M259.9,153.1c-0.5,0.2-0.9,0.5-1.2,0.9c-0.2,0.3-0.4,0.7-0.4,1.1
		c0,0.5,0.2,0.9,0.5,1.2c0.4,0.3,0.8,0.5,1.4,0.5c0.4,0,0.8-0.1,1.1-0.3c0.4-0.2,0.7-0.4,1-0.7L259.9,153.1z M262,148.5
		c-0.2-0.2-0.6-0.4-1-0.4c-0.4,0-0.8,0.1-1,0.4c-0.2,0.3-0.4,0.6-0.4,1c0,0.3,0.1,0.6,0.2,0.8c0.1,0.3,0.4,0.6,0.7,0.9
		c0.6-0.2,1-0.5,1.4-0.8c0.3-0.3,0.5-0.6,0.5-1.1C262.4,149.1,262.2,148.7,262,148.5z"/>
	<path class="st0" d="M275.4,150.4c0.1,0.2,0.2,0.3,0.4,0.5c0.2,0.1,0.5,0.3,0.8,0.4c0.4,0.1,0.8,0.2,1.4,0.4
		c0.6,0.2,1.1,0.3,1.6,0.5c0.5,0.2,0.9,0.4,1.2,0.7c0.3,0.3,0.5,0.6,0.7,0.9c0.2,0.4,0.2,0.8,0.2,1.3c0,0.6-0.1,1-0.3,1.5
		c-0.2,0.4-0.5,0.8-0.8,1.1c-0.4,0.3-0.8,0.5-1.3,0.7c-0.5,0.2-1.1,0.2-1.7,0.2c-0.9,0-1.7-0.2-2.6-0.5s-1.6-0.8-2.3-1.4l1.2-1.5
		c0.6,0.5,1.1,0.9,1.7,1.1c0.6,0.3,1.2,0.4,2,0.4c0.6,0,1.1-0.1,1.5-0.4c0.4-0.3,0.6-0.6,0.6-1.1c0-0.2,0-0.4-0.1-0.6
		c-0.1-0.2-0.2-0.3-0.4-0.5c-0.2-0.1-0.5-0.3-0.8-0.4s-0.8-0.2-1.3-0.4c-0.6-0.1-1.2-0.3-1.6-0.5c-0.5-0.2-0.9-0.4-1.2-0.7
		c-0.3-0.3-0.6-0.6-0.7-1c-0.2-0.4-0.3-0.8-0.3-1.4c0-0.5,0.1-1,0.3-1.4c0.2-0.4,0.5-0.8,0.8-1.1c0.3-0.3,0.8-0.5,1.2-0.7
		s1-0.2,1.6-0.2c0.8,0,1.6,0.1,2.3,0.4c0.7,0.2,1.3,0.6,1.9,1.1l-1.1,1.5c-0.5-0.4-1.1-0.7-1.6-0.9c-0.5-0.2-1-0.3-1.6-0.3
		c-0.6,0-1.1,0.1-1.4,0.4c-0.3,0.3-0.5,0.6-0.5,1C275.3,150,275.3,150.2,275.4,150.4z"/>
	<path class="st0" d="M292.7,152.3c-0.2,0.5-0.6,0.9-1,1.2c-0.4,0.3-0.9,0.6-1.5,0.8c-0.6,0.2-1.2,0.3-1.8,0.3h-2.3v3.7h-2v-11.6
		h4.6c0.7,0,1.3,0.1,1.8,0.3c0.5,0.2,1,0.4,1.4,0.8c0.4,0.3,0.7,0.7,0.9,1.2c0.2,0.5,0.3,1,0.3,1.6
		C293.1,151.3,293,151.8,292.7,152.3z M290.4,149.1c-0.5-0.3-1.1-0.5-1.8-0.5h-2.4v4.2h2.4c0.8,0,1.4-0.2,1.8-0.6
		c0.4-0.4,0.7-0.9,0.7-1.5C291,150,290.8,149.4,290.4,149.1z"/>
	<path class="st0" d="M306.3,158.3h-2.1l-1.2-2.8h-5.5l-1.2,2.8h-2.1l5.1-11.7h1.9L306.3,158.3z M300.2,149.1l-2,4.6h4L300.2,149.1z
		"/>
</g>
<g>
	<path class="st0" d="M58.8,177.2c-0.3,0.2-0.6,0.4-0.9,0.6c-0.3,0.2-0.7,0.3-1.1,0.4c-0.4,0.1-0.8,0.1-1.3,0.1
		c-0.7,0-1.4-0.1-2.1-0.4c-0.6-0.3-1.2-0.6-1.6-1.1c-0.5-0.5-0.8-1-1.1-1.7c-0.3-0.6-0.4-1.3-0.4-2.1c0-0.7,0.1-1.4,0.4-2
		c0.3-0.6,0.6-1.2,1.1-1.7c0.5-0.5,1-0.9,1.7-1.1c0.6-0.3,1.3-0.4,2.1-0.4c0.5,0,0.9,0,1.3,0.1c0.4,0.1,0.7,0.2,1.1,0.3
		s0.6,0.3,0.9,0.5s0.5,0.4,0.8,0.6l-1.1,1.3c-0.4-0.4-0.8-0.7-1.3-0.9c-0.5-0.2-1-0.3-1.6-0.3c-0.5,0-0.9,0.1-1.3,0.3
		c-0.4,0.2-0.8,0.4-1.1,0.8c-0.3,0.3-0.5,0.7-0.7,1.1s-0.2,0.9-0.2,1.4c0,0.5,0.1,1,0.2,1.4c0.2,0.4,0.4,0.8,0.7,1.2
		c0.3,0.3,0.7,0.6,1.1,0.8c0.4,0.2,0.9,0.3,1.3,0.3c0.6,0,1.2-0.1,1.6-0.4c0.4-0.2,0.9-0.6,1.3-1l1.1,1.2
		C59.4,176.7,59.1,177,58.8,177.2z"/>
	<path class="st0" d="M71.3,175c-0.3,0.6-0.6,1.2-1.1,1.7c-0.5,0.5-1,0.9-1.7,1.1s-1.4,0.4-2.2,0.4c-0.8,0-1.5-0.1-2.2-0.4
		c-0.6-0.3-1.2-0.7-1.7-1.1c-0.5-0.5-0.8-1-1.1-1.7c-0.3-0.6-0.4-1.3-0.4-2s0.1-1.4,0.4-2c0.3-0.6,0.6-1.2,1.1-1.7
		c0.5-0.5,1-0.9,1.7-1.1c0.6-0.3,1.4-0.4,2.2-0.4c0.8,0,1.5,0.1,2.2,0.4c0.6,0.3,1.2,0.7,1.7,1.1c0.5,0.5,0.8,1,1.1,1.7
		c0.3,0.6,0.4,1.3,0.4,2S71.6,174.4,71.3,175z M69.6,171.6c-0.2-0.4-0.4-0.8-0.7-1.2c-0.3-0.3-0.7-0.6-1.1-0.8
		c-0.4-0.2-0.9-0.3-1.4-0.3c-0.5,0-1,0.1-1.4,0.3c-0.4,0.2-0.8,0.4-1.1,0.8c-0.3,0.3-0.5,0.7-0.7,1.1c-0.2,0.4-0.3,0.9-0.3,1.4
		c0,0.5,0.1,1,0.3,1.4c0.2,0.4,0.4,0.8,0.7,1.2c0.3,0.3,0.7,0.6,1.1,0.8c0.4,0.2,0.9,0.3,1.4,0.3s1-0.1,1.4-0.3
		c0.4-0.2,0.8-0.4,1.1-0.8c0.3-0.3,0.5-0.7,0.7-1.1c0.2-0.4,0.3-0.9,0.3-1.4C69.8,172.5,69.7,172.1,69.6,171.6z"/>
	<path class="st0" d="M80.5,178.1l-2.7-3.9l-2.7,3.9h-2l3.7-5.2l-3.6-5h2.1l2.5,3.6l2.5-3.6h2l-3.5,5l3.7,5.2H80.5z"/>
	<path class="st0" d="M84.9,169.9h-0.7v-2h1.9v1.7c0,0.8-0.2,1.4-0.6,1.8c-0.4,0.4-0.9,0.6-1.7,0.6l-0.2-0.8
		C84.6,171.1,85,170.6,84.9,169.9z"/>
	<path class="st0" d="M90,171.1c0.1,0.1,0.2,0.3,0.4,0.4c0.2,0.1,0.4,0.2,0.7,0.3c0.3,0.1,0.7,0.2,1.2,0.3c0.5,0.1,1,0.3,1.4,0.5
		c0.4,0.2,0.8,0.4,1,0.6s0.5,0.5,0.6,0.8c0.1,0.3,0.2,0.7,0.2,1.1c0,0.5-0.1,0.9-0.3,1.3c-0.2,0.4-0.4,0.7-0.7,1
		c-0.3,0.3-0.7,0.5-1.1,0.6c-0.4,0.1-0.9,0.2-1.5,0.2c-0.8,0-1.5-0.1-2.3-0.4c-0.7-0.3-1.4-0.7-2-1.2l1.1-1.3c0.5,0.4,1,0.8,1.5,1
		s1.1,0.3,1.7,0.3c0.6,0,1-0.1,1.3-0.3c0.3-0.2,0.5-0.5,0.5-0.9c0-0.2,0-0.3-0.1-0.5c-0.1-0.1-0.2-0.3-0.3-0.4
		c-0.2-0.1-0.4-0.2-0.7-0.3s-0.7-0.2-1.2-0.3c-0.5-0.1-1-0.3-1.5-0.4c-0.4-0.2-0.8-0.3-1.1-0.6s-0.5-0.5-0.7-0.8
		c-0.2-0.3-0.2-0.7-0.2-1.2c0-0.4,0.1-0.9,0.3-1.2c0.2-0.4,0.4-0.7,0.7-0.9s0.7-0.5,1.1-0.6s0.9-0.2,1.4-0.2c0.7,0,1.4,0.1,2,0.3
		s1.2,0.5,1.7,1l-1,1.4c-0.5-0.3-0.9-0.6-1.4-0.8c-0.5-0.2-0.9-0.3-1.4-0.3c-0.5,0-0.9,0.1-1.2,0.4c-0.3,0.2-0.4,0.5-0.4,0.9
		C89.8,170.8,89.9,170.9,90,171.1z"/>
	<path class="st0" d="M109,168.6c0.6,0.5,0.9,1.1,0.9,1.9c0,0.3,0,0.6-0.1,0.8c-0.1,0.2-0.2,0.5-0.3,0.6c-0.1,0.2-0.3,0.3-0.5,0.5
		c-0.2,0.1-0.4,0.3-0.5,0.3c0.3,0.1,0.6,0.2,0.8,0.4c0.2,0.1,0.5,0.3,0.6,0.5s0.3,0.4,0.4,0.7c0.1,0.3,0.1,0.6,0.1,0.9
		c0,0.5-0.1,0.9-0.3,1.2c-0.2,0.3-0.4,0.6-0.8,0.9c-0.3,0.2-0.7,0.4-1.2,0.5c-0.5,0.1-1,0.2-1.5,0.2H102v-10.2h4.6
		C107.6,167.9,108.4,168.1,109,168.6z M107.6,171.9c0.3-0.2,0.5-0.6,0.5-1.1c0-0.4-0.2-0.7-0.5-1s-0.7-0.3-1.3-0.3h-2.6v2.7h2.4
		C106.8,172.2,107.3,172.1,107.6,171.9z M108.2,176.1c0.3-0.2,0.5-0.6,0.5-1.1c0-0.4-0.2-0.8-0.5-1c-0.3-0.2-0.9-0.4-1.6-0.4h-2.8
		v2.8h3C107.4,176.5,107.8,176.4,108.2,176.1z"/>
	<path class="st0" d="M122.2,178.1h-1.9l-1-2.5h-4.8l-1,2.5h-1.8l4.5-10.2h1.7L122.2,178.1z M116.9,170l-1.7,4.1h3.5L116.9,170z"/>
	<path class="st0" d="M123.8,169.5v-1.6h8.1v1.3l-6,7.3h6v1.6h-8.3v-1.3l6-7.3H123.8z"/>
	<path class="st0" d="M143.9,178.1H142l-1-2.5h-4.8l-1,2.5h-1.8l4.5-10.2h1.7L143.9,178.1z M138.6,170l-1.7,4.1h3.5L138.6,170z"/>
	<path class="st0" d="M152.2,178.1l-2.5-3.5h-2.2v3.5h-1.8v-10.2h4.5c0.6,0,1.1,0.1,1.6,0.2c0.5,0.2,0.9,0.4,1.2,0.6
		c0.3,0.3,0.6,0.6,0.7,1c0.2,0.4,0.3,0.9,0.3,1.3c0,0.4-0.1,0.8-0.2,1.1s-0.3,0.6-0.5,0.9c-0.2,0.3-0.5,0.5-0.8,0.7
		c-0.3,0.2-0.6,0.3-1,0.4l2.7,3.9H152.2z M151.6,170c-0.4-0.3-0.9-0.4-1.6-0.4h-2.6v3.4h2.6c0.6,0,1.2-0.2,1.5-0.5
		c0.4-0.3,0.6-0.7,0.6-1.3C152.2,170.7,152,170.2,151.6,170z"/>
	<path class="st0" d="M156.6,178.1h-0.7v-2h1.9v1.7c0,0.8-0.2,1.4-0.6,1.8s-0.9,0.6-1.7,0.6l-0.2-0.7
		C156.3,179.3,156.7,178.8,156.6,178.1z"/>
	<path class="st0" d="M171.4,168.6c0.6,0.5,0.9,1.1,0.9,1.9c0,0.3,0,0.6-0.1,0.8c-0.1,0.2-0.2,0.5-0.3,0.6c-0.1,0.2-0.3,0.3-0.5,0.5
		c-0.2,0.1-0.4,0.3-0.5,0.3c0.3,0.1,0.6,0.2,0.8,0.4c0.2,0.1,0.5,0.3,0.6,0.5c0.2,0.2,0.3,0.4,0.4,0.7c0.1,0.3,0.1,0.6,0.1,0.9
		c0,0.5-0.1,0.9-0.3,1.2c-0.2,0.3-0.4,0.6-0.8,0.9c-0.3,0.2-0.7,0.4-1.2,0.5c-0.5,0.1-1,0.2-1.5,0.2h-4.7v-10.2h4.6
		C170,167.9,170.8,168.1,171.4,168.6z M170,171.9c0.3-0.2,0.5-0.6,0.5-1.1c0-0.4-0.2-0.7-0.5-1c-0.3-0.2-0.7-0.3-1.3-0.3h-2.6v2.7
		h2.4C169.2,172.2,169.7,172.1,170,171.9z M170.6,176.1c0.3-0.2,0.5-0.6,0.5-1.1c0-0.4-0.2-0.8-0.5-1c-0.3-0.2-0.9-0.4-1.6-0.4h-2.8
		v2.8h3C169.8,176.5,170.3,176.4,170.6,176.1z"/>
	<path class="st0" d="M184.7,178.1h-1.9l-1-2.5h-4.8l-1,2.5h-1.8l4.5-10.2h1.7L184.7,178.1z M179.3,170l-1.7,4.1h3.5L179.3,170z"/>
	<path class="st0" d="M193.5,167.9h1.8v10.2h-1.5l-5.6-7.2v7.2h-1.8v-10.2h1.7l5.4,7V167.9z"/>
	<path class="st0" d="M206.1,177.3c-0.3,0.2-0.6,0.4-1,0.5c-0.4,0.1-0.7,0.3-1.1,0.3c-0.4,0.1-0.8,0.1-1.3,0.1
		c-0.8,0-1.5-0.1-2.2-0.4c-0.6-0.3-1.2-0.6-1.7-1.1c-0.5-0.5-0.8-1-1.1-1.7c-0.3-0.6-0.4-1.3-0.4-2.1c0-0.7,0.1-1.4,0.4-2
		c0.3-0.6,0.6-1.2,1.1-1.7c0.5-0.5,1-0.9,1.7-1.1c0.6-0.3,1.3-0.4,2.1-0.4c0.4,0,0.9,0,1.2,0.1c0.4,0.1,0.7,0.2,1,0.3
		c0.3,0.1,0.6,0.3,0.9,0.4c0.3,0.2,0.5,0.4,0.8,0.6l-1.1,1.4c-0.2-0.2-0.4-0.3-0.6-0.5c-0.2-0.1-0.4-0.2-0.6-0.3
		c-0.2-0.1-0.5-0.2-0.7-0.2c-0.3-0.1-0.6-0.1-0.9-0.1c-0.5,0-0.9,0.1-1.3,0.3c-0.4,0.2-0.8,0.4-1,0.8c-0.3,0.3-0.5,0.7-0.7,1.2
		c-0.2,0.4-0.3,0.9-0.3,1.4c0,0.5,0.1,1,0.2,1.5c0.2,0.4,0.4,0.8,0.7,1.2c0.3,0.3,0.7,0.6,1.1,0.8s0.9,0.3,1.4,0.3
		c0.5,0,0.9-0.1,1.4-0.2c0.4-0.1,0.8-0.3,1.1-0.6V174h-2.6v-1.6h4.3v4.3C206.7,176.9,206.4,177.1,206.1,177.3z"/>
	<path class="st0" d="M209.3,167.9h1.8v8.6h5.3v1.6h-7.1V167.9z"/>
	<path class="st0" d="M228,178.1h-1.9l-1-2.5h-4.8l-1,2.5h-1.8l4.5-10.2h1.7L228,178.1z M222.7,170L221,174h3.5L222.7,170z"/>
	<path class="st0" d="M238.6,175c-0.3,0.6-0.6,1.2-1.1,1.6c-0.5,0.5-1.1,0.8-1.7,1.1c-0.7,0.3-1.4,0.4-2.2,0.4h-3.8v-10.2h3.8
		c0.8,0,1.5,0.1,2.2,0.4c0.7,0.3,1.2,0.6,1.7,1.1c0.5,0.5,0.9,1,1.1,1.6s0.4,1.3,0.4,2S238.8,174.4,238.6,175z M236.8,171.6
		c-0.2-0.4-0.4-0.8-0.7-1.1c-0.3-0.3-0.7-0.6-1.1-0.7c-0.4-0.2-0.9-0.3-1.5-0.3h-2v6.9h2c0.5,0,1-0.1,1.5-0.3
		c0.4-0.2,0.8-0.4,1.1-0.7c0.3-0.3,0.5-0.7,0.7-1.1c0.2-0.4,0.3-0.9,0.3-1.4C237.1,172.5,237,172,236.8,171.6z"/>
	<path class="st0" d="M248.7,169.5h-5.8v2.6h5.1v1.6h-5.1v2.7h5.8v1.6h-7.6v-10.2h7.5V169.5z"/>
	<path class="st0" d="M252.5,171.1c0.1,0.1,0.2,0.3,0.4,0.4c0.2,0.1,0.4,0.2,0.7,0.3c0.3,0.1,0.7,0.2,1.2,0.3c0.5,0.1,1,0.3,1.4,0.5
		c0.4,0.2,0.8,0.4,1,0.6c0.3,0.2,0.5,0.5,0.6,0.8c0.1,0.3,0.2,0.7,0.2,1.1c0,0.5-0.1,0.9-0.3,1.3c-0.2,0.4-0.4,0.7-0.7,1
		c-0.3,0.3-0.7,0.5-1.1,0.6c-0.4,0.1-0.9,0.2-1.5,0.2c-0.8,0-1.5-0.1-2.3-0.4c-0.7-0.3-1.4-0.7-2-1.2l1.1-1.3c0.5,0.4,1,0.8,1.5,1
		c0.5,0.2,1.1,0.3,1.7,0.3c0.6,0,1-0.1,1.3-0.3c0.3-0.2,0.5-0.5,0.5-0.9c0-0.2,0-0.3-0.1-0.5c-0.1-0.1-0.2-0.3-0.4-0.4
		c-0.2-0.1-0.4-0.2-0.7-0.3c-0.3-0.1-0.7-0.2-1.2-0.3c-0.5-0.1-1-0.3-1.4-0.4c-0.4-0.2-0.8-0.3-1.1-0.6c-0.3-0.2-0.5-0.5-0.7-0.8
		c-0.2-0.3-0.2-0.7-0.2-1.2c0-0.4,0.1-0.9,0.3-1.2c0.2-0.4,0.4-0.7,0.7-0.9c0.3-0.3,0.7-0.5,1.1-0.6c0.4-0.1,0.9-0.2,1.4-0.2
		c0.7,0,1.4,0.1,2,0.3c0.6,0.2,1.2,0.5,1.7,1l-1,1.4c-0.5-0.3-0.9-0.6-1.4-0.8c-0.5-0.2-0.9-0.3-1.4-0.3c-0.5,0-0.9,0.1-1.2,0.4
		c-0.3,0.2-0.4,0.5-0.4,0.9C252.4,170.8,252.4,170.9,252.5,171.1z"/>
	<path class="st0" d="M262,173.8v4.3h-1.8v-10.2h1.8v4.2h4.9v-4.2h1.8v10.2h-1.8v-4.3H262z"/>
</g>
<g>
	<g>
		<polygon class="st0" points="67.4,113.5 68.5,113.5 68.5,122.2 74,122.2 74,123.2 67.4,123.2 		"/>
	</g>
	<g>
		<path class="st0" d="M81.1,119.1v-5.6h1.1v5.6c0,2.1,1.1,3.3,3,3.3c1.8,0,2.9-1.1,2.9-3.2v-5.6h1.1v5.6c0,2.8-1.6,4.3-4.1,4.3
			C82.8,123.4,81.1,121.9,81.1,119.1"/>
	</g>
	<g>
		<polygon class="st0" points="100.2,118.3 96.6,113.5 97.9,113.5 100.9,117.5 103.8,113.5 105.1,113.5 101.5,118.2 105.2,123.2 
			103.9,123.2 100.8,119 97.7,123.2 96.5,123.2 		"/>
	</g>
	<g>
		<path class="st0" d="M112.5,119.1v-5.6h1.1v5.6c0,2.1,1.1,3.3,3,3.3c1.8,0,2.9-1.1,2.9-3.2v-5.6h1.1v5.6c0,2.8-1.6,4.3-4,4.3
			C114.1,123.4,112.5,121.9,112.5,119.1"/>
	</g>
	<g>
		<path class="st0" d="M128.7,113.5h4.2c1.2,0,2.2,0.4,2.8,1c0.5,0.5,0.8,1.2,0.8,1.9v0c0,1.6-1.1,2.6-2.6,2.8l3,4h-1.3l-2.8-3.8h0
			h-2.7v3.8h-1.1V113.5z M132.8,118.4c1.5,0,2.5-0.7,2.5-2v0c0-1.2-0.9-1.9-2.5-1.9h-3v3.9H132.8z"/>
	</g>
	<g>
		<polygon class="st0" points="147,119.4 142.9,113.5 144.3,113.5 147.5,118.3 150.8,113.5 152.1,113.5 148.1,119.3 148.1,123.2 
			147,123.2 		"/>
	</g>
	<g>
		<polygon class="st0" points="169.1,113.5 170.2,113.5 170.2,117.8 175.8,117.8 175.8,113.5 176.9,113.5 176.9,123.2 175.8,123.2 
			175.8,118.8 170.2,118.8 170.2,123.2 169.1,123.2 		"/>
	</g>
	<g>
		<path class="st0" d="M184.8,118.4L184.8,118.4c0-2.7,2-5,5-5c2.9,0,4.9,2.3,4.9,5c0,0,0,0,0,0c0,2.7-2,5-5,5
			C186.7,123.4,184.8,121.1,184.8,118.4 M193.5,118.4L193.5,118.4c0-2.2-1.6-4-3.8-4c-2.2,0-3.8,1.8-3.8,4v0c0,2.2,1.6,4,3.8,4
			C191.9,122.4,193.5,120.6,193.5,118.4"/>
	</g>
	<g>
		<polygon class="st0" points="204.4,114.5 201.2,114.5 201.2,113.5 208.8,113.5 208.8,114.5 205.5,114.5 205.5,123.2 204.4,123.2 
					"/>
	</g>
	<g>
		<polygon class="st0" points="216.4,113.5 223.4,113.5 223.4,114.5 217.5,114.5 217.5,117.8 222.8,117.8 222.8,118.8 217.5,118.8 
			217.5,122.2 223.5,122.2 223.5,123.2 216.4,123.2 		"/>
	</g>
	<g>
		<polygon class="st0" points="231.2,113.5 232.3,113.5 232.3,122.2 237.8,122.2 237.8,123.2 231.2,123.2 		"/>
	</g>
	<g>
		<path class="st0" d="M244.7,121.8l0.7-0.8c1,0.9,2,1.4,3.3,1.4c1.3,0,2.2-0.7,2.2-1.7v0c0-0.9-0.5-1.4-2.5-1.8
			c-2.2-0.5-3.3-1.2-3.3-2.8v0c0-1.5,1.3-2.6,3.2-2.6c1.4,0,2.4,0.4,3.4,1.2l-0.6,0.8c-0.9-0.7-1.8-1.1-2.8-1.1
			c-1.3,0-2.1,0.7-2.1,1.6v0c0,0.9,0.5,1.4,2.6,1.9c2.2,0.5,3.2,1.3,3.2,2.7v0c0,1.7-1.4,2.7-3.3,2.7
			C247.1,123.3,245.9,122.8,244.7,121.8"/>
	</g>
	<g>
		<polygon class="st0" points="67.4,113.5 68.5,113.5 68.5,122.2 74,122.2 74,123.2 67.4,123.2 		"/>
	</g>
	<g>
		<path class="st0" d="M81.1,119.1v-5.6h1.1v5.6c0,2.1,1.1,3.3,3,3.3c1.8,0,2.9-1.1,2.9-3.2v-5.6h1.1v5.6c0,2.8-1.6,4.3-4,4.3
			C82.7,123.4,81.1,121.9,81.1,119.1"/>
	</g>
	<g>
		<polygon class="st0" points="100.2,118.2 96.6,113.5 97.9,113.5 100.8,117.5 103.8,113.5 105.1,113.5 101.5,118.2 105.2,123.2 
			103.9,123.2 100.8,119 97.7,123.2 96.4,123.2 		"/>
	</g>
	<g>
		<path class="st0" d="M112.5,119.1v-5.6h1.1v5.6c0,2.1,1.1,3.3,3,3.3c1.8,0,2.9-1.1,2.9-3.2v-5.6h1.1v5.6c0,2.8-1.6,4.3-4,4.3
			C114.1,123.4,112.5,121.9,112.5,119.1"/>
	</g>
	<g>
		<path class="st0" d="M128.7,113.5h4.2c1.2,0,2.2,0.4,2.8,1c0.5,0.5,0.7,1.2,0.7,1.9v0c0,1.6-1.1,2.6-2.6,2.8l3,4h-1.3l-2.8-3.8h0
			h-2.7v3.8h-1.1V113.5z M132.8,118.4c1.5,0,2.5-0.7,2.5-2v0c0-1.2-0.9-1.9-2.5-1.9h-3v3.9H132.8z"/>
	</g>
	<g>
		<polygon class="st0" points="146.9,119.4 142.9,113.5 144.2,113.5 147.5,118.3 150.8,113.5 152.1,113.5 148,119.3 148,123.2 
			146.9,123.2 		"/>
	</g>
	<g>
		<polygon class="st0" points="169.1,113.5 170.2,113.5 170.2,117.8 175.8,117.8 175.8,113.5 176.8,113.5 176.8,123.2 175.8,123.2 
			175.8,118.8 170.2,118.8 170.2,123.2 169.1,123.2 		"/>
	</g>
	<g>
		<path class="st0" d="M184.7,118.4L184.7,118.4c0-2.7,2-5,5-5c2.9,0,4.9,2.3,4.9,5c0,0,0,0,0,0c0,2.7-2,5-5,5
			C186.7,123.4,184.7,121.1,184.7,118.4 M193.5,118.4L193.5,118.4c0-2.2-1.6-4-3.8-4c-2.2,0-3.8,1.8-3.8,4v0c0,2.2,1.6,4,3.8,4
			C191.9,122.4,193.5,120.6,193.5,118.4"/>
	</g>
	<g>
		<polygon class="st0" points="204.4,114.5 201.1,114.5 201.1,113.5 208.7,113.5 208.7,114.5 205.5,114.5 205.5,123.2 204.4,123.2 
					"/>
	</g>
	<g>
		<polygon class="st0" points="216.3,113.5 223.3,113.5 223.3,114.5 217.4,114.5 217.4,117.8 222.7,117.8 222.7,118.8 217.4,118.8 
			217.4,122.2 223.4,122.2 223.4,123.2 216.3,123.2 		"/>
	</g>
	<g>
		<polygon class="st0" points="231.1,113.5 232.2,113.5 232.2,122.2 237.7,122.2 237.7,123.2 231.1,123.2 		"/>
	</g>
	<g>
		<path class="st0" d="M244.6,121.8l0.7-0.8c1,0.9,2,1.4,3.3,1.4c1.3,0,2.2-0.7,2.2-1.7v0c0-0.9-0.5-1.4-2.5-1.8
			c-2.2-0.5-3.3-1.2-3.3-2.8v0c0-1.5,1.3-2.6,3.2-2.6c1.4,0,2.4,0.4,3.4,1.2l-0.6,0.8c-0.9-0.7-1.8-1.1-2.8-1.1
			c-1.3,0-2.1,0.7-2.1,1.6v0c0,0.9,0.5,1.4,2.6,1.9c2.2,0.5,3.2,1.3,3.2,2.7v0c0,1.7-1.4,2.7-3.3,2.7
			C247,123.3,245.8,122.8,244.6,121.8"/>
	</g>
</g>
<g>
	<g>
		<path class="st0" d="M28.1,91.5L28.1,91.5L28.1,91.5z"/>
	</g>
	<g>
		<path class="st0" d="M22.8,103.4l-6.1-8.7H11v8.7H6.9V78.7h11c3,0,5.5,0.9,7.1,2.5c1.3,1.4,2,3.2,2,5.3v0.1c0,3.7-2.1,6.3-5.9,7.4
			L21,94l6.7,9.4H22.8z M11,91h6.6c3.2,0,5.3-1.7,5.3-4.3v-0.1c0-2.7-1.9-4.3-5.3-4.3H11V91z"/>
	</g>
	<g>
		<polygon class="st0" points="201.4,78.5 201.4,82.2 193.2,82.2 193.2,103.5 189.1,103.5 189.1,82.2 180.8,82.2 180.8,78.5 		"/>
	</g>
	<g>
		<path class="st0" d="M213.6,93.7V80.4h4.1v13.1c0,4.3,2.2,6.6,5.8,6.6c3.6,0,5.8-2.2,5.8-6.4V80.4h4.1v13.1
			c0,6.9-3.9,10.4-9.9,10.4C217.5,103.9,213.6,100.4,213.6,93.7"/>
	</g>
	<g>
		<polygon class="st0" points="247.2,80.4 251.3,80.4 251.3,99.8 263.4,99.8 263.4,103.5 247.2,103.5 		"/>
	</g>
	<g>
		<rect x="276.1" y="80.4" class="st0" width="4.1" height="23.1"/>
	</g>
	<g>
		<path class="st0" d="M294.6,80.4h9.1c5.4,0,8.8,3.1,8.8,7.7v0.1c0,5.2-4.2,7.9-9.2,7.9h-4.6v7.4h-4.1V80.4z M303.4,92.4
			c3.1,0,5-1.7,5-4.1v-0.1c0-2.7-1.9-4.1-5-4.1h-4.7v8.3H303.4z"/>
	</g>
	<g>
		<path class="st0" d="M38.1,92L38.1,92c0-6.6,5-12,12.1-12c7.1,0,12,5.4,12,11.9v0.1c0,6.5-5,11.9-12.1,11.9
			C43,103.9,38.1,98.5,38.1,92 M58,92L58,92c0-4.6-3.3-8.3-7.9-8.3c-4.6,0-7.8,3.7-7.8,8.2v0.1c0,4.5,3.3,8.2,7.9,8.2
			C54.8,100.2,58,96.5,58,92"/>
	</g>
	<g>
		<polygon class="st0" points="80.2,94.4 71,80.4 75.8,80.4 82.3,90.6 88.8,80.4 93.5,80.4 84.3,94.3 84.3,103.5 80.2,103.5 		"/>
	</g>
	<g>
		<path class="st0" d="M109.8,80.2h3.8l10.2,23.3h-4.3l-2.3-5.6h-10.9l-2.4,5.6h-4.2L109.8,80.2z M115.7,94.3l-4-9.2l-4,9.2H115.7z"
			/>
	</g>
	<g>
		<polygon class="st0" points="136,80.4 140,80.4 140,99.8 152.2,99.8 152.2,103.5 136,103.5 		"/>
	</g>
</g>
<g>
	<g>
		<path class="st0" d="M146.3,42.1c-1.2-0.7-3.5-3.1-6.1-6.9c-2.6-3.8-1.8-13.4-1.8-13.4c-1.7,3.3-2.6,7.1-2.6,11
			c0,12.2,8.8,22.4,20.3,24.1C156.1,56.9,156.9,48.2,146.3,42.1"/>
	</g>
	<g>
		<path class="st0" d="M163.2,56.9c11.5-1.8,20.3-11.9,20.3-24.1c0-4-0.9-7.7-2.6-11c0,0,0.8,9.6-1.8,13.4c-2.6,3.8-4.9,6.3-6.1,6.9
			C162.4,48.2,163.2,56.9,163.2,56.9"/>
	</g>
	<g>
		<path class="st0" d="M152,15.7c-1.5-2.4-6.8-1.7-6.8-1.7c2.6,2.6,2.5,4.2,2.5,4.2v18.6c0,2.8,2.2,5,4.9,5h5.5v15.4h3.5V41.8h5.5
			L152,15.7z"/>
	</g>
	<g>
		<path class="st0" d="M169.5,41c1.4-0.9,2.5-2.5,2.5-4.3V18.2c0,0-0.1-1.6,2.5-4.2c0,0-5.3-0.8-6.8,1.7l-6.3,11.1L169.5,41z"/>
	</g>
	<g>
		<path class="st0" d="M159.8,24.2l6.4-10.9c-1.8-1.4-4-2.2-6.5-2.2c-2.4,0-4.5,1-6.3,2.3L159.8,24.2z"/>
	</g>
</g>
</svg>
