<?xml version="1.0" encoding="utf-8"?>
<!-- Generator: Adobe Illustrator 19.1.0, SVG Export Plug-In . SVG Version: 6.00 Build 0)  -->
<svg version="1.1" id="Layer_1" xmlns="http://www.w3.org/2000/svg" xmlns:xlink="http://www.w3.org/1999/xlink" x="0px" y="0px"
	 viewBox="0 0 160 90" style="enable-background:new 0 0 160 90;" xml:space="preserve">
<style type="text/css">
	.st0{fill:#BBBBBB;}
</style>
<g>
	<path class="st0" d="M62.7,16.1l0.8-6.9h0.6l3.5,8.5l2.7-1.3l-5-7.2V9c0,0,5,0,7-5c-0.1-0.3-0.5-0.4-0.5-0.4s-2.6,5.1-8.3,4.7
		c0-0.3,0.8-5.6,0.8-5.6l-1.8-0.1L60,16L62.7,16.1z"/>
	<circle class="st0" cx="67.7" cy="10.3" r="0.6"/>
	<circle class="st0" cx="68.7" cy="12" r="0.6"/>
	<circle class="st0" cx="69.9" cy="13.7" r="0.6"/>
	<circle class="st0" cx="71" cy="15.5" r="0.6"/>
	<path class="st0" d="M96.9,7.5L96,14.9c0,0-0.6-1-2.5-1.5c-1.8-0.5-4.9,1.1-4.7,3.9s1.9,3.3,3.5,3.5c1.6,0.2,2.7-1,2.7-1l0.6,0
		l-0.4,2l1.4,0.2l3.6-14.4H96.9z M96.1,17.4c-0.6,3.3-4,2.6-4.5,2.4C91,19.6,91.4,19,91.4,19s0.4-0.4-0.4-0.5
		c-0.8-0.2-0.6-0.8-0.6-0.8s0.3-0.4,0.7-0.1c0.4,0.3,0.7,0.2,0.8,0.1c0.1-0.1,0.2-0.4-0.5-0.6c-0.7-0.2-0.7-0.5-0.6-0.8
		c0.1-0.3,0.6-0.2,0.8-0.1c0.2,0.1,0.5,0.3,0.7,0c0.2-0.3-0.2-0.4-0.6-0.5c-0.3-0.1-0.8-0.5-0.5-0.8c0.3-0.3,0.6-0.1,0.9,0.2
		c0.3,0.3,0.4-0.3,0.4-0.3c0.1-1,1.1-0.6,1.1-0.6C96.5,14.9,96.1,17.4,96.1,17.4z"/>
	<circle class="st0" cx="95.5" cy="8.4" r="0.7"/>
	<circle class="st0" cx="95.3" cy="10.4" r="0.7"/>
	<circle class="st0" cx="95.1" cy="12.4" r="0.7"/>
	<circle class="st0" cx="81.3" cy="18.4" r="0.7"/>
	<circle class="st0" cx="81.8" cy="16.2" r="0.6"/>
	<circle class="st0" cx="104.4" cy="20.3" r="1"/>
	<path class="st0" d="M102.8,22.5c-0.2-0.4-0.1-0.5,0.2-0.6c0.2-0.1,0.4-0.2,0.9,0.4s1.9,1.5,3,0.7s0.1-2.5,0.1-2.5
		s-0.5-1.1-1.9-2.2c-0.3-0.3-0.7-2.3,1.4-3s3.2,0.2,3.2,0.2s1.4,0.8,1.2,2.1c-0.2,1.3-1.2,1.2-1.2,1.2s-1.4,0.2-1.7-1
		c-0.2-1.2,1-0.7,1-0.7s0.3,0.1,0.1,0.6s0.6,0.3,0.6,0.3s0.7-0.5-0.3-1.4c-1-0.9-2.1-0.4-2.1-0.4s-1.1,0.6-0.8,1.3
		c0.3,0.7,0.9,1.3,2.4,2.2c0.2,0.2,1.1,1,0.2,2.7c-0.9,1.7-2.7,1.7-2.8,1.7C104,24.1,103,22.8,102.8,22.5z"/>
	<circle class="st0" cx="98.2" cy="65.3" r="0.9"/>
	<circle class="st0" cx="88.2" cy="64.8" r="0.9"/>
	<path class="st0" d="M96.7,67.3c-0.2-0.4-0.1-0.5,0.2-0.6c0.2-0.1,0.4-0.2,0.9,0.4c0.5,0.6,1.8,1.5,2.8,0.7c1-0.8,0.1-2.4,0.1-2.4
		s-0.5-1-1.8-2.1c-0.3-0.3-0.7-2.2,1.3-2.9c2-0.7,3,0.2,3,0.2s1.4,0.8,1.2,2c-0.2,1.2-1.2,1.2-1.2,1.2s-1.4,0.2-1.6-1
		c-0.2-1.2,0.9-0.7,0.9-0.7s0.3,0.1,0.1,0.6c-0.2,0.4,0.6,0.3,0.6,0.3s0.7-0.4-0.3-1.3s-2-0.4-2-0.4s-1,0.6-0.8,1.2
		c0.3,0.7,0.9,1.3,2.3,2.1c0.2,0.1,1.1,1,0.2,2.6c-0.9,1.6-2.6,1.6-2.7,1.6C97.9,68.9,96.9,67.7,96.7,67.3z"/>
	<circle class="st0" cx="73.2" cy="35.4" r="0.8"/>
	<circle class="st0" cx="73" cy="46.1" r="0.8"/>
	<circle class="st0" cx="76.1" cy="45.1" r="0.8"/>
	<circle class="st0" cx="78.5" cy="43.5" r="0.8"/>
	<g>
		<path class="st0" d="M83.9,32.5l5-30L79.7,1l-3.8,22.7c0.2-0.1,0.5-0.1,0.6-0.1c0.8,0,4.7,0.1,4.8,4.2s-5.5,5.5-6,5.6
			c1.7,4,4.6,7.9,5.4,8.7c1-1.2,1.9-2.8,2.3-4.1l0.2-1.3c0-0.4-0.1-0.7-0.3-0.9c-1-1-2.1,0.1-2.1,0.1l-1.7,1.3l-1-3.5
			c0,0,2.3-1.9,3.9-1.9C82.9,31.9,83.5,32.3,83.9,32.5z M81.1,8.4c-0.3-0.2-0.4-0.5-0.1-0.7c0.3-0.2,0.3-0.1,0.8,0.1
			C82.3,8,82.5,8,82.4,7.3s0.7-0.6,0.7-0.6c0.1,0,0.5,0,0.4,0.9c-0.1,0.9,0.4,0.6,0.4,0.6s0.7-0.7,0.9-0.1c0.3,0.6,0,0.7-0.5,1
			c-0.5,0.3,0,0.5,0.1,0.6s0.6,0.6,0.3,0.9c-0.3,0.3-0.5-0.2-0.8-0.5s-0.5,0.1-0.5,0.2c0,0.1,0.1,0.8-0.3,0.9
			c-0.4,0.1-0.5-0.5-0.5-0.6c0-0.1,0-0.5-0.2-0.5c-0.2-0.1-0.5,0.2-0.6,0.3c-0.1,0.1-0.6,0.2-0.9-0.1c-0.3-0.3,0.1-0.7,0.2-0.8
			s0.4-0.2,0.7-0.5C82,8.6,81.4,8.5,81.1,8.4z M78.7,19.6l3-8.2l1.8,0.3L83,20.8L78.7,19.6z"/>
		<path class="st0" d="M79.7,27.9c0.3-1-0.3-2.5-1.8-2.9c-0.7-0.2-1.5-0.1-2.2,0.2l-1.1,6.7C79.2,30.6,79.4,28.9,79.7,27.9z"/>
		<path class="st0" d="M82,44.1l0.3-1.9c-0.6,0.8-1,1.3-1,1.3S81.6,43.7,82,44.1z"/>
		<path class="st0" d="M77.9,40.8l-2.8-4.4c-0.5,0.3-1,0.5-1.4,0.8l-1.1,6.9C75.1,43.6,77.9,40.8,77.9,40.8z"/>
		<path class="st0" d="M74.8,57.5c-0.9-0.1-1.9,0.7-1.9,2.2c0,1.1,0.8,2,1.5,2c0.8,0,1.7-0.9,1.7-2C76.1,58.5,75.5,57.6,74.8,57.5z"
			/>
		<path class="st0" d="M71.8,48.6l-6.7,40.6h9.3l7.3-44l-1-1C80.8,44.1,77.2,48.9,71.8,48.6z M79.1,59.1c-0.1,0.8-1.1,0.7-1.1,0.7
			s0,0.7-0.2,1.1c0.2,0.1,1,0.3,0.7,0.8c-0.3,0.5-0.7,0.4-1.1-0.1c0,0-0.7,1-1.9,1.4c0.1,0.2,0.1,1-0.5,1c-0.6,0-0.4-1-0.4-1
			s-1,0-1.8-0.7c-0.1,0.2-0.4,1.1-1.2,0.6c-0.7-0.5,0.5-1.4,0.5-1.4s-0.6-0.6-0.7-0.9c-0.1,0.1-0.9,0.5-1.2-0.1
			c-0.3-0.6,0.7-0.9,0.7-0.9s-0.1-0.8,0.4-1.4c-0.3-0.1-1.1-0.3-0.6-0.9c0.5-0.6,1,0.2,1,0.2s0.3-0.6,1.1-1c-0.1-0.3-0.7-0.9,0-1.2
			c0.7-0.3,0.9,0.8,0.9,0.8s1.3-0.3,2.5,0.3c0.1-0.2,0.7-0.9,1.3-0.3c0.6,0.6-0.4,1.3-0.4,1.3s0.6,0.4,0.8,1.2
			C78.3,58.5,79.2,58.4,79.1,59.1z"/>
	</g>
	<path class="st0" d="M64,48.9l-4.8,6.4l-3.1-7.8c0,0-4.2,12.3-7.4,13.5c0,0-0.2,0.3,0.3,0.5c0.5-0.2,4.1-2.6,5.5-6.6
		c0.2,0.4,2.8,4.6,2.8,4.6l5.2-6.1c0,0,0.3,0,0.3,0.3c-0.2,0.3-1.8,5.8-1.7,8.5c0.4,0,3.6,0,3.6,0l0.9-12.9L64,48.9z M57.3,57.8
		c-0.2-0.3-2.6-4.2-2.6-4.2l1-2.3l2.4,5.6C58.1,56.9,57.8,57.7,57.3,57.8z M63.2,60.5c-0.7,0-1.3-0.5-1.3-0.5
		c1.4-1.7,1.9-4.3,1.9-4.3s0.6,0.1,0.8,0.2C64.6,57.6,63.4,60.3,63.2,60.5z"/>
	<path class="st0" d="M83.9,57.7c0,0,1.3,0.6,1.3,0.6c0,0.1-0.2,1.1-0.2,1.5c0.2-0.1,1.5-1.5,2.5-1.2c1,0.3,1.8,1.2,1.8,1.2
		s1-1,2-0.8s1.8,1.4,1.9,2.7h0.3v0.6v0.2h-1.3v0.9h1.3V64h-1.3v0.6h1.3v0.7h-1.3v0.6h1.3v0.7h-3.4c0,0,1.1-3.7,0.6-5.6
		c-0.5-1.9-2.2,2-2.2,2l-0.2,0c0,0,0.6-2.9-0.9-3.2c-1.5-0.3-2.6,1.5-2.6,1.5s-0.2,0-0.5,3.9c-0.4,0-2.9-0.5-2.9-0.5L83.9,57.7z"/>
	<path class="st0" d="M89.4,34c0,0-1.1,1.7-2.1,1.6s-3.1-2.7-3.1-2.7s-0.1-0.1-0.3-0.3l-0.7,4.2L83,38l-0.7,4.1
		c0.7-1.1,1.7-2.8,2.1-4.8c0.1,0.2,1.2,1.3,2.5,1.3c1.4,0,3.7-2.7,3.7-2.7L89.4,34z"/>
	<path class="st0" d="M75.7,25.2l0.2-1.5c-1,0.4-2.6,1.4-3.1,3c-0.7,2-0.2,4.3,0.6,5.9c0,0-7.3,3-8.3,9.7c-0.1,0.8,0.7,5.7,6.3,6.2
		c0.1,0,0.3,0,0.4,0l0.7-4.5c-0.1,0-0.1,0-0.2,0c-2.6,0.4-3-2.2-2.7-3c0.2-0.7,0.3-1.7,4.1-3.9l0.9-5.3c-0.1,0-0.1,0-0.2,0
		c0,0-1.4-2.5-0.7-4.5C74.1,26.3,74.8,25.6,75.7,25.2z M68.7,38.5c0.4,0,0.8,0.4,0.8,0.8c0,0.4-0.4,0.8-0.8,0.8
		c-0.4,0-0.8-0.4-0.8-0.8C67.9,38.9,68.3,38.5,68.7,38.5z M67.7,43.1c-0.4,0-0.8-0.4-0.8-0.8c0-0.4,0.4-0.8,0.8-0.8s0.8,0.4,0.8,0.8
		C68.5,42.8,68.1,43.1,67.7,43.1z M69.9,44.9c0,0.4-0.4,0.8-0.8,0.8c-0.4,0-0.8-0.4-0.8-0.8s0.4-0.8,0.8-0.8
		C69.5,44.1,69.9,44.5,69.9,44.9z M70.9,37.7c-0.4,0-0.8-0.4-0.8-0.8c0-0.4,0.4-0.8,0.8-0.8s0.8,0.4,0.8,0.8
		C71.7,37.4,71.3,37.7,70.9,37.7z"/>
	<path class="st0" d="M85.4,48.6c0,0-0.3,2.7,2.1,2.7c0,0,1.8,0.2,2.2-1.7c0.4-1.8-1.5-2.4-1.5-2.4s-1.3-0.4-2.1,0.7
		c-0.2-0.2-2.7-2.6-4-3.8l-0.2,1L85.4,48.6z"/>
	<path class="st0" d="M79.7,27.9c0.3-1-0.3-2.5-1.8-2.9c-0.7-0.2-1.5-0.1-2.2,0.2l-1.1,6.7C79.2,30.6,79.4,28.9,79.7,27.9z"/>
</g>
</svg>
