<?xml version="1.0" encoding="utf-8"?>
<!-- Generator: Adobe Illustrator 19.1.0, SVG Export Plug-In . SVG Version: 6.00 Build 0)  -->
<svg version="1.1" id="Layer_1" xmlns="http://www.w3.org/2000/svg" xmlns:xlink="http://www.w3.org/1999/xlink" x="0px" y="0px"
	 viewBox="0 0 160 90" style="enable-background:new 0 0 160 90;" xml:space="preserve">
<style type="text/css">
	.st0{fill:#BBBBBB;}
</style>
<g>
	<g>
		<g>
			<path class="st0" d="M117.8,20.2H102L91.6,31.7h30.2v-6.3C121.9,22.5,120,20.2,117.8,20.2z M82.1,20.2h-39
				c-1.7,0-3.2,1.3-3.8,3.3h44.1L82.1,20.2z M39,28.6v6.3c0,2.9,1.8,5.3,4.1,5.3h18.1L47.9,28.6H39z M85.5,28.6H54.2l13.4,11.5h11.1
				l7.9-8.8L85.5,28.6z M84.2,40.1h33.6c1.7,0,3.2-1.3,3.8-3.2H87L84.2,40.1z"/>
		</g>
	</g>
	<path class="st0" d="M94.3,5.2c-4.9-0.9-9.7,2-10.7,6.6l6,17.7l12.1-14.3C102.6,10.6,99.3,6.1,94.3,5.2z M92.1,16.9
		c-1.9-0.4-3.2-2.1-2.9-4c0.3-1.8,2.2-3,4.1-2.6c1.9,0.4,3.2,2.1,2.9,4C95.9,16.1,94.1,17.3,92.1,16.9z"/>
</g>
<path class="st0" d="M17.9,45l-0.4,1.7l-0.3,0c-1.8-1.3-3.8-2-6-2c-2.7,0-4.8,0.9-6.2,2.6c-1.4,1.7-2.1,4.2-2.1,7.4
	c0,3.2,0.7,5.7,2.1,7.4c1.4,1.7,3.4,2.6,6,2.6c2.4,0,4.6-0.7,6.6-2.2l0.3,0.1l-0.2,1.7c-2.2,1.4-4.5,2-6.9,2c-3.2,0-5.6-1-7.4-3
	c-1.7-2-2.6-4.8-2.6-8.5c0-3.7,0.9-6.6,2.7-8.7c1.8-2,4.4-3.1,7.7-3.1C13.8,43.2,16,43.8,17.9,45z"/>
<path class="st0" d="M37.6,66.2L37,64.2l-1.8-4.9l-5.7-0.1l-5.2,0.1l-2,4.9l-0.6,2h-2l9.2-22.8h2.2l8.4,22.8H37.6z M30.1,45.5h-0.2
	L25,57.7l4.7,0l4.9,0L30.1,45.5z"/>
<path class="st0" d="M139.8,65.8l-0.5-1.9l-1.8-4.9l-5.7-0.1l-5.2,0.1l-2,4.9l-0.6,2h-2l9.2-22.8h2.2l8.4,22.8H139.8z M132.4,45.1
	h-0.2l-4.9,12.2l4.7,0l4.9,0L132.4,45.1z"/>
<path class="st0" d="M55.6,66.2H44.3l0.1-6.9l-0.1-15.9h2l-0.1,15.8l0.1,5.4h9.4l0.2,0.2L55.6,66.2z"/>
<path class="st0" d="M72.5,66.2H59.8l0.1-6.9l-0.1-15.9h12.7l0.2,0.2l-0.2,1.5L66.8,45l-5,0l-0.1,8.6l4.7,0l4,0l0.2,0.2l-0.2,1.5
	l-8.7,0l0,3.9l0.1,5.4l4.9,0l5.9-0.1l0.2,0.2L72.5,66.2z"/>
<path class="st0" d="M96,66.2h-2L80.2,46.5h-0.2l0,12.4l0.1,7.3h-1.9l0.1-6.8l-0.1-16h2L94,63.1h0.2l0-19.6l1.9-0.1L96,59.7V66.2z"
	/>
<path class="st0" d="M118.3,46c1.8,1.9,2.7,4.5,2.7,8c0,4-1,7-2.9,9.2c-1.9,2.1-4.7,3.2-8.4,3.2c-1.9,0-4.4-0.1-7.6-0.2l0.1-6.9
	l-0.1-15.9l8.2-0.1C113.9,43.2,116.5,44.1,118.3,46z M116.8,62.1c1.5-1.8,2.3-4.4,2.3-7.8c0-3.1-0.7-5.5-2.2-7.1
	c-1.5-1.6-3.7-2.4-6.5-2.4c-1.5,0-3.5,0.1-6.1,0.2l-0.1,14.2l0.1,5.4c2.3,0.1,4.3,0.2,5.9,0.2C113,64.8,115.2,63.9,116.8,62.1z"/>
<path class="st0" d="M160,65.7V66c-0.4,0.2-1,0.3-1.7,0.5l-0.3-0.1c-2.4-3.3-4.5-6.3-6.2-9.1H147v1.9l0.1,7h-2l0.1-6.9l-0.1-15.9
	l6.4,0c2.3,0,4.1,0.5,5.3,1.6c1.2,1.1,1.9,2.7,1.9,4.7c0,1.7-0.5,3.1-1.4,4.3c-0.9,1.2-2.2,2.1-3.9,2.8
	C155.4,59.7,157.5,62.7,160,65.7z M152,55.7c3.1-0.8,4.7-2.8,4.7-5.9c0-3.2-1.8-4.8-5.4-4.9l-4.2,0.1l-0.1,10.6L152,55.7z"/>
<g>
	<path class="st0" d="M31.7,71.6c0,0.2-0.2,0.4-0.5,0.4c-2.1,0-4.3,0.1-6.5,0.3c-0.1,0.5-0.3,2-0.6,4.5c-0.4,3-0.6,5.4-0.7,7.3
		c0,0.6,0,1.3,0.2,2.2c-0.1,0-0.3-0.1-0.6-0.2c-0.3-0.3-0.5-0.9-0.5-1.8c0-1.2,0.1-3,0.4-5.5c0.3-2.3,0.4-4.2,0.4-5.4
		c0-0.3,0-0.5,0-0.8c-0.4,0-1.2,0-2.4,0.1c-3.5,0.3-5.3,0.7-5.3,1.4c0,0.5,0.7,0.7,2.1,0.7c1.6,0,3-0.2,4.4-0.6
		c-0.3,0.5-0.6,0.7-1,0.8c-1.5,0.4-2.7,0.5-3.7,0.5c-0.8,0-1.4-0.1-1.8-0.3c-0.5-0.3-0.7-0.8-0.7-1.5c0-0.7,0.4-1.1,1.2-1.3l2.9-0.4
		c1.4-0.2,3.7-0.3,6.8-0.5c2.4-0.1,4.2-0.2,5.5-0.2c0.2,0,0.4,0,0.5,0.1C31.7,71.4,31.7,71.5,31.7,71.6z"/>
	<path class="st0" d="M34.7,79.2c0,0.7-0.2,1.5-0.6,2.4c-0.4,0.8-0.8,1.2-1.4,1.2c-0.1,0-0.4-0.1-0.8-0.3c0,0.2-0.1,0.6-0.3,1.3
		c-0.3,0.8-0.5,1.2-0.6,1.4c-0.3,0.5-0.7,0.7-1.1,0.7c-1.1,0-1.7-1.1-1.7-3.4c0-1.4,0.1-2.4,0.4-2.9c0,0,0,0,0,0c0,0,0-0.1,0-0.1
		c0-0.1,0-0.3,0-0.4c0-0.1,0.1-0.2,0.1-0.3c0-0.1,0.1-0.4,0.2-1c0.1-0.5,0.4-0.8,0.8-0.8c0.4,0,0.8,0.2,1.3,0.5
		c0.5,0.3,0.7,0.7,0.9,1c0.1,0.4,0.2,1.5,0.2,3.3c0.2,0.2,0.4,0.3,0.6,0.3c0.6,0,1-0.3,1.2-0.9c0.1-0.2,0.3-0.8,0.5-1.8
		c0.1-0.3,0.2-0.4,0.3-0.4C34.7,79,34.7,79.1,34.7,79.2z M31.2,82.6c0-0.3-0.1-0.8-0.2-1.5c-0.1-0.7-0.2-1.2-0.2-1.4
		c0-0.1,0-0.2,0-0.5c0-0.3,0-0.4,0-0.5c0-0.5-0.3-0.8-0.7-0.8c-0.3,0-0.6,0.7-0.9,2.1c-0.2,1.2-0.4,2.2-0.4,2.8c0,1.6,0.3,2.5,1,2.5
		c0.2,0,0.4-0.3,0.7-0.9C31,83.6,31.2,83,31.2,82.6z"/>
	<path class="st0" d="M38.5,85.5c-0.3,0-0.6-0.3-0.9-0.8c-0.1-0.1-0.2-0.5-0.4-1.2c-0.1,0.2-0.2,0.5-0.4,0.8
		c-0.2,0.4-0.3,0.7-0.4,0.8c-0.3,0.5-0.6,0.7-1.1,0.7c-0.4,0-0.7-0.2-1-0.7c-0.2-0.4-0.3-0.8-0.3-1.2c0-0.8,0-1.7,0.1-2.8
		c0.1-1.6,0.1-2.4,0.3-2.6c0.1-0.1,0.2-0.2,0.4-0.2c0.2,0,0.3,0.1,0.4,0.2c0.1,0.1,0.2,0.3,0.2,0.4c0,0.2,0,0.3-0.1,0.5
		c-0.1,0.2-0.1,0.4-0.1,0.5c-0.2,1.2-0.3,2.6-0.3,4.2c0,0.7,0.1,1,0.4,1c0.2,0,0.5-0.2,0.7-0.6c0.2-0.4,0.3-0.7,0.4-0.9
		c0.3-0.8,0.6-1.8,0.8-3c0,0,0.1-0.3,0.2-1c0.1-0.5,0.1-0.8,0.1-1l0-0.9c0-0.4,0.2-0.6,0.5-0.5c0.5,0,0.7,0.1,0.7,0.4
		c0,0,0,0.2-0.1,0.4c-0.1,0.2-0.1,0.4-0.2,0.5c0,0.2-0.1,0.7-0.2,1.7c-0.1,0.9-0.2,1.6-0.2,2.1c0,1.4,0.2,2.2,0.7,2.2
		c0.4,0,0.9-0.8,1.4-2.4c0.2-0.7,0.5-1.7,0.8-3c0.1-0.2,0.2-0.3,0.3-0.3c0.1,0,0.2,0.1,0.2,0.3c0,0.5-0.3,1.6-0.8,3.2
		C39.8,84.5,39.1,85.5,38.5,85.5z"/>
	<path class="st0" d="M43.9,85.8c-0.5,0-0.9-0.3-1.2-0.8c-0.1-0.2-0.2-0.7-0.2-1.4c0-0.5,0-1.2,0-2.1l0-1.8c0-0.4-0.4-0.7-1.1-1.1
		c0,0.4-0.2,1.2-0.6,2.4c0,0,0,0.1-0.1,0.3l-0.1,0.2l-0.3-0.1c0-0.2,0.1-0.7,0.3-1.4c0.2-0.7,0.3-1.2,0.3-1.6c0-0.2-0.1-0.4-0.2-0.8
		c-0.1-0.4-0.2-0.6-0.2-0.8c0-0.8,0.2-1.1,0.6-1.1c0.3,0,0.5,0.2,0.5,0.7c0,0.1,0,0.3,0,0.7l0,0.7c0,0.1,0.3,0.4,1,0.7
		c0.7,0.3,1,0.7,1,1.2s-0.1,1.2-0.2,2.3c-0.1,1-0.2,1.8-0.2,2.2c0,0.7,0.2,1.1,0.7,1.1c0.3,0,0.7-0.8,1.2-2.4
		c0.5-1.5,0.8-2.6,0.9-3.3c0-0.3,0.2-0.5,0.3-0.5c0.1,0,0.2,0.1,0.2,0.3c0,0.5-0.3,1.7-0.9,3.5C44.9,84.8,44.3,85.8,43.9,85.8z"/>
	<path class="st0" d="M48.2,83.9c0,0.5-0.1,1-0.3,1.5c-0.3,0.5-0.7,0.8-1.2,0.8c-0.5,0-0.9-0.2-1.2-0.6c-0.2-0.2-0.4-0.5-0.4-0.7
		c0-0.3,0.1-0.4,0.2-0.5c0.1,0,0.2,0.1,0.2,0.4c0.3,0.6,0.6,0.9,0.9,0.9c0.7,0,1.1-0.6,1.1-1.8c0-0.5-0.2-1.3-0.5-2.4
		c-0.2-0.5-0.3-1-0.5-1.4c0,0.1-0.1,0.3-0.1,0.5c-0.1,0.2-0.1,0.4-0.2,0.7c-0.1,0.3-0.2,0.6-0.2,0.8c-0.2,0.5-0.4,0.8-0.6,0.8
		c0,0-0.1,0-0.2,0c0.6-2.4,1-4,1-5c0-0.4,0.2-0.6,0.6-0.6c0.5,0,0.7,0.1,0.7,0.4c0,0,0,0.2-0.1,0.6c-0.1,0.3-0.1,0.5-0.1,0.6
		c0,0.6,0.2,1.5,0.6,2.7C48,82.5,48.2,83.3,48.2,83.9z"/>
	<path class="st0" d="M68.3,80.5c0,0.1-0.1,0.2-0.2,0.4h-1.6c-0.3,0-0.8,0.4-1.4,1.3c-0.7,1-1.2,1.5-1.4,1.7
		c0.3,0.3,0.7,0.8,1.3,1.4c0.2,0.2,0.5,0.4,1,0.6c0,0.1-0.1,0.1-0.2,0.2c-0.1,0.1-0.3,0.1-0.4,0.1c-0.2,0-0.5-0.2-0.7-0.5l-1.5-1.5
		c-1.5,1.2-2.8,1.8-3.8,1.8c-0.9,0-1.6-0.3-2.2-0.9c-0.6-0.6-0.9-1.3-0.9-2.2c0-1,0.4-2,1.1-2.9l2.2-2.5c-0.5-1.4-0.7-2.6-0.7-3.6
		c0-0.8,0.2-1.5,0.5-2.2c0.4-0.9,1-1.3,1.7-1.3c0.7,0,1.4,0.3,1.9,0.9c0.5,0.6,0.8,1.2,0.8,1.9c0,0.7-0.4,1.5-1.2,2.5
		c0,0-0.7,0.8-2,2.2c0.1,0.2,0.4,1,0.9,2.2l5,0C67.5,80.2,68.2,80.3,68.3,80.5z M62.6,83.7C62.5,83.5,62,82.6,61,81
		c-0.2,0-0.5,0-0.9-0.1c-0.5,0-0.8-0.1-0.9-0.1c0-0.1,0-0.2,0-0.4c0.3,0,0.7-0.1,1.4-0.3c-0.1-0.2-0.4-0.8-0.8-1.8c-2,1.3-3,3-3,5.2
		c0,0.5,0.2,0.9,0.7,1.3c0.5,0.4,0.9,0.6,1.5,0.6c0.8,0,1.6-0.3,2.5-0.8C62.2,84.2,62.6,83.9,62.6,83.7z M62.9,72.9
		c0-0.4-0.2-0.9-0.5-1.2c-0.3-0.4-0.7-0.6-1.1-0.6c-0.6,0-1,0.4-1.4,1.3c-0.3,0.6-0.4,1.3-0.4,2.1c0,0.7,0.2,1.5,0.6,2.4
		c0.2-0.1,0.6-0.5,1.2-1.2C62.4,74.5,62.9,73.6,62.9,72.9z M64.6,80.9h-1.4c-0.5,0-0.8,0-1,0h-0.5c0.4,0.6,0.9,1.3,1.5,2
		c0.1,0,0.4-0.3,0.8-0.9C64.4,81.6,64.6,81.2,64.6,80.9z"/>
	<g>
		<path class="st0" d="M90.8,71.6c0,0.2-0.2,0.4-0.5,0.4c-2.1,0-4.3,0.1-6.5,0.3c-0.1,0.5-0.3,2-0.6,4.5c-0.4,3-0.6,5.4-0.7,7.3
			c0,0.6,0,1.3,0.2,2.2c-0.1,0-0.3-0.1-0.6-0.2c-0.3-0.3-0.5-0.9-0.5-1.8c0-1.2,0.1-3,0.4-5.5c0.3-2.3,0.4-4.2,0.4-5.4
			c0-0.3,0-0.5,0-0.8c-0.4,0-1.2,0-2.4,0.1c-3.5,0.3-5.3,0.7-5.3,1.4c0,0.5,0.7,0.7,2.1,0.7c1.6,0,3-0.2,4.4-0.6
			c-0.3,0.5-0.6,0.7-1,0.8c-1.5,0.4-2.7,0.5-3.7,0.5c-0.8,0-1.4-0.1-1.8-0.3c-0.5-0.3-0.7-0.8-0.7-1.5c0-0.7,0.4-1.1,1.2-1.3
			l2.9-0.4c1.4-0.2,3.7-0.3,6.8-0.5c2.4-0.1,4.2-0.2,5.5-0.2c0.2,0,0.4,0,0.5,0.1C90.8,71.4,90.8,71.5,90.8,71.6z"/>
		<path class="st0" d="M90.7,85.8c-0.5,0-0.9-0.3-1.2-0.8c-0.1-0.2-0.2-0.7-0.2-1.4c0-0.5,0-1.2,0-2.1l0-1.8c0-0.4-0.4-0.7-1.1-1.1
			c0,0.4-0.2,1.2-0.6,2.4c0,0,0,0.1-0.1,0.3l-0.1,0.2l-0.3-0.1c0-0.2,0.1-0.7,0.3-1.4c0.2-0.7,0.3-1.2,0.3-1.6
			c0-0.2-0.1-0.4-0.2-0.8c-0.1-0.4-0.2-0.6-0.2-0.8c0-0.8,0.2-1.1,0.6-1.1c0.3,0,0.5,0.2,0.5,0.7c0,0.1,0,0.3,0,0.7l0,0.7
			c0,0.1,0.3,0.4,1,0.7c0.7,0.3,1,0.7,1,1.2s-0.1,1.2-0.2,2.3c-0.1,1-0.2,1.8-0.2,2.2c0,0.7,0.2,1.1,0.7,1.1c0.3,0,0.7-0.8,1.2-2.4
			c0.5-1.5,0.8-2.6,0.9-3.3c0-0.3,0.2-0.5,0.3-0.5c0.1,0,0.2,0.1,0.2,0.3c0,0.5-0.3,1.7-0.9,3.5C91.7,84.8,91.1,85.8,90.7,85.8z"/>
		<path class="st0" d="M96.2,85.7c-0.6,0-1.1-0.6-1.4-1.7c-0.4,1.4-0.9,2.1-1.6,2.1c-0.9,0-1.4-1.1-1.3-3.3c0-0.6,0.2-1.6,0.6-3
			c0.5-1.6,0.8-2.4,1.1-2.4c0.7,0,1.1,0.2,1.3,0.5l0.4,0.8l0.8,0.3c-0.4,1.1-0.7,2.5-0.8,4.1c0,0.4,0,0.7,0.1,1.1
			c0.1,0.5,0.3,0.8,0.6,0.8c0.5,0,1.3-1.9,2.2-5.6c0.1-0.3,0.2-0.5,0.3-0.5s0.2,0.1,0.2,0.3c0,0.6-0.3,1.7-0.9,3.4
			C97.3,84.8,96.7,85.7,96.2,85.7z M95.1,79.7l-0.3-0.4c-0.1-0.7-0.3-1-0.6-1c-0.3,0-0.5,0.4-0.7,1.1c-0.1,0.2-0.2,0.8-0.5,1.6
			c-0.3,0.9-0.4,2.1-0.4,3.4c0,0.3,0.1,0.5,0.2,0.7c0.1,0.3,0.3,0.4,0.5,0.4c0.3-0.2,0.6-0.8,0.9-1.8c0.3-0.9,0.5-1.5,0.5-2
			L95.1,79.7z"/>
		<path class="st0" d="M101.9,79.2c0,0.9-0.2,2-0.6,3.6c-0.5,1.8-1,2.8-1.6,2.8c-0.6,0-1-0.6-1.2-1.7c-0.1-0.7-0.2-1.5-0.2-2.3
			c0-0.4,0-0.8,0-1.1c0-0.3,0-0.7,0-1.2c0-0.1,0-0.2,0-0.3c0-0.1,0.1-0.2,0.3-0.2c0.5,0,0.7,0.3,0.7,0.7c0,0.2,0,0.6-0.1,1.2
			c-0.1,0.5-0.1,0.9-0.1,1.2c0,1.9,0.2,2.8,0.7,2.8c0.2,0,0.6-0.7,1-2.1c0.4-1.3,0.6-2.3,0.6-2.8v-1.7l-0.2-0.7
			c0-0.1,0.1-0.1,0.2-0.1C101.7,77.3,101.9,78,101.9,79.2z"/>
		<path class="st0" d="M108.6,79.3c0,0.1-0.1,0.6-0.4,1.5c-0.6,2.3-1.2,3.8-1.8,4.6c-0.4,0.4-0.8,0.7-1.2,0.7
			c-0.7,0-1.2-0.4-1.6-1.1c-0.3-0.6-0.5-1.3-0.5-1.9c0-1,0.1-2,0.3-3.1c0.3-1.7,0.7-2.5,1.3-2.5c0.3,0,0.7,0.1,0.9,0.3
			c0.3,0.2,0.4,0.5,0.4,0.8c0,1.1-0.3,2.4-1,3.8c-0.3,0.6-0.6,1.2-1,1.8c0,0.3,0.1,0.6,0.4,0.9c0.3,0.3,0.5,0.5,0.8,0.5
			c0.7,0,1.6-1.7,2.5-5.2c0.2-0.9,0.4-1.3,0.4-1.3C108.5,79,108.6,79.1,108.6,79.3z M105.5,78.8c0-0.5-0.1-0.8-0.3-0.8
			c-0.1,0-0.2,0.1-0.3,0.3c-0.6,1.7-0.9,3.3-0.9,4.9c0.4-0.2,0.7-0.9,1-2.1C105.3,80.2,105.5,79.4,105.5,78.8z"/>
		<path class="st0" d="M110.2,86.1c-0.8,0-1.4-0.6-1.9-1.7c-0.3-0.9-0.5-1.8-0.5-2.7c0-1.3,0.1-3,0.4-5c0.3-2.1,0.6-3.7,1.1-4.9
			c0.1-1,0.3-1.6,0.8-1.6c1,0,1.5,0.8,1.5,2.3c0,1.2-0.3,2.7-0.7,4.4c-0.5,1.8-1.1,3.2-1.8,4.1c0,0-0.1,0.2-0.3,0.5
			c-0.1,0.2-0.2,0.3-0.2,0.5c0,1.1,0.2,1.9,0.7,2.6c0.4,0.5,0.7,0.7,1,0.7c0.6,0,1.3-1.5,2.2-4.5c0.1-0.6,0.2-1,0.3-1.3
			c0.1-0.3,0.2-0.5,0.3-0.5c0.1,0,0.2,0.1,0.2,0.3c0,0.6-0.3,1.8-0.9,3.6C111.6,85,110.9,86.1,110.2,86.1z M110.5,71
			c-1.3,4.2-1.9,7.3-1.9,9.4c0.6-0.9,1.1-2.2,1.6-3.8c0.5-1.5,0.7-2.7,0.7-3.5C110.9,72,110.7,71.3,110.5,71z"/>
	</g>
	<path class="st0" d="M136.8,87.2c-0.2,0.2-0.5,0.4-0.9,0.4c-0.7,0-1.7-0.4-2.8-1.1c-2.4-1.6-3.8-2.4-4.1-2.6
		c-0.3,0.7-0.6,1.1-0.9,1.4c-0.7,0.7-1.7,1-3.1,1c-1.2,0-2.3-0.5-3.3-1.4c-1-1-1.5-2-1.5-3.1c0-0.3,0.1-0.6,0.4-0.9
		c0.3-0.3,0.6-0.4,0.9-0.4c1.1,0,2.4,0.2,3.8,0.7c0.7,0.2,1.7,0.7,3.1,1.3c0.2-1,0.4-2.3,0.4-4.1c-0.1,0-0.4,0-0.9,0.1
		c-0.5,0.1-0.8,0.1-0.9,0.1c-0.7,0-1-0.1-1-0.3c0-0.1,0.1-0.3,0.3-0.4c0.2,0.1,0.4,0.2,0.8,0.2c0.7,0,1.4-0.1,1.9-0.4
		c0.4-2.5,0.7-3.9,0.8-4.2c0.6-2.4,1.4-3.6,2.2-3.6c0.7,0,1.5,0.7,2.3,2.1c0.4,0.6,0.6,1,0.6,1c0.2,0.3,0.2,0.7,0.2,1.1
		c0,0.4-0.3,0.9-0.8,1.5c-0.4,0.4-0.8,0.8-1.3,1.1c-0.7,0.4-1.7,0.9-2.8,1.4c0,0.9-0.3,2.6-0.8,5.3c1.2,0.7,2.3,1.4,3.4,2.2
		c1,0.7,1.7,1.1,2.2,1.4C135.4,87.1,136.1,87.3,136.8,87.2z M128.1,83.3c-2.2-1.5-4.2-2.2-5.9-2.2c-0.7,0-1.1,0.2-1.1,0.7
		c0,0.7,0.4,1.5,1.3,2.3c1,1,2,1.5,3.2,1.5c0.7,0,1.3-0.2,1.8-0.7C127.9,84.6,128.1,84,128.1,83.3z M133.7,73.5c0-0.5-0.1-1-0.4-1.6
		c-0.3-0.7-0.7-1-1.1-1c-0.8,0-1.5,2.1-2.2,6.2c1.1-0.4,2-0.8,2.5-1.3C133.3,75.2,133.7,74.4,133.7,73.5z"/>
	<path class="st0" d="M143.2,74.8c-0.1,0.1-0.5,0.2-1.2,0.3c-0.6,0.1-1,0.2-1.3,0.2c-0.9,0-1.6,0-2.1,0l-1.1,0
		c-0.4,2.6-0.6,4.4-0.6,5.6c0,1.2,0,2.1,0,2.6c0.1,0.9,0.3,1.4,0.7,1.4c0.6,0,1.3-1.6,2.1-4.7c0.2-0.7,0.3-1,0.4-1
		c0.2,0,0.2,0.1,0.2,0.3c0,0.5-0.3,1.6-0.8,3.2c-0.7,2-1.3,3-1.9,3c-0.5,0-0.9-0.5-1.2-1.6c-0.2-0.7-0.3-1.4-0.3-2.1
		c0-0.6,0.2-2.9,0.6-6.6c-0.3,0-1.1-0.1-2.4-0.1l-0.5,0.2c-0.1-0.1-0.3-0.2-0.5-0.3c-0.2-0.1-0.3-0.2-0.3-0.3c0-0.1,0.1-0.2,0.3-0.2
		c0.4,0,1.5,0,3.4-0.1c0.1-0.8,0.1-1.4,0.1-1.7l-0.1-0.4c0-0.1,0.1-0.2,0.3-0.2c0.2,0,0.5,0.1,0.9,0.4v0.5c-0.1,0.3-0.2,0.8-0.3,1.4
		c0.1,0,0.2,0,0.4,0c0.2,0,0.4,0,0.8,0c0.4,0,0.7,0,1,0c0.2,0,0.4,0,0.7,0c0.3,0,0.7,0,1.2,0c0.5,0,0.9,0,1.4,0V74.8z"/>
	<path class="st0" d="M143.5,85.2c0.3,0,0.7-0.8,1.2-2.3c0.3-1,0.7-2.1,1-3.4c0.1-0.3,0.2-0.5,0.3-0.5c0.1,0,0.2,0.1,0.2,0.3
		c0,0.5-0.3,1.7-0.9,3.5c-0.7,2-1.2,3-1.6,3c-0.7,0-1.2-0.8-1.3-2.3c-0.3,0.7-0.5,1.2-0.7,1.5c-0.4,0.7-0.7,1-1.1,1
		c-0.5,0-0.9-0.3-1.1-0.9c-0.2-0.4-0.3-0.9-0.3-1.5c0-1.2,0.2-2.6,0.7-4.2c0.5-1.7,1.1-2.6,1.7-2.6c0.2,0,0.4,0.1,0.7,0.3
		c0.3,0.2,0.5,0.3,0.5,0.3c0,0,0.1,0,0.1-0.1c0.1-0.5,0.2-1.5,0.4-2.9c0.2-1.5,0.4-2.7,0.5-3.6c0-0.4,0-0.6,0.2-0.7
		c0.1,0,0.2,0,0.4,0c0.4,0,0.5,0.2,0.5,0.7c-0.1,0.3-0.2,0.9-0.4,1.9c-0.2,1-0.4,1.8-0.5,2.5c0,0.3-0.2,1.7-0.6,4.3
		c-0.3,2.1-0.4,3.3-0.4,3.8C143,84.6,143.2,85.2,143.5,85.2z M141.9,78c-0.5,0-1,0.8-1.4,2.3c-0.4,1.3-0.5,2.2-0.5,2.9
		c0,1.5,0.2,2.2,0.5,2.2c0.3,0,0.7-0.6,1.2-1.7c0.3-0.8,0.6-1.6,0.7-2.4c0,0,0-0.2,0-0.4c0-0.3,0.1-0.5,0.1-0.7
		c0.1-0.4,0.1-0.8,0.1-1.2C142.6,78.4,142.3,78,141.9,78z"/>
</g>
<g>
	<path class="st0" d="M145.7,85.4c0-0.5,0.3-0.9,0.8-0.9c0.5,0,0.8,0.4,0.8,0.9c0,0.5-0.3,0.9-0.8,0.9
		C146,86.3,145.7,85.9,145.7,85.4z"/>
</g>
</svg>
