<?xml version="1.0" encoding="utf-8"?>
<!-- Generator: Adobe Illustrator 19.1.0, SVG Export Plug-In . SVG Version: 6.00 Build 0)  -->
<svg version="1.1" id="Layer_1" xmlns="http://www.w3.org/2000/svg" xmlns:xlink="http://www.w3.org/1999/xlink" x="0px" y="0px"
	 viewBox="0 0 160 90" style="enable-background:new 0 0 160 90;" xml:space="preserve">
<style type="text/css">
	.st0{fill:#BBBBBB;}
	.st1{font-family:'PalatinoLinotype-Bold';}
	.st2{font-size:28.0737px;}
	.st3{font-size:27.7951px;}
</style>
<g>
	<g>
		<path class="st0" d="M96.8,23h8.2c-1.7-6-7-11.4-13-12.9v8.2C94,19.4,95.8,21,96.8,23z"/>
		<path class="st0" d="M97,32c-1.2,2-3.5,4.2-6.4,5c-0.6,0.2-1.3,0.3-2,0.3c-0.3,0-0.5,0-0.8,0c-2.8,0-5.3-1.2-7.1-3.1
			c-0.4-0.4-0.8-0.9-1.1-1.4c-1.2-1.7-1.8-3.8-1.8-5.9c0-2.3,0.1-4.3,2.1-5.8v-9.6c-6,2.9-9.7,8.7-9.7,15.6c0,3.6,1,6.9,2.8,9.7
			c0,0,0,0-0.1,0c0.3,0.5,0.7,1,1.1,1.5c1.7,2.2,3.9,3.9,6.4,5.1c0.7,0.3,1.4,0.6,2.1,0.8c1.7,0.5,3.4,0.8,5.2,0.8
			c8.3,0,15.3-5,17.2-13H97z"/>
		<path class="st0" d="M72.7,38.4c-5,0-8.7-2.9-8.7-6.5V4H54v27.9c0,7.1,8.3,12.9,18.2,12.9c2.2,0,4.6-0.3,6.6-0.8
			C76.2,42.6,74.4,40.7,72.7,38.4z"/>
		<path class="st0" d="M88,35.6c0.6,0,1-0.1,1.5-0.2c0.4-1.1,0.5-2.3,0.5-3.5V19.1v-1.5V9.8V8V4h-8v4.9v1.9v8.7v2.1v10.4
			c0,0.2-0.3,0.3-0.3,0.5C83.2,34.3,85.4,35.6,88,35.6z"/>
	</g>
	<text transform="matrix(0.9153 0 0 1 2.0362 77.077)" class="st0 st1 st2">U</text>
	<text transform="matrix(0.9153 0 0 1 141.2295 76.8387)" class="st0 st1 st3">B</text>
	<g>
		<g>
			<g>
				<path class="st0" d="M35.1,58c-0.1,0.5-0.1,1.1-0.1,1.7l0,2L34.9,62h-0.6l-0.1-0.3c0-0.9-0.1-1.6-0.1-1.7
					c-0.1-0.3-0.3-0.7-0.6-0.7c-0.1,0-0.8-0.2-1.9-0.2h-1.3c0,1-0.2,1.6-0.2,3.3v6.2c0,1.7,0.1,2.8,0.2,3.4c0,0.2,0.2,0.3,0.4,0.4
					c0.1,0,0.6,0.1,1.2,0.1l0.2,0.1v0.7l-0.1,0.1c-0.7,0-1.7-0.1-3.1-0.1c-1.4,0-2.3,0-2.9,0.1l0.1-0.1v-0.7l-0.1-0.1
					c0.7,0,1-0.1,1.1-0.1c0.2-0.1,0.1-0.2,0.1-0.4c0.1-0.5-0.1-1.6-0.1-3.4v-6.2c0-1.8,0.3-2.3,0.3-3.3h-1.4c-1.2,0-1.9,0.2-2.1,0.3
					c-0.1,0-0.2,0.2-0.2,0.2c-0.1,0.1-0.1,0.4-0.1,0.7c0,0.4-0.1,1-0.1,1.4L23.2,62h-0.6l-0.1-0.3l0-2c0-0.5,0-1.1-0.1-1.7l0.1-0.1
					c0.4,0.1,1.8,0.1,4.3,0.1h4c2.3,0,3.7,0,4.3-0.1L35.1,58z"/>
			</g>
			<g>
				<path class="st0" d="M48.7,58c-0.1,0.5-0.1,1.1-0.1,1.7l0,2L48.5,62h-0.6l-0.1-0.3c0-0.9-0.1-1.6-0.1-1.7
					c-0.1-0.3-0.3-0.7-0.6-0.7c-0.1,0-0.8-0.2-1.9-0.2h-1.3c0,1,0.2,1.6,0.2,3.3v6.2c0,1.7-0.1,2.8,0,3.4c0,0.2,0.1,0.3,0.3,0.4
					c0.1,0,0.7,0.1,1.4,0.1l0.3,0.1v0.7l-0.3,0.1c-0.7,0-1.8-0.1-3.2-0.1c-1.4,0-2.6,0-3.2,0.1L39,73.2v-0.7l0.2-0.1
					c0.7,0,1.1-0.1,1.2-0.1c0.2-0.1,0.4-0.2,0.4-0.4c0.1-0.5,0.2-1.6,0.2-3.4v-6.2c0-1.8-0.1-2.3-0.1-3.3h-1.4
					c-1.2,0-1.9,0.2-2.1,0.3c-0.1,0-0.2,0.2-0.2,0.2c-0.1,0.1-0.1,0.4-0.1,0.7c0,0.4-0.1,1-0.1,1.4L36.8,62h-0.6l-0.1-0.3l0-2
					c0-0.5,0-1.1-0.1-1.7l0.1-0.1c0.4,0.1,1.8,0.1,4.3,0.1h4c2.3,0,3.7,0,4.3-0.1L48.7,58z"/>
			</g>
			<g>
				<path class="st0" d="M63,73.2l0,0.1c-1.5,0-2.3-0.1-2.6-0.1c-1.2,0-2.3,0-3.3,0.1l0-0.1v-0.7l0.1-0.1l0.8-0.1
					c0.4,0,0.5-0.2,0.5-0.4c0-0.2-0.1-0.5-0.3-1l-0.8-2.3c-0.9,0-1.9,0-2.8,0c-0.5,0-1.3,0-2.3,0l-0.4,1.3c-0.3,1-0.5,1.6-0.5,1.9
					c0,0.3,0.2,0.4,0.5,0.5c0.2,0,0.6,0.1,1.1,0.1l0.1,0.1v0.7l-0.1,0.1c-1.2,0-2-0.1-2.4-0.1c-0.3,0-1.1,0-2.2,0.1L48,73.2v-0.7
					l0.3-0.1c0.7,0,1.2-0.2,1.3-0.4c0.2-0.3,0.8-1.8,1.8-4.5l2.6-7c0.2-0.6,0.5-1.4,0.9-2.4h1.4l5.3,13.5c0.2,0.5,0.4,0.8,0.6,0.8
					c0.2,0.1,0.4,0.1,0.9,0.1l0,0.1V73.2z M56.9,67.4l-2.1-5.7l-2,5.7c0.5,0,1.2,0,2.1,0C55.7,67.4,56.4,67.4,56.9,67.4z"/>
			</g>
			<g>
				<path class="st0" d="M78,73.2l-0.1,0.1c0,0-0.2,0-0.4,0c-0.9,0-1.5-0.1-1.7-0.1c-0.3,0-0.9,0-1.6,0.1c0-0.2-0.2-0.5-0.4-0.9
					L71.3,68l-1.1-1.8c-0.1-0.2-0.3-0.4-0.6-0.7l0.1-0.4c0.2,0,0.3,0,0.3,0c0.6,0,1.2-0.1,1.5-0.3c0.3-0.2,0.6-0.6,0.9-1.1
					c0.3-0.5,0.4-1.1,0.4-1.8c0-1.2-0.4-2.1-1.3-2.5c-0.4-0.2-1-0.3-1.7-0.3c-0.3,0-0.6,0-0.9,0.1c-0.1,0.7,0,1.9,0,3.6v5.7
					c0,1.7,0,2.8,0.1,3.4c0,0.2,0.1,0.3,0.3,0.4c0.1,0,0.7,0.1,1.3,0.1l0.3,0.1v0.7l-0.3,0.1c-0.7,0-1.8-0.1-3.2-0.1
					c-1.4,0-2.6,0-3.3,0.1L64,73.2v-0.7l0.3-0.1c0.7,0,1.1-0.1,1.2-0.1c0.2-0.1,0.3-0.2,0.4-0.4c0.1-0.5,0.1-1.6,0.1-3.4v-5.7
					c0-1.7,0-2.8-0.1-3.4c0-0.2-0.1-0.3-0.3-0.4c-0.1,0-0.6-0.1-1.3-0.1L64,58.8V58l0.3-0.1c0.6,0,1.7,0.1,3.1,0.1c0.8,0,1.5,0,2,0
					c1,0,1.8-0.1,2.3-0.1c1.1,0,2,0.1,2.5,0.3c0.7,0.3,1.2,0.8,1.5,1.5c0.1,0.4,0.2,0.8,0.2,1.3c0,2-1,3.4-3,4.2
					c0.3,0.6,0.7,1.2,1.1,1.8l1.5,2.6c0.9,1.5,1.5,2.4,1.8,2.6c0.2,0.1,0.4,0.2,0.7,0.2l0.1,0.1V73.2z"/>
			</g>
			<g>
				<path class="st0" d="M94,73.2l-0.3,0.1c-1.5,0-2.5-0.1-2.8-0.1c-1.2,0-2.6,0-3.6,0.1L87,73.2v-0.7l0.3-0.1l0.9-0.1
					c0.4,0,0.6-0.2,0.6-0.4c0-0.2-0.1-0.5-0.3-1l-0.8-2.3c-0.9,0-1.8,0-2.8,0c-0.5,0-1.3,0-2.3,0l-0.4,1.3c-0.3,1-0.5,1.6-0.5,1.9
					c0,0.3,0.2,0.4,0.5,0.5c0.2,0,0.4,0.1,0.9,0.1l0,0.1v0.7l0,0.1c-1.2,0-1.9-0.1-2.3-0.1c-0.3,0-0.8,0-1.8,0.1l0.1-0.1v-0.7l0-0.1
					c0.7,0,1-0.2,1.2-0.4c0.2-0.3,0.7-1.8,1.7-4.5l2.6-7c0.2-0.6,0.5-1.4,0.9-2.4h1.4L92,71.5c0.2,0.5,0.4,0.8,0.6,0.8
					c0.2,0.1,0.8,0.1,1.2,0.1l0.3,0.1V73.2z M87.3,67.4l-2.1-5.7l-2,5.7c0.5,0,1.2,0,2.1,0C86.1,67.4,86.7,67.4,87.3,67.4z"/>
			</g>
			<g>
				<path class="st0" d="M113.2,71.4l-0.5,1.1c-1.4,0.8-3,1.3-4.7,1.3c-3.5,0-5.8-1.4-7.1-4.1c-0.6-1.3-0.9-2.6-0.9-4.1
					c0-2.4,0.7-4.3,2.2-5.7c1.5-1.5,3.5-2.2,6.1-2.2c1.6,0,3.2,0.3,4.8,1l0.1,0.2c-0.2,1-0.4,2.5-0.4,3.8l-0.1,0.4h-0.6l-0.1-0.4
					c0-0.9-0.1-1.6-0.1-2c-0.8-1-2-1.6-3.6-1.6c-1.6,0-2.9,0.5-3.8,1.6c-0.9,1.1-1.4,2.6-1.4,4.5c0,2.6,0.8,4.6,2.4,5.9
					c0.9,0.7,2,1.1,3.5,1.1c1.3,0,2.6-0.4,3.9-1.1L113.2,71.4z"/>
			</g>
			<g>
				<path class="st0" d="M125.4,69.9c-0.1,1.1-0.2,2.1-0.2,3.5l-0.1,0l-7.2-0.1c-1.2,0-2.2,0-2.7,0.1l-0.2-0.1v-0.3l0.2-0.1
					c0.5-0.3,0.8-0.6,0.9-0.6c0.1-0.1,0-0.6,0-1.4l0-2.4v-5.5c0-1.7,0.1-2.8,0-3.4c0-0.2-0.1-0.3-0.3-0.4c-0.1,0-0.2-0.1-0.9-0.1
					l0.2-0.1V58l-0.2-0.1c0.7,0,1.6,0.1,2.9,0.1c1.4,0,2.4,0,3.1-0.1L121,58v0.7l-0.2,0.1c-0.7,0-1.1,0.1-1.2,0.1
					c-0.2,0.1-0.4,0.2-0.4,0.4c-0.1,0.5-0.2,1.6-0.2,3.4v6.5c0,0.9,0.1,1.8,0.1,2.8h1.4c1.9,0,3.1-0.1,3.6-0.2
					c0.1,0,0.1-0.1,0.2-0.1c0.1-0.1,0.1-0.3,0.2-0.7l0.2-1.1l0.1,0.1h0.6L125.4,69.9z"/>
			</g>
			<g>
				<path class="st0" d="M142,58.8l-0.3,0.1c-0.8,0-1.3,0.2-1.4,0.7c-0.1,0.3-0.1,0.8-0.1,1.7c0,0.6-0.1,1.5-0.1,2.7v3.3
					c0,2.2-0.4,3.7-1.2,4.6c-1,1.2-2.5,1.8-4.4,1.8c-1.7,0-3.1-0.3-4.1-0.9c-0.8-0.5-1.1-1.3-1.3-2.3c-0.2-0.6,0-2.3,0-4.9v-2.8
					c0-1.7-0.3-2.8-0.4-3.4c0-0.2-0.3-0.3-0.5-0.4c-0.1,0-0.4-0.1-1.1-0.1l0-0.1V58l0-0.1c0.6,0,1.6,0.1,3,0.1c1.4,0,2.4,0,3-0.1
					l0,0.1v0.7l-0.1,0.1c-0.7,0-1.1,0.1-1.2,0.1c-0.2,0.1-0.5,0.2-0.5,0.4c-0.1,0.5-0.3,1.6-0.3,3.4V65c0,2.7,0.3,4.4,0.5,5
					c0.5,1.2,1.6,1.8,3.4,1.8c1.2,0,2.1-0.3,2.8-0.9c0.3-0.3,0.5-0.6,0.7-0.9c0.1-0.3,0.4-0.8,0.4-1.4c0.1-0.6,0.2-1.2,0.2-1.8v-2.3
					c0-1.9-0.2-3.2-0.2-3.9c0-0.7-0.1-1.1-0.2-1.3c-0.1-0.1-0.2-0.3-0.4-0.3c-0.2-0.1-0.5-0.1-1.2-0.2l-0.1-0.1V58l0-0.1
					c0.6,0,1.1,0.1,1.8,0.1c0.5,0,1.6,0,2.9-0.1L142,58V58.8z"/>
			</g>
		</g>
		<g>
			<g>
				<path class="st0" d="M22,58.8l-0.2,0.1c-1,0-1.6,0.3-1.7,0.9c-0.1,0.3-0.1,1-0.1,2.1c0,0.8,0,1.9,0,3.4v4.2
					c0,2.7-0.6,4.7-1.6,5.8c-1.3,1.5-3.2,2.3-5.6,2.3c-2.2,0-3.9-0.4-5.2-1.2c-1-0.7-1.9-1.6-2.2-2.9C5.3,72.8,5,70.7,5,67.3v-3.5
					c0-2.2,0.1-3.6,0-4.3c0-0.3-0.1-0.4-0.3-0.5C4.5,59,4,59,3.2,58.9L3,58.8v-0.9l0.2-0.1c0.8,0.1,2.1,0.1,3.9,0.1
					c1.8,0,3,0,3.8-0.1l0.1,0.1v0.9l-0.1,0.1C10.1,59,9.6,59,9.5,59.1c-0.2,0.1-0.3,0.2-0.4,0.5C9,60.2,9,61.6,9,63.8v2.8
					c0,3.5,0.1,5.6,0.4,6.3c0.6,1.5,2,2.3,4.2,2.3c1.5,0,2.6-0.4,3.4-1.2c0.4-0.4,0.6-0.8,0.8-1.1c0.2-0.4,0.1-1,0.2-1.8
					c0.1-0.7,0-1.5,0-2.3v-2.9c0-2.4,0.1-4,0.1-4.9c0-0.8,0-1.4-0.1-1.6c-0.1-0.2-0.2-0.3-0.4-0.4c-0.2-0.1-0.7-0.2-1.5-0.2L16,58.8
					v-0.9l0.1-0.1c0.7,0.1,1.5,0.1,2.2,0.1c0.6,0,1.8,0,3.4-0.1l0.2,0.1V58.8z"/>
			</g>
		</g>
		<g>
			<g>
				<path class="st0" d="M157,70.7c0,2.3-1,4-3,5.3c-1,0.6-2.3,0.9-3.8,0.9c-0.5,0-0.9,0-1.2,0l-3-0.1c-1.1,0-2.1,0-2.7,0.1
					l-0.3-0.1v-0.4l0.3-0.2c0.6-0.4,1-0.7,1.1-0.8c0.1-0.2,0.4-0.8,0.4-1.8l0.3-3v-6.9c0-2.2-0.2-3.6-0.3-4.2c0-0.3-0.3-0.4-0.5-0.5
					c-0.1,0-0.9-0.1-1.7-0.1l-0.4-0.1v-0.9l0.4-0.1c0.7,0.1,2.1,0.1,3.9,0.1c1.1,0,2.2,0,3.2-0.1c0.7,0,1.4-0.1,1.9-0.1
					c2.3,0,3.8,0.6,4.6,1.7c0.4,0.6,0.6,1.3,0.6,2.1c0,1.3-0.5,2.4-1.4,3.2c-0.4,0.4-0.9,0.7-1.4,0.9c-0.5,0.2-1.1,0.4-1.8,0.6
					C155.3,66.3,157,67.8,157,70.7z M152.7,62.1c0-2-1-3-2.9-3c-0.6,0-1.3,0-1.7,0.1c0,0.9-0.2,1.8-0.2,2.6v3.7c0,0,0.7,0,1.2,0
					c1.5,0,2.5-0.5,3-1.6C152.5,63.4,152.7,62.8,152.7,62.1z M153.2,71.1c0-2.7-1.4-4.1-4-4.1c-0.3,0-0.2,0-1.2,0v6.3
					c0,0.7,0.1,1.3,0.2,2c0.3,0.1,0.9,0.1,1.5,0.1c1.2,0,2.1-0.4,2.7-1.2C152.9,73.5,153.2,72.5,153.2,71.1z"/>
			</g>
		</g>
		<g>
			<rect x="22" y="76" class="st0" width="117" height="2"/>
		</g>
		<g>
			<path class="st0" d="M24,87v-6h1v5h3v1H24z"/>
			<path class="st0" d="M43,87v-6l0,0V87L43,87z"/>
			<path class="st0" d="M64,87v-4.9L61.7,86h-0.4L59,82.1V87l0,0v-6h0.3l2.1,3.8l2.2-3.8H64V87L64,87z"/>
			<path class="st0" d="M80,87v-6l0,0V87L80,87z"/>
			<path class="st0" d="M100,81h-2v6h-1v-6h-2l0,0H100L100,81z"/>
			<path class="st0" d="M119,86v1h-4v-6h4l0,0h-4v3h3l0,0h-3v2H119z"/>
			<path class="st0" d="M133,87v-6h2.5c0.5,0,0.9,0,1.2,0.1c0.4,0.2,0.7,0.3,0.9,0.6s0.4,0.5,0.5,0.9c0.1,0.4,0.2,0.7,0.2,1.1
				c0,0.5-0.1,0.8-0.2,1.2s-0.3,0.7-0.6,0.9c-0.2,0.3-0.6,0.6-0.9,0.8c-0.4,0.1-0.7,0.4-1.2,0.4H133z M137.6,83.7
				c0-0.3,0-0.6-0.1-0.9c-0.1-0.3-0.2-0.5-0.4-0.7c-0.2-0.2-0.4-0.6-0.7-0.7c-0.3-0.1-0.6-0.4-0.9-0.4H134v5h1.5
				c0.3,0,0.6-0.1,0.9-0.2c0.3-0.1,0.5-0.3,0.7-0.5c0.2-0.2,0.3-0.4,0.4-0.7C137.5,84.3,137.6,84,137.6,83.7z"/>
		</g>
	</g>
</g>
</svg>
