<?xml version="1.0" encoding="utf-8"?>
<!-- Generator: Adobe Illustrator 19.1.0, SVG Export Plug-In . SVG Version: 6.00 Build 0)  -->
<svg version="1.1" id="Layer_1" xmlns="http://www.w3.org/2000/svg" xmlns:xlink="http://www.w3.org/1999/xlink" x="0px" y="0px"
	 viewBox="0 0 160 90" style="enable-background:new 0 0 160 90;" xml:space="preserve">
<style type="text/css">
	.st0{fill:#BBBBBB;}
</style>
<g>
	<g>
		<path class="st0" d="M37,31c-0.1,0.1-0.2,0.1-0.2,0C36.8,31,36.9,31,37,31z"/>
		<path class="st0" d="M26,44.6c-0.2,0-0.3,0-0.3,0.3c0,1.3,0,2.7,0,4c0,0.2-0.1,0.3-0.2,0.3c-0.9,0.3-1.9,0.6-2.9,0.6
			c-0.3,0-0.6,0-0.9,0c-2.1,0-4-1.4-4.3-3.6c-0.2-1.4-0.2-2.7,0.5-4c0.7-1.3,1.7-2,3.2-2.2c1.6-0.3,3.1-0.1,4.6,0.6
			c0.2,0.1,0.2,0.2,0.2,0.3c0,0.6,0,1.2,0,1.8c0,0.1,0,0.2,0,0.2c-0.1,0-0.2,0-0.2,0c-0.3-0.2-0.6-0.5-1-0.7
			c-0.6-0.3-1.2-0.6-1.9-0.6c-1.4,0-2.6,0.7-2.9,2.4c-0.1,0.8-0.1,1.6,0.2,2.3c0.3,1,1.1,1.5,2,1.7c0.4,0.1,0.9,0.1,1.3,0.1
			c0.1,0,0.2-0.1,0.2-0.2c0-0.5,0-1,0-1.6c0-0.2-0.1-0.2-0.2-0.2c-0.5,0-1,0-1.4,0c-0.2,0-0.2,0-0.2-0.2c0-0.5,0-0.9,0-1.4
			c0-0.1,0-0.2,0.2-0.2c1.3,0,2.5,0,3.8,0C25.7,44.4,25.8,44.6,26,44.6L26,44.6z"/>
		<path class="st0" d="M63.5,48.1c-0.5,0.5-1,0.9-1.7,1c-0.9,0.1-1.7,0-2.4-0.5c-0.5-0.4-0.8-0.9-1-1.5c-0.1-0.4-0.2-0.9-0.2-1.3
			c0-1.5,0-3.1,0-4.6c0-0.2,0-0.2,0.2-0.2c0.5,0,1,0,1.5,0c0.2,0,0.2,0,0.2,0.2c0,1.2,0,2.4,0,3.6c0,0.6,0,1.2,0.2,1.7
			c0.2,0.5,0.5,0.8,1.1,0.9c0.3,0.1,0.7,0,1-0.1c0.5-0.2,0.8-0.6,0.9-1.1c0.2-0.5,0.2-1.1,0.2-1.7c0-1.1,0-2.3,0-3.4
			c0-0.2,0-0.2,0.2-0.2c0.5,0,1,0,1.5,0c0.1,0,0.2,0,0.2,0.2c0,2.6,0,5.2,0,7.8c0,0.1,0,0.2-0.2,0.2c-0.5,0-1,0-1.5,0
			c-0.1,0-0.2,0-0.2-0.2C63.5,48.6,63.5,48.4,63.5,48.1z"/>
		<path class="st0" d="M100.7,41.8c0.3-0.2,0.5-0.5,0.7-0.6c0.3-0.2,0.7-0.3,1-0.4c0.7-0.1,1.4,0,2,0.4c0.7,0.4,1.1,1,1.3,1.8
			c0.1,0.5,0.1,1.1,0.1,1.7c0,1.4,0,2.7,0,4.1c0,0.2,0,0.2-0.2,0.2c-0.5,0-1,0-1.5,0c-0.2,0-0.2-0.1-0.2-0.2c0-1.3,0-2.6,0-3.9
			c0-0.5-0.1-0.9-0.2-1.4c-0.2-0.4-0.6-0.7-1.1-0.8c-0.5-0.1-0.9,0-1.3,0.2c-0.4,0.2-0.5,0.6-0.6,1c-0.1,0.4-0.2,0.8-0.1,1.3
			c0,1.2,0,2.5,0,3.7c0,0.2,0,0.2-0.2,0.2c-0.5,0-1,0-1.5,0c-0.1,0-0.2,0-0.2-0.2c0-2.6,0-5.2,0-7.7c0-0.1,0-0.2,0.2-0.2
			c0.5,0,1,0,1.5,0c0.1,0,0.2,0,0.2,0.2C100.7,41.3,100.7,41.5,100.7,41.8z"/>
		<path class="st0" d="M119.1,45.8c0,1,0,2,0,3c0,0.2,0,0.2-0.2,0.2c-0.5,0-1,0-1.5,0c-0.2,0-0.2,0-0.2-0.2c0-2,0-3.9,0-5.9
			c0-0.2-0.1-0.3-0.3-0.3c-0.3,0-0.5,0-0.8,0c-0.1,0-0.1,0-0.1-0.1c0-0.5,0-0.9,0-1.4c0-0.1,0.1-0.2,0.2-0.2c0.3,0,0.6,0,0.9,0
			c0.2,0,0.2,0,0.2-0.2c0-0.7,0-1.5,0-2.2c0-0.1,0-0.2,0.2-0.2c0.5,0,1,0,1.5,0c0.2,0,0.2,0,0.2,0.2c0,0.7,0,1.5,0,2.2
			c0,0.2,0,0.2,0.2,0.2c0.3,0,0.6,0,0.9,0c0.1,0,0.2,0,0.2,0.2c0,0.5,0,0.9,0,1.4c0,0.1,0,0.2-0.2,0.2c-0.3,0-0.6,0-0.9,0
			c-0.2,0-0.2,0-0.2,0.2C119.1,43.8,119.1,44.8,119.1,45.8z"/>
		<path class="st0" d="M149.1,48.1c-0.2,0.2-0.4,0.3-0.5,0.5c-0.4,0.4-1,0.5-1.5,0.6c-0.6,0-1.3,0-1.9-0.2c-0.8-0.3-1.3-0.9-1.5-1.7
			c-0.2-0.5-0.2-1-0.2-1.5c-0.1-1.5,0-3.1,0-4.6c0-0.2,0-0.3,0.2-0.2c0.2,0,0.4,0,0.6,0c0.2,0,0.2,0,0.2,0.2c0,1.5,0,3.1,0,4.6
			c0,0.4,0.1,0.9,0.3,1.3c0.2,0.6,0.7,1,1.3,1.1c0.7,0.1,1.5,0.1,2.1-0.3c0.5-0.3,0.9-0.8,1-1.4c0.1-0.4,0.1-0.8,0.1-1.2
			c0-1.3,0-2.7,0-4c0-0.2,0-0.2,0.2-0.2c0.2,0,0.4,0,0.6,0c0.1,0,0.2,0,0.2,0.2c0,0.5,0,0.9,0,1.4c0,2.1,0,4.2,0,6.3
			c0,0.2,0,0.2-0.2,0.2c-0.2,0-0.4,0-0.6,0c-0.1,0-0.1,0-0.1-0.1C149.1,48.6,149.1,48.4,149.1,48.1z"/>
		<path class="st0" d="M56.6,43.7c0,1.7,0,3.4,0,5.1c0,0.2,0,0.2-0.2,0.2c-0.5,0-1,0-1.5,0c-0.1,0-0.2,0-0.2-0.2c0-3.4,0-6.9,0-10.3
			c0-0.1,0-0.2,0.2-0.2c0.5,0,1,0,1.5,0c0.2,0,0.2,0,0.2,0.2C56.6,40.2,56.6,41.9,56.6,43.7z"/>
		<path class="st0" d="M87.5,43.7c0,1.7,0,3.4,0,5.1c0,0.2,0,0.2-0.2,0.2c-0.5,0-1,0-1.4,0c-0.1,0-0.2,0-0.2-0.2c0-3.4,0-6.9,0-10.3
			c0-0.1,0-0.2,0.2-0.2c0.5,0,1,0,1.4,0c0.2,0,0.2,0,0.2,0.2C87.5,40.2,87.5,41.9,87.5,43.7z"/>
		<path class="st0" d="M130.6,44.9c0-1.3,0-2.5,0-3.8c0-0.2,0-0.2,0.2-0.2c0.2,0,0.5-0.1,0.7,0c0.1,0.1,0,0.4,0,0.6
			c0,0.1,0,0.1,0,0.2c0.1,0,0.1-0.1,0.1-0.1c0.4-0.5,1-0.8,1.6-0.9c0.1,0,0.1,0,0.1,0.1c0,0.3,0,0.6,0,0.8c0,0.1,0,0.1-0.1,0.1
			c-0.4,0.1-0.8,0.2-1.2,0.5c-0.3,0.3-0.4,0.6-0.5,1c-0.1,1,0,2,0,2.9c0,0.8,0,1.6,0,2.4c0,0.2,0,0.2-0.2,0.2c-0.2,0-0.4,0-0.6,0
			c-0.2,0-0.2,0-0.2-0.2C130.6,47.5,130.6,46.2,130.6,44.9z"/>
		<path class="st0" d="M29.1,38.8c0,0.2-0.2,0.4-0.4,0.4c-0.2,0-0.3-0.2-0.3-0.4c0-0.2,0.2-0.4,0.4-0.4C29,38.5,29.1,38.6,29.1,38.8
			z"/>
		<path class="st0" d="M26.2,37.2c0-0.2,0.1-0.4,0.4-0.4c0.2,0,0.3,0.1,0.3,0.3c0,0.2-0.1,0.4-0.3,0.4
			C26.3,37.6,26.2,37.4,26.2,37.2z"/>
		<path class="st0" d="M26,36.9c0,0.2-0.2,0.4-0.4,0.4c-0.2,0-0.3-0.2-0.3-0.4c0-0.2,0.2-0.4,0.4-0.4C25.9,36.5,26.1,36.7,26,36.9z"
			/>
		<path class="st0" d="M21.9,38.4c0-0.2,0.1-0.4,0.3-0.4c0.2,0,0.3,0.2,0.3,0.4c0,0.2-0.2,0.4-0.3,0.4
			C22.1,38.8,21.9,38.7,21.9,38.4z"/>
		<path class="st0" d="M21.6,37.2c0-0.2,0.2-0.5,0.4-0.5c0.2,0,0.2,0.2,0.3,0.3c0,0.2-0.2,0.5-0.4,0.5
			C21.7,37.5,21.7,37.3,21.6,37.2z"/>
		<path class="st0" d="M26.5,36.4c0-0.2,0.1-0.4,0.3-0.4c0.2,0,0.3,0.1,0.3,0.3c0,0.2-0.2,0.4-0.3,0.4
			C26.6,36.7,26.5,36.5,26.5,36.4z"/>
		<path class="st0" d="M26.4,36c0,0.2-0.2,0.4-0.4,0.4c-0.1,0-0.3-0.2-0.3-0.3c0-0.2,0.2-0.4,0.4-0.4C26.3,35.7,26.4,35.9,26.4,36z"
			/>
		<path class="st0" d="M28.9,41.4c0.2,0,0.2,0.1,0.2,0.2c0,0.2-0.2,0.4-0.5,0.4c-0.1,0-0.2-0.1-0.3-0.2
			C28.4,41.6,28.6,41.4,28.9,41.4z"/>
		<path class="st0" d="M30,38c0,0.2-0.1,0.4-0.3,0.4c-0.1,0-0.3-0.2-0.3-0.4c0-0.2,0.1-0.4,0.3-0.4C29.9,37.6,30,37.8,30,38z"/>
		<path class="st0" d="M23.9,35.7c0,0.3-0.2,0.5-0.4,0.5c-0.2,0-0.2-0.1-0.2-0.3c0-0.2,0.2-0.4,0.4-0.4
			C23.8,35.5,23.9,35.6,23.9,35.7z"/>
		<path class="st0" d="M21.8,38c0,0,0,0.1,0,0.1c0,0.1-0.1,0.3-0.3,0.3c-0.2,0-0.2-0.2-0.2-0.3c0,0,0-0.1,0-0.1
			c0-0.2,0.1-0.3,0.3-0.3C21.8,37.6,21.8,37.8,21.8,38z"/>
		<path class="st0" d="M25.7,35.7c0,0.2-0.2,0.4-0.4,0.4c-0.2,0-0.2-0.1-0.2-0.3c0-0.2,0.2-0.4,0.4-0.4
			C25.6,35.4,25.7,35.5,25.7,35.7z"/>
		<path class="st0" d="M29.9,40.1c0-0.2,0.2-0.5,0.4-0.5c0.2,0,0.2,0.1,0.2,0.3c0,0.2-0.2,0.5-0.4,0.5
			C29.9,40.4,29.9,40.3,29.9,40.1z"/>
		<path class="st0" d="M29.4,37c0,0.2,0,0.3-0.3,0.3c-0.2,0-0.3-0.2-0.3-0.4c0-0.2,0.1-0.4,0.3-0.4C29.2,36.6,29.3,36.7,29.4,37z"/>
		<path class="st0" d="M30.2,40.8c0,0.3-0.2,0.5-0.4,0.5c-0.2,0-0.2-0.1-0.2-0.3c0-0.2,0.2-0.5,0.4-0.5
			C30.2,40.6,30.2,40.7,30.2,40.8z"/>
		<path class="st0" d="M30.6,39c0,0.2-0.1,0.5-0.3,0.4c-0.2,0-0.2-0.2-0.2-0.3c0-0.2,0.1-0.4,0.3-0.4C30.6,38.7,30.6,38.9,30.6,39z"
			/>
		<path class="st0" d="M24.6,35.7c-0.2,0-0.2-0.1-0.2-0.3c0-0.2,0.2-0.4,0.4-0.4c0.2,0,0.2,0.1,0.2,0.3C25,35.6,24.8,35.7,24.6,35.7
			z"/>
		<path class="st0" d="M22.6,35.6c0-0.2,0.2-0.5,0.4-0.5c0.1,0,0.2,0.1,0.2,0.2c0,0.2-0.2,0.5-0.4,0.5
			C22.7,35.8,22.6,35.7,22.6,35.6z"/>
		<path class="st0" d="M21.1,36.8c0-0.2,0.2-0.5,0.3-0.5c0.2,0,0.2,0.2,0.2,0.3c0,0.2-0.2,0.5-0.3,0.5
			C21.1,37.1,21.1,36.9,21.1,36.8z"/>
		<path class="st0" d="M21.6,36c0-0.2,0.2-0.5,0.4-0.5c0.1,0,0.2,0.1,0.2,0.2c0,0.2-0.2,0.5-0.4,0.5C21.6,36.2,21.6,36.2,21.6,36z"
			/>
		<path class="st0" d="M21.2,37.5c0,0.2,0,0.4-0.2,0.5c-0.1,0-0.2,0-0.2,0c-0.1-0.1-0.1-0.3-0.1-0.5c0.1-0.1,0.1-0.3,0.3-0.3
			C21.2,37.3,21.2,37.4,21.2,37.5z"/>
		<path class="st0" d="M24,35.4c-0.1,0-0.2-0.1-0.2-0.2c0-0.2,0.2-0.4,0.4-0.4c0.2,0,0.2,0.1,0.2,0.2C24.4,35.2,24.2,35.4,24,35.4z"
			/>
		<path class="st0" d="M28.2,42.8c-0.1,0-0.2-0.1-0.2-0.2c0-0.2,0.2-0.4,0.5-0.4c0.1,0,0.2,0,0.2,0.2C28.7,42.6,28.4,42.8,28.2,42.8
			z"/>
		<path class="st0" d="M27.4,35.5c0,0.2-0.1,0.4-0.3,0.4c-0.2,0-0.2-0.1-0.3-0.3c0-0.2,0.2-0.4,0.3-0.4
			C27.3,35.2,27.4,35.3,27.4,35.5z"/>
		<path class="st0" d="M30,37.1c0,0.1,0,0.3-0.2,0.3c-0.2,0-0.3-0.2-0.3-0.4c0-0.2,0-0.3,0.2-0.3C29.9,36.7,30,36.9,30,37.1z"/>
		<path class="st0" d="M29.3,42.1c-0.2,0-0.2-0.1-0.2-0.2c0,0,0-0.1,0-0.1c0.1-0.2,0.3-0.3,0.5-0.3c0.1,0,0.1,0.1,0.1,0.2
			C29.8,41.9,29.5,42.2,29.3,42.1z"/>
		<path class="st0" d="M28.7,36c0,0.1-0.1,0.3-0.2,0.3c-0.2,0-0.3-0.1-0.3-0.3c0-0.2,0.1-0.4,0.2-0.4C28.6,35.6,28.7,35.8,28.7,36z"
			/>
		<path class="st0" d="M22.7,35c0,0.2-0.3,0.5-0.4,0.5c-0.1,0-0.2-0.1-0.2-0.2c0-0.2,0.2-0.5,0.4-0.5C22.7,34.8,22.7,34.8,22.7,35z"
			/>
		<path class="st0" d="M31.1,39.9c0,0.1-0.1,0.3-0.2,0.4c-0.1,0.1-0.1,0.1-0.2,0.1c-0.1,0-0.1-0.1-0.1-0.2c0-0.1,0.1-0.3,0.2-0.4
			c0.1-0.1,0.1-0.1,0.2-0.1C31,39.7,31,39.8,31.1,39.9z"/>
		<path class="st0" d="M23.2,34.8c0-0.2,0.3-0.4,0.5-0.4c0.1,0,0.2,0.1,0.2,0.2c0,0.2-0.3,0.4-0.4,0.4C23.3,35.1,23.2,35,23.2,34.8z
			"/>
		<path class="st0" d="M26.4,35.5c-0.2,0-0.2-0.1-0.2-0.2c0-0.2,0.2-0.4,0.3-0.4c0.2,0,0.2,0.1,0.2,0.3
			C26.8,35.4,26.6,35.5,26.4,35.5z"/>
		<path class="st0" d="M25.9,34.7c0.1,0,0.2,0.1,0.2,0.2c0,0.2-0.2,0.4-0.4,0.4c-0.1,0-0.2-0.1-0.2-0.2
			C25.5,34.9,25.7,34.7,25.9,34.7z"/>
		<path class="st0" d="M30.7,39.1c0-0.2,0.1-0.3,0.2-0.4c0.1,0,0.1,0,0.1,0c0.1,0.1,0.1,0.3,0.1,0.5c0,0.1-0.1,0.3-0.3,0.3
			C30.7,39.4,30.7,39.3,30.7,39.1z"/>
		<path class="st0" d="M30.8,40.9c0,0.2-0.1,0.3-0.3,0.4c-0.1,0-0.1,0.1-0.2,0c-0.1,0-0.1-0.1-0.1-0.2c0-0.2,0.1-0.3,0.2-0.4
			c0.1,0,0.1-0.1,0.2-0.1C30.8,40.7,30.8,40.8,30.8,40.9z"/>
		<path class="st0" d="M28.9,36c0-0.1,0-0.2,0.2-0.2c0.2,0,0.3,0.2,0.3,0.4c0,0.1,0,0.3-0.2,0.3C29,36.4,28.9,36.3,28.9,36z"/>
		<path class="st0" d="M25.2,35c-0.1,0-0.2,0-0.2-0.2c0-0.2,0.2-0.4,0.4-0.4c0.1,0,0.2,0.1,0.2,0.2C25.6,34.8,25.3,35,25.2,35z"/>
		<path class="st0" d="M20.7,36.4c0-0.2,0-0.3,0.2-0.4c0.1,0,0.1-0.1,0.2-0.1c0.1,0,0.1,0.1,0.1,0.2c0,0.1-0.1,0.3-0.1,0.4
			c-0.1,0.1-0.1,0.2-0.2,0.1C20.7,36.6,20.7,36.5,20.7,36.4z"/>
		<path class="st0" d="M20.7,37c0,0.2,0,0.3-0.1,0.4c0,0.1-0.1,0.2-0.2,0.2c-0.1,0-0.1-0.1-0.1-0.2c0-0.1,0-0.2,0.1-0.3
			c0-0.1,0.1-0.2,0.2-0.2C20.7,36.8,20.7,37,20.7,37z"/>
		<path class="st0" d="M30,36.2c0,0.2,0,0.3-0.2,0.3c-0.1,0-0.2-0.1-0.2-0.2c-0.1-0.2-0.1-0.3,0-0.5c0-0.1,0.1-0.1,0.2-0.1
			C29.9,35.9,29.9,36.1,30,36.2z"/>
		<path class="st0" d="M21.7,35.4c0,0.2-0.1,0.3-0.3,0.4c-0.1,0.1-0.2,0-0.2-0.1c0-0.2,0.1-0.4,0.3-0.5
			C21.6,35.1,21.7,35.1,21.7,35.4z"/>
		<path class="st0" d="M24.6,34.7c-0.1,0-0.2-0.1-0.2-0.2c0-0.2,0.3-0.4,0.4-0.4c0.1,0,0.2,0.1,0.2,0.2C25,34.4,24.8,34.7,24.6,34.7
			z"/>
		<path class="st0" d="M22.9,34.7c-0.1,0-0.2-0.1-0.2-0.2c0-0.2,0.3-0.4,0.5-0.4c0.1,0,0.2,0.1,0.2,0.2
			C23.4,34.5,23.1,34.7,22.9,34.7z"/>
		<path class="st0" d="M28.9,42.9c-0.2,0-0.2-0.1-0.2-0.2c0.1-0.2,0.3-0.4,0.5-0.3c0.1,0,0.2,0.1,0.1,0.2
			C29.3,42.7,29.1,42.9,28.9,42.9z"/>
		<path class="st0" d="M29.9,42c0-0.2,0.2-0.5,0.4-0.5c0.2,0,0.2,0.1,0.2,0.2c-0.1,0.2-0.2,0.4-0.4,0.4C29.9,42.2,29.9,42.2,29.9,42
			z"/>
		<path class="st0" d="M24.3,42.7c0.2,0,0.3,0.1,0.4,0.3c0,0.2-0.1,0.2-0.2,0.2c-0.2,0-0.4-0.2-0.4-0.3
			C24.1,42.8,24.2,42.7,24.3,42.7z"/>
		<path class="st0" d="M21.7,34.8C21.7,34.8,21.7,34.8,21.7,34.8c0.1-0.2,0.3-0.5,0.5-0.4c0.1,0,0.1,0.1,0.1,0.2
			c0,0.2-0.2,0.4-0.4,0.5C21.8,35.1,21.7,35,21.7,34.8z"/>
		<path class="st0" d="M27.7,43.4c-0.1,0-0.2,0-0.2-0.2c0-0.2,0.2-0.3,0.5-0.3c0.1,0,0.2,0,0.2,0.2C28.2,43.3,27.9,43.4,27.7,43.4z"
			/>
		<path class="st0" d="M24.1,34.3c-0.1,0-0.2,0-0.2-0.1c0-0.1,0.3-0.4,0.5-0.4c0.1,0,0.2,0,0.2,0.1C24.6,34.1,24.3,34.3,24.1,34.3z"
			/>
		<path class="st0" d="M22.9,33.8c0.1,0,0.2,0.1,0.1,0.2c-0.1,0.2-0.2,0.3-0.4,0.4c-0.1,0-0.1,0-0.2,0c-0.1,0-0.1-0.1,0-0.2
			C22.5,33.9,22.7,33.8,22.9,33.8z"/>
		<path class="st0" d="M24.1,33.6c0,0.2-0.4,0.5-0.6,0.4c-0.1,0-0.1-0.1-0.1-0.2c0.1-0.2,0.4-0.3,0.5-0.3
			C24.1,33.5,24.1,33.6,24.1,33.6z"/>
		<path class="st0" d="M28.7,35.1c0,0.1,0,0.3-0.2,0.3c-0.2,0-0.2-0.2-0.2-0.3c0-0.1,0-0.3,0.2-0.3C28.7,34.8,28.7,34.9,28.7,35.1z"
			/>
		<path class="st0" d="M31.3,39.1c0,0,0-0.1,0-0.1c0-0.1,0.1-0.3,0.2-0.2c0.1,0,0.1,0.2,0.1,0.3c0,0.1,0,0.1,0,0.2
			c0,0.1-0.1,0.3-0.2,0.3C31.3,39.4,31.3,39.2,31.3,39.1z"/>
		<path class="st0" d="M29.3,35.3c0,0.1,0,0.3-0.2,0.2c-0.2,0-0.3-0.2-0.3-0.4c0-0.1,0-0.3,0.1-0.3C29.1,34.8,29.3,35.1,29.3,35.3z"
			/>
		<path class="st0" d="M20.4,38.1C20.4,38.1,20.4,38.2,20.4,38.1c0,0.2,0,0.4-0.2,0.4c-0.2,0-0.2-0.2-0.2-0.3c0,0,0-0.1,0-0.1
			c0.1-0.1,0-0.3,0.2-0.3C20.4,37.7,20.4,38,20.4,38.1z"/>
		<path class="st0" d="M26.2,34.5c-0.1,0-0.2-0.1-0.2-0.2c0-0.1,0.2-0.3,0.4-0.4c0.1,0,0.2,0.1,0.2,0.2
			C26.6,34.4,26.4,34.5,26.2,34.5z"/>
		<path class="st0" d="M27.1,34.4c0,0.2-0.1,0.4-0.3,0.4c-0.1,0-0.2-0.1-0.2-0.2c0-0.2,0.2-0.3,0.3-0.4C27,34.2,27.1,34.3,27.1,34.4
			z"/>
		<path class="st0" d="M31.6,39.9c0,0.2-0.1,0.4-0.2,0.5c0,0-0.1,0-0.1,0c-0.1-0.2,0-0.4,0.1-0.5c0.1-0.1,0.1-0.2,0.2-0.2
			C31.6,39.7,31.5,39.8,31.6,39.9z"/>
		<path class="st0" d="M31.3,40.8c0,0.2-0.1,0.4-0.3,0.5c0,0-0.1,0.1-0.1,0c0,0-0.1-0.1-0.1-0.1c0-0.2,0.1-0.4,0.2-0.5
			c0.1,0,0.1-0.1,0.2-0.1C31.3,40.6,31.3,40.7,31.3,40.8z"/>
		<path class="st0" d="M25.7,34.3c-0.1,0-0.2,0-0.2-0.2c0-0.1,0.2-0.4,0.4-0.4c0.1,0,0.2,0.1,0.2,0.2C26.1,34.1,25.8,34.3,25.7,34.3
			z"/>
		<path class="st0" d="M31.7,38.1c0,0.1,0,0.1,0,0.2c0,0.1,0,0.2-0.1,0.2c-0.1,0-0.1-0.1-0.1-0.2c0-0.1,0-0.3,0-0.4
			c0-0.1,0-0.1,0.1-0.1c0.1,0,0.1,0.1,0.1,0.1C31.6,37.9,31.7,38,31.7,38.1z"/>
		<path class="st0" d="M20.4,35.7C20.5,35.7,20.5,35.7,20.4,35.7c0.1-0.1,0.2-0.2,0.3-0.2c0.1,0.1,0.1,0.2,0,0.3
			c0,0.1-0.1,0.3-0.2,0.4c-0.1,0-0.1,0.1-0.2,0.1c-0.1,0-0.1-0.1-0.1-0.2C20.4,36,20.4,35.8,20.4,35.7L20.4,35.7z"/>
		<path class="st0" d="M21.3,34.9c0,0.2-0.2,0.4-0.3,0.5c0,0-0.1,0-0.1,0c0,0-0.1-0.1,0-0.1c0.1-0.2,0.1-0.4,0.3-0.5
			C21.3,34.7,21.3,34.8,21.3,34.9z"/>
		<path class="st0" d="M29.8,35.5c0,0.1,0,0.2-0.2,0.2c-0.1,0-0.3-0.3-0.3-0.5c0-0.1,0-0.2,0.1-0.2C29.6,34.9,29.8,35.3,29.8,35.5z"
			/>
		<path class="st0" d="M23.3,33.7c-0.2,0-0.2-0.1-0.2-0.2c0.1-0.2,0.3-0.3,0.5-0.3c0.1,0,0.1,0,0.1,0.2
			C23.7,33.6,23.4,33.7,23.3,33.7z"/>
		<path class="st0" d="M28.4,43.5c-0.1,0-0.1,0-0.2,0c0-0.1,0-0.1,0-0.1c0.1-0.2,0.3-0.2,0.5-0.3c0.1,0,0.1,0,0.1,0.1
			c0,0.1,0,0.1,0,0.2C28.7,43.4,28.6,43.5,28.4,43.5z"/>
		<path class="st0" d="M30,42.4c0,0.2-0.3,0.5-0.5,0.5c-0.1,0-0.1-0.1-0.1-0.2c0.1-0.2,0.2-0.3,0.4-0.4C29.9,42.3,30,42.4,30,42.4z"
			/>
		<path class="st0" d="M21.6,34.2c0.1,0,0.1,0,0.1-0.1c0.1,0,0.1-0.1,0.2-0.1c0.1,0.1,0,0.2,0,0.3c-0.1,0.1-0.2,0.2-0.3,0.3
			c-0.1,0-0.1,0.1-0.2,0c-0.1,0,0-0.1,0-0.2C21.5,34.4,21.6,34.3,21.6,34.2L21.6,34.2z"/>
		<path class="st0" d="M25.2,34c-0.1,0-0.2,0-0.2-0.1c0-0.1,0.2-0.3,0.4-0.3c0.1,0,0.2,0,0.1,0.1C25.6,33.8,25.4,34,25.2,34z"/>
		<path class="st0" d="M25.1,33.3c0.1,0,0.1,0,0.1,0.1c0,0.1,0,0.1,0,0.1c-0.1,0.1-0.2,0.2-0.4,0.3c-0.1,0-0.1,0-0.2,0
			c0-0.1,0-0.1,0-0.2C24.7,33.4,24.9,33.4,25.1,33.3z"/>
		<path class="st0" d="M20,36.9c0-0.1,0-0.3,0.2-0.5c0.1-0.1,0.1,0,0.2,0c0.1,0.1-0.1,0.5-0.2,0.6c0,0-0.1,0.1-0.1,0
			C20,37.1,20,37,20,36.9z"/>
		<path class="st0" d="M30.9,41.8c-0.1,0.1-0.2,0.2-0.3,0.3c-0.1,0-0.1,0.1-0.1,0c0,0,0-0.1,0-0.1c0.1-0.2,0.2-0.4,0.4-0.5
			c0.1,0,0.2,0,0.1,0.1C30.9,41.7,30.9,41.8,30.9,41.8L30.9,41.8z"/>
		<path class="st0" d="M22.3,33.6c0.1,0,0.2-0.1,0.3-0.1c0.1,0,0.2,0,0.1,0.1c-0.1,0.2-0.2,0.3-0.4,0.4c-0.1,0-0.1,0.1-0.1,0
			c0-0.1,0-0.1,0-0.2C22.2,33.7,22.3,33.7,22.3,33.6C22.3,33.6,22.3,33.6,22.3,33.6z"/>
		<path class="st0" d="M30.3,35.6c0,0,0,0.1-0.1,0.1c-0.1,0-0.1,0-0.2-0.1c-0.1-0.1-0.1-0.3-0.2-0.4c0-0.1,0-0.1,0.1-0.2
			c0.1,0,0.1,0,0.1,0.1C30.2,35.2,30.3,35.4,30.3,35.6z"/>
		<path class="st0" d="M24.4,33.5c-0.1,0-0.1,0-0.2-0.1c0-0.1,0-0.1,0.1-0.1c0.1-0.1,0.3-0.2,0.5-0.2c0,0,0.1,0,0.1,0.1
			c0,0.1,0,0.1,0,0.1C24.7,33.4,24.5,33.4,24.4,33.5z"/>
		<path class="st0" d="M24.2,43.7c-0.2-0.1-0.3-0.1-0.3-0.3c0-0.1,0.1-0.2,0.2-0.1c0.1,0,0.3,0.1,0.3,0.3
			C24.4,43.7,24.3,43.6,24.2,43.7z"/>
		<path class="st0" d="M24.9,43.9c-0.1,0-0.3,0-0.3-0.2c0-0.1,0.1-0.2,0.2-0.2c0.1,0,0.3,0,0.3,0.2C25.1,43.8,25,43.9,24.9,43.9z"/>
		<path class="st0" d="M23.1,33c0.1,0,0.3-0.1,0.4,0c-0.1,0.2-0.3,0.4-0.5,0.4c-0.1,0-0.1-0.1-0.1-0.1c0-0.1,0.1-0.1,0.1-0.2
			C23,33.1,23.1,33,23.1,33z"/>
		<path class="st0" d="M32,38.9c0,0.1,0,0.3-0.1,0.4c0,0-0.1,0-0.1,0.1c0,0-0.1-0.1-0.1-0.1c0-0.2,0-0.3,0-0.5c0-0.1,0-0.1,0.1-0.1
			c0.1,0,0.1,0.1,0.1,0.2C32,38.8,32,38.9,32,38.9z"/>
		<path class="st0" d="M19.8,37.5c0-0.1,0-0.2,0.1-0.2c0.1,0,0.1,0.1,0.1,0.2c0,0.2,0,0.3,0,0.5c0,0.1,0,0.1-0.1,0.1
			c-0.1,0-0.1-0.1-0.1-0.2c0-0.1,0-0.2,0-0.4C19.8,37.6,19.8,37.5,19.8,37.5z"/>
		<path class="st0" d="M26.9,33.6c0,0.2-0.2,0.3-0.3,0.3c-0.1,0-0.1-0.1-0.1-0.2c0-0.1,0.2-0.3,0.3-0.3C26.9,33.4,27,33.5,26.9,33.6
			z"/>
		<path class="st0" d="M32,38.1c0,0.1,0,0.3-0.1,0.3c-0.1,0-0.1-0.2-0.1-0.3c0,0,0,0,0-0.1c0-0.1-0.1-0.3,0.1-0.3
			C32,37.7,32,37.9,32,38.1C32,38,32,38,32,38.1z"/>
		<path class="st0" d="M23.8,32.5c-0.1,0-0.1,0-0.2,0c0.1-0.3,0.3-0.4,0.6-0.4c-0.1,0.1-0.1,0.3-0.2,0.3
			C23.9,32.5,23.9,32.5,23.8,32.5z"/>
		<path class="st0" d="M31.7,40.9c-0.1,0.1-0.1,0.2-0.2,0.3c0,0,0,0.1-0.1,0.1c0,0,0-0.1,0-0.1c0-0.2,0.1-0.4,0.2-0.5
			c0,0,0.1-0.1,0.1-0.1c0.1,0,0,0.1,0,0.1c0,0,0,0.1,0,0.1C31.8,40.8,31.8,40.9,31.7,40.9z"/>
		<path class="st0" d="M24.2,32.9c0,0,0.1,0,0.1,0c0.1,0,0.2-0.1,0.2,0c0,0.1-0.1,0.1-0.2,0.2c-0.1,0-0.1,0.1-0.2,0.1
			c-0.1,0-0.2,0.1-0.3,0c-0.1-0.1,0.1-0.2,0.1-0.2C24.1,32.9,24.1,32.9,24.2,32.9z"/>
		<path class="st0" d="M31.7,36.7c0.2,0.2,0.2,0.4,0.2,0.7c0,0,0,0.1-0.1,0.1c0,0-0.1,0-0.1-0.1C31.6,37.2,31.5,36.9,31.7,36.7z"/>
		<path class="st0" d="M29.4,43.1c-0.1,0.1-0.2,0.2-0.3,0.3c-0.1,0-0.2,0.2-0.3,0.1c-0.1-0.1,0.1-0.2,0.2-0.3
			c0.1-0.1,0.2-0.1,0.3-0.2C29.4,43,29.4,43,29.4,43.1z"/>
		<path class="st0" d="M31.9,39.7c0,0.1,0,0.2,0,0.3c0,0.1-0.1,0.3-0.2,0.2c-0.1,0,0-0.2,0-0.3c0-0.1,0.1-0.2,0.1-0.2
			c0-0.1,0.1-0.2,0.1-0.2C32,39.6,31.9,39.7,31.9,39.7z"/>
		<path class="st0" d="M31,35.4c0,0.1,0,0.2,0,0.3c-0.2-0.1-0.4-0.4-0.3-0.7c0.1,0,0.2,0.2,0.3,0.2C31,35.2,31,35.3,31,35.4z"/>
		<path class="st0" d="M30.4,42.6c-0.1,0-0.2,0.2-0.3,0.2c0,0-0.1,0-0.1,0c0,0,0-0.1,0-0.1c0.1-0.1,0.2-0.2,0.3-0.3
			c0.1,0,0.1-0.1,0.2-0.1c0.1,0.1,0,0.1,0,0.2C30.5,42.6,30.4,42.6,30.4,42.6z"/>
		<path class="st0" d="M29.2,34.3c0,0,0-0.1,0-0.1c0.1,0,0.1,0,0.1,0.1c0.1,0.1,0.2,0.2,0.2,0.4c0,0.1,0,0.1-0.1,0.1
			c-0.1,0-0.1,0-0.2-0.1C29.3,34.6,29.2,34.5,29.2,34.3z"/>
		<path class="st0" d="M26.1,33.1c0.1,0,0.1,0,0.1,0.1c0,0.1-0.3,0.3-0.4,0.3c-0.1,0-0.1,0-0.1-0.1C25.6,33.3,25.9,33.1,26.1,33.1z"
			/>
		<path class="st0" d="M21.5,33.8c0,0,0.1,0,0.1,0c0,0,0.1-0.1,0.1,0c0,0,0,0.1,0,0.1c-0.1,0.1-0.1,0.2-0.2,0.3c0,0,0,0,0,0
			c-0.1,0-0.2,0.2-0.3,0.1c-0.1-0.1,0.1-0.2,0.1-0.3c0,0,0,0,0,0C21.4,33.9,21.5,33.9,21.5,33.8C21.5,33.8,21.5,33.8,21.5,33.8z"/>
		<path class="st0" d="M19.8,36.8c0-0.2,0-0.4,0-0.6c0-0.1,0.1-0.2,0.2-0.2c0.1,0,0.1,0.1,0,0.2C20,36.5,20,36.7,19.8,36.8z"/>
		<path class="st0" d="M22.3,33.6c-0.1,0-0.2,0.2-0.4,0.1c0-0.1,0.1-0.2,0.1-0.3c0-0.1,0.1-0.1,0.2-0.2c0.1,0,0.2-0.1,0.3,0
			C22.5,33.4,22.4,33.5,22.3,33.6C22.3,33.6,22.3,33.6,22.3,33.6z"/>
		<path class="st0" d="M25.5,33c0.2,0,0.3-0.1,0.5,0c-0.1,0.2-0.3,0.2-0.4,0.3c0,0-0.1,0-0.2,0C25.3,33.1,25.3,33.1,25.5,33
			C25.4,33,25.4,33,25.5,33C25.5,33,25.5,33,25.5,33z"/>
		<path class="st0" d="M26.2,33.7c-0.1,0-0.1,0-0.1-0.1c0-0.1,0.2-0.3,0.4-0.3c0.1,0,0.1,0,0.1,0.1C26.6,33.5,26.4,33.7,26.2,33.7z"
			/>
		<path class="st0" d="M27.8,44c-0.1,0-0.1,0-0.1,0c0-0.1,0-0.1,0.1-0.1c0.1-0.1,0.3-0.2,0.4-0.2c0,0,0.1,0,0.1,0c0,0,0,0.1,0,0.1
			C28.2,43.9,27.9,44,27.8,44z"/>
		<path class="st0" d="M24,32.6c0.1,0,0.2,0,0.3,0c0,0.1-0.1,0.1-0.1,0.2c0,0.1-0.1,0.1-0.2,0.1c0,0,0,0,0,0c-0.1,0-0.2,0.1-0.3,0
			c-0.1-0.1,0.1-0.2,0.2-0.2C23.9,32.6,24,32.6,24,32.6z"/>
		<path class="st0" d="M22.9,32.9c-0.1,0-0.1,0-0.2,0.1c0.3-0.5,0.3-0.5,0.6-0.4c0,0.1-0.2,0.1-0.2,0.2C23.1,32.9,23,32.9,22.9,32.9
			z"/>
		<path class="st0" d="M20.4,35.3c0.1-0.1,0.2,0,0.1,0.1c0,0.1-0.1,0.2-0.1,0.4c0,0,0,0,0,0c-0.1,0.1-0.1,0.1-0.2,0.2
			c-0.1-0.2,0.1-0.3,0-0.4C20.2,35.4,20.3,35.3,20.4,35.3z"/>
		<path class="st0" d="M29.9,34.9c-0.2-0.1-0.3-0.3-0.3-0.5c0,0,0-0.1,0-0.1c0,0,0.1,0,0.1,0C29.9,34.4,30,34.6,29.9,34.9z"/>
		<path class="st0" d="M30.7,34.1c0-0.1,0-0.2,0.1-0.2c0.1,0,0.1,0.1,0.1,0.2c0.1,0.1,0.2,0.2,0.1,0.4c0,0.1-0.1,0-0.1,0
			C30.8,34.4,30.7,34.3,30.7,34.1z"/>
		<path class="st0" d="M21,34.5c0,0,0.1,0,0.1,0c0.1,0,0,0.1,0,0.1c-0.1,0.2-0.2,0.4-0.4,0.5c-0.1-0.2,0.1-0.3,0.1-0.4
			c0,0,0-0.1,0-0.1C20.9,34.5,20.9,34.5,21,34.5z"/>
		<path class="st0" d="M31.2,41.8c-0.1,0.1-0.2,0.2-0.3,0.3c0-0.1,0-0.2,0-0.2c0,0,0,0,0,0c0.2-0.1,0.2-0.3,0.4-0.4
			c0,0.1,0,0.1,0,0.2C31.4,41.7,31.4,41.8,31.2,41.8z"/>
		<path class="st0" d="M28.7,43.9c-0.2,0-0.3,0.1-0.4,0.1c0.1-0.2,0.4-0.4,0.6-0.4c0.1,0,0,0.1,0,0.1C28.8,43.9,28.8,43.9,28.7,43.9
			z"/>
		<path class="st0" d="M31,35.4c0-0.1-0.1-0.1-0.1-0.2c0-0.1,0-0.1,0-0.3c0.1,0.1,0.2,0.1,0.2,0.2c0.1,0,0.1,0.1,0.1,0.2
			c0,0.1,0.1,0.2,0,0.3C31.1,35.6,31.1,35.4,31,35.4z"/>
		<path class="st0" d="M25.5,33c-0.2,0-0.3,0.1-0.5,0c0.1-0.2,0.3-0.3,0.6-0.2C25.6,32.9,25.5,32.9,25.5,33C25.5,33,25.5,33,25.5,33
			z"/>
		<path class="st0" d="M19.7,38.3c0.1,0,0.1-0.1,0.2,0c0.1,0.2,0,0.4,0,0.6c0,0,0,0.1-0.1,0.1c0,0-0.1,0-0.1-0.1
			c0-0.1-0.1-0.3-0.1-0.4C19.6,38.4,19.6,38.4,19.7,38.3z"/>
		<path class="st0" d="M22.9,32.9c0.1,0,0.2,0,0.2-0.1c0.1,0,0.2,0,0.2,0c0,0.2-0.2,0.2-0.2,0.3c0,0-0.1,0-0.1,0.1
			c-0.1,0-0.2,0.1-0.3,0C22.7,33,22.9,33,22.9,32.9z"/>
		<path class="st0" d="M24.6,32c0.1-0.1,0.2-0.2,0.3-0.1c0.1,0,0.2,0,0.3,0c-0.1,0.3-0.3,0.3-0.6,0.3c0,0-0.1,0-0.1,0
			C24.5,32.1,24.5,32.1,24.6,32c0.1,0,0.1,0.1,0.2,0C24.7,32.1,24.6,32.1,24.6,32z"/>
		<path class="st0" d="M30.3,34.9c-0.2-0.2-0.4-0.4-0.4-0.6C30.2,34.4,30.3,34.6,30.3,34.9z"/>
		<path class="st0" d="M29.8,43.3c-0.1,0-0.1,0.1-0.2,0.1c-0.1,0-0.1,0.1-0.2,0.1c0-0.2,0.4-0.5,0.5-0.5c0.1,0,0,0.1,0,0.1
			C29.9,43.3,29.9,43.3,29.8,43.3z"/>
		<path class="st0" d="M32.4,38.8c-0.1,0.1,0,0.3-0.2,0.3c-0.1-0.3,0-0.5,0-0.7c0.1,0,0.1,0.1,0.2,0.2
			C32.4,38.7,32.4,38.8,32.4,38.8z"/>
		<path class="st0" d="M32.3,37.9c-0.1,0.1,0,0.3-0.1,0.4c-0.1-0.1-0.2-0.6-0.1-0.7c0.1-0.1,0.1,0.1,0.1,0.1
			C32.3,37.7,32.3,37.7,32.3,37.9C32.3,37.8,32.3,37.9,32.3,37.9z"/>
		<path class="st0" d="M31.3,35.3c0-0.1,0-0.1-0.1-0.2c0-0.1,0-0.2,0-0.3c0.1,0,0.1,0.1,0.1,0.1c0.2,0,0.2,0.1,0.2,0.3
			c0,0.1,0.1,0.2,0,0.3C31.4,35.5,31.4,35.3,31.3,35.3z"/>
		<path class="st0" d="M31.4,35.3c0-0.1-0.1-0.2-0.2-0.3c0-0.1,0-0.2,0.1-0.2c0.1,0,0.1,0.1,0.1,0.1c0.1,0.1,0.1,0.3,0.1,0.4
			C31.5,35.3,31.5,35.3,31.4,35.3z"/>
		<path class="st0" d="M24,32.6c0,0-0.1,0-0.1,0.1c-0.1,0-0.2,0-0.4,0c0-0.1,0.1-0.1,0.2-0.2c0.1,0,0.2,0,0.2-0.1
			c0.1,0.1,0.2,0,0.3,0.1C24.2,32.5,24.1,32.6,24,32.6z"/>
		<path class="st0" d="M32.2,37c-0.1,0.1,0,0.2-0.1,0.3c-0.2-0.2-0.2-0.4-0.2-0.7c0.1,0.1,0.1,0.1,0.2,0.2
			C32.1,36.9,32.2,36.9,32.2,37z"/>
		<path class="st0" d="M30.1,33.4C30.1,33.3,30,33.3,30.1,33.4c0.2-0.1,0.4,0.3,0.3,0.4c-0.2,0-0.2-0.1-0.3-0.2
			C30.1,33.5,30,33.5,30.1,33.4z"/>
		<path class="st0" d="M19.9,39.9c-0.2-0.2-0.1-0.4-0.3-0.6c0-0.1,0-0.1,0.1-0.1c0.1,0,0.1,0,0.1,0.1C19.9,39.5,19.9,39.7,19.9,39.9
			z"/>
		<path class="st0" d="M21.4,34C21.4,34,21.4,34,21.4,34c-0.1,0-0.1,0-0.2,0c0.2-0.4,0.3-0.5,0.5-0.5c0,0.1-0.1,0.2-0.2,0.3
			c0,0,0,0,0,0.1C21.5,33.9,21.4,33.9,21.4,34z"/>
		<path class="st0" d="M22.3,33.2c-0.1,0.1-0.1,0.1-0.2,0.2c0,0-0.2,0.1-0.1-0.1c0.1-0.2,0.2-0.3,0.5-0.3
			C22.4,33.1,22.3,33.1,22.3,33.2z"/>
		<path class="st0" d="M31.7,35.9c0.1-0.1-0.1-0.2,0-0.2c0.2,0.1,0.3,0.1,0.2,0.5c-0.1,0-0.1-0.1-0.1-0.1C31.7,36,31.7,36,31.7,35.9
			z"/>
		<path class="st0" d="M30.4,42.6c0,0,0-0.1,0.1-0.1c0.2,0,0.2-0.2,0.3-0.2c0.1,0,0.1-0.1,0.1,0c0,0.1,0,0.1-0.1,0.1
			c-0.1,0-0.2,0.2-0.3,0.2c0,0-0.1,0.1-0.1,0C30.4,42.7,30.4,42.7,30.4,42.6z"/>
		<path class="st0" d="M32.2,39.8c0,0.1-0.1,0.2-0.2,0.4c0-0.3,0-0.5,0.2-0.7c0,0,0,0,0.1,0c0.1,0.1,0,0.1,0,0.2
			C32.2,39.7,32.2,39.8,32.2,39.8z"/>
		<path class="st0" d="M19.8,37.5c0,0,0,0.1,0,0.1c-0.1,0,0,0.1-0.1,0.1c0-0.2-0.1-0.5,0.1-0.7C19.8,37.2,19.7,37.3,19.8,37.5z"/>
		<path class="st0" d="M31.7,35.9c0,0.1,0,0.1,0.1,0.2c0,0.1,0.1,0.2,0,0.3c-0.2-0.1-0.3-0.3-0.3-0.6C31.7,35.7,31.7,35.8,31.7,35.9
			z"/>
		<path class="st0" d="M23.1,43.5c0,0.1,0,0.1-0.1,0.1c-0.1,0-0.2-0.1-0.3-0.3c0-0.1,0-0.1,0.1-0.1C23,43.3,23.1,43.3,23.1,43.5z"/>
		<path class="st0" d="M31.7,40.9c0,0,0.1-0.1,0.1-0.1c0.1-0.1,0.1-0.3,0.3-0.4c0,0.3-0.1,0.5-0.3,0.7C31.7,41,31.7,40.9,31.7,40.9z
			"/>
		<path class="st0" d="M28.7,43.9c0.1,0,0.1,0,0.2-0.1c0.1,0,0.2-0.1,0.4-0.1c0,0,0.1,0,0.1,0c0,0,0,0.1,0,0.1
			C29.1,43.8,28.9,43.9,28.7,43.9C28.7,44,28.7,43.9,28.7,43.9z"/>
		<path class="st0" d="M22.6,43.3C22.6,43.4,22.6,43.4,22.6,43.3c-0.1,0-0.2,0-0.2,0c-0.1-0.1-0.2-0.2-0.2-0.3c0,0,0.1,0,0.1,0
			C22.5,43,22.6,43.1,22.6,43.3z"/>
		<path class="st0" d="M32.2,37c0-0.1-0.1-0.1-0.1-0.2c0.1-0.1-0.1-0.3,0-0.4c0.2,0.2,0.2,0.4,0.2,0.6C32.3,37.1,32.3,37.1,32.2,37z
			"/>
		<path class="st0" d="M26.5,44.5c-0.2,0-0.3,0.1-0.5,0c0.2-0.1,0.3-0.2,0.5-0.2C26.6,44.4,26.6,44.4,26.5,44.5L26.5,44.5z"/>
		<path class="st0" d="M26.7,32.6c-0.2,0.2-0.3,0.2-0.5,0.3c0,0-0.1,0-0.1-0.1c0,0,0-0.1,0-0.1C26.3,32.6,26.4,32.6,26.7,32.6z"/>
		<path class="st0" d="M30.7,34.1c0.1,0.1,0.2,0.3,0.3,0.4c0,0,0.1,0.2-0.1,0.1C30.8,34.5,30.7,34.4,30.7,34.1
			C30.5,34.1,30.6,34.2,30.7,34.1z"/>
		<path class="st0" d="M30.1,33.6c0.1,0.1,0.1,0.2,0.2,0.2c0,0.1,0,0.1-0.1,0.1c-0.2-0.1-0.3-0.2-0.4-0.4c0,0,0-0.1,0.1-0.1
			C30,33.5,30.1,33.5,30.1,33.6z"/>
		<path class="st0" d="M27.9,44.3c-0.1,0-0.2,0.1-0.3,0c0.1-0.1,0.3-0.2,0.4-0.2c0,0,0.1,0,0.1,0c0,0.1,0,0.1-0.1,0.1
			C28,44.3,27.9,44.3,27.9,44.3z"/>
		<path class="st0" d="M19.7,38.3c0,0.1,0,0.1,0,0.2c-0.1,0,0,0.1-0.1,0.1c-0.1-0.2-0.1-0.4,0-0.6C19.7,38.1,19.6,38.2,19.7,38.3z"
			/>
		<path class="st0" d="M29.8,43.3c0.1,0,0.1-0.1,0.1-0.1c0.1,0,0.2-0.2,0.4-0.2C30.2,43.1,30,43.3,29.8,43.3
			C29.8,43.4,29.8,43.3,29.8,43.3z"/>
		<path class="st0" d="M31.2,41.8c0.1,0,0-0.1,0.1-0.2c0.1,0,0.1-0.2,0.3-0.3C31.6,41.5,31.4,41.7,31.2,41.8
			C31.2,41.9,31.3,41.8,31.2,41.8z"/>
		<path class="st0" d="M20.8,34.6C20.8,34.6,20.8,34.7,20.8,34.6c-0.1,0-0.2,0.1-0.1,0c0.1-0.1,0.2-0.3,0.3-0.4
			c0.1,0.1-0.1,0.2-0.1,0.3C20.9,34.5,20.8,34.6,20.8,34.6z"/>
		<path class="st0" d="M32.3,37.9C32.3,37.9,32.3,37.8,32.3,37.9c0-0.1,0-0.2,0-0.3c0-0.1,0-0.2,0-0.3c0.1,0.2,0.1,0.5,0.1,0.8
			C32.4,38,32.3,37.9,32.3,37.9z"/>
		<path class="st0" d="M26.5,44.5c0,0,0.1,0,0.1,0c0.2-0.1,0.3-0.1,0.5,0.1l0,0C26.9,44.6,26.7,44.5,26.5,44.5
			C26.5,44.6,26.5,44.5,26.5,44.5L26.5,44.5z"/>
		<path class="st0" d="M22.9,43.6C22.9,43.6,22.9,43.6,22.9,43.6c0.2,0.1,0.3,0.1,0.3,0.2c0,0,0,0,0,0C23,43.9,22.9,43.8,22.9,43.6z
			"/>
		<path class="st0" d="M29.9,33.6c0.1,0.1,0.2,0.2,0.4,0.4c0,0,0,0.1,0,0.1C30.1,33.9,29.9,33.7,29.9,33.6
			C29.8,33.6,29.8,33.5,29.9,33.6C29.9,33.5,29.9,33.5,29.9,33.6z"/>
		<path class="st0" d="M26,32.1C26.1,32.1,26.1,32.1,26,32.1c-0.2,0.1-0.4,0.2-0.6,0.1c0,0,0,0,0,0c0,0,0,0,0,0
			C25.6,32,25.8,32,26,32.1z"/>
		<path class="st0" d="M32.4,38.8c0-0.1,0-0.1,0-0.2c0-0.1,0-0.2,0.1-0.3c0.1,0.2,0,0.4-0.1,0.7C32.4,38.9,32.4,38.9,32.4,38.8z"/>
		<path class="st0" d="M25.6,31.9C25.6,31.8,25.6,31.8,25.6,31.9c0.2,0,0.4-0.1,0.5-0.1c0,0,0.1,0,0.1,0c-0.1,0.1-0.1,0.1-0.2,0.1
			C25.9,31.9,25.8,32,25.6,31.9z"/>
		<path class="st0" d="M20.4,35.3c0,0.1-0.1,0.2-0.1,0.2c-0.1,0-0.1,0.1-0.1,0c0-0.1,0.1-0.2,0.2-0.3c0,0,0,0,0.1,0
			C20.4,35.2,20.3,35.2,20.4,35.3z"/>
		<path class="st0" d="M22.7,43.7c-0.1-0.1-0.2-0.1-0.3-0.3C22.6,43.5,22.7,43.6,22.7,43.7C22.8,43.7,22.8,43.7,22.7,43.7z"/>
		<path class="st0" d="M21.7,49.9c0.3,0,0.6,0,0.9,0C22.3,49.9,22,49.9,21.7,49.9z"/>
		<path class="st0" d="M25.6,31.9c0.2,0,0.3,0,0.5,0c0,0.1-0.1,0-0.1,0.1C25.8,32,25.7,32,25.6,31.9c-0.1,0.1-0.1,0.1-0.1,0
			C25.5,31.9,25.6,31.9,25.6,31.9z"/>
		<path class="st0" d="M22.1,43.3c0.1,0,0.2,0.1,0.3,0.2C22.2,43.5,22.2,43.4,22.1,43.3z"/>
		<path class="st0" d="M26,32.1c-0.2,0-0.4,0-0.6,0.1c0,0,0-0.1,0-0.1C25.7,32,25.8,32,26,32.1C26,32.1,26,32.1,26,32.1z"/>
		<path class="st0" d="M26,32c-0.2,0-0.4,0-0.6,0c0-0.1,0.1,0,0.1-0.1C25.7,32,25.8,32,26,32C26,32,26,32,26,32z"/>
		<path class="st0" d="M26.1,31.8c-0.1,0.1-0.3,0.1-0.5,0C25.8,31.8,26,31.7,26.1,31.8z"/>
		<path class="st0" d="M30.1,33.6c-0.1,0-0.1,0-0.1-0.1c0-0.1,0-0.1,0.1-0.1C30.1,33.4,30.2,33.5,30.1,33.6z"/>
		<path class="st0" d="M32.2,39.7c0-0.1,0-0.2,0-0.2C32.4,39.5,32.3,39.6,32.2,39.7C32.3,39.7,32.2,39.7,32.2,39.7z"/>
		<path class="st0" d="M30.8,42.5c-0.1-0.1,0-0.1,0.1-0.1c0,0,0.1,0,0.2-0.1C31,42.4,30.9,42.4,30.8,42.5z"/>
		<path class="st0" d="M27.1,44.5c0.1-0.1,0.2-0.1,0.3-0.1C27.3,44.5,27.2,44.6,27.1,44.5C27.1,44.5,27.1,44.5,27.1,44.5z"/>
		<path class="st0" d="M26,32c-0.1,0-0.3,0-0.4,0c0,0,0,0,0,0C25.7,32,25.8,32,26,32C26,32,26,32,26,32z"/>
		<path class="st0" d="M28.5,44.1c-0.1,0.1-0.2,0.1-0.3,0.1C28.3,44.1,28.4,44.1,28.5,44.1z"/>
		<path class="st0" d="M25.1,31.9c-0.1,0-0.2,0-0.3,0C24.9,31.8,25,31.9,25.1,31.9C25.2,31.9,25.2,31.9,25.1,31.9
			C25.1,31.9,25.1,31.9,25.1,31.9z"/>
		<path class="st0" d="M26,44.6c0.1,0,0.2,0,0.3,0C26.2,44.7,26.1,44.7,26,44.6C26,44.6,26,44.6,26,44.6z"/>
		<path class="st0" d="M20.4,35.1C20.4,35.1,20.4,35.1,20.4,35.1c0-0.1,0-0.1,0.1-0.2C20.5,35,20.4,35.1,20.4,35.1z"/>
		<path class="st0" d="M24,32.9c0.1,0,0.1-0.1,0.2-0.1c0,0,0,0,0,0.1C24.2,32.9,24.1,32.9,24,32.9C24.1,32.9,24,32.9,24,32.9z"/>
		<path class="st0" d="M20.8,34.6c0-0.1,0-0.1,0.1-0.1c0,0,0,0,0.1,0C20.9,34.5,20.9,34.6,20.8,34.6z"/>
		<path class="st0" d="M24.6,32c0.1,0,0.1,0,0.2,0c0,0,0,0,0,0C24.7,32.1,24.6,32.1,24.6,32C24.6,32.1,24.6,32.1,24.6,32z"/>
		<path class="st0" d="M32.3,37.6c0,0.1,0,0.2,0,0.2C32.2,37.8,32.3,37.7,32.3,37.6C32.3,37.6,32.3,37.6,32.3,37.6z"/>
		<path class="st0" d="M22.7,43.7C22.7,43.7,22.8,43.7,22.7,43.7c0.1,0,0.1,0.1,0.1,0.1C22.8,43.9,22.7,43.8,22.7,43.7z"/>
		<path class="st0" d="M27.9,44.3c0-0.1,0.1,0,0.2,0C28,44.4,28,44.3,27.9,44.3z"/>
		<path class="st0" d="M32.2,39.7C32.2,39.7,32.2,39.7,32.2,39.7c0,0.1,0,0.1,0,0.2c0,0-0.1,0-0.1-0.1
			C32.2,39.8,32.2,39.7,32.2,39.7z"/>
		<g>
			<path class="st0" d="M0.1,40.1C0,40.1,0,40.1,0.1,40.1C0,43.3,0,46.5,0,49.7c0,0,0,0,0,0c0-1.1,0-2.1,0-3.2
				C0,44.4,0.1,42.3,0.1,40.1z"/>
			<path class="st0" d="M6.1,44.5c-0.1,0-0.2,0-0.3-0.1c0,0,0,0,0,0c0,0,0.1,0,0.1-0.1c0.9-0.5,1.3-1.2,1.2-2.2
				c-0.1-0.8-0.4-1.4-1.5-1.8c-0.3-0.1-0.6-0.2-1-0.2c-1.5,0-3,0-4.5,0l0,0l0,0c0.1,0.1,0.1,0.2,0.1,0.3c0,3,0,5.9,0,8.9
				c0,0.1,0,0.2-0.1,0.3l0,0c1.4,0,2.8,0,4.2,0c0,0,0,0,0,0c0,0,0,0,0,0c0.5,0,0.9,0,1.4-0.2c1.5-0.5,2.2-1.6,2-3.1
				C7.5,45.4,6.9,44.8,6.1,44.5z M2.4,42.9c0-0.3,0-0.5,0-0.8c0-0.1,0-0.2,0.2-0.2c0.4,0,0.9,0,1.3,0.1c0.4,0.1,0.6,0.3,0.7,0.7
				c0.1,0.5-0.1,0.9-0.4,1.1c-0.2,0.1-0.5,0.2-0.8,0.2c-0.3,0-0.5,0-0.8,0c-0.2,0-0.2-0.1-0.2-0.2C2.4,43.4,2.4,43.1,2.4,42.9z
				 M4.5,47.8c-0.4,0.1-0.7,0.1-1.1,0.1c-0.3,0-0.5,0-0.8,0c-0.1,0-0.2,0-0.2-0.2c0-0.4,0-0.7,0-1.1c0-0.3,0-0.7,0-1
				c0-0.1,0-0.2,0.1-0.2c0.6,0,1.2-0.1,1.7,0.1c0.6,0.1,0.9,0.4,0.9,1C5.3,47.2,5,47.6,4.5,47.8z"/>
			<path class="st0" d="M16.3,42.3c-0.1-0.6-0.4-1.1-0.9-1.5c-0.6-0.5-1.4-0.7-2.1-0.7c-1.3,0-2.7,0-4,0c-0.2,0-0.3,0-0.3,0.3
				c0,2.7,0,5.4,0,8.2c0,0.4,0,0.7,0,1.1c0.8,0,1.6,0,2.3,0c0,0,0,0,0,0c0-0.9,0-1.9,0-2.8c0-0.2,0-0.3,0.3-0.3c0.7,0,1.3,0.1,2-0.1
				c1-0.2,1.8-0.7,2.3-1.6C16.4,44.1,16.5,43.2,16.3,42.3z M13.5,44.4c-0.3,0.3-0.7,0.3-1.1,0.3c-0.3,0-0.5,0-0.8,0
				c-0.1,0-0.2,0-0.2-0.2c0-0.4,0-0.8,0-1.3c0-0.4,0-0.8,0-1.3c0-0.1,0-0.2,0.1-0.2c0.5,0,1.1-0.1,1.6,0.1c0.5,0.2,0.8,0.6,0.8,1.2
				C14,43.6,13.9,44.1,13.5,44.4z"/>
			<path class="st0" d="M4.1,49.7c-1.3,0-2.6,0-3.9,0c-0.1,0-0.1,0-0.2,0c0,0.1,0.1,0,0.2,0c1.3,0,2.5,0,3.8,0c0.1,0,0.2,0,0.3,0
				C4.2,49.7,4.2,49.7,4.1,49.7z"/>
			<path class="st0" d="M11.1,49.7c-0.6,0-1.2,0-1.8,0c-0.1,0-0.2,0-0.2,0c0,0.1,0.1,0,0.1,0c0.7,0,1.4,0,2.1,0c0,0,0.1,0,0.1,0
				c0,0,0,0,0,0C11.3,49.7,11.2,49.7,11.1,49.7z"/>
		</g>
		<g>
			<path class="st0" d="M159.9,44.3c-0.1-1.1-0.7-2-1.6-2.7c-0.9-0.7-2-0.9-3.1-0.8c-0.8,0.1-1.5,0.4-2.1,1
				c-0.1,0.1-0.2,0.3-0.4,0.4c-0.1-0.2,0-0.3,0-0.5c0-0.2,0.1-0.6,0-0.7c-0.1-0.1-0.4,0-0.7,0c-0.2,0-0.2,0-0.2,0.2
				c0,3.2,0,6.5,0,9.7c0,0.2-0.1,0.5,0,0.6c0.1,0.1,0.4,0,0.7,0c0.2,0,0.3-0.1,0.3-0.3c0-1.1,0-2.3,0-3.4c0-0.1,0-0.1,0-0.2
				c0.1,0,0.1,0,0.1,0.1c0.6,0.9,1.5,1.3,2.6,1.4c1,0.1,2-0.1,2.9-0.8c0.8-0.6,1.3-1.4,1.6-2.5c0-0.2,0-0.4,0.1-0.5
				c0-0.3,0-0.6,0-0.9C159.9,44.5,159.9,44.4,159.9,44.3z M157.8,47.5c-0.6,0.5-1.2,0.7-2,0.7c-1.3,0-2.5-1-2.9-2.2
				c-0.6-1.7,0.3-3.6,1.9-4.2c1-0.4,2.3,0,3.1,0.8C159.2,43.9,159.2,46.3,157.8,47.5z"/>
			<path class="st0" d="M49.9,40.7c-1.1-0.1-2.1,0.1-3,0.8c0-1,0-2,0-3c0-0.2,0-0.2-0.2-0.2c-0.5,0-1,0-1.5,0c-0.1,0-0.2,0-0.2,0.2
				c0,3.4,0,6.9,0,10.3c0,0.1,0,0.2,0.2,0.2c0.4,0,0.8,0,1.2,0c0.5,0,0.5,0,0.5-0.5c0,0,0-0.1,0-0.2c2.2,1.6,4.7,0.7,5.8-0.8
				c1.1-1.5,1.2-3.7-0.1-5.3C51.9,41.4,51,40.9,49.9,40.7z M51.5,44.9c0,1.4-1,2.4-2.4,2.4c-1.2,0-2.2-1.1-2.2-2.4
				c0-1.3,1-2.4,2.4-2.4C50.5,42.6,51.6,43.7,51.5,44.9z"/>
			<path class="st0" d="M81,40.8c-1.2-0.2-2.3,0.1-3.3,0.8c0-0.2,0-0.4,0-0.5c0-0.1,0-0.2-0.2-0.2c-0.5,0-1,0-1.5,0
				c-0.1,0-0.2,0-0.2,0.2c0,3.4,0,6.9,0,10.3c0,0.2,0.1,0.2,0.2,0.2c0.5,0,1,0,1.4,0c0.2,0,0.2,0,0.2-0.2c0-0.9,0-1.9,0-2.8
				c0-0.1,0-0.2,0-0.3c1.8,1.4,4.1,1,5.5-0.4c1.3-1.4,1.6-3.6,0.5-5.3C83.1,41.6,82.2,41,81,40.8z M82.5,45.1
				c-0.1,1.1-1,2.2-2.3,2.2c-1.3,0-2.3-1-2.3-2.4c0-1.3,1-2.3,2.2-2.3C81.4,42.6,82.6,43.6,82.5,45.1z"/>
			<path class="st0" d="M97.2,44.3c0-1.1,0-2.2,0-3.3c0-0.1,0-0.2-0.1-0.2c-0.5,0-1,0-1.5,0c-0.1,0-0.1,0-0.1,0.1c0,0.3,0,0.5,0,0.8
				c0,0,0,0-0.1,0c-0.3-0.4-0.6-0.7-1-0.9c-0.7-0.3-1.4-0.3-2.1-0.2c-1,0.1-1.8,0.6-2.5,1.4c-0.5,0.6-0.8,1.3-0.9,2.1
				c-0.1,0.8-0.1,1.6,0.2,2.3c0.2,0.5,0.4,0.9,0.7,1.2c0.4,0.5,0.9,0.9,1.5,1.1c0.8,0.3,1.7,0.4,2.5,0.2c0.5-0.1,0.9-0.3,1.3-0.6
				c0.1-0.1,0.2-0.2,0.3-0.4c0,0.3,0,0.5,0,0.7c0,0.2,0,0.2,0.2,0.2c0.5,0,0.9,0,1.4,0c0.2,0,0.2,0,0.2-0.2
				C97.2,47.3,97.2,45.8,97.2,44.3z M93,47.2c-1.2,0-2.3-1-2.3-2.4c0-1.3,1-2.3,2.3-2.3c1.2,0,2.3,1.2,2.2,2.4
				C95.2,46.1,94.1,47.2,93,47.2z"/>
			<path class="st0" d="M113.8,41.6c-0.9-0.7-2-1-3.2-0.8c-1.1,0.2-1.9,0.7-2.6,1.6c-0.8,1-1,2.1-0.8,3.3c0.2,1.1,0.7,2.1,1.7,2.8
				c0.9,0.7,1.9,0.9,3,0.8c1-0.1,1.8-0.5,2.4-1.2c0.4-0.4,0.7-0.9,0.9-1.5c-0.5,0-1,0-1.5,0c-0.4,0-0.7,0-0.9,0.4c0,0,0,0-0.1,0
				c-0.6,0.5-1.2,0.6-1.9,0.5c-0.9-0.1-1.6-0.6-1.8-1.6c-0.1-0.2,0-0.3,0.2-0.3c2,0,4,0,5.9,0c0,0,0.1,0,0.1,0c0.1,0,0.1,0,0.1-0.1
				c0-0.5,0-1.1-0.1-1.6C115.1,42.9,114.6,42.2,113.8,41.6z M109.3,44c-0.2,0-0.2-0.1-0.1-0.2c0.4-1,1.4-1.5,2.5-1.4
				c0.9,0.2,1.5,0.7,1.8,1.5C112,44,110.7,44,109.3,44z"/>
			<path class="st0" d="M72.8,41.3c-0.9-0.5-1.8-0.7-2.8-0.5c-1.3,0.3-2.3,1-3,2.2c-0.5,0.9-0.6,1.9-0.5,2.9c0.2,1.1,0.7,2,1.6,2.6
				c1.2,0.9,2.5,1,3.9,0.6c1.2-0.4,2-1.3,2.5-2.5c-0.7,0-1.3,0-2,0c-0.1,0-0.1,0-0.2,0.1c-0.6,0.9-2,1.1-2.9,0.7
				c-0.6-0.3-1-0.8-1.1-1.4c0-0.2,0-0.3,0.2-0.3c2,0,4,0,5.9,0c0.1,0,0.1,0,0.2,0c0.1,0,0.1,0,0.1-0.1c0-0.8,0-1.6-0.4-2.3
				C74.2,42.3,73.6,41.7,72.8,41.3z M72.7,44c-1.3,0-2.6,0-3.9,0c-0.2,0-0.2-0.1-0.1-0.2c0.4-1,1.4-1.5,2.5-1.3
				c0.9,0.2,1.5,0.7,1.8,1.5C72.8,44,72.7,44,72.7,44z"/>
			<path class="st0" d="M128.9,41c-0.2-0.2-0.5,0-0.8-0.1c-0.1,0-0.2,0-0.2,0.2c0,0.3,0,0.7,0,1.1c-0.1-0.1-0.1-0.1-0.1-0.2
				c-0.3-0.4-0.6-0.7-1-0.9c-0.9-0.5-1.9-0.5-2.9-0.3c-1.4,0.3-2.3,1.1-2.8,2.4c-0.3,0.7-0.4,1.4-0.3,2.1c0.1,0.6,0.2,1.1,0.4,1.6
				c0.5,0.9,1.1,1.5,2,1.9c0.7,0.3,1.5,0.4,2.2,0.3c0.8-0.1,1.5-0.5,2.1-1.2c0.1-0.1,0.2-0.3,0.3-0.3c0,0.4,0,0.8-0.1,1.2
				c-0.2,0.8-0.6,1.4-1.2,1.8c-0.7,0.5-1.5,0.6-2.3,0.5c-0.8-0.1-1.4-0.5-1.8-1.3c0-0.1,0-0.1-0.1-0.1c-0.4,0-0.7,0-1.1,0
				c0.3,0.9,0.8,1.6,1.6,2c1,0.5,2.1,0.6,3.2,0.3c1.1-0.2,1.8-0.9,2.3-1.9c0.3-0.7,0.5-1.4,0.5-2.1c0-2.1,0-4.1,0-6.2
				C129,41.5,129.1,41.1,128.9,41z M126.1,48c-1,0.5-2.4,0.2-3.2-0.7c-0.7-0.7-0.9-1.5-0.9-2.3c0-1.6,1-2.9,2.4-3.2
				c1.3-0.3,2.2,0.2,3,1.2C128.5,44.5,128.1,47,126.1,48z"/>
			<path class="st0" d="M140.7,41.7c-0.8-0.7-1.7-1-2.7-1c-0.7,0-1.4,0.2-2,0.6c-0.7,0.5-1.3,1.1-1.7,1.9c-0.4,0.8-0.5,1.6-0.4,2.4
				c0.1,0.9,0.5,1.7,1.2,2.4c0.8,0.8,1.8,1.3,3,1.2c0.7,0,1.2-0.1,1.7-0.4c0.9-0.5,1.6-1.2,2-2.1c0.4-0.8,0.5-1.7,0.3-2.6
				C142,43.2,141.5,42.3,140.7,41.7z M139.8,47.7c-1.7,1.2-4,0.4-4.7-1.8c-0.1-0.3-0.1-0.6-0.1-0.8c0-1.4,0.5-2.3,1.5-3
				c1.2-0.8,3-0.5,4,0.8C141.4,44.1,141.4,46.6,139.8,47.7z"/>
		</g>
		<path class="st0" d="M21.4,34c0-0.1,0-0.1,0.1-0.1C21.5,33.9,21.4,34,21.4,34z"/>
	</g>
	<rect x="36.8" y="31" class="st0" width="0.2" height="28"/>
</g>
</svg>
