<?xml version="1.0" encoding="utf-8"?>
<!-- Generator: Adobe Illustrator 19.1.0, SVG Export Plug-In . SVG Version: 6.00 Build 0)  -->
<svg version="1.1" id="Layer_1" xmlns="http://www.w3.org/2000/svg" xmlns:xlink="http://www.w3.org/1999/xlink" x="0px" y="0px"
	 viewBox="0 0 66.5 66.5" style="enable-background:new 0 0 66.5 66.5;" xml:space="preserve">
<style type="text/css">
	.st0{fill:none;}
	.st1{fill:#5EA9DD;}
</style>
<g>
	<rect x="0" y="0" class="st0" width="66.5" height="66.5"/>
	<g>
		<path class="st1" d="M59.4,0.7H7.1c-3.2,0-5.9,2.6-5.9,5.9v1.3v36.8V46c0,3.2,2.6,5.9,5.9,5.9h52.3c3.2,0,5.9-2.6,5.9-5.9v-1.3
			V7.9V6.6C65.3,3.3,62.7,0.7,59.4,0.7z M3,9.6h60.6V43H3V9.6z M63.6,46c0,2.3-1.9,4.1-4.1,4.1H7.1C4.8,50.1,3,48.3,3,46v-1.3h60.6
			V46z M3,7.9V6.6c0-2.3,1.9-4.1,4.1-4.1h52.3c2.3,0,4.1,1.9,4.1,4.1v1.3H3z"/>
		<path class="st1" d="M46.2,64.2L46.2,64.2c-0.2,0-1.6-0.1-3-1.4c-1.7-1.7-2.6-4.6-2.6-8.6c0-0.5-0.4-0.9-0.9-0.9c0,0,0,0,0,0
			c-0.5,0-0.9,0.4-0.9,0.9c0,4.5,1.1,7.8,3.1,9.8c0.1,0.1,0.1,0.1,0.2,0.2H24.4c0.1-0.1,0.1-0.1,0.2-0.2c2.1-2,3.1-5.3,3.1-9.8
			c0-0.5-0.4-0.9-0.9-0.9c0,0,0,0,0,0c-0.5,0-0.9,0.4-0.9,0.9c0,9.7-5.2,10-5.6,10h0c-0.5,0-0.9,0.4-0.9,0.9c0,0.5,0.4,0.9,0.9,0.9
			c0,0,0,0,0,0h25.9c0,0,0,0,0,0c0,0,0,0,0,0c0.5,0,0.9-0.4,0.9-0.9C47.1,64.6,46.7,64.2,46.2,64.2z"/>
		<path class="st1" d="M26.2,17.9c-0.3-0.3-0.9-0.3-1.2,0l-8.4,8.4l8.4,8.4c0.2,0.2,0.4,0.3,0.6,0.3s0.4-0.1,0.6-0.3
			c0.3-0.3,0.3-0.9,0-1.2L19,26.3l7.1-7.1C26.5,18.8,26.5,18.3,26.2,17.9z"/>
		<path class="st1" d="M40.4,17.9c-0.3,0.3-0.3,0.9,0,1.2l7.1,7.1l-7.1,7.1c-0.3,0.3-0.3,0.9,0,1.2c0.2,0.2,0.4,0.3,0.6,0.3
			s0.4-0.1,0.6-0.3l8.4-8.4l-8.4-8.4C41.3,17.6,40.7,17.6,40.4,17.9z"/>
		<path class="st1" d="M36.4,16.2c-0.5-0.1-1,0.1-1.1,0.6l-5.7,18.6c-0.1,0.5,0.1,1,0.6,1.1c0.1,0,0.2,0,0.3,0
			c0.4,0,0.7-0.2,0.8-0.6L37,17.3C37.1,16.8,36.8,16.3,36.4,16.2z"/>
	</g>
</g>
</svg>
