<?xml version="1.0" encoding="utf-8"?>
<!-- Generator: Adobe Illustrator 19.1.0, SVG Export Plug-In . SVG Version: 6.00 Build 0)  -->
<svg version="1.1" id="Layer_1" xmlns="http://www.w3.org/2000/svg" xmlns:xlink="http://www.w3.org/1999/xlink" x="0px" y="0px"
	 viewBox="0 0 66.5 66.5" style="enable-background:new 0 0 66.5 66.5;" xml:space="preserve">
<style type="text/css">
	.st0{fill:none;}
	.st1{fill:#60A9DD;}
</style>
<g>
	<rect x="0.1" y="0" class="st0" width="66.5" height="66.5"/>
	<g>
		<path class="st1" d="M23.3,36.7v-2.4c1.4-0.4,2.8-0.9,4-1.7l1.7,1.7c0.6,0.6,1.5,0.6,2.1,0l2.9-2.9c0.6-0.6,0.6-1.5,0-2.1
			l-1.7-1.7c0.8-1.3,1.3-2.6,1.7-4h2.4c0.8,0,1.5-0.7,1.5-1.5V18c0-0.8-0.7-1.5-1.5-1.5h-2.4c-0.4-1.4-0.9-2.8-1.7-4l1.7-1.7
			c0.6-0.6,0.6-1.5,0-2.1l-2.9-2.9c-0.3-0.3-0.7-0.4-1.1-0.4c0,0,0,0,0,0c-0.4,0-0.8,0.2-1.1,0.4l-1.7,1.7c-1.2-0.8-2.6-1.3-4-1.7
			V3.4c0-0.8-0.7-1.5-1.5-1.5h-4.1c-0.8,0-1.5,0.7-1.5,1.5v2.4c-1.4,0.4-2.8,0.9-4,1.7l-1.7-1.7c-0.3-0.3-0.7-0.4-1.1-0.4
			c0,0,0,0,0,0C9,5.3,8.7,5.5,8.4,5.7L5.4,8.7C5.2,9,5,9.3,5,9.7c0,0.4,0.2,0.8,0.4,1.1l1.7,1.7c-0.8,1.2-1.3,2.6-1.7,4H3.1
			c-0.8,0-1.5,0.7-1.5,1.5v4.1c0,0.8,0.7,1.5,1.5,1.5h2.4c0.4,1.4,0.9,2.8,1.7,4l-1.7,1.7C5.2,29.6,5,30,5,30.4
			c0,0.4,0.2,0.8,0.4,1.1l2.9,2.9c0.6,0.6,1.5,0.6,2.1,0l1.7-1.7c1.2,0.8,2.6,1.3,4,1.7v2.4c0,0.8,0.7,1.5,1.5,1.5h4.1
			C22.7,38.2,23.3,37.6,23.3,36.7z M21.6,36.5h-3.6v-2.3c0-0.7-0.5-1.3-1.2-1.5c-1.4-0.3-2.7-0.9-3.9-1.6c-0.6-0.4-1.4-0.3-1.8,0.2
			L9.4,33l-2.6-2.6l1.7-1.7c0.5-0.5,0.6-1.3,0.2-1.8c-0.8-1.3-1.4-2.8-1.7-4.3l-0.1-0.7H3.3v-3.6h2.3c0.7,0,1.3-0.5,1.5-1.2
			c0.3-1.4,0.9-2.7,1.6-3.8c0.4-0.6,0.3-1.4-0.2-1.8L6.9,9.7l2.6-2.6l1.7,1.7c0.5,0.5,1.2,0.6,1.8,0.2c1.2-0.7,2.5-1.3,3.8-1.6
			c0.7-0.2,1.2-0.8,1.2-1.5V3.6h3.6V6c0,0.7,0.5,1.3,1.2,1.5c1.4,0.3,2.7,0.9,3.8,1.6c0.6,0.4,1.4,0.3,1.8-0.2l1.7-1.7l2.6,2.6
			L31,11.4c-0.5,0.5-0.6,1.3-0.2,1.8c0.7,1.2,1.3,2.5,1.6,3.8c0.2,0.7,0.8,1.2,1.5,1.2h2.3v3.6h-2.3c-0.7,0-1.3,0.5-1.5,1.2
			c-0.3,1.4-0.9,2.7-1.6,3.8c-0.4,0.6-0.3,1.4,0.2,1.8l1.7,1.7L30.1,33l-1.7-1.7c-0.5-0.5-1.3-0.6-1.8-0.2c-1.2,0.7-2.5,1.3-3.8,1.6
			c-0.7,0.2-1.2,0.8-1.2,1.5V36.5z"/>
		<path class="st1" d="M26.3,20.1c0-3.6-2.9-6.6-6.6-6.6c-3.6,0-6.6,2.9-6.6,6.6c0,3.6,2.9,6.6,6.6,6.6
			C23.4,26.6,26.3,23.7,26.3,20.1z M19.8,24.9c-2.6,0-4.8-2.2-4.8-4.8c0-2.6,2.2-4.8,4.8-4.8c2.6,0,4.8,2.2,4.8,4.8
			C24.6,22.7,22.4,24.9,19.8,24.9z"/>
		<path class="st1" d="M45.6,52.6L44,52c0.1-1.1,0.1-2.1,0-3.2l1.6-0.7c0.3-0.1,0.6-0.4,0.7-0.7s0.1-0.7,0-1l-1.3-3
			c-0.3-0.7-1.1-1-1.8-0.7l-1.6,0.7c-0.6-0.9-1.4-1.6-2.3-2.3l0.7-1.6c0.3-0.7,0-1.5-0.7-1.8l-3-1.3c-0.7-0.3-1.5,0-1.8,0.7
			l-0.7,1.6c-1.1-0.1-2.1-0.1-3.2,0L30,37c-0.3-0.7-1.1-1-1.8-0.7l-3,1.3c-0.7,0.3-1,1.1-0.7,1.8l0.7,1.6c-0.9,0.7-1.6,1.4-2.3,2.3
			l-1.6-0.7c-0.7-0.3-1.5,0-1.8,0.7l-1.3,3c-0.3,0.7,0,1.5,0.7,1.8l1.6,0.7c-0.1,1.1-0.1,2.1,0,3.2l-1.6,0.7
			c-0.3,0.1-0.6,0.4-0.7,0.7c-0.1,0.3-0.1,0.7,0,1l1.3,3c0.3,0.7,1.1,1,1.8,0.7l1.6-0.7c0.6,0.9,1.4,1.6,2.3,2.3l-0.7,1.6
			c-0.1,0.3-0.1,0.7,0,1c0.1,0.3,0.4,0.6,0.7,0.7l3,1.3c0.2,0.1,0.3,0.1,0.5,0.1c0.2,0,0.4,0,0.5-0.1c0.3-0.1,0.6-0.4,0.7-0.7
			l0.7-1.6c1.1,0.1,2.1,0.1,3.2,0l0.7,1.6c0.3,0.7,1.1,1,1.8,0.7l3-1.3c0.7-0.3,1-1.1,0.7-1.8l-0.7-1.6c0.9-0.6,1.6-1.4,2.3-2.3
			l1.6,0.7c0.7,0.3,1.5,0,1.8-0.7l1.3-3c0.1-0.3,0.1-0.7,0-1S45.9,52.8,45.6,52.6z M43.6,56.4l-1.5-0.6c-0.6-0.2-1.3,0-1.6,0.5
			c-0.6,0.9-1.4,1.7-2.3,2.3c-0.5,0.4-0.7,1-0.5,1.6l0.6,1.5l-2.3,1l-0.6-1.5c-0.2-0.6-0.9-0.9-1.5-0.8c-1.1,0.2-2.2,0.2-3.2,0
			c-0.6-0.1-1.2,0.2-1.5,0.8l-0.6,1.5l-2.3-1l0.6-1.5c0.2-0.6,0-1.3-0.5-1.6c-1-0.7-1.8-1.6-2.5-2.6l-0.4-0.6l-2.6,1.1l-1-2.3
			l1.5-0.6c0.6-0.2,0.9-0.9,0.8-1.5c-0.2-1.1-0.2-2.2,0-3.2c0.1-0.6-0.2-1.2-0.8-1.5l-1.5-0.6l1-2.3l1.5,0.6c0.6,0.2,1.3,0,1.6-0.5
			c0.6-0.9,1.4-1.7,2.3-2.3c0.5-0.4,0.7-1,0.5-1.6L26.2,39l2.3-1l0.6,1.5c0.2,0.6,0.9,0.9,1.5,0.8c1.1-0.2,2.2-0.2,3.2,0
			c0.6,0.1,1.2-0.2,1.5-0.8L36,38l2.3,1l-0.6,1.5c-0.2,0.6,0,1.3,0.5,1.6c0.9,0.6,1.7,1.4,2.3,2.3c0.4,0.5,1,0.7,1.6,0.5l1.5-0.6
			l1,2.3L43,47.2c-0.6,0.2-0.9,0.9-0.8,1.5c0.2,1.1,0.2,2.2,0,3.2c-0.1,0.6,0.2,1.2,0.8,1.5l1.5,0.6L43.6,56.4z"/>
		<path class="st1" d="M30.2,45.4c-2.7,1.1-4,4.3-2.9,7c0.9,2.1,2.9,3.3,5,3.3c0.7,0,1.4-0.1,2-0.4c2.7-1.1,4-4.3,2.9-7
			C36.1,45.6,32.9,44.3,30.2,45.4z M33.6,53.7c-1.8,0.8-4-0.1-4.7-2s0.1-4,2-4.7c0.5-0.2,0.9-0.3,1.4-0.3c1.4,0,2.8,0.8,3.3,2.2
			C36.3,50.8,35.5,52.9,33.6,53.7z"/>
		<path class="st1" d="M65.1,29.1c0-0.4-0.1-0.7-0.4-0.9c-0.2-0.2-0.6-0.4-0.9-0.4c0,0,0,0,0,0l-1.5,0c-0.2-0.9-0.6-1.7-1-2.5l1-1
			c0.2-0.2,0.4-0.6,0.4-0.9c0-0.4-0.1-0.7-0.4-0.9l-2.1-2C60,20.2,59.7,20,59.4,20c0,0,0,0,0,0c-0.4,0-0.7,0.1-0.9,0.4l-1,1
			c-0.8-0.4-1.6-0.8-2.5-1l0-1.5c0-0.4-0.1-0.7-0.4-0.9c-0.2-0.2-0.6-0.4-0.9-0.4c0,0,0,0,0,0l-2.9,0c-0.7,0-1.3,0.6-1.3,1.3l0,1.5
			c-0.9,0.2-1.7,0.6-2.5,1l-1-1c-0.5-0.5-1.3-0.5-1.9,0l-2,2.1c-0.2,0.2-0.4,0.6-0.4,0.9s0.1,0.7,0.4,0.9l1,1
			c-0.4,0.8-0.8,1.6-1,2.5l-1.5,0c-0.4,0-0.7,0.1-0.9,0.4c-0.2,0.2-0.4,0.6-0.4,0.9l0,2.9c0,0.7,0.6,1.3,1.3,1.3c0,0,0,0,0,0l1.5,0
			c0.2,0.9,0.6,1.7,1,2.5l-1,1c-0.5,0.5-0.5,1.3,0,1.9l2.1,2c0.2,0.2,0.6,0.4,0.9,0.4c0,0,0,0,0,0c0.4,0,0.7-0.1,0.9-0.4l1-1
			c0.8,0.4,1.6,0.8,2.5,1l0,1.5c0,0.4,0.1,0.7,0.4,0.9c0.2,0.2,0.6,0.4,0.9,0.4c0,0,0,0,0,0l2.9,0c0.4,0,0.7-0.1,0.9-0.4
			c0.2-0.2,0.4-0.6,0.4-0.9l0-1.5c0.9-0.2,1.7-0.6,2.5-1l1,1c0.5,0.5,1.3,0.5,1.9,0l2-2.1c0.2-0.2,0.4-0.6,0.4-0.9
			c0-0.3-0.1-0.7-0.4-0.9l-1-1c0.4-0.8,0.8-1.6,1-2.5l1.5,0c0.4,0,0.7-0.1,0.9-0.4c0.2-0.2,0.4-0.6,0.4-0.9L65.1,29.1z M62,31.6
			c-0.6,0-1.1,0.4-1.3,1c-0.2,0.9-0.6,1.8-1.1,2.6c-0.3,0.5-0.2,1.2,0.2,1.6l1,1l-1.4,1.4l-1-1c-0.4-0.4-1.1-0.5-1.6-0.2
			c-0.8,0.5-1.7,0.9-2.6,1.1c-0.6,0.1-1,0.7-1,1.3l0,1.4l-2,0l0-1.4c0-0.6-0.4-1.1-1-1.3c-1-0.2-2-0.7-2.9-1.2l-0.6-0.4L45,39.3
			l-1.4-1.4l1-1c0.4-0.4,0.5-1.1,0.2-1.6c-0.5-0.8-0.9-1.7-1.1-2.6c-0.1-0.6-0.7-1-1.3-1c0,0,0,0,0,0l-1.4,0l0-2l1.4,0
			c0.6,0,1.1-0.4,1.3-1c0.2-0.9,0.6-1.8,1.1-2.6c0.3-0.5,0.2-1.2-0.2-1.6l-1-1l1.4-1.4l1,1c0.4,0.4,1.1,0.5,1.6,0.2
			c0.8-0.5,1.7-0.9,2.6-1.1c0.6-0.1,1-0.7,1-1.3l0-1.4l2,0l0,1.4c0,0.6,0.4,1.1,1,1.3c0.9,0.2,1.8,0.6,2.6,1.1
			c0.5,0.3,1.2,0.2,1.6-0.2l1-1l1.4,1.4l-1,1c-0.4,0.4-0.5,1.1-0.2,1.6c0.5,0.8,0.9,1.7,1.1,2.6c0.1,0.6,0.7,1,1.3,1c0,0,0,0,0,0
			l1.4,0l0,2L62,31.6z"/>
		<path class="st1" d="M55.6,27.2c-1.9-1.9-5-1.9-6.9,0c-1.9,1.9-1.9,5,0,6.9c0.9,0.9,2.2,1.4,3.4,1.4c1.2,0,2.5-0.5,3.4-1.4
			C57.5,32.2,57.5,29.1,55.6,27.2L55.6,27.2z M54.4,32.8c-0.6,0.6-1.4,0.9-2.2,0.9c0,0,0,0,0,0c-0.8,0-1.6-0.3-2.2-0.9
			c-1.2-1.2-1.2-3.2,0-4.4c0.6-0.6,1.4-0.9,2.2-0.9c0.8,0,1.6,0.3,2.2,0.9C55.6,29.7,55.6,31.6,54.4,32.8z"/>
	</g>
</g>
</svg>
