<?xml version="1.0" encoding="utf-8"?>
<!-- Generator: Adobe Illustrator 19.1.0, SVG Export Plug-In . SVG Version: 6.00 Build 0)  -->
<svg version="1.1" id="Layer_1" xmlns="http://www.w3.org/2000/svg" xmlns:xlink="http://www.w3.org/1999/xlink" x="0px" y="0px"
	 viewBox="0 0 66.5 66.5" style="enable-background:new 0 0 66.5 66.5;" xml:space="preserve">
<style type="text/css">
	.st0{fill:none;}
	.st1{fill:#60A9DD;}
</style>
<g>
	<rect x="0" y="0" class="st0" width="66.5" height="66.5"/>
	<g>
		<g>
			<g>
				<path class="st1" d="M2.7,49.3c-0.3,0-0.5-0.1-0.7-0.4c-0.3-0.4-0.2-0.9,0.2-1.2L9,42.9c0.4-0.3,0.9-0.2,1.2,0.2
					c0.3,0.4,0.2,0.9-0.2,1.2l-6.8,4.8C3.1,49.3,2.9,49.3,2.7,49.3z"/>
			</g>
			<g>
				<path class="st1" d="M9.5,59C9.5,59,9.5,59,9.5,59c-3-0.1-5.3-2.5-5.3-5.5c0-0.2,0-0.3,0-0.4c0-0.5,0.5-0.8,0.9-0.8
					c0.5,0,0.8,0.5,0.8,0.9c0,0.1,0,0.2,0,0.3c0,2,1.6,3.6,3.6,3.7c0.5,0,0.9,0.4,0.8,0.9C10.4,58.6,10,59,9.5,59z"/>
			</g>
			<g>
				<path class="st1" d="M14.1,62.9c-2.7,0-5-1.9-5.4-4.6c-0.1-0.5,0.2-0.9,0.7-1c0.5-0.1,0.9,0.2,1,0.7c0.3,1.8,1.8,3.1,3.7,3.1
					c0.4,0,0.7-0.1,1.1-0.2c0.5-0.1,0.9,0.1,1.1,0.6c0.1,0.5-0.1,1-0.6,1.1C15.1,62.8,14.6,62.9,14.1,62.9z"/>
			</g>
			<g>
				<path class="st1" d="M19,64.4c-1.7,0-3.2-0.7-4.3-2c-0.3-0.4-0.2-0.9,0.1-1.2c0.4-0.3,0.9-0.2,1.2,0.1c0.7,0.9,1.8,1.4,2.9,1.4
					c0.8,0,1.6-0.3,2.3-0.8c0.4-0.3,0.9-0.2,1.2,0.2c0.3,0.4,0.2,0.9-0.2,1.2C21.3,64,20.2,64.4,19,64.4z"/>
			</g>
			<g>
				<path class="st1" d="M4.3,54.1c-2,0-3.6-1.6-3.6-3.6c0-1.1,0.5-2.1,1.4-2.8c0.4-0.3,0.9-0.2,1.2,0.2c0.3,0.4,0.2,0.9-0.2,1.2
					c-0.5,0.3-0.7,0.9-0.7,1.4c0,1,0.8,1.8,1.8,1.8c0.2,0,0.4,0,0.6-0.1c0.5-0.2,1,0.1,1.1,0.5c0.2,0.5-0.1,1-0.5,1.1
					C5.1,54.1,4.7,54.1,4.3,54.1z"/>
			</g>
			<g>
				<path class="st1" d="M5.2,54c-0.4,0-0.7-0.2-0.8-0.6c-0.2-0.5,0.1-1,0.5-1.1c0.2-0.1,0.4-0.2,0.5-0.3c0.4-0.3,0.9-0.2,1.2,0.2
					c0.3,0.4,0.2,0.9-0.2,1.2c-0.3,0.2-0.6,0.4-1,0.5C5.4,54,5.3,54,5.2,54z"/>
			</g>
			<g>
				<path class="st1" d="M25.6,65.6c-1.9,0-3.6-1-4.6-2.6c-0.3-0.4-0.1-0.9,0.3-1.2c0.4-0.3,0.9-0.1,1.2,0.3
					c0.7,1.1,1.9,1.8,3.2,1.8c1.3,0,2.4-0.6,3.1-1.7c0.3-0.4,0.8-0.5,1.2-0.3s0.5,0.8,0.3,1.2C29.2,64.7,27.5,65.6,25.6,65.6z"/>
			</g>
			<g>
				<g>
					<path class="st1" d="M21.5,49.4c-0.1,0-0.3,0-0.4-0.1c-0.4-0.2-0.6-0.7-0.4-1.2c0.1-0.2,0.2-0.5,0.2-0.7c0-0.9-0.8-1.7-1.7-1.7
						c-0.7,0-1.3,0.4-1.5,1L17,48.3c-0.2,0.4-0.7,0.6-1.2,0.4c-0.4-0.2-0.6-0.7-0.4-1.2l0.7-1.6c0.6-1.2,1.8-2,3.1-2
						c1.9,0,3.4,1.5,3.4,3.4c0,0.5-0.1,1-0.3,1.4C22.2,49.2,21.9,49.4,21.5,49.4z"/>
				</g>
				<g>
					<path class="st1" d="M26.8,62.5c-0.1,0-0.2,0-0.4-0.1c-0.4-0.2-0.6-0.7-0.4-1.2l3-6.6c0.1-0.2,0.2-0.5,0.2-0.7
						c0-0.9-0.8-1.7-1.7-1.7c-0.7,0-1.3,0.4-1.5,1l-3.2,7c-0.2,0.4-0.7,0.6-1.2,0.4c-0.4-0.2-0.6-0.7-0.4-1.2l3.2-7
						c0.6-1.2,1.8-2,3.1-2c1.9,0,3.4,1.5,3.4,3.4c0,0.5-0.1,1-0.3,1.4l-3,6.6C27.4,62.3,27.1,62.5,26.8,62.5z"/>
				</g>
				<g>
					<path class="st1" d="M7.9,54.7c-0.1,0-0.2,0-0.4-0.1c-0.4-0.2-0.6-0.7-0.4-1.2l3.1-6.7c0.2-0.4,0.7-0.6,1.2-0.4
						c0.4,0.2,0.6,0.7,0.4,1.2l-3.1,6.7C8.5,54.5,8.2,54.7,7.9,54.7z"/>
				</g>
				<g>
					<path class="st1" d="M12.4,57c-0.1,0-0.2,0-0.4-0.1c-0.4-0.2-0.6-0.7-0.4-1.2l3.4-7.4l0,0l0.4-0.9c0.1-0.2,0.2-0.5,0.2-0.7
						c0-0.9-0.8-1.7-1.7-1.7c-0.6,0-1.2,0.3-1.5,0.8l-0.7,1.6c-0.2,0.4-0.7,0.6-1.2,0.4c-0.4-0.2-0.6-0.7-0.4-1.2l0.6-1.4
						c0.6-1.2,1.8-2,3.1-2c1.9,0,3.4,1.5,3.4,3.4c0,0.2,0,0.3,0,0.5l0.1,0L17,48.2l-3.8,8.3C13.1,56.8,12.8,57,12.4,57z"/>
				</g>
				<g>
					<path class="st1" d="M17.2,58.8c-0.1,0-0.2,0-0.4-0.1c-0.4-0.2-0.6-0.7-0.4-1.2l4.1-9c0.6-1.2,1.8-2,3.1-2
						c1.9,0,3.4,1.5,3.4,3.4c0,0.5-0.1,1-0.3,1.4l-0.7,1.6c-0.2,0.4-0.7,0.6-1.2,0.4c-0.4-0.2-0.6-0.7-0.4-1.2l0.7-1.6
						c0.1-0.2,0.1-0.4,0.1-0.7c0-0.9-0.8-1.7-1.7-1.7c-0.7,0-1.3,0.4-1.5,1l-4.1,9C17.9,58.6,17.5,58.8,17.2,58.8z"/>
				</g>
			</g>
			<g>
				<path class="st1" d="M29.5,63.5c-0.2,0-0.3,0-0.5-0.1c-0.4-0.3-0.5-0.8-0.2-1.2c1.5-2.2,2.2-4.7,2.2-7.3
					c0-7.2-5.9-13.1-13.1-13.1c-3,0-5.9,1-8.2,2.9c-0.4,0.3-0.9,0.2-1.2-0.1c-0.3-0.4-0.2-0.9,0.1-1.2c2.6-2.1,5.9-3.3,9.3-3.3
					c8.2,0,14.9,6.7,14.9,14.9c0,3-0.9,5.9-2.5,8.3C30.1,63.4,29.8,63.5,29.5,63.5z"/>
			</g>
		</g>
		<g>
			<g>
				<path class="st1" d="M63.8,49.3c-0.2,0-0.4-0.1-0.5-0.2l-6.8-4.8c-0.4-0.3-0.5-0.8-0.2-1.2c0.3-0.4,0.8-0.5,1.2-0.2l6.8,4.8
					c0.4,0.3,0.5,0.8,0.2,1.2C64.4,49.2,64.1,49.3,63.8,49.3z"/>
			</g>
			<g>
				<path class="st1" d="M57,59c-0.5,0-0.9-0.4-0.9-0.8c0-0.5,0.3-0.9,0.8-0.9c2-0.1,3.6-1.7,3.6-3.7c0-0.1,0-0.2,0-0.3
					c0-0.5,0.3-0.9,0.8-0.9c0.5-0.1,0.9,0.3,0.9,0.8c0,0.1,0,0.3,0,0.4C62.3,56.4,60,58.8,57,59C57,59,57,59,57,59z"/>
			</g>
			<g>
				<path class="st1" d="M52.4,62.9c-0.5,0-1-0.1-1.5-0.2c-0.5-0.1-0.7-0.6-0.6-1.1s0.6-0.7,1.1-0.6c0.3,0.1,0.7,0.2,1.1,0.2
					c1.8,0,3.4-1.3,3.7-3.1c0.1-0.5,0.5-0.8,1-0.7c0.5,0.1,0.8,0.5,0.7,1C57.4,60.9,55.2,62.9,52.4,62.9z"/>
			</g>
			<g>
				<path class="st1" d="M47.6,64.4c-1.2,0-2.4-0.4-3.3-1.1c-0.4-0.3-0.5-0.8-0.2-1.2c0.3-0.4,0.8-0.5,1.2-0.2
					c0.7,0.5,1.4,0.8,2.3,0.8c1.1,0,2.2-0.5,2.9-1.4c0.3-0.4,0.9-0.4,1.2-0.1c0.4,0.3,0.4,0.9,0.1,1.2
					C50.8,63.6,49.2,64.4,47.6,64.4z"/>
			</g>
			<g>
				<path class="st1" d="M62.2,54.1c-0.4,0-0.8-0.1-1.2-0.2c-0.5-0.2-0.7-0.7-0.5-1.1c0.2-0.5,0.7-0.7,1.1-0.5
					c0.2,0.1,0.4,0.1,0.6,0.1c1,0,1.8-0.8,1.8-1.8c0-0.6-0.3-1.1-0.7-1.4c-0.4-0.3-0.5-0.8-0.2-1.2c0.3-0.4,0.8-0.5,1.2-0.2
					c0.9,0.7,1.4,1.7,1.4,2.8C65.7,52.5,64.1,54.1,62.2,54.1z"/>
			</g>
			<g>
				<path class="st1" d="M61.3,54c-0.1,0-0.2,0-0.3,0c-0.4-0.1-0.7-0.3-1-0.5c-0.4-0.3-0.5-0.8-0.2-1.2c0.3-0.4,0.8-0.5,1.2-0.2
					c0.2,0.1,0.3,0.2,0.5,0.3c0.5,0.2,0.7,0.7,0.5,1.1C62,53.8,61.7,54,61.3,54z"/>
			</g>
			<g>
				<path class="st1" d="M40.9,65.6c-1.9,0-3.6-0.9-4.6-2.5c-0.3-0.4-0.2-0.9,0.3-1.2c0.4-0.3,0.9-0.2,1.2,0.3
					c0.7,1.1,1.9,1.7,3.1,1.7c1.3,0,2.5-0.7,3.2-1.8c0.3-0.4,0.8-0.5,1.2-0.3c0.4,0.3,0.5,0.8,0.3,1.2
					C44.5,64.7,42.8,65.6,40.9,65.6z"/>
			</g>
			<g>
				<g>
					<path class="st1" d="M45,49.4c-0.3,0-0.6-0.2-0.8-0.5c-0.2-0.5-0.3-0.9-0.3-1.4c0-1.9,1.5-3.4,3.4-3.4c1.3,0,2.6,0.8,3.1,2
						l0.7,1.6c0.2,0.4,0,1-0.4,1.2c-0.4,0.2-1,0-1.2-0.4l-0.7-1.6c-0.3-0.6-0.9-1-1.5-1c-0.9,0-1.7,0.8-1.7,1.7
						c0,0.2,0.1,0.5,0.2,0.7c0.2,0.4,0,1-0.4,1.2C45.2,49.4,45.1,49.4,45,49.4z"/>
				</g>
				<g>
					<path class="st1" d="M38.9,62l-3-6.6c-0.2-0.4-0.3-0.9-0.3-1.4c0-1.9,1.5-3.4,3.4-3.4c1.3,0,2.6,0.8,3.1,2l3.2,7
						c0.2,0.4,0,1-0.4,1.2c-0.4,0.2-1,0-1.2-0.4l-3.2-7c-0.3-0.6-0.9-1-1.5-1c-0.9,0-1.7,0.8-1.7,1.7c0,0.2,0.1,0.5,0.2,0.7l3,6.6
						L38.9,62z"/>
				</g>
				<g>
					<path class="st1" d="M58.7,54.7c-0.3,0-0.6-0.2-0.8-0.5l-3.1-6.7c-0.2-0.4,0-1,0.4-1.2c0.4-0.2,1,0,1.2,0.4l3.1,6.7
						c0.2,0.4,0,1-0.4,1.2C58.9,54.7,58.8,54.7,58.7,54.7z"/>
				</g>
				<g>
					<path class="st1" d="M54.1,57c-0.3,0-0.6-0.2-0.8-0.5L49,47.2l0.1,0c0-0.2,0-0.3,0-0.5c0-1.9,1.5-3.4,3.4-3.4
						c1.3,0,2.6,0.8,3.1,2l0.4,0.8l0,0l0.3,0.6c0.2,0.4,0,1-0.4,1.2c-0.4,0.2-1,0-1.2-0.4L54,45.9c-0.3-0.5-0.8-0.8-1.4-0.8
						c-0.9,0-1.7,0.8-1.7,1.7c0,0.2,0.1,0.5,0.2,0.7l0.4,0.9l0,0l3.4,7.4c0.2,0.4,0,1-0.4,1.2C54.3,57,54.2,57,54.1,57z"/>
				</g>
				<g>
					<path class="st1" d="M49.3,58.8c-0.3,0-0.6-0.2-0.8-0.5l-4.1-9c-0.3-0.6-0.9-1-1.5-1c-0.9,0-1.7,0.8-1.7,1.7
						c0,0.2,0,0.5,0.1,0.7l0.7,1.6c0.2,0.4,0,1-0.4,1.2c-0.4,0.2-1,0-1.2-0.4l-0.7-1.6c-0.2-0.4-0.3-0.9-0.3-1.4
						c0-1.9,1.5-3.4,3.4-3.4c1.3,0,2.6,0.8,3.1,2l4.1,9c0.2,0.4,0,1-0.4,1.2C49.6,58.8,49.4,58.8,49.3,58.8z"/>
				</g>
			</g>
			<g>
				<path class="st1" d="M37,63.5c-0.3,0-0.6-0.1-0.7-0.4c-1.7-2.5-2.5-5.3-2.5-8.3c0-8.2,6.7-14.9,14.9-14.9c3.4,0,6.7,1.2,9.3,3.3
					c0.4,0.3,0.4,0.9,0.1,1.2c-0.3,0.4-0.9,0.4-1.2,0.1c-2.4-1.9-5.2-2.9-8.2-2.9c-7.2,0-13.1,5.9-13.1,13.1c0,2.6,0.8,5.2,2.2,7.3
					c0.3,0.4,0.2,0.9-0.2,1.2C37.4,63.5,37.2,63.5,37,63.5z"/>
			</g>
		</g>
	</g>
	<g>
		<g>
			<path class="st1" d="M33.6,42.9l-4.2-4.2c-0.3-0.3-0.3-0.9,0-1.2c0.3-0.3,0.9-0.3,1.2,0l3,3l3-3c0.3-0.3,0.9-0.3,1.2,0
				c0.3,0.3,0.3,0.9,0,1.2L33.6,42.9z"/>
		</g>
		<g>
			<g>
				<path class="st1" d="M40.9,34c-4.1,0-7.5-3.4-7.5-7.5c0-0.5,0.4-0.9,0.9-0.9s0.9,0.4,0.9,0.9c0,3.2,2.6,5.7,5.7,5.7l10.9-0.1
					c3.9,0,7.1-3.2,7.1-7.1c0-3.7-2.9-6.8-6.7-7.1l-0.5,0l-0.2-0.4c-1.3-2-3.2-3.6-5.5-4.3l-0.5-0.2l-0.1-0.6
					c-0.6-5.1-4.8-8.9-10-8.9c-4,0-7.6,2.3-9.2,6c-0.2,0.4-0.7,0.6-1.2,0.4c-0.4-0.2-0.6-0.7-0.4-1.2c1.9-4.2,6.1-7,10.8-7
					c5.8,0,10.7,4.2,11.6,9.9c2.3,0.8,4.3,2.4,5.7,4.5c4.4,0.5,7.9,4.2,7.9,8.8c0,4.9-4,8.8-8.8,8.8L40.9,34z"/>
			</g>
			<g>
				<path class="st1" d="M33.6,40.7c-0.5,0-0.9-0.4-0.9-0.9c0-3.3-2.7-5.9-5.9-5.9H15.6c-5.3,0-9.7-4.3-9.7-9.7s4.3-9.7,9.7-9.7
					c0.1,0,0.2,0,0.3,0c1.4-3.7,5-6.2,9-6.2c0.2,0,0.4,0,0.6,0c0.5,0,0.8,0.4,0.8,0.9c0,0.5-0.4,0.8-0.9,0.8c-0.2,0-0.3,0-0.5,0
					c-3.5,0-6.6,2.3-7.6,5.6l-0.2,0.7l-0.7-0.1c-0.3,0-0.5,0-0.8,0c-4.4,0-7.9,3.5-7.9,7.9s3.5,7.9,7.9,7.9h11.3
					c4.2,0,7.7,3.4,7.7,7.7C34.5,40.3,34.1,40.7,33.6,40.7z"/>
			</g>
			<g>
				<path class="st1" d="M30.7,28.8c-0.2,0-0.4-0.1-0.6-0.3c-0.3-0.3-0.3-0.9,0-1.2l4.2-4.2l4.2,4.2c0.3,0.3,0.3,0.9,0,1.2
					c-0.3,0.3-0.9,0.3-1.2,0l-3-3l-3,3C31.1,28.7,30.9,28.8,30.7,28.8z"/>
			</g>
		</g>
	</g>
</g>
</svg>
