<?xml version="1.0" encoding="utf-8"?>
<!-- Generator: Adobe Illustrator 19.1.0, SVG Export Plug-In . SVG Version: 6.00 Build 0)  -->
<svg version="1.1" id="Layer_1" xmlns="http://www.w3.org/2000/svg" xmlns:xlink="http://www.w3.org/1999/xlink" x="0px" y="0px"
	 viewBox="0 0 66.5 66.5" style="enable-background:new 0 0 66.5 66.5;" xml:space="preserve">
<style type="text/css">
	.st0{fill:none;}
	.st1{fill:#60A9DD;}
</style>
<g>
	<rect x="0" y="0" class="st0" width="66.5" height="66.5"/>
	<g>
		<path class="st1" d="M55.8,53h-45V6.4h45V53z M12.5,51.2H54V8.1H12.5V51.2z"/>
	</g>
	<g>
		<g>
			<circle class="st1" cx="15" cy="9.9" r="0.8"/>
		</g>
		<g>
			<circle class="st1" cx="17.5" cy="9.9" r="0.8"/>
		</g>
		<g>
			<circle class="st1" cx="20" cy="9.9" r="0.8"/>
		</g>
	</g>
	<g>
		<path class="st1" d="M61.9,60.8H4.7c-1.3,0-2.4-0.8-2.8-2l-1.7-4.4h66.2l-1.7,4.4C64.3,60,63.1,60.8,61.9,60.8z M2.7,56.2l0.8,2
			C3.6,58.7,4.1,59,4.7,59h57.2c0.5,0,1-0.3,1.2-0.8l0.8-2H2.7z"/>
	</g>
	<g>
		<path class="st1" d="M54.9,13.3H11.6c-0.5,0-0.9-0.4-0.9-0.9s0.4-0.9,0.9-0.9h43.2c0.5,0,0.9,0.4,0.9,0.9S55.4,13.3,54.9,13.3z"/>
	</g>
	<g>
		<path class="st1" d="M61,55.3h-1.8V17.8c0-0.2-0.1-0.4-0.3-0.4h-4.1v-1.8H59c1.1,0,2,0.9,2,2.1V55.3z"/>
	</g>
	<g>
		<path class="st1" d="M7.2,55.3H5.5V17.8c0-1.2,0.9-2.1,2-2.1h4.1v1.8H7.5c-0.2,0-0.3,0.2-0.3,0.4V55.3z"/>
	</g>
	<g>
		<g>
			<path class="st1" d="M34.9,46.1h-3.2c-0.8,0-1.4-0.6-1.4-1.4V43c-1-0.3-2-0.7-2.9-1.2L26.2,43c-0.5,0.5-1.4,0.5-1.9,0L22,40.7
				c-0.3-0.3-0.4-0.6-0.4-1c0-0.4,0.1-0.7,0.4-1l1.2-1.2c-0.5-0.9-0.9-1.9-1.2-2.9h-1.7c-0.8,0-1.4-0.6-1.4-1.4v-3.2
				c0-0.7,0.6-1.4,1.4-1.4H22c0.3-1,0.7-2,1.2-2.9L22,24.7c-0.3-0.3-0.4-0.6-0.4-1c0-0.4,0.1-0.7,0.4-1l2.3-2.3
				c0.5-0.5,1.4-0.5,1.9,0l1.2,1.2c0.9-0.5,1.9-0.9,2.9-1.2v-1.7c0-0.8,0.6-1.4,1.4-1.4h3.2c0.8,0,1.4,0.6,1.4,1.4v1.7
				c1,0.3,2,0.7,2.9,1.2l1.2-1.2c0.5-0.5,1.4-0.5,1.9,0l2.3,2.3c0.5,0.5,0.5,1.4,0,1.9l-1.2,1.2c0.5,0.9,0.9,1.9,1.2,2.9h1.7
				c0.7,0,1.4,0.6,1.4,1.4v3.2c0,0.7-0.6,1.4-1.4,1.4h-1.7c-0.3,1-0.7,2-1.2,2.9l1.2,1.2c0.5,0.5,0.5,1.4,0,1.9L42.2,43
				c-0.5,0.5-1.4,0.5-1.9,0l-1.2-1.2c-0.9,0.5-1.9,0.9-2.9,1.2v1.7C36.2,45.5,35.6,46.1,34.9,46.1z M32,44.3h2.4v-1.6
				c0-0.6,0.4-1.2,1-1.3c1-0.2,2-0.7,2.9-1.2c0.5-0.3,1.2-0.3,1.7,0.2l1.1,1.1l1.7-1.7l-1.1-1.1c-0.4-0.4-0.5-1.1-0.2-1.7
				c0.6-0.9,1-1.9,1.2-2.9c0.1-0.6,0.7-1.1,1.3-1.1h1.6v-2.4h-1.6c-0.6,0-1.2-0.4-1.3-1.1c-0.2-1-0.7-2-1.2-2.9
				c-0.3-0.5-0.3-1.2,0.2-1.7l1.1-1.1L41.3,22l-1.1,1.1c-0.4,0.4-1.1,0.5-1.7,0.2c-0.9-0.6-1.9-1-2.9-1.2c-0.6-0.1-1.1-0.7-1.1-1.3
				v-1.6H32v1.6c0,0.6-0.4,1.2-1.1,1.3c-1,0.2-2,0.7-2.9,1.2c-0.5,0.3-1.2,0.3-1.7-0.2L25.2,22l-1.7,1.7l1.1,1.1
				c0.4,0.4,0.5,1.1,0.2,1.7c-0.6,0.9-1,1.9-1.2,2.9c-0.1,0.6-0.7,1.1-1.3,1.1h-1.6V33h2.7l0.1,0.7c0.2,1.2,0.7,2.3,1.3,3.3
				c0.3,0.5,0.3,1.2-0.2,1.7l-1.1,1.1l1.7,1.7l1.1-1.1c0.4-0.4,1.1-0.5,1.7-0.2c0.9,0.6,1.9,1,2.9,1.2c0.6,0.1,1.1,0.7,1.1,1.3V44.3
				z"/>
		</g>
	</g>
	<g>
		<path class="st1" d="M33.3,37.1c-2.9,0-5.3-2.4-5.3-5.3c0-2.9,2.4-5.3,5.3-5.3s5.3,2.4,5.3,5.3C38.5,34.7,36.2,37.1,33.3,37.1z
			 M33.3,28.2c-1.9,0-3.5,1.6-3.5,3.5c0,1.9,1.6,3.5,3.5,3.5s3.5-1.6,3.5-3.5C36.8,29.8,35.2,28.2,33.3,28.2z"/>
	</g>
</g>
</svg>
