<?xml version="1.0" encoding="utf-8"?>
<!-- Generator: Adobe Illustrator 19.1.0, SVG Export Plug-In . SVG Version: 6.00 Build 0)  -->
<svg version="1.1" id="Layer_1" xmlns="http://www.w3.org/2000/svg" xmlns:xlink="http://www.w3.org/1999/xlink" x="0px" y="0px"
	 viewBox="0 0 66.5 66.5" style="enable-background:new 0 0 66.5 66.5;" xml:space="preserve">
<style type="text/css">
	.st0{fill:none;}
	.st1{fill:#60A9DD;}
</style>
<g>
	<rect x="0" y="0" class="st0" width="66.5" height="66.5"/>
	<g>
		<g>
			<path class="st1" d="M49.4,32.8c0.7,0,1.4,0,2.1,0c1.1,0,2.3,0.6,2.5,1.4c3.3,9.1,6.6,18.1,9.9,27.2c0.5,1.3-0.3,2.6-1.7,2.6
				c-19.4,0-38.8-0.1-58.2-0.1c-1.4,0-2.2-1.3-1.7-2.7c3.2-9,6.5-17.9,9.7-26.9c0.6-0.7,1.5-1.5,2.6-1.5c0.8,0,1.6,0,2.4,0
				c0,0,0.9,0,1-0.5c0.1-0.5-0.6-0.6-0.6-0.6c-0.8,0-1.6,0-2.5,0c-1.8,0-3.9,1.3-4.4,2.6c-3.2,9-6.6,17.9-9.9,26.9
				c-0.9,2.3,0.3,4.6,2.7,4.6c19.8,0,39.6,0,59.4,0c2.4,0,3.6-2.1,2.8-4.4c-3.4-9.1-6.9-18.1-10.2-27.2c-0.4-1.2-2.5-2.3-4.3-2.3
				c-0.8,0-1.5,0-2.3,0c0,0-0.5,0-0.5,0.5S49.4,32.8,49.4,32.8z"/>
		</g>
		<g>
			<path class="st1" d="M31.9,41.3c0-0.1-0.3-0.3-0.6-0.3c-6,0-9,0-15.9,0.1c0.3-0.9,0.4-1.4,0.8-2.5c4.1,0,5.9,0,9.5-0.1
				c0.3,0,0.6-0.1,0.6-0.3c0-0.2-0.2-0.3-0.5-0.3c-3.8,0-5.9,0-10.2,0.1c-0.3,0-0.6,0.2-0.7,0.5c-0.3,1-0.5,1.6-0.8,2.3
				c-0.1,0.4,0.2,0.8,0.6,0.8c7.1,0,10.3,0,16.6,0C31.6,41.5,31.9,41.4,31.9,41.3z"/>
		</g>
		<g>
			<path class="st1" d="M42.3,38.1c0-0.2-0.3-0.3-0.6-0.3c-0.3,0-0.5,0.1-0.5,0.3c0.4,2,0.5,2.7,0.9,4.4c-3.4,0-5,0-8.3,0
				c0-0.1,0-0.1,0-0.3c0-0.2-0.1-0.4-0.6-0.4c-0.4,0-0.6,0.2-0.6,0.4c0,0.1,0,0.1,0,0.2c-3.5,0-5.3,0-8.7,0c-0.4,0-0.7,0.3-0.7,0.6
				c-0.3,1.5-0.5,2.4-0.9,4.9c-3.8,0-5.9,0-9.7-0.1c-0.5,0-1,0.3-1.1,0.8c-0.7,2.2-1.3,4.1-2.7,8.4c-0.2,0.5,0.2,1,0.8,1
				c4.5,0,7.1,0,11.5,0.1c0.6,0,1-0.4,1.1-0.9c0.7-4.3,0.9-5.9,1.3-8.5c3.7,0,5.5,0,9.1,0.1c0,2.6,0,4.3-0.1,8.6
				c0,0.5,0.4,0.9,0.9,0.9c4.7,0,7.4,0,12.1,0.1c0.5,0,0.9-0.5,0.8-1c-0.7-4.2-1.1-5.8-1.6-8.5c4,0,6.1,0,10.1,0.1
				c0.4,0,0.6-0.4,0.5-0.7c-0.9-2.5-1.2-3.6-1.8-5.3c-0.1-0.3-0.5-0.6-0.8-0.6c-3.8,0-5.7,0-9.3,0C42.9,40.9,42.7,40.2,42.3,38.1z
				 M20.7,56.9c-4,0-6.1,0-10.2-0.1c1.2-4.2,1.7-5.6,2.4-8c3.8,0,5.6,0,9.2,0.1C21.7,51.3,21.4,52.7,20.7,56.9z M42.2,43.1
				c0.4,1.7,0.5,2.6,1,5.1c-3.7,0-5.6,0-9.2-0.1c-0.1-2.5-0.1-3.3-0.2-5.1C37.1,43.1,38.7,43.1,42.2,43.1z M23.6,48.1
				c0.4-2.5,0.5-3.3,0.8-5c3.3,0,4.9,0,8.1,0c0,1.7,0,2.5,0,5C29,48.1,27.2,48.1,23.6,48.1z M44.6,57c-4.2,0-6.3,0-10.6-0.1
				c0-4.1-0.1-5.6-0.1-8c3.7,0,5.6,0,9.3,0.1C43.7,51.5,44,53,44.6,57z M52,43.1c0.6,1.8,0.9,2.7,1.7,5.2c-3.8,0-5.6,0-9.2-0.1
				c-0.5-2.5-0.7-3.4-1.1-5.1C46.7,43.1,48.4,43.1,52,43.1z"/>
		</g>
		<g>
			<g>
				<path class="st1" d="M45.3,30c-0.3,0-0.6-0.2-0.8-0.5c-0.2-0.4-0.1-1,0.4-1.2l4.1-2.1l0-3.8c0-0.5,0.4-0.9,0.9-0.9c0,0,0,0,0,0
					c0.5,0,0.9,0.4,0.9,0.9l0,3.9c0,0.6-0.3,1.1-0.8,1.4l-4.2,2.2C45.6,30,45.4,30,45.3,30z"/>
			</g>
			<g>
				<path class="st1" d="M33.3,24.9c-0.5,0-0.9-0.4-0.9-0.9l0-5.7l4.8-2.5c0.4-0.2,1-0.1,1.2,0.4c0.2,0.4,0.1,1-0.4,1.2l-3.8,2
					l0,4.6C34.1,24.5,33.7,24.9,33.3,24.9C33.3,24.9,33.3,24.9,33.3,24.9z"/>
			</g>
			<g>
				<path class="st1" d="M33.4,36.2c-0.2,0-0.4-0.1-0.5-0.1c-0.3-0.2-0.5-0.5-0.5-0.9l0-4.5c0-0.5,0.4-0.9,0.9-0.9c0,0,0,0,0,0
					c0.5,0,0.9,0.4,0.9,0.9l0,3.3l3.6-1.8c0.4-0.2,1-0.1,1.2,0.4c0.2,0.4,0.1,1-0.4,1.2l-4.7,2.4C33.7,36.2,33.5,36.2,33.4,36.2z"/>
			</g>
			<g>
				<path class="st1" d="M33.1,36.2c-0.2,0-0.3,0-0.5-0.1l-4.8-2.5c-0.4-0.2-0.6-0.8-0.4-1.2c0.2-0.4,0.7-0.6,1.2-0.4l3.7,1.9l0-3.3
					c0-0.5,0.4-0.9,0.9-0.9c0,0,0,0,0,0c0.5,0,0.9,0.4,0.9,0.9l0,4.5c0,0.3-0.2,0.7-0.5,0.8C33.5,36.2,33.3,36.2,33.1,36.2z"/>
			</g>
			<g>
				<rect x="16.2" y="21.8" class="st1" width="1" height="5"/>
			</g>
			<g>
				<path class="st1" d="M21.2,30c-0.1,0-0.3,0-0.4-0.1l-3.9-2c-0.7-0.3-1.1-1-1.1-1.8v-4.3c0-0.5,0.4-0.9,0.9-0.9s0.9,0.4,0.9,0.9
					v4.3c0,0.1,0.1,0.2,0.1,0.2l3.9,2c0.4,0.2,0.6,0.8,0.4,1.2C21.8,29.9,21.5,30,21.2,30z"/>
			</g>
			<g>
				<path class="st1" d="M16.7,16.4c-0.5,0-0.9-0.4-0.9-0.9v-4.7c0-0.6,0.4-1.2,0.9-1.5l4.6-2.4c0.4-0.2,1-0.1,1.2,0.4
					c0.2,0.4,0.1,1-0.4,1.2l-4.6,2.4l0,4.7C17.5,16,17.1,16.4,16.7,16.4z"/>
			</g>
			<g>
				<path class="st1" d="M16.7,16.4c-0.5,0-0.9-0.4-0.9-0.9v-4.2c0-0.5,0.3-1,0.7-1.3c0.5-0.3,1-0.3,1.5-0.1l4.2,2.1
					c0.4,0.2,0.6,0.8,0.4,1.2c-0.2,0.4-0.8,0.6-1.2,0.4l-3.8-2v3.8C17.5,16,17.1,16.4,16.7,16.4z"/>
			</g>
			<g>
				<path class="st1" d="M33.3,24.9c-0.5,0-0.9-0.4-0.9-0.9l0-4.6l-4.2-2c-0.4-0.2-0.6-0.7-0.4-1.2c0.2-0.4,0.7-0.6,1.2-0.4l5.2,2.5
					l0,5.7C34.1,24.5,33.7,24.9,33.3,24.9C33.3,24.9,33.3,24.9,33.3,24.9z"/>
			</g>
			<g>
				<path class="st1" d="M49.8,15.9c-0.5,0-0.9-0.4-0.9-0.9l0-4c0-0.2-0.1-0.4-0.3-0.5l-3.8-2c-0.4-0.2-0.6-0.8-0.4-1.2
					c0.2-0.4,0.7-0.6,1.2-0.4l3.8,2c0.8,0.4,1.2,1.2,1.2,2l0,4C50.7,15.6,50.3,15.9,49.8,15.9C49.8,15.9,49.8,15.9,49.8,15.9z"/>
			</g>
			<g>
				<path class="st1" d="M49.9,16c-0.5,0-0.9-0.4-0.9-0.9l0-3.4l-3.6,1.9c-0.4,0.2-1,0.1-1.2-0.4s-0.1-1,0.4-1.2L49,9.7
					c0.4-0.2,0.8-0.2,1.2,0c0.4,0.2,0.6,0.6,0.6,1l0,4.3C50.7,15.6,50.4,15.9,49.9,16C49.9,16,49.9,16,49.9,16z"/>
			</g>
			<g>
				<path class="st1" d="M38.1,5c-0.1,0-0.3,0-0.4-0.1l-4.4-2.3l-4.1,2.1c-0.4,0.2-1,0.1-1.2-0.4c-0.2-0.4-0.1-1,0.4-1.2l4.8-2.5
					l0.2,0.1c0.1,0,0.3,0,0.4,0.1l4.7,2.4c0.4,0.2,0.6,0.7,0.4,1.2C38.7,4.9,38.4,5,38.1,5z M33.2,1.8l-0.5,0.7
					c0.1,0.1,0.3,0.1,0.4,0.1c0,0,0,0,0,0L33,2.5l0.4-0.7H33.2z M33.4,1.8l0.3,0.7c0.2-0.1,0.4-0.4,0.4-0.7H33.4z"/>
			</g>
		</g>
	</g>
</g>
</svg>
